<?xml version="1.0" encoding="UTF-8" standalone="no"?>
<svg xmlns="http://www.w3.org/2000/svg" width="1200" height="108" viewBox="0 0 1200 108">
<rect width="100%" height="100%" fill="rgb(245,245,245)"/>
<text x="10" y="20" font-family="monospace" font-size="15" font-weight="bold">scenarios.olap.o2_category_window.cold</text>
<g><title>execute  1978.041 us  96.3%</title><rect x="10" y="82" width="1135.97" height="16" fill="rgb(234,55,6)" stroke="white" stroke-width="0.5"/><text x="13" y="94" font-family="monospace" font-size="12">execute</text></g>
<g><title>bind_params  0.875 us  0.0%</title><rect x="10" y="66" width="0.5" height="16" fill="rgb(244,230,40)" stroke="white" stroke-width="0.5"/></g>
<g><title>finalize  1.041 us  0.1%</title><rect x="10.5" y="66" width="0.6" height="16" fill="rgb(255,138,47)" stroke="white" stroke-width="0.5"/></g>
<g><title>rule_0  1974.833 us  96.1%</title><rect x="11.1" y="66" width="1134.13" height="16" fill="rgb(216,21,45)" stroke="white" stroke-width="0.5"/><text x="14.1" y="78" font-family="monospace" font-size="12">rule_0</text></g>
<g><title>join  1614.416 us  78.6%</title><rect x="11.1" y="50" width="927.14" height="16" fill="rgb(228,169,7)" stroke="white" stroke-width="0.5"/><text x="14.1" y="62" font-family="monospace" font-size="12">join</text></g>
<g><title>resolve_filters  0.500 us  0.0%</title><rect x="938.25" y="50" width="0.29" height="16" fill="rgb(248,202,38)" stroke="white" stroke-width="0.5"/></g>
<g><title>views  359.083 us  17.5%</title><rect x="938.53" y="50" width="206.22" height="16" fill="rgb(245,221,37)" stroke="white" stroke-width="0.5"/><text x="941.53" y="62" font-family="monospace" font-size="12">views</text></g>
<g><title>view_build  358.707 us  17.5%</title><rect x="938.53" y="34" width="206.0" height="16" fill="rgb(218,176,30)" stroke="white" stroke-width="0.5"/><text x="941.53" y="46" font-family="monospace" font-size="12">view_build</text></g>
<g><title>prepare  76.666 us  3.7%</title><rect x="1145.97" y="82" width="44.03" height="16" fill="rgb(248,101,43)" stroke="white" stroke-width="0.5"/><text x="1148.97" y="94" font-family="monospace" font-size="12">pre..</text></g>
<g><title>build_colts  1.833 us  0.1%</title><rect x="1145.97" y="66" width="1.05" height="16" fill="rgb(229,174,2)" stroke="white" stroke-width="0.5"/></g>
<g><title>lower  10.166 us  0.5%</title><rect x="1147.17" y="66" width="5.84" height="16" fill="rgb(241,3,6)" stroke="white" stroke-width="0.5"/></g>
<g><title>normalize  3.666 us  0.2%</title><rect x="1153.01" y="66" width="2.11" height="16" fill="rgb(226,36,26)" stroke="white" stroke-width="0.5"/></g>
<g><title>normalize_fold  1.083 us  0.1%</title><rect x="1153.01" y="50" width="0.62" height="16" fill="rgb(235,131,43)" stroke="white" stroke-width="0.5"/></g>
<g><title>place_comparisons  0.375 us  0.0%</title><rect x="1153.63" y="50" width="0.22" height="16" fill="rgb(227,42,22)" stroke="white" stroke-width="0.5"/></g>
<g><title>plan_dp  2.791 us  0.1%</title><rect x="1155.11" y="66" width="1.6" height="16" fill="rgb(235,210,27)" stroke="white" stroke-width="0.5"/></g>
<g><title>plan_densify  1.916 us  0.1%</title><rect x="1155.11" y="50" width="1.1" height="16" fill="rgb(222,193,50)" stroke="white" stroke-width="0.5"/></g>
<g><title>stats  15.125 us  0.7%</title><rect x="1156.71" y="66" width="8.69" height="16" fill="rgb(251,25,10)" stroke="white" stroke-width="0.5"/></g>
<g><title>validate  15.958 us  0.8%</title><rect x="1165.4" y="66" width="9.16" height="16" fill="rgb(219,206,45)" stroke="white" stroke-width="0.5"/></g>
<g><title>validate_lower  3.583 us  0.2%</title><rect x="1165.4" y="50" width="2.06" height="16" fill="rgb(216,126,24)" stroke="white" stroke-width="0.5"/></g>
<g><title>validate_rules  10.416 us  0.5%</title><rect x="1167.46" y="50" width="5.98" height="16" fill="rgb(236,159,40)" stroke="white" stroke-width="0.5"/></g>
</svg>
