<?xml version="1.0" encoding="utf-8" standalone="no"?>
<!DOCTYPE svg PUBLIC "-//W3C//DTD SVG 1.1//EN"
  "http://www.w3.org/Graphics/SVG/1.1/DTD/svg11.dtd">
<svg xmlns:xlink="http://www.w3.org/1999/xlink" width="687.888pt" height="478.279469pt" viewBox="0 0 687.888 478.279469" xmlns="http://www.w3.org/2000/svg" version="1.1">
 <metadata>
  <rdf:RDF xmlns:dc="http://purl.org/dc/elements/1.1/" xmlns:cc="http://creativecommons.org/ns#" xmlns:rdf="http://www.w3.org/1999/02/22-rdf-syntax-ns#">
   <cc:Work>
    <dc:type rdf:resource="http://purl.org/dc/dcmitype/StillImage"/>
    <dc:date>2026-07-20T10:47:32.079337</dc:date>
    <dc:format>image/svg+xml</dc:format>
    <dc:creator>
     <cc:Agent>
      <dc:title>Matplotlib v3.9.4, https://matplotlib.org/</dc:title>
     </cc:Agent>
    </dc:creator>
   </cc:Work>
  </rdf:RDF>
 </metadata>
 <defs>
  <style type="text/css">*{stroke-linejoin: round; stroke-linecap: butt}</style>
 </defs>
 <g id="figure_1">
  <g id="patch_1">
   <path d="M 0 478.279469 
L 687.888 478.279469 
L 687.888 0 
L 0 0 
z
" style="fill: #0d1117"/>
  </g>
  <g id="axes_1">
   <g id="patch_2">
    <path d="M 24.118 200.456719 
L 680.688 200.456719 
L 680.688 25.616719 
L 24.118 25.616719 
z
" style="fill: #0d1117"/>
   </g>
   <g id="matplotlib.axis_1">
    <g id="xtick_1">
     <g id="line2d_1">
      <path d="M 24.118 200.456719 
L 24.118 25.616719 
" clip-path="url(#p969a242d0c)" style="fill: none; stroke: #2d333b; stroke-width: 0.6; stroke-linecap: square"/>
     </g>
     <g id="line2d_2">
      <defs>
       <path id="m6c29f6b59f" d="M 0 0 
L 0 3.5 
" style="stroke: #9da7b3; stroke-width: 0.8"/>
      </defs>
      <g>
       <use xlink:href="#m6c29f6b59f" x="24.118" y="200.456719" style="fill: #9da7b3; stroke: #9da7b3; stroke-width: 0.8"/>
      </g>
     </g>
     <g id="text_1">
      <!-- 0 -->
      <g style="fill: #9da7b3" transform="translate(21.254875 214.295312) scale(0.09 -0.09)">
       <defs>
        <path id="DejaVuSans-30" d="M 2034 4250 
Q 1547 4250 1301 3770 
Q 1056 3291 1056 2328 
Q 1056 1369 1301 889 
Q 1547 409 2034 409 
Q 2525 409 2770 889 
Q 3016 1369 3016 2328 
Q 3016 3291 2770 3770 
Q 2525 4250 2034 4250 
z
M 2034 4750 
Q 2819 4750 3233 4129 
Q 3647 3509 3647 2328 
Q 3647 1150 3233 529 
Q 2819 -91 2034 -91 
Q 1250 -91 836 529 
Q 422 1150 422 2328 
Q 422 3509 836 4129 
Q 1250 4750 2034 4750 
z
" transform="scale(0.015625)"/>
       </defs>
       <use xlink:href="#DejaVuSans-30"/>
      </g>
     </g>
    </g>
    <g id="xtick_2">
     <g id="line2d_3">
      <path d="M 111.539919 200.456719 
L 111.539919 25.616719 
" clip-path="url(#p969a242d0c)" style="fill: none; stroke: #2d333b; stroke-width: 0.6; stroke-linecap: square"/>
     </g>
     <g id="line2d_4">
      <g>
       <use xlink:href="#m6c29f6b59f" x="111.539919" y="200.456719" style="fill: #9da7b3; stroke: #9da7b3; stroke-width: 0.8"/>
      </g>
     </g>
     <g id="text_2">
      <!-- 50 -->
      <g style="fill: #9da7b3" transform="translate(105.813669 214.295312) scale(0.09 -0.09)">
       <defs>
        <path id="DejaVuSans-35" d="M 691 4666 
L 3169 4666 
L 3169 4134 
L 1269 4134 
L 1269 2991 
Q 1406 3038 1543 3061 
Q 1681 3084 1819 3084 
Q 2600 3084 3056 2656 
Q 3513 2228 3513 1497 
Q 3513 744 3044 326 
Q 2575 -91 1722 -91 
Q 1428 -91 1123 -41 
Q 819 9 494 109 
L 494 744 
Q 775 591 1075 516 
Q 1375 441 1709 441 
Q 2250 441 2565 725 
Q 2881 1009 2881 1497 
Q 2881 1984 2565 2268 
Q 2250 2553 1709 2553 
Q 1456 2553 1204 2497 
Q 953 2441 691 2322 
L 691 4666 
z
" transform="scale(0.015625)"/>
       </defs>
       <use xlink:href="#DejaVuSans-35"/>
       <use xlink:href="#DejaVuSans-30" x="63.623047"/>
      </g>
     </g>
    </g>
    <g id="xtick_3">
     <g id="line2d_5">
      <path d="M 198.961838 200.456719 
L 198.961838 25.616719 
" clip-path="url(#p969a242d0c)" style="fill: none; stroke: #2d333b; stroke-width: 0.6; stroke-linecap: square"/>
     </g>
     <g id="line2d_6">
      <g>
       <use xlink:href="#m6c29f6b59f" x="198.961838" y="200.456719" style="fill: #9da7b3; stroke: #9da7b3; stroke-width: 0.8"/>
      </g>
     </g>
     <g id="text_3">
      <!-- 100 -->
      <g style="fill: #9da7b3" transform="translate(190.372463 214.295312) scale(0.09 -0.09)">
       <defs>
        <path id="DejaVuSans-31" d="M 794 531 
L 1825 531 
L 1825 4091 
L 703 3866 
L 703 4441 
L 1819 4666 
L 2450 4666 
L 2450 531 
L 3481 531 
L 3481 0 
L 794 0 
L 794 531 
z
" transform="scale(0.015625)"/>
       </defs>
       <use xlink:href="#DejaVuSans-31"/>
       <use xlink:href="#DejaVuSans-30" x="63.623047"/>
       <use xlink:href="#DejaVuSans-30" x="127.246094"/>
      </g>
     </g>
    </g>
    <g id="xtick_4">
     <g id="line2d_7">
      <path d="M 286.383757 200.456719 
L 286.383757 25.616719 
" clip-path="url(#p969a242d0c)" style="fill: none; stroke: #2d333b; stroke-width: 0.6; stroke-linecap: square"/>
     </g>
     <g id="line2d_8">
      <g>
       <use xlink:href="#m6c29f6b59f" x="286.383757" y="200.456719" style="fill: #9da7b3; stroke: #9da7b3; stroke-width: 0.8"/>
      </g>
     </g>
     <g id="text_4">
      <!-- 150 -->
      <g style="fill: #9da7b3" transform="translate(277.794382 214.295312) scale(0.09 -0.09)">
       <use xlink:href="#DejaVuSans-31"/>
       <use xlink:href="#DejaVuSans-35" x="63.623047"/>
       <use xlink:href="#DejaVuSans-30" x="127.246094"/>
      </g>
     </g>
    </g>
    <g id="xtick_5">
     <g id="line2d_9">
      <path d="M 373.805676 200.456719 
L 373.805676 25.616719 
" clip-path="url(#p969a242d0c)" style="fill: none; stroke: #2d333b; stroke-width: 0.6; stroke-linecap: square"/>
     </g>
     <g id="line2d_10">
      <g>
       <use xlink:href="#m6c29f6b59f" x="373.805676" y="200.456719" style="fill: #9da7b3; stroke: #9da7b3; stroke-width: 0.8"/>
      </g>
     </g>
     <g id="text_5">
      <!-- 200 -->
      <g style="fill: #9da7b3" transform="translate(365.216301 214.295312) scale(0.09 -0.09)">
       <defs>
        <path id="DejaVuSans-32" d="M 1228 531 
L 3431 531 
L 3431 0 
L 469 0 
L 469 531 
Q 828 903 1448 1529 
Q 2069 2156 2228 2338 
Q 2531 2678 2651 2914 
Q 2772 3150 2772 3378 
Q 2772 3750 2511 3984 
Q 2250 4219 1831 4219 
Q 1534 4219 1204 4116 
Q 875 4013 500 3803 
L 500 4441 
Q 881 4594 1212 4672 
Q 1544 4750 1819 4750 
Q 2544 4750 2975 4387 
Q 3406 4025 3406 3419 
Q 3406 3131 3298 2873 
Q 3191 2616 2906 2266 
Q 2828 2175 2409 1742 
Q 1991 1309 1228 531 
z
" transform="scale(0.015625)"/>
       </defs>
       <use xlink:href="#DejaVuSans-32"/>
       <use xlink:href="#DejaVuSans-30" x="63.623047"/>
       <use xlink:href="#DejaVuSans-30" x="127.246094"/>
      </g>
     </g>
    </g>
    <g id="xtick_6">
     <g id="line2d_11">
      <path d="M 461.227595 200.456719 
L 461.227595 25.616719 
" clip-path="url(#p969a242d0c)" style="fill: none; stroke: #2d333b; stroke-width: 0.6; stroke-linecap: square"/>
     </g>
     <g id="line2d_12">
      <g>
       <use xlink:href="#m6c29f6b59f" x="461.227595" y="200.456719" style="fill: #9da7b3; stroke: #9da7b3; stroke-width: 0.8"/>
      </g>
     </g>
     <g id="text_6">
      <!-- 250 -->
      <g style="fill: #9da7b3" transform="translate(452.63822 214.295312) scale(0.09 -0.09)">
       <use xlink:href="#DejaVuSans-32"/>
       <use xlink:href="#DejaVuSans-35" x="63.623047"/>
       <use xlink:href="#DejaVuSans-30" x="127.246094"/>
      </g>
     </g>
    </g>
    <g id="xtick_7">
     <g id="line2d_13">
      <path d="M 548.649514 200.456719 
L 548.649514 25.616719 
" clip-path="url(#p969a242d0c)" style="fill: none; stroke: #2d333b; stroke-width: 0.6; stroke-linecap: square"/>
     </g>
     <g id="line2d_14">
      <g>
       <use xlink:href="#m6c29f6b59f" x="548.649514" y="200.456719" style="fill: #9da7b3; stroke: #9da7b3; stroke-width: 0.8"/>
      </g>
     </g>
     <g id="text_7">
      <!-- 300 -->
      <g style="fill: #9da7b3" transform="translate(540.060139 214.295312) scale(0.09 -0.09)">
       <defs>
        <path id="DejaVuSans-33" d="M 2597 2516 
Q 3050 2419 3304 2112 
Q 3559 1806 3559 1356 
Q 3559 666 3084 287 
Q 2609 -91 1734 -91 
Q 1441 -91 1130 -33 
Q 819 25 488 141 
L 488 750 
Q 750 597 1062 519 
Q 1375 441 1716 441 
Q 2309 441 2620 675 
Q 2931 909 2931 1356 
Q 2931 1769 2642 2001 
Q 2353 2234 1838 2234 
L 1294 2234 
L 1294 2753 
L 1863 2753 
Q 2328 2753 2575 2939 
Q 2822 3125 2822 3475 
Q 2822 3834 2567 4026 
Q 2313 4219 1838 4219 
Q 1578 4219 1281 4162 
Q 984 4106 628 3988 
L 628 4550 
Q 988 4650 1302 4700 
Q 1616 4750 1894 4750 
Q 2613 4750 3031 4423 
Q 3450 4097 3450 3541 
Q 3450 3153 3228 2886 
Q 3006 2619 2597 2516 
z
" transform="scale(0.015625)"/>
       </defs>
       <use xlink:href="#DejaVuSans-33"/>
       <use xlink:href="#DejaVuSans-30" x="63.623047"/>
       <use xlink:href="#DejaVuSans-30" x="127.246094"/>
      </g>
     </g>
    </g>
    <g id="xtick_8">
     <g id="line2d_15">
      <path d="M 636.071433 200.456719 
L 636.071433 25.616719 
" clip-path="url(#p969a242d0c)" style="fill: none; stroke: #2d333b; stroke-width: 0.6; stroke-linecap: square"/>
     </g>
     <g id="line2d_16">
      <g>
       <use xlink:href="#m6c29f6b59f" x="636.071433" y="200.456719" style="fill: #9da7b3; stroke: #9da7b3; stroke-width: 0.8"/>
      </g>
     </g>
     <g id="text_8">
      <!-- 350 -->
      <g style="fill: #9da7b3" transform="translate(627.482058 214.295312) scale(0.09 -0.09)">
       <use xlink:href="#DejaVuSans-33"/>
       <use xlink:href="#DejaVuSans-35" x="63.623047"/>
       <use xlink:href="#DejaVuSans-30" x="127.246094"/>
      </g>
     </g>
    </g>
    <g id="text_9">
     <!-- bytes per fact -->
     <g style="fill: #9da7b3" transform="translate(314.475031 227.053437) scale(0.09 -0.09)">
      <defs>
       <path id="DejaVuSansMono-62" d="M 2869 1747 
Q 2869 2416 2656 2756 
Q 2444 3097 2028 3097 
Q 1609 3097 1393 2755 
Q 1178 2413 1178 1747 
Q 1178 1084 1393 740 
Q 1609 397 2028 397 
Q 2444 397 2656 737 
Q 2869 1078 2869 1747 
z
M 1178 3053 
Q 1316 3309 1558 3446 
Q 1800 3584 2119 3584 
Q 2750 3584 3112 3098 
Q 3475 2613 3475 1759 
Q 3475 894 3111 401 
Q 2747 -91 2113 -91 
Q 1800 -91 1561 45 
Q 1322 181 1178 441 
L 1178 0 
L 603 0 
L 603 4863 
L 1178 4863 
L 1178 3053 
z
" transform="scale(0.015625)"/>
       <path id="DejaVuSansMono-79" d="M 2681 1125 
Q 2538 759 2316 163 
Q 2006 -663 1900 -844 
Q 1756 -1088 1540 -1209 
Q 1325 -1331 1038 -1331 
L 575 -1331 
L 575 -850 
L 916 -850 
Q 1169 -850 1312 -703 
Q 1456 -556 1678 56 
L 325 3500 
L 934 3500 
L 1972 763 
L 2994 3500 
L 3603 3500 
L 2681 1125 
z
" transform="scale(0.015625)"/>
       <path id="DejaVuSansMono-74" d="M 1919 4494 
L 1919 3500 
L 3225 3500 
L 3225 3053 
L 1919 3053 
L 1919 1153 
Q 1919 766 2066 612 
Q 2213 459 2578 459 
L 3225 459 
L 3225 0 
L 2522 0 
Q 1875 0 1609 259 
Q 1344 519 1344 1153 
L 1344 3053 
L 409 3053 
L 409 3500 
L 1344 3500 
L 1344 4494 
L 1919 4494 
z
" transform="scale(0.015625)"/>
       <path id="DejaVuSansMono-65" d="M 3475 1894 
L 3475 1613 
L 984 1613 
L 984 1594 
Q 984 1022 1282 709 
Q 1581 397 2125 397 
Q 2400 397 2700 484 
Q 3000 572 3341 750 
L 3341 178 
Q 3013 44 2708 -23 
Q 2403 -91 2119 -91 
Q 1303 -91 843 398 
Q 384 888 384 1747 
Q 384 2584 834 3084 
Q 1284 3584 2034 3584 
Q 2703 3584 3089 3131 
Q 3475 2678 3475 1894 
z
M 2900 2063 
Q 2888 2569 2661 2833 
Q 2434 3097 2009 3097 
Q 1594 3097 1325 2822 
Q 1056 2547 1006 2059 
L 2900 2063 
z
" transform="scale(0.015625)"/>
       <path id="DejaVuSansMono-73" d="M 3041 3378 
L 3041 2816 
Q 2794 2959 2544 3031 
Q 2294 3103 2034 3103 
Q 1644 3103 1451 2976 
Q 1259 2850 1259 2591 
Q 1259 2356 1403 2240 
Q 1547 2125 2119 2016 
L 2350 1972 
Q 2778 1891 2998 1647 
Q 3219 1403 3219 1013 
Q 3219 494 2850 201 
Q 2481 -91 1825 -91 
Q 1566 -91 1281 -36 
Q 997 19 666 128 
L 666 722 
Q 988 556 1281 473 
Q 1575 391 1838 391 
Q 2219 391 2428 545 
Q 2638 700 2638 978 
Q 2638 1378 1872 1531 
L 1847 1538 
L 1631 1581 
Q 1134 1678 906 1908 
Q 678 2138 678 2534 
Q 678 3038 1018 3311 
Q 1359 3584 1991 3584 
Q 2272 3584 2531 3532 
Q 2791 3481 3041 3378 
z
" transform="scale(0.015625)"/>
       <path id="DejaVuSansMono-20" transform="scale(0.015625)"/>
       <path id="DejaVuSansMono-70" d="M 1172 441 
L 1172 -1331 
L 594 -1331 
L 594 3500 
L 1172 3500 
L 1172 3053 
Q 1316 3313 1555 3448 
Q 1794 3584 2106 3584 
Q 2741 3584 3102 3093 
Q 3463 2603 3463 1734 
Q 3463 881 3100 395 
Q 2738 -91 2106 -91 
Q 1788 -91 1548 45 
Q 1309 181 1172 441 
z
M 2859 1747 
Q 2859 2416 2648 2756 
Q 2438 3097 2022 3097 
Q 1603 3097 1387 2755 
Q 1172 2413 1172 1747 
Q 1172 1084 1387 740 
Q 1603 397 2022 397 
Q 2438 397 2648 737 
Q 2859 1078 2859 1747 
z
" transform="scale(0.015625)"/>
       <path id="DejaVuSansMono-72" d="M 3609 2778 
Q 3425 2922 3234 2987 
Q 3044 3053 2816 3053 
Q 2278 3053 1993 2715 
Q 1709 2378 1709 1741 
L 1709 0 
L 1131 0 
L 1131 3500 
L 1709 3500 
L 1709 2816 
Q 1853 3188 2151 3386 
Q 2450 3584 2859 3584 
Q 3072 3584 3256 3531 
Q 3441 3478 3609 3366 
L 3609 2778 
z
" transform="scale(0.015625)"/>
       <path id="DejaVuSansMono-66" d="M 3322 4863 
L 3322 4384 
L 2669 4384 
Q 2359 4384 2239 4257 
Q 2119 4131 2119 3809 
L 2119 3500 
L 3322 3500 
L 3322 3053 
L 2119 3053 
L 2119 0 
L 1544 0 
L 1544 3053 
L 609 3053 
L 609 3500 
L 1544 3500 
L 1544 3744 
Q 1544 4319 1808 4591 
Q 2072 4863 2631 4863 
L 3322 4863 
z
" transform="scale(0.015625)"/>
       <path id="DejaVuSansMono-61" d="M 2194 1759 
L 2003 1759 
Q 1500 1759 1245 1582 
Q 991 1406 991 1056 
Q 991 741 1181 566 
Q 1372 391 1709 391 
Q 2184 391 2456 720 
Q 2728 1050 2731 1631 
L 2731 1759 
L 2194 1759 
z
M 3309 1997 
L 3309 0 
L 2731 0 
L 2731 519 
Q 2547 206 2267 57 
Q 1988 -91 1588 -91 
Q 1053 -91 734 211 
Q 416 513 416 1019 
Q 416 1603 808 1906 
Q 1200 2209 1959 2209 
L 2731 2209 
L 2731 2300 
Q 2728 2719 2518 2908 
Q 2309 3097 1850 3097 
Q 1556 3097 1256 3012 
Q 956 2928 672 2766 
L 672 3341 
Q 991 3463 1283 3523 
Q 1575 3584 1850 3584 
Q 2284 3584 2592 3456 
Q 2900 3328 3091 3072 
Q 3209 2916 3259 2686 
Q 3309 2456 3309 1997 
z
" transform="scale(0.015625)"/>
       <path id="DejaVuSansMono-63" d="M 3316 178 
Q 3084 44 2839 -23 
Q 2594 -91 2338 -91 
Q 1525 -91 1067 396 
Q 609 884 609 1747 
Q 609 2609 1067 3096 
Q 1525 3584 2338 3584 
Q 2591 3584 2831 3518 
Q 3072 3453 3316 3316 
L 3316 2713 
Q 3088 2916 2858 3006 
Q 2628 3097 2338 3097 
Q 1797 3097 1506 2747 
Q 1216 2397 1216 1747 
Q 1216 1100 1508 748 
Q 1800 397 2338 397 
Q 2638 397 2875 489 
Q 3113 581 3316 775 
L 3316 178 
z
" transform="scale(0.015625)"/>
      </defs>
      <use xlink:href="#DejaVuSansMono-62"/>
      <use xlink:href="#DejaVuSansMono-79" x="60.205078"/>
      <use xlink:href="#DejaVuSansMono-74" x="120.410156"/>
      <use xlink:href="#DejaVuSansMono-65" x="180.615234"/>
      <use xlink:href="#DejaVuSansMono-73" x="240.820312"/>
      <use xlink:href="#DejaVuSansMono-20" x="301.025391"/>
      <use xlink:href="#DejaVuSansMono-70" x="361.230469"/>
      <use xlink:href="#DejaVuSansMono-65" x="421.435547"/>
      <use xlink:href="#DejaVuSansMono-72" x="481.640625"/>
      <use xlink:href="#DejaVuSansMono-20" x="541.845703"/>
      <use xlink:href="#DejaVuSansMono-66" x="602.050781"/>
      <use xlink:href="#DejaVuSansMono-61" x="662.255859"/>
      <use xlink:href="#DejaVuSansMono-63" x="722.460938"/>
      <use xlink:href="#DejaVuSansMono-74" x="782.666016"/>
     </g>
    </g>
   </g>
   <g id="matplotlib.axis_2">
    <g id="ytick_1">
     <g id="line2d_17">
      <defs>
       <path id="m7f07793de9" d="M 0 0 
L -3.5 0 
" style="stroke: #9da7b3; stroke-width: 0.8"/>
      </defs>
      <g>
       <use xlink:href="#m7f07793de9" x="24.118" y="113.036719" style="fill: #9da7b3; stroke: #9da7b3; stroke-width: 0.8"/>
      </g>
     </g>
     <g id="text_10">
      <!-- S -->
      <g style="fill: #e6edf3" transform="translate(11.097688 116.8625) scale(0.1 -0.1)">
       <defs>
        <path id="DejaVuSansMono-53" d="M 3163 4506 
L 3163 3866 
Q 2875 4050 2586 4144 
Q 2297 4238 2003 4238 
Q 1556 4238 1297 4030 
Q 1038 3822 1038 3469 
Q 1038 3159 1208 2996 
Q 1378 2834 1844 2725 
L 2175 2650 
Q 2831 2497 3131 2169 
Q 3431 1841 3431 1275 
Q 3431 609 3018 259 
Q 2606 -91 1819 -91 
Q 1491 -91 1159 -20 
Q 828 50 494 191 
L 494 863 
Q 853 634 1173 528 
Q 1494 422 1819 422 
Q 2297 422 2562 636 
Q 2828 850 2828 1234 
Q 2828 1584 2645 1768 
Q 2463 1953 2009 2053 
L 1672 2131 
Q 1022 2278 728 2575 
Q 434 2872 434 3372 
Q 434 3997 854 4373 
Q 1275 4750 1972 4750 
Q 2241 4750 2537 4689 
Q 2834 4628 3163 4506 
z
" transform="scale(0.015625)"/>
       </defs>
       <use xlink:href="#DejaVuSansMono-53"/>
      </g>
     </g>
    </g>
   </g>
   <g id="patch_3">
    <path d="M 24.118 200.456719 
L 24.118 25.616719 
" style="fill: none; stroke: #2d333b; stroke-width: 0.8; stroke-linejoin: miter; stroke-linecap: square"/>
   </g>
   <g id="patch_4">
    <path d="M 680.688 200.456719 
L 680.688 25.616719 
" style="fill: none; stroke: #2d333b; stroke-width: 0.8; stroke-linejoin: miter; stroke-linecap: square"/>
   </g>
   <g id="patch_5">
    <path d="M 24.118 200.456719 
L 680.688 200.456719 
" style="fill: none; stroke: #2d333b; stroke-width: 0.8; stroke-linejoin: miter; stroke-linecap: square"/>
   </g>
   <g id="patch_6">
    <path d="M 24.118 25.616719 
L 680.688 25.616719 
" style="fill: none; stroke: #2d333b; stroke-width: 0.8; stroke-linejoin: miter; stroke-linecap: square"/>
   </g>
   <g id="patch_7">
    <path d="M 24.118 33.563991 
L 562.290131 33.563991 
L 562.290131 80.818046 
L 24.118 80.818046 
z
" clip-path="url(#p969a242d0c)" style="fill: #f0b429"/>
   </g>
   <g id="text_11">
    <!-- 74.3MiB -->
    <g style="fill: #f0b429" transform="translate(570.362713 59.398519) scale(0.08 -0.08)">
     <defs>
      <path id="DejaVuSansMono-Bold-37" d="M 422 4666 
L 3372 4666 
L 3372 4013 
L 1791 0 
L 850 0 
L 2369 3853 
L 422 3853 
L 422 4666 
z
" transform="scale(0.015625)"/>
      <path id="DejaVuSansMono-Bold-34" d="M 2169 3641 
L 991 1797 
L 2169 1797 
L 2169 3641 
z
M 2088 4666 
L 3053 4666 
L 3053 1797 
L 3566 1797 
L 3566 1006 
L 3053 1006 
L 3053 0 
L 2169 0 
L 2169 1006 
L 319 1006 
L 319 1900 
L 2088 4666 
z
" transform="scale(0.015625)"/>
      <path id="DejaVuSansMono-Bold-2e" d="M 1403 1147 
L 2444 1147 
L 2444 0 
L 1403 0 
L 1403 1147 
z
" transform="scale(0.015625)"/>
      <path id="DejaVuSansMono-Bold-33" d="M 1716 2088 
L 1222 2088 
L 1222 2900 
L 1716 2900 
Q 2059 2900 2248 3036 
Q 2438 3172 2438 3419 
Q 2438 3678 2248 3823 
Q 2059 3969 1716 3969 
Q 1453 3969 1153 3903 
Q 853 3838 531 3713 
L 531 4550 
Q 853 4647 1165 4698 
Q 1478 4750 1766 4750 
Q 2503 4750 2915 4428 
Q 3328 4106 3328 3541 
Q 3328 3125 3090 2861 
Q 2853 2597 2413 2516 
Q 2913 2428 3175 2117 
Q 3438 1806 3438 1300 
Q 3438 622 3003 265 
Q 2569 -91 1741 -91 
Q 1388 -91 1045 -31 
Q 703 28 391 141 
L 391 997 
Q 684 850 1025 773 
Q 1366 697 1741 697 
Q 2116 697 2334 870 
Q 2553 1044 2553 1338 
Q 2553 1697 2334 1892 
Q 2116 2088 1716 2088 
z
" transform="scale(0.015625)"/>
      <path id="DejaVuSansMono-Bold-4d" d="M 269 4666 
L 1369 4666 
L 1925 2619 
L 2478 4666 
L 3584 4666 
L 3584 0 
L 2791 0 
L 2791 3738 
L 2297 1697 
L 1563 1697 
L 1063 3738 
L 1063 0 
L 269 0 
L 269 4666 
z
" transform="scale(0.015625)"/>
      <path id="DejaVuSansMono-Bold-69" d="M 691 3500 
L 2503 3500 
L 2503 703 
L 3641 703 
L 3641 0 
L 447 0 
L 447 703 
L 1588 703 
L 1588 2797 
L 691 2797 
L 691 3500 
z
M 1588 5203 
L 2503 5203 
L 2503 4134 
L 1588 4134 
L 1588 5203 
z
" transform="scale(0.015625)"/>
      <path id="DejaVuSansMono-Bold-42" d="M 1281 2119 
L 1281 738 
L 1894 738 
Q 2334 738 2511 888 
Q 2688 1038 2688 1409 
Q 2688 1788 2503 1953 
Q 2319 2119 1894 2119 
L 1281 2119 
z
M 1281 3938 
L 1281 2853 
L 1894 2853 
Q 2244 2853 2392 2978 
Q 2541 3103 2541 3391 
Q 2541 3678 2389 3808 
Q 2238 3938 1894 3938 
L 1281 3938 
z
M 391 4672 
L 1894 4672 
Q 2672 4672 3064 4376 
Q 3456 4081 3456 3494 
Q 3456 3044 3225 2791 
Q 2994 2538 2547 2497 
Q 3081 2444 3351 2137 
Q 3622 1831 3622 1281 
Q 3622 606 3215 303 
Q 2809 0 1894 0 
L 391 0 
L 391 4672 
z
" transform="scale(0.015625)"/>
     </defs>
     <use xlink:href="#DejaVuSansMono-Bold-37"/>
     <use xlink:href="#DejaVuSansMono-Bold-34" x="60.205078"/>
     <use xlink:href="#DejaVuSansMono-Bold-2e" x="120.410156"/>
     <use xlink:href="#DejaVuSansMono-Bold-33" x="180.615234"/>
     <use xlink:href="#DejaVuSansMono-Bold-4d" x="240.820312"/>
     <use xlink:href="#DejaVuSansMono-Bold-69" x="301.025391"/>
     <use xlink:href="#DejaVuSansMono-Bold-42" x="361.230469"/>
    </g>
   </g>
   <g id="patch_8">
    <path d="M 24.118 89.409692 
L 151.591747 89.409692 
L 151.591747 136.663746 
L 24.118 136.663746 
z
" clip-path="url(#p969a242d0c)" style="fill: #8b949e"/>
   </g>
   <g id="text_12">
    <!-- 17.6MiB -->
    <g style="fill: #9da7b3" transform="translate(159.664329 115.265469) scale(0.08 -0.08)">
     <defs>
      <path id="DejaVuSansMono-31" d="M 844 531 
L 1825 531 
L 1825 4097 
L 769 3859 
L 769 4434 
L 1819 4666 
L 2450 4666 
L 2450 531 
L 3419 531 
L 3419 0 
L 844 0 
L 844 531 
z
" transform="scale(0.015625)"/>
      <path id="DejaVuSansMono-37" d="M 434 4666 
L 3372 4666 
L 3372 4397 
L 1703 0 
L 1044 0 
L 2669 4134 
L 434 4134 
L 434 4666 
z
" transform="scale(0.015625)"/>
      <path id="DejaVuSansMono-2e" d="M 1528 953 
L 2316 953 
L 2316 0 
L 1528 0 
L 1528 953 
z
" transform="scale(0.015625)"/>
      <path id="DejaVuSansMono-36" d="M 3097 4563 
L 3097 3981 
Q 2900 4097 2678 4158 
Q 2456 4219 2216 4219 
Q 1616 4219 1306 3767 
Q 997 3316 997 2438 
Q 1147 2750 1412 2917 
Q 1678 3084 2022 3084 
Q 2697 3084 3067 2670 
Q 3438 2256 3438 1497 
Q 3438 741 3056 325 
Q 2675 -91 1984 -91 
Q 1172 -91 794 492 
Q 416 1075 416 2328 
Q 416 3509 870 4129 
Q 1325 4750 2188 4750 
Q 2419 4750 2650 4701 
Q 2881 4653 3097 4563 
z
M 1972 2591 
Q 1569 2591 1337 2300 
Q 1106 2009 1106 1497 
Q 1106 984 1337 693 
Q 1569 403 1972 403 
Q 2391 403 2603 679 
Q 2816 956 2816 1497 
Q 2816 2041 2603 2316 
Q 2391 2591 1972 2591 
z
" transform="scale(0.015625)"/>
      <path id="DejaVuSansMono-4d" d="M 269 4666 
L 1113 4666 
L 1919 2291 
L 2731 4666 
L 3578 4666 
L 3578 0 
L 2994 0 
L 2994 4122 
L 2163 1663 
L 1684 1663 
L 850 4122 
L 850 0 
L 269 0 
L 269 4666 
z
" transform="scale(0.015625)"/>
      <path id="DejaVuSansMono-69" d="M 800 3500 
L 2272 3500 
L 2272 447 
L 3413 447 
L 3413 0 
L 556 0 
L 556 447 
L 1697 447 
L 1697 3053 
L 800 3053 
L 800 3500 
z
M 1697 4863 
L 2272 4863 
L 2272 4134 
L 1697 4134 
L 1697 4863 
z
" transform="scale(0.015625)"/>
      <path id="DejaVuSansMono-42" d="M 1153 2228 
L 1153 519 
L 1900 519 
Q 2450 519 2684 711 
Q 2919 903 2919 1344 
Q 2919 1800 2672 2014 
Q 2425 2228 1900 2228 
L 1153 2228 
z
M 1153 4147 
L 1153 2741 
L 1888 2741 
Q 2344 2741 2548 2916 
Q 2753 3091 2753 3481 
Q 2753 3834 2551 3990 
Q 2350 4147 1888 4147 
L 1153 4147 
z
M 519 4666 
L 1900 4666 
Q 2616 4666 3003 4356 
Q 3391 4047 3391 3481 
Q 3391 3053 3186 2806 
Q 2981 2559 2572 2497 
Q 3031 2428 3292 2104 
Q 3553 1781 3553 1281 
Q 3553 647 3137 323 
Q 2722 0 1900 0 
L 519 0 
L 519 4666 
z
" transform="scale(0.015625)"/>
     </defs>
     <use xlink:href="#DejaVuSansMono-31"/>
     <use xlink:href="#DejaVuSansMono-37" x="60.205078"/>
     <use xlink:href="#DejaVuSansMono-2e" x="120.410156"/>
     <use xlink:href="#DejaVuSansMono-36" x="180.615234"/>
     <use xlink:href="#DejaVuSansMono-4d" x="240.820312"/>
     <use xlink:href="#DejaVuSansMono-69" x="301.025391"/>
     <use xlink:href="#DejaVuSansMono-42" x="361.230469"/>
    </g>
   </g>
   <g id="patch_9">
    <path d="M 24.118 145.255392 
L 59.52108 145.255392 
L 59.52108 192.509446 
L 24.118 192.509446 
z
" clip-path="url(#p969a242d0c)" style="fill: url(#hfac67c1c7b); opacity: 0.55"/>
   </g>
   <g id="text_13">
    <!-- 4.9MiB -->
    <g style="fill: #9da7b3" transform="translate(67.593662 171.111169) scale(0.08 -0.08)">
     <defs>
      <path id="DejaVuSansMono-34" d="M 2297 4091 
L 825 1625 
L 2297 1625 
L 2297 4091 
z
M 2194 4666 
L 2925 4666 
L 2925 1625 
L 3547 1625 
L 3547 1113 
L 2925 1113 
L 2925 0 
L 2297 0 
L 2297 1113 
L 319 1113 
L 319 1709 
L 2194 4666 
z
" transform="scale(0.015625)"/>
      <path id="DejaVuSansMono-39" d="M 1863 2069 
Q 2266 2069 2495 2359 
Q 2725 2650 2725 3163 
Q 2725 3675 2495 3965 
Q 2266 4256 1863 4256 
Q 1444 4256 1231 3979 
Q 1019 3703 1019 3163 
Q 1019 2619 1230 2344 
Q 1441 2069 1863 2069 
z
M 738 97 
L 738 678 
Q 934 563 1156 502 
Q 1378 441 1619 441 
Q 2219 441 2526 892 
Q 2834 1344 2834 2222 
Q 2688 1909 2422 1742 
Q 2156 1575 1813 1575 
Q 1138 1575 767 1990 
Q 397 2406 397 3169 
Q 397 3922 776 4336 
Q 1156 4750 1850 4750 
Q 2663 4750 3041 4165 
Q 3419 3581 3419 2328 
Q 3419 1150 2964 529 
Q 2509 -91 1644 -91 
Q 1416 -91 1184 -42 
Q 953 6 738 97 
z
" transform="scale(0.015625)"/>
     </defs>
     <use xlink:href="#DejaVuSansMono-34"/>
     <use xlink:href="#DejaVuSansMono-2e" x="60.205078"/>
     <use xlink:href="#DejaVuSansMono-39" x="120.410156"/>
     <use xlink:href="#DejaVuSansMono-4d" x="180.615234"/>
     <use xlink:href="#DejaVuSansMono-69" x="240.820312"/>
     <use xlink:href="#DejaVuSansMono-42" x="301.025391"/>
    </g>
   </g>
   <g id="text_14">
    <!-- ledger · bytes per fact per scale · absolute store bytes annotated -->
    <g transform="translate(24.118 15.616719) scale(0.11 -0.11)">
     <defs>
      <path id="DejaVuSansMono-6c" d="M 1997 1269 
Q 1997 881 2139 684 
Q 2281 488 2559 488 
L 3231 488 
L 3231 0 
L 2503 0 
Q 1988 0 1705 331 
Q 1422 663 1422 1269 
L 1422 4447 
L 500 4447 
L 500 4897 
L 1997 4897 
L 1997 1269 
z
" transform="scale(0.015625)"/>
      <path id="DejaVuSansMono-64" d="M 2681 3053 
L 2681 4863 
L 3256 4863 
L 3256 0 
L 2681 0 
L 2681 441 
Q 2538 181 2298 45 
Q 2059 -91 1747 -91 
Q 1113 -91 748 401 
Q 384 894 384 1759 
Q 384 2613 750 3098 
Q 1116 3584 1747 3584 
Q 2063 3584 2303 3448 
Q 2544 3313 2681 3053 
z
M 991 1747 
Q 991 1078 1203 737 
Q 1416 397 1831 397 
Q 2247 397 2464 740 
Q 2681 1084 2681 1747 
Q 2681 2413 2464 2755 
Q 2247 3097 1831 3097 
Q 1416 3097 1203 2756 
Q 991 2416 991 1747 
z
" transform="scale(0.015625)"/>
      <path id="DejaVuSansMono-67" d="M 2681 1778 
Q 2681 2425 2470 2761 
Q 2259 3097 1856 3097 
Q 1434 3097 1212 2761 
Q 991 2425 991 1778 
Q 991 1131 1214 792 
Q 1438 453 1863 453 
Q 2259 453 2470 793 
Q 2681 1134 2681 1778 
z
M 3256 225 
Q 3256 -563 2884 -969 
Q 2513 -1375 1791 -1375 
Q 1553 -1375 1293 -1331 
Q 1034 -1288 775 -1203 
L 775 -634 
Q 1081 -778 1331 -847 
Q 1581 -916 1791 -916 
Q 2256 -916 2468 -662 
Q 2681 -409 2681 141 
L 2681 166 
L 2681 556 
Q 2544 263 2306 119 
Q 2069 -25 1728 -25 
Q 1116 -25 750 465 
Q 384 956 384 1778 
Q 384 2603 750 3093 
Q 1116 3584 1728 3584 
Q 2066 3584 2300 3450 
Q 2534 3316 2681 3034 
L 2681 3488 
L 3256 3488 
L 3256 225 
z
" transform="scale(0.015625)"/>
      <path id="DejaVuSansMono-b7" d="M 1528 2700 
L 2316 2700 
L 2316 1747 
L 1528 1747 
L 1528 2700 
z
" transform="scale(0.015625)"/>
      <path id="DejaVuSansMono-6f" d="M 1925 3097 
Q 1488 3097 1263 2756 
Q 1038 2416 1038 1747 
Q 1038 1081 1263 739 
Q 1488 397 1925 397 
Q 2366 397 2591 739 
Q 2816 1081 2816 1747 
Q 2816 2416 2591 2756 
Q 2366 3097 1925 3097 
z
M 1925 3584 
Q 2653 3584 3039 3112 
Q 3425 2641 3425 1747 
Q 3425 850 3040 379 
Q 2656 -91 1925 -91 
Q 1197 -91 812 379 
Q 428 850 428 1747 
Q 428 2641 812 3112 
Q 1197 3584 1925 3584 
z
" transform="scale(0.015625)"/>
      <path id="DejaVuSansMono-75" d="M 609 1325 
L 609 3494 
L 1184 3494 
L 1184 1325 
Q 1184 853 1351 631 
Q 1519 409 1869 409 
Q 2275 409 2490 695 
Q 2706 981 2706 1516 
L 2706 3494 
L 3284 3494 
L 3284 0 
L 2706 0 
L 2706 525 
Q 2553 222 2289 65 
Q 2025 -91 1672 -91 
Q 1134 -91 871 261 
Q 609 613 609 1325 
z
" transform="scale(0.015625)"/>
      <path id="DejaVuSansMono-6e" d="M 3284 2169 
L 3284 0 
L 2706 0 
L 2706 2169 
Q 2706 2641 2540 2862 
Q 2375 3084 2022 3084 
Q 1619 3084 1401 2798 
Q 1184 2513 1184 1978 
L 1184 0 
L 609 0 
L 609 3500 
L 1184 3500 
L 1184 2975 
Q 1338 3275 1600 3429 
Q 1863 3584 2222 3584 
Q 2756 3584 3020 3232 
Q 3284 2881 3284 2169 
z
" transform="scale(0.015625)"/>
     </defs>
     <use xlink:href="#DejaVuSansMono-6c"/>
     <use xlink:href="#DejaVuSansMono-65" x="60.205078"/>
     <use xlink:href="#DejaVuSansMono-64" x="120.410156"/>
     <use xlink:href="#DejaVuSansMono-67" x="180.615234"/>
     <use xlink:href="#DejaVuSansMono-65" x="240.820312"/>
     <use xlink:href="#DejaVuSansMono-72" x="301.025391"/>
     <use xlink:href="#DejaVuSansMono-20" x="361.230469"/>
     <use xlink:href="#DejaVuSansMono-b7" x="421.435547"/>
     <use xlink:href="#DejaVuSansMono-20" x="481.640625"/>
     <use xlink:href="#DejaVuSansMono-62" x="541.845703"/>
     <use xlink:href="#DejaVuSansMono-79" x="602.050781"/>
     <use xlink:href="#DejaVuSansMono-74" x="662.255859"/>
     <use xlink:href="#DejaVuSansMono-65" x="722.460938"/>
     <use xlink:href="#DejaVuSansMono-73" x="782.666016"/>
     <use xlink:href="#DejaVuSansMono-20" x="842.871094"/>
     <use xlink:href="#DejaVuSansMono-70" x="903.076172"/>
     <use xlink:href="#DejaVuSansMono-65" x="963.28125"/>
     <use xlink:href="#DejaVuSansMono-72" x="1023.486328"/>
     <use xlink:href="#DejaVuSansMono-20" x="1083.691406"/>
     <use xlink:href="#DejaVuSansMono-66" x="1143.896484"/>
     <use xlink:href="#DejaVuSansMono-61" x="1204.101562"/>
     <use xlink:href="#DejaVuSansMono-63" x="1264.306641"/>
     <use xlink:href="#DejaVuSansMono-74" x="1324.511719"/>
     <use xlink:href="#DejaVuSansMono-20" x="1384.716797"/>
     <use xlink:href="#DejaVuSansMono-70" x="1444.921875"/>
     <use xlink:href="#DejaVuSansMono-65" x="1505.126953"/>
     <use xlink:href="#DejaVuSansMono-72" x="1565.332031"/>
     <use xlink:href="#DejaVuSansMono-20" x="1625.537109"/>
     <use xlink:href="#DejaVuSansMono-73" x="1685.742188"/>
     <use xlink:href="#DejaVuSansMono-63" x="1745.947266"/>
     <use xlink:href="#DejaVuSansMono-61" x="1806.152344"/>
     <use xlink:href="#DejaVuSansMono-6c" x="1866.357422"/>
     <use xlink:href="#DejaVuSansMono-65" x="1926.5625"/>
     <use xlink:href="#DejaVuSansMono-20" x="1986.767578"/>
     <use xlink:href="#DejaVuSansMono-b7" x="2046.972656"/>
     <use xlink:href="#DejaVuSansMono-20" x="2107.177734"/>
     <use xlink:href="#DejaVuSansMono-61" x="2167.382812"/>
     <use xlink:href="#DejaVuSansMono-62" x="2227.587891"/>
     <use xlink:href="#DejaVuSansMono-73" x="2287.792969"/>
     <use xlink:href="#DejaVuSansMono-6f" x="2347.998047"/>
     <use xlink:href="#DejaVuSansMono-6c" x="2408.203125"/>
     <use xlink:href="#DejaVuSansMono-75" x="2468.408203"/>
     <use xlink:href="#DejaVuSansMono-74" x="2528.613281"/>
     <use xlink:href="#DejaVuSansMono-65" x="2588.818359"/>
     <use xlink:href="#DejaVuSansMono-20" x="2649.023438"/>
     <use xlink:href="#DejaVuSansMono-73" x="2709.228516"/>
     <use xlink:href="#DejaVuSansMono-74" x="2769.433594"/>
     <use xlink:href="#DejaVuSansMono-6f" x="2829.638672"/>
     <use xlink:href="#DejaVuSansMono-72" x="2889.84375"/>
     <use xlink:href="#DejaVuSansMono-65" x="2950.048828"/>
     <use xlink:href="#DejaVuSansMono-20" x="3010.253906"/>
     <use xlink:href="#DejaVuSansMono-62" x="3070.458984"/>
     <use xlink:href="#DejaVuSansMono-79" x="3130.664062"/>
     <use xlink:href="#DejaVuSansMono-74" x="3190.869141"/>
     <use xlink:href="#DejaVuSansMono-65" x="3251.074219"/>
     <use xlink:href="#DejaVuSansMono-73" x="3311.279297"/>
     <use xlink:href="#DejaVuSansMono-20" x="3371.484375"/>
     <use xlink:href="#DejaVuSansMono-61" x="3431.689453"/>
     <use xlink:href="#DejaVuSansMono-6e" x="3491.894531"/>
     <use xlink:href="#DejaVuSansMono-6e" x="3552.099609"/>
     <use xlink:href="#DejaVuSansMono-6f" x="3612.304688"/>
     <use xlink:href="#DejaVuSansMono-74" x="3672.509766"/>
     <use xlink:href="#DejaVuSansMono-61" x="3732.714844"/>
     <use xlink:href="#DejaVuSansMono-74" x="3792.919922"/>
     <use xlink:href="#DejaVuSansMono-65" x="3853.125"/>
     <use xlink:href="#DejaVuSansMono-64" x="3913.330078"/>
    </g>
   </g>
   <g id="legend_1">
    <g id="patch_10">
     <path d="M 568.813 196.456719 
L 675.088 196.456719 
Q 676.688 196.456719 676.688 194.856719 
L 676.688 160.429219 
Q 676.688 158.829219 675.088 158.829219 
L 568.813 158.829219 
Q 567.213 158.829219 567.213 160.429219 
L 567.213 194.856719 
Q 567.213 196.456719 568.813 196.456719 
z
" style="fill: #0d1117; opacity: 0.8; stroke: #2d333b; stroke-linejoin: miter"/>
    </g>
    <g id="patch_11">
     <path d="M 570.413 168.107969 
L 586.413 168.107969 
L 586.413 162.507969 
L 570.413 162.507969 
z
" style="fill: #f0b429"/>
    </g>
    <g id="text_15">
     <!-- engine (compacted) -->
     <g style="fill: #e6edf3" transform="translate(592.813 168.107969) scale(0.08 -0.08)">
      <defs>
       <path id="DejaVuSans-65" d="M 3597 1894 
L 3597 1613 
L 953 1613 
Q 991 1019 1311 708 
Q 1631 397 2203 397 
Q 2534 397 2845 478 
Q 3156 559 3463 722 
L 3463 178 
Q 3153 47 2828 -22 
Q 2503 -91 2169 -91 
Q 1331 -91 842 396 
Q 353 884 353 1716 
Q 353 2575 817 3079 
Q 1281 3584 2069 3584 
Q 2775 3584 3186 3129 
Q 3597 2675 3597 1894 
z
M 3022 2063 
Q 3016 2534 2758 2815 
Q 2500 3097 2075 3097 
Q 1594 3097 1305 2825 
Q 1016 2553 972 2059 
L 3022 2063 
z
" transform="scale(0.015625)"/>
       <path id="DejaVuSans-6e" d="M 3513 2113 
L 3513 0 
L 2938 0 
L 2938 2094 
Q 2938 2591 2744 2837 
Q 2550 3084 2163 3084 
Q 1697 3084 1428 2787 
Q 1159 2491 1159 1978 
L 1159 0 
L 581 0 
L 581 3500 
L 1159 3500 
L 1159 2956 
Q 1366 3272 1645 3428 
Q 1925 3584 2291 3584 
Q 2894 3584 3203 3211 
Q 3513 2838 3513 2113 
z
" transform="scale(0.015625)"/>
       <path id="DejaVuSans-67" d="M 2906 1791 
Q 2906 2416 2648 2759 
Q 2391 3103 1925 3103 
Q 1463 3103 1205 2759 
Q 947 2416 947 1791 
Q 947 1169 1205 825 
Q 1463 481 1925 481 
Q 2391 481 2648 825 
Q 2906 1169 2906 1791 
z
M 3481 434 
Q 3481 -459 3084 -895 
Q 2688 -1331 1869 -1331 
Q 1566 -1331 1297 -1286 
Q 1028 -1241 775 -1147 
L 775 -588 
Q 1028 -725 1275 -790 
Q 1522 -856 1778 -856 
Q 2344 -856 2625 -561 
Q 2906 -266 2906 331 
L 2906 616 
Q 2728 306 2450 153 
Q 2172 0 1784 0 
Q 1141 0 747 490 
Q 353 981 353 1791 
Q 353 2603 747 3093 
Q 1141 3584 1784 3584 
Q 2172 3584 2450 3431 
Q 2728 3278 2906 2969 
L 2906 3500 
L 3481 3500 
L 3481 434 
z
" transform="scale(0.015625)"/>
       <path id="DejaVuSans-69" d="M 603 3500 
L 1178 3500 
L 1178 0 
L 603 0 
L 603 3500 
z
M 603 4863 
L 1178 4863 
L 1178 4134 
L 603 4134 
L 603 4863 
z
" transform="scale(0.015625)"/>
       <path id="DejaVuSans-20" transform="scale(0.015625)"/>
       <path id="DejaVuSans-28" d="M 1984 4856 
Q 1566 4138 1362 3434 
Q 1159 2731 1159 2009 
Q 1159 1288 1364 580 
Q 1569 -128 1984 -844 
L 1484 -844 
Q 1016 -109 783 600 
Q 550 1309 550 2009 
Q 550 2706 781 3412 
Q 1013 4119 1484 4856 
L 1984 4856 
z
" transform="scale(0.015625)"/>
       <path id="DejaVuSans-63" d="M 3122 3366 
L 3122 2828 
Q 2878 2963 2633 3030 
Q 2388 3097 2138 3097 
Q 1578 3097 1268 2742 
Q 959 2388 959 1747 
Q 959 1106 1268 751 
Q 1578 397 2138 397 
Q 2388 397 2633 464 
Q 2878 531 3122 666 
L 3122 134 
Q 2881 22 2623 -34 
Q 2366 -91 2075 -91 
Q 1284 -91 818 406 
Q 353 903 353 1747 
Q 353 2603 823 3093 
Q 1294 3584 2113 3584 
Q 2378 3584 2631 3529 
Q 2884 3475 3122 3366 
z
" transform="scale(0.015625)"/>
       <path id="DejaVuSans-6f" d="M 1959 3097 
Q 1497 3097 1228 2736 
Q 959 2375 959 1747 
Q 959 1119 1226 758 
Q 1494 397 1959 397 
Q 2419 397 2687 759 
Q 2956 1122 2956 1747 
Q 2956 2369 2687 2733 
Q 2419 3097 1959 3097 
z
M 1959 3584 
Q 2709 3584 3137 3096 
Q 3566 2609 3566 1747 
Q 3566 888 3137 398 
Q 2709 -91 1959 -91 
Q 1206 -91 779 398 
Q 353 888 353 1747 
Q 353 2609 779 3096 
Q 1206 3584 1959 3584 
z
" transform="scale(0.015625)"/>
       <path id="DejaVuSans-6d" d="M 3328 2828 
Q 3544 3216 3844 3400 
Q 4144 3584 4550 3584 
Q 5097 3584 5394 3201 
Q 5691 2819 5691 2113 
L 5691 0 
L 5113 0 
L 5113 2094 
Q 5113 2597 4934 2840 
Q 4756 3084 4391 3084 
Q 3944 3084 3684 2787 
Q 3425 2491 3425 1978 
L 3425 0 
L 2847 0 
L 2847 2094 
Q 2847 2600 2669 2842 
Q 2491 3084 2119 3084 
Q 1678 3084 1418 2786 
Q 1159 2488 1159 1978 
L 1159 0 
L 581 0 
L 581 3500 
L 1159 3500 
L 1159 2956 
Q 1356 3278 1631 3431 
Q 1906 3584 2284 3584 
Q 2666 3584 2933 3390 
Q 3200 3197 3328 2828 
z
" transform="scale(0.015625)"/>
       <path id="DejaVuSans-70" d="M 1159 525 
L 1159 -1331 
L 581 -1331 
L 581 3500 
L 1159 3500 
L 1159 2969 
Q 1341 3281 1617 3432 
Q 1894 3584 2278 3584 
Q 2916 3584 3314 3078 
Q 3713 2572 3713 1747 
Q 3713 922 3314 415 
Q 2916 -91 2278 -91 
Q 1894 -91 1617 61 
Q 1341 213 1159 525 
z
M 3116 1747 
Q 3116 2381 2855 2742 
Q 2594 3103 2138 3103 
Q 1681 3103 1420 2742 
Q 1159 2381 1159 1747 
Q 1159 1113 1420 752 
Q 1681 391 2138 391 
Q 2594 391 2855 752 
Q 3116 1113 3116 1747 
z
" transform="scale(0.015625)"/>
       <path id="DejaVuSans-61" d="M 2194 1759 
Q 1497 1759 1228 1600 
Q 959 1441 959 1056 
Q 959 750 1161 570 
Q 1363 391 1709 391 
Q 2188 391 2477 730 
Q 2766 1069 2766 1631 
L 2766 1759 
L 2194 1759 
z
M 3341 1997 
L 3341 0 
L 2766 0 
L 2766 531 
Q 2569 213 2275 61 
Q 1981 -91 1556 -91 
Q 1019 -91 701 211 
Q 384 513 384 1019 
Q 384 1609 779 1909 
Q 1175 2209 1959 2209 
L 2766 2209 
L 2766 2266 
Q 2766 2663 2505 2880 
Q 2244 3097 1772 3097 
Q 1472 3097 1187 3025 
Q 903 2953 641 2809 
L 641 3341 
Q 956 3463 1253 3523 
Q 1550 3584 1831 3584 
Q 2591 3584 2966 3190 
Q 3341 2797 3341 1997 
z
" transform="scale(0.015625)"/>
       <path id="DejaVuSans-74" d="M 1172 4494 
L 1172 3500 
L 2356 3500 
L 2356 3053 
L 1172 3053 
L 1172 1153 
Q 1172 725 1289 603 
Q 1406 481 1766 481 
L 2356 481 
L 2356 0 
L 1766 0 
Q 1100 0 847 248 
Q 594 497 594 1153 
L 594 3053 
L 172 3053 
L 172 3500 
L 594 3500 
L 594 4494 
L 1172 4494 
z
" transform="scale(0.015625)"/>
       <path id="DejaVuSans-64" d="M 2906 2969 
L 2906 4863 
L 3481 4863 
L 3481 0 
L 2906 0 
L 2906 525 
Q 2725 213 2448 61 
Q 2172 -91 1784 -91 
Q 1150 -91 751 415 
Q 353 922 353 1747 
Q 353 2572 751 3078 
Q 1150 3584 1784 3584 
Q 2172 3584 2448 3432 
Q 2725 3281 2906 2969 
z
M 947 1747 
Q 947 1113 1208 752 
Q 1469 391 1925 391 
Q 2381 391 2643 752 
Q 2906 1113 2906 1747 
Q 2906 2381 2643 2742 
Q 2381 3103 1925 3103 
Q 1469 3103 1208 2742 
Q 947 2381 947 1747 
z
" transform="scale(0.015625)"/>
       <path id="DejaVuSans-29" d="M 513 4856 
L 1013 4856 
Q 1481 4119 1714 3412 
Q 1947 2706 1947 2009 
Q 1947 1309 1714 600 
Q 1481 -109 1013 -844 
L 513 -844 
Q 928 -128 1133 580 
Q 1338 1288 1338 2009 
Q 1338 2731 1133 3434 
Q 928 4138 513 4856 
z
" transform="scale(0.015625)"/>
      </defs>
      <use xlink:href="#DejaVuSans-65"/>
      <use xlink:href="#DejaVuSans-6e" x="61.523438"/>
      <use xlink:href="#DejaVuSans-67" x="124.902344"/>
      <use xlink:href="#DejaVuSans-69" x="188.378906"/>
      <use xlink:href="#DejaVuSans-6e" x="216.162109"/>
      <use xlink:href="#DejaVuSans-65" x="279.541016"/>
      <use xlink:href="#DejaVuSans-20" x="341.064453"/>
      <use xlink:href="#DejaVuSans-28" x="372.851562"/>
      <use xlink:href="#DejaVuSans-63" x="411.865234"/>
      <use xlink:href="#DejaVuSans-6f" x="466.845703"/>
      <use xlink:href="#DejaVuSans-6d" x="528.027344"/>
      <use xlink:href="#DejaVuSans-70" x="625.439453"/>
      <use xlink:href="#DejaVuSans-61" x="688.916016"/>
      <use xlink:href="#DejaVuSans-63" x="750.195312"/>
      <use xlink:href="#DejaVuSans-74" x="805.175781"/>
      <use xlink:href="#DejaVuSans-65" x="844.384766"/>
      <use xlink:href="#DejaVuSans-64" x="905.908203"/>
      <use xlink:href="#DejaVuSans-29" x="969.384766"/>
     </g>
    </g>
    <g id="patch_12">
     <path d="M 570.413 179.850469 
L 586.413 179.850469 
L 586.413 174.250469 
L 570.413 174.250469 
z
" style="fill: #8b949e"/>
    </g>
    <g id="text_16">
     <!-- sqlite indexed -->
     <g style="fill: #e6edf3" transform="translate(592.813 179.850469) scale(0.08 -0.08)">
      <defs>
       <path id="DejaVuSans-73" d="M 2834 3397 
L 2834 2853 
Q 2591 2978 2328 3040 
Q 2066 3103 1784 3103 
Q 1356 3103 1142 2972 
Q 928 2841 928 2578 
Q 928 2378 1081 2264 
Q 1234 2150 1697 2047 
L 1894 2003 
Q 2506 1872 2764 1633 
Q 3022 1394 3022 966 
Q 3022 478 2636 193 
Q 2250 -91 1575 -91 
Q 1294 -91 989 -36 
Q 684 19 347 128 
L 347 722 
Q 666 556 975 473 
Q 1284 391 1588 391 
Q 1994 391 2212 530 
Q 2431 669 2431 922 
Q 2431 1156 2273 1281 
Q 2116 1406 1581 1522 
L 1381 1569 
Q 847 1681 609 1914 
Q 372 2147 372 2553 
Q 372 3047 722 3315 
Q 1072 3584 1716 3584 
Q 2034 3584 2315 3537 
Q 2597 3491 2834 3397 
z
" transform="scale(0.015625)"/>
       <path id="DejaVuSans-71" d="M 947 1747 
Q 947 1113 1208 752 
Q 1469 391 1925 391 
Q 2381 391 2643 752 
Q 2906 1113 2906 1747 
Q 2906 2381 2643 2742 
Q 2381 3103 1925 3103 
Q 1469 3103 1208 2742 
Q 947 2381 947 1747 
z
M 2906 525 
Q 2725 213 2448 61 
Q 2172 -91 1784 -91 
Q 1150 -91 751 415 
Q 353 922 353 1747 
Q 353 2572 751 3078 
Q 1150 3584 1784 3584 
Q 2172 3584 2448 3432 
Q 2725 3281 2906 2969 
L 2906 3500 
L 3481 3500 
L 3481 -1331 
L 2906 -1331 
L 2906 525 
z
" transform="scale(0.015625)"/>
       <path id="DejaVuSans-6c" d="M 603 4863 
L 1178 4863 
L 1178 0 
L 603 0 
L 603 4863 
z
" transform="scale(0.015625)"/>
       <path id="DejaVuSans-78" d="M 3513 3500 
L 2247 1797 
L 3578 0 
L 2900 0 
L 1881 1375 
L 863 0 
L 184 0 
L 1544 1831 
L 300 3500 
L 978 3500 
L 1906 2253 
L 2834 3500 
L 3513 3500 
z
" transform="scale(0.015625)"/>
      </defs>
      <use xlink:href="#DejaVuSans-73"/>
      <use xlink:href="#DejaVuSans-71" x="52.099609"/>
      <use xlink:href="#DejaVuSans-6c" x="115.576172"/>
      <use xlink:href="#DejaVuSans-69" x="143.359375"/>
      <use xlink:href="#DejaVuSans-74" x="171.142578"/>
      <use xlink:href="#DejaVuSans-65" x="210.351562"/>
      <use xlink:href="#DejaVuSans-20" x="271.875"/>
      <use xlink:href="#DejaVuSans-69" x="303.662109"/>
      <use xlink:href="#DejaVuSans-6e" x="331.445312"/>
      <use xlink:href="#DejaVuSans-64" x="394.824219"/>
      <use xlink:href="#DejaVuSans-65" x="458.300781"/>
      <use xlink:href="#DejaVuSans-78" x="518.074219"/>
      <use xlink:href="#DejaVuSans-65" x="574.128906"/>
      <use xlink:href="#DejaVuSans-64" x="635.652344"/>
     </g>
    </g>
    <g id="patch_13">
     <path d="M 570.413 191.592969 
L 586.413 191.592969 
L 586.413 185.992969 
L 570.413 185.992969 
z
" style="fill: url(#hfac67c1c7b); opacity: 0.55"/>
    </g>
    <g id="text_17">
     <!-- sqlite table-only -->
     <g style="fill: #e6edf3" transform="translate(592.813 191.592969) scale(0.08 -0.08)">
      <defs>
       <path id="DejaVuSans-62" d="M 3116 1747 
Q 3116 2381 2855 2742 
Q 2594 3103 2138 3103 
Q 1681 3103 1420 2742 
Q 1159 2381 1159 1747 
Q 1159 1113 1420 752 
Q 1681 391 2138 391 
Q 2594 391 2855 752 
Q 3116 1113 3116 1747 
z
M 1159 2969 
Q 1341 3281 1617 3432 
Q 1894 3584 2278 3584 
Q 2916 3584 3314 3078 
Q 3713 2572 3713 1747 
Q 3713 922 3314 415 
Q 2916 -91 2278 -91 
Q 1894 -91 1617 61 
Q 1341 213 1159 525 
L 1159 0 
L 581 0 
L 581 4863 
L 1159 4863 
L 1159 2969 
z
" transform="scale(0.015625)"/>
       <path id="DejaVuSans-2d" d="M 313 2009 
L 1997 2009 
L 1997 1497 
L 313 1497 
L 313 2009 
z
" transform="scale(0.015625)"/>
       <path id="DejaVuSans-79" d="M 2059 -325 
Q 1816 -950 1584 -1140 
Q 1353 -1331 966 -1331 
L 506 -1331 
L 506 -850 
L 844 -850 
Q 1081 -850 1212 -737 
Q 1344 -625 1503 -206 
L 1606 56 
L 191 3500 
L 800 3500 
L 1894 763 
L 2988 3500 
L 3597 3500 
L 2059 -325 
z
" transform="scale(0.015625)"/>
      </defs>
      <use xlink:href="#DejaVuSans-73"/>
      <use xlink:href="#DejaVuSans-71" x="52.099609"/>
      <use xlink:href="#DejaVuSans-6c" x="115.576172"/>
      <use xlink:href="#DejaVuSans-69" x="143.359375"/>
      <use xlink:href="#DejaVuSans-74" x="171.142578"/>
      <use xlink:href="#DejaVuSans-65" x="210.351562"/>
      <use xlink:href="#DejaVuSans-20" x="271.875"/>
      <use xlink:href="#DejaVuSans-74" x="303.662109"/>
      <use xlink:href="#DejaVuSans-61" x="342.871094"/>
      <use xlink:href="#DejaVuSans-62" x="404.150391"/>
      <use xlink:href="#DejaVuSans-6c" x="467.626953"/>
      <use xlink:href="#DejaVuSans-65" x="495.410156"/>
      <use xlink:href="#DejaVuSans-2d" x="556.933594"/>
      <use xlink:href="#DejaVuSans-6f" x="594.892578"/>
      <use xlink:href="#DejaVuSans-6e" x="656.074219"/>
      <use xlink:href="#DejaVuSans-6c" x="719.453125"/>
      <use xlink:href="#DejaVuSans-79" x="747.236328"/>
     </g>
    </g>
   </g>
  </g>
  <g id="axes_2">
   <g id="patch_14">
    <path d="M 24.118 432.656719 
L 680.688 432.656719 
L 680.688 257.816719 
L 24.118 257.816719 
z
" style="fill: #0d1117"/>
   </g>
   <g id="matplotlib.axis_3">
    <g id="xtick_9">
     <g id="line2d_18">
      <path d="M 24.118 432.656719 
L 24.118 257.816719 
" clip-path="url(#p3222eac9fc)" style="fill: none; stroke: #2d333b; stroke-width: 0.6; stroke-linecap: square"/>
     </g>
     <g id="line2d_19">
      <g>
       <use xlink:href="#m6c29f6b59f" x="24.118" y="432.656719" style="fill: #9da7b3; stroke: #9da7b3; stroke-width: 0.8"/>
      </g>
     </g>
     <g id="text_18">
      <!-- 0 -->
      <g style="fill: #9da7b3" transform="translate(21.254875 446.495312) scale(0.09 -0.09)">
       <use xlink:href="#DejaVuSans-30"/>
      </g>
     </g>
    </g>
    <g id="xtick_10">
     <g id="line2d_20">
      <path d="M 161.543533 432.656719 
L 161.543533 257.816719 
" clip-path="url(#p3222eac9fc)" style="fill: none; stroke: #2d333b; stroke-width: 0.6; stroke-linecap: square"/>
     </g>
     <g id="line2d_21">
      <g>
       <use xlink:href="#m6c29f6b59f" x="161.543533" y="432.656719" style="fill: #9da7b3; stroke: #9da7b3; stroke-width: 0.8"/>
      </g>
     </g>
     <g id="text_19">
      <!-- 100 -->
      <g style="fill: #9da7b3" transform="translate(152.954158 446.495312) scale(0.09 -0.09)">
       <use xlink:href="#DejaVuSans-31"/>
       <use xlink:href="#DejaVuSans-30" x="63.623047"/>
       <use xlink:href="#DejaVuSans-30" x="127.246094"/>
      </g>
     </g>
    </g>
    <g id="xtick_11">
     <g id="line2d_22">
      <path d="M 298.969067 432.656719 
L 298.969067 257.816719 
" clip-path="url(#p3222eac9fc)" style="fill: none; stroke: #2d333b; stroke-width: 0.6; stroke-linecap: square"/>
     </g>
     <g id="line2d_23">
      <g>
       <use xlink:href="#m6c29f6b59f" x="298.969067" y="432.656719" style="fill: #9da7b3; stroke: #9da7b3; stroke-width: 0.8"/>
      </g>
     </g>
     <g id="text_20">
      <!-- 200 -->
      <g style="fill: #9da7b3" transform="translate(290.379692 446.495312) scale(0.09 -0.09)">
       <use xlink:href="#DejaVuSans-32"/>
       <use xlink:href="#DejaVuSans-30" x="63.623047"/>
       <use xlink:href="#DejaVuSans-30" x="127.246094"/>
      </g>
     </g>
    </g>
    <g id="xtick_12">
     <g id="line2d_24">
      <path d="M 436.3946 432.656719 
L 436.3946 257.816719 
" clip-path="url(#p3222eac9fc)" style="fill: none; stroke: #2d333b; stroke-width: 0.6; stroke-linecap: square"/>
     </g>
     <g id="line2d_25">
      <g>
       <use xlink:href="#m6c29f6b59f" x="436.3946" y="432.656719" style="fill: #9da7b3; stroke: #9da7b3; stroke-width: 0.8"/>
      </g>
     </g>
     <g id="text_21">
      <!-- 300 -->
      <g style="fill: #9da7b3" transform="translate(427.805225 446.495312) scale(0.09 -0.09)">
       <use xlink:href="#DejaVuSans-33"/>
       <use xlink:href="#DejaVuSans-30" x="63.623047"/>
       <use xlink:href="#DejaVuSans-30" x="127.246094"/>
      </g>
     </g>
    </g>
    <g id="xtick_13">
     <g id="line2d_26">
      <path d="M 573.820133 432.656719 
L 573.820133 257.816719 
" clip-path="url(#p3222eac9fc)" style="fill: none; stroke: #2d333b; stroke-width: 0.6; stroke-linecap: square"/>
     </g>
     <g id="line2d_27">
      <g>
       <use xlink:href="#m6c29f6b59f" x="573.820133" y="432.656719" style="fill: #9da7b3; stroke: #9da7b3; stroke-width: 0.8"/>
      </g>
     </g>
     <g id="text_22">
      <!-- 400 -->
      <g style="fill: #9da7b3" transform="translate(565.230758 446.495312) scale(0.09 -0.09)">
       <defs>
        <path id="DejaVuSans-34" d="M 2419 4116 
L 825 1625 
L 2419 1625 
L 2419 4116 
z
M 2253 4666 
L 3047 4666 
L 3047 1625 
L 3713 1625 
L 3713 1100 
L 3047 1100 
L 3047 0 
L 2419 0 
L 2419 1100 
L 313 1100 
L 313 1709 
L 2253 4666 
z
" transform="scale(0.015625)"/>
       </defs>
       <use xlink:href="#DejaVuSans-34"/>
       <use xlink:href="#DejaVuSans-30" x="63.623047"/>
       <use xlink:href="#DejaVuSans-30" x="127.246094"/>
      </g>
     </g>
    </g>
    <g id="text_23">
     <!-- bytes per fact -->
     <g style="fill: #9da7b3" transform="translate(314.475031 459.253437) scale(0.09 -0.09)">
      <use xlink:href="#DejaVuSansMono-62"/>
      <use xlink:href="#DejaVuSansMono-79" x="60.205078"/>
      <use xlink:href="#DejaVuSansMono-74" x="120.410156"/>
      <use xlink:href="#DejaVuSansMono-65" x="180.615234"/>
      <use xlink:href="#DejaVuSansMono-73" x="240.820312"/>
      <use xlink:href="#DejaVuSansMono-20" x="301.025391"/>
      <use xlink:href="#DejaVuSansMono-70" x="361.230469"/>
      <use xlink:href="#DejaVuSansMono-65" x="421.435547"/>
      <use xlink:href="#DejaVuSansMono-72" x="481.640625"/>
      <use xlink:href="#DejaVuSansMono-20" x="541.845703"/>
      <use xlink:href="#DejaVuSansMono-66" x="602.050781"/>
      <use xlink:href="#DejaVuSansMono-61" x="662.255859"/>
      <use xlink:href="#DejaVuSansMono-63" x="722.460938"/>
      <use xlink:href="#DejaVuSansMono-74" x="782.666016"/>
     </g>
    </g>
   </g>
   <g id="matplotlib.axis_4">
    <g id="ytick_2">
     <g id="line2d_28">
      <g>
       <use xlink:href="#m7f07793de9" x="24.118" y="345.236719" style="fill: #9da7b3; stroke: #9da7b3; stroke-width: 0.8"/>
      </g>
     </g>
     <g id="text_24">
      <!-- S -->
      <g style="fill: #e6edf3" transform="translate(11.097688 349.0625) scale(0.1 -0.1)">
       <use xlink:href="#DejaVuSansMono-53"/>
      </g>
     </g>
    </g>
   </g>
   <g id="patch_15">
    <path d="M 24.118 432.656719 
L 24.118 257.816719 
" style="fill: none; stroke: #2d333b; stroke-width: 0.8; stroke-linejoin: miter; stroke-linecap: square"/>
   </g>
   <g id="patch_16">
    <path d="M 680.688 432.656719 
L 680.688 257.816719 
" style="fill: none; stroke: #2d333b; stroke-width: 0.8; stroke-linejoin: miter; stroke-linecap: square"/>
   </g>
   <g id="patch_17">
    <path d="M 24.118 432.656719 
L 680.688 432.656719 
" style="fill: none; stroke: #2d333b; stroke-width: 0.8; stroke-linejoin: miter; stroke-linecap: square"/>
   </g>
   <g id="patch_18">
    <path d="M 24.118 257.816719 
L 680.688 257.816719 
" style="fill: none; stroke: #2d333b; stroke-width: 0.8; stroke-linejoin: miter; stroke-linecap: square"/>
   </g>
   <g id="patch_19">
    <path d="M 24.118 265.763991 
L 562.290131 265.763991 
L 562.290131 313.018046 
L 24.118 313.018046 
z
" clip-path="url(#p3222eac9fc)" style="fill: #f0b429"/>
   </g>
   <g id="text_25">
    <!-- 71.8MiB -->
    <g style="fill: #f0b429" transform="translate(570.362713 291.598519) scale(0.08 -0.08)">
     <defs>
      <path id="DejaVuSansMono-Bold-31" d="M 588 813 
L 1619 813 
L 1619 3841 
L 659 3603 
L 659 4434 
L 1625 4666 
L 2516 4666 
L 2516 813 
L 3547 813 
L 3547 0 
L 588 0 
L 588 813 
z
" transform="scale(0.015625)"/>
      <path id="DejaVuSansMono-Bold-38" d="M 1925 2081 
Q 1616 2081 1425 1886 
Q 1234 1691 1234 1369 
Q 1234 1047 1425 850 
Q 1616 653 1925 653 
Q 2234 653 2426 853 
Q 2619 1053 2619 1369 
Q 2619 1691 2428 1886 
Q 2238 2081 1925 2081 
z
M 1241 2472 
Q 888 2594 703 2855 
Q 519 3116 519 3494 
Q 519 4075 897 4412 
Q 1275 4750 1925 4750 
Q 2578 4750 2956 4412 
Q 3334 4075 3334 3494 
Q 3334 3119 3153 2858 
Q 2972 2597 2625 2472 
Q 3013 2353 3231 2047 
Q 3450 1741 3450 1313 
Q 3450 641 3053 275 
Q 2656 -91 1925 -91 
Q 1197 -91 800 275 
Q 403 641 403 1313 
Q 403 1744 625 2050 
Q 847 2356 1241 2472 
z
M 1338 3419 
Q 1338 3144 1495 2983 
Q 1653 2822 1925 2822 
Q 2200 2822 2358 2983 
Q 2516 3144 2516 3419 
Q 2516 3691 2358 3848 
Q 2200 4006 1925 4006 
Q 1656 4006 1497 3847 
Q 1338 3688 1338 3419 
z
" transform="scale(0.015625)"/>
     </defs>
     <use xlink:href="#DejaVuSansMono-Bold-37"/>
     <use xlink:href="#DejaVuSansMono-Bold-31" x="60.205078"/>
     <use xlink:href="#DejaVuSansMono-Bold-2e" x="120.410156"/>
     <use xlink:href="#DejaVuSansMono-Bold-38" x="180.615234"/>
     <use xlink:href="#DejaVuSansMono-Bold-4d" x="240.820312"/>
     <use xlink:href="#DejaVuSansMono-Bold-69" x="301.025391"/>
     <use xlink:href="#DejaVuSansMono-Bold-42" x="361.230469"/>
    </g>
   </g>
   <g id="patch_20">
    <path d="M 24.118 321.609692 
L 152.165065 321.609692 
L 152.165065 368.863746 
L 24.118 368.863746 
z
" clip-path="url(#p3222eac9fc)" style="fill: #8b949e"/>
   </g>
   <g id="text_26">
    <!-- 17.1MiB -->
    <g style="fill: #9da7b3" transform="translate(160.237647 347.465469) scale(0.08 -0.08)">
     <use xlink:href="#DejaVuSansMono-31"/>
     <use xlink:href="#DejaVuSansMono-37" x="60.205078"/>
     <use xlink:href="#DejaVuSansMono-2e" x="120.410156"/>
     <use xlink:href="#DejaVuSansMono-31" x="180.615234"/>
     <use xlink:href="#DejaVuSansMono-4d" x="240.820312"/>
     <use xlink:href="#DejaVuSansMono-69" x="301.025391"/>
     <use xlink:href="#DejaVuSansMono-42" x="361.230469"/>
    </g>
   </g>
   <g id="patch_21">
    <path d="M 24.118 377.455392 
L 57.446578 377.455392 
L 57.446578 424.709446 
L 24.118 424.709446 
z
" clip-path="url(#p3222eac9fc)" style="fill: url(#hfac67c1c7b); opacity: 0.55"/>
   </g>
   <g id="text_27">
    <!-- 4.4MiB -->
    <g style="fill: #9da7b3" transform="translate(65.51916 403.311169) scale(0.08 -0.08)">
     <use xlink:href="#DejaVuSansMono-34"/>
     <use xlink:href="#DejaVuSansMono-2e" x="60.205078"/>
     <use xlink:href="#DejaVuSansMono-34" x="120.410156"/>
     <use xlink:href="#DejaVuSansMono-4d" x="180.615234"/>
     <use xlink:href="#DejaVuSansMono-69" x="240.820312"/>
     <use xlink:href="#DejaVuSansMono-42" x="301.025391"/>
    </g>
   </g>
   <g id="text_28">
    <!-- calendar · bytes per fact per scale · absolute store bytes annotated -->
    <g transform="translate(24.118 247.816719) scale(0.11 -0.11)">
     <use xlink:href="#DejaVuSansMono-63"/>
     <use xlink:href="#DejaVuSansMono-61" x="60.205078"/>
     <use xlink:href="#DejaVuSansMono-6c" x="120.410156"/>
     <use xlink:href="#DejaVuSansMono-65" x="180.615234"/>
     <use xlink:href="#DejaVuSansMono-6e" x="240.820312"/>
     <use xlink:href="#DejaVuSansMono-64" x="301.025391"/>
     <use xlink:href="#DejaVuSansMono-61" x="361.230469"/>
     <use xlink:href="#DejaVuSansMono-72" x="421.435547"/>
     <use xlink:href="#DejaVuSansMono-20" x="481.640625"/>
     <use xlink:href="#DejaVuSansMono-b7" x="541.845703"/>
     <use xlink:href="#DejaVuSansMono-20" x="602.050781"/>
     <use xlink:href="#DejaVuSansMono-62" x="662.255859"/>
     <use xlink:href="#DejaVuSansMono-79" x="722.460938"/>
     <use xlink:href="#DejaVuSansMono-74" x="782.666016"/>
     <use xlink:href="#DejaVuSansMono-65" x="842.871094"/>
     <use xlink:href="#DejaVuSansMono-73" x="903.076172"/>
     <use xlink:href="#DejaVuSansMono-20" x="963.28125"/>
     <use xlink:href="#DejaVuSansMono-70" x="1023.486328"/>
     <use xlink:href="#DejaVuSansMono-65" x="1083.691406"/>
     <use xlink:href="#DejaVuSansMono-72" x="1143.896484"/>
     <use xlink:href="#DejaVuSansMono-20" x="1204.101562"/>
     <use xlink:href="#DejaVuSansMono-66" x="1264.306641"/>
     <use xlink:href="#DejaVuSansMono-61" x="1324.511719"/>
     <use xlink:href="#DejaVuSansMono-63" x="1384.716797"/>
     <use xlink:href="#DejaVuSansMono-74" x="1444.921875"/>
     <use xlink:href="#DejaVuSansMono-20" x="1505.126953"/>
     <use xlink:href="#DejaVuSansMono-70" x="1565.332031"/>
     <use xlink:href="#DejaVuSansMono-65" x="1625.537109"/>
     <use xlink:href="#DejaVuSansMono-72" x="1685.742188"/>
     <use xlink:href="#DejaVuSansMono-20" x="1745.947266"/>
     <use xlink:href="#DejaVuSansMono-73" x="1806.152344"/>
     <use xlink:href="#DejaVuSansMono-63" x="1866.357422"/>
     <use xlink:href="#DejaVuSansMono-61" x="1926.5625"/>
     <use xlink:href="#DejaVuSansMono-6c" x="1986.767578"/>
     <use xlink:href="#DejaVuSansMono-65" x="2046.972656"/>
     <use xlink:href="#DejaVuSansMono-20" x="2107.177734"/>
     <use xlink:href="#DejaVuSansMono-b7" x="2167.382812"/>
     <use xlink:href="#DejaVuSansMono-20" x="2227.587891"/>
     <use xlink:href="#DejaVuSansMono-61" x="2287.792969"/>
     <use xlink:href="#DejaVuSansMono-62" x="2347.998047"/>
     <use xlink:href="#DejaVuSansMono-73" x="2408.203125"/>
     <use xlink:href="#DejaVuSansMono-6f" x="2468.408203"/>
     <use xlink:href="#DejaVuSansMono-6c" x="2528.613281"/>
     <use xlink:href="#DejaVuSansMono-75" x="2588.818359"/>
     <use xlink:href="#DejaVuSansMono-74" x="2649.023438"/>
     <use xlink:href="#DejaVuSansMono-65" x="2709.228516"/>
     <use xlink:href="#DejaVuSansMono-20" x="2769.433594"/>
     <use xlink:href="#DejaVuSansMono-73" x="2829.638672"/>
     <use xlink:href="#DejaVuSansMono-74" x="2889.84375"/>
     <use xlink:href="#DejaVuSansMono-6f" x="2950.048828"/>
     <use xlink:href="#DejaVuSansMono-72" x="3010.253906"/>
     <use xlink:href="#DejaVuSansMono-65" x="3070.458984"/>
     <use xlink:href="#DejaVuSansMono-20" x="3130.664062"/>
     <use xlink:href="#DejaVuSansMono-62" x="3190.869141"/>
     <use xlink:href="#DejaVuSansMono-79" x="3251.074219"/>
     <use xlink:href="#DejaVuSansMono-74" x="3311.279297"/>
     <use xlink:href="#DejaVuSansMono-65" x="3371.484375"/>
     <use xlink:href="#DejaVuSansMono-73" x="3431.689453"/>
     <use xlink:href="#DejaVuSansMono-20" x="3491.894531"/>
     <use xlink:href="#DejaVuSansMono-61" x="3552.099609"/>
     <use xlink:href="#DejaVuSansMono-6e" x="3612.304688"/>
     <use xlink:href="#DejaVuSansMono-6e" x="3672.509766"/>
     <use xlink:href="#DejaVuSansMono-6f" x="3732.714844"/>
     <use xlink:href="#DejaVuSansMono-74" x="3792.919922"/>
     <use xlink:href="#DejaVuSansMono-61" x="3853.125"/>
     <use xlink:href="#DejaVuSansMono-74" x="3913.330078"/>
     <use xlink:href="#DejaVuSansMono-65" x="3973.535156"/>
     <use xlink:href="#DejaVuSansMono-64" x="4033.740234"/>
    </g>
   </g>
  </g>
  <g id="text_29">
   <!-- storage lane · report-class · every byte behind a count cross-check against the generator stream · shared-machine night, boosted QoS -->
   <g style="fill: #9da7b3" transform="translate(7.2 469.360719) scale(0.08 -0.08)">
    <defs>
     <path id="DejaVuSansMono-2d" d="M 1113 2009 
L 2741 2009 
L 2741 1497 
L 1113 1497 
L 1113 2009 
z
" transform="scale(0.015625)"/>
     <path id="DejaVuSansMono-76" d="M 313 3500 
L 909 3500 
L 1925 563 
L 2944 3500 
L 3541 3500 
L 2297 0 
L 1556 0 
L 313 3500 
z
" transform="scale(0.015625)"/>
     <path id="DejaVuSansMono-68" d="M 3284 2169 
L 3284 0 
L 2706 0 
L 2706 2169 
Q 2706 2641 2540 2862 
Q 2375 3084 2022 3084 
Q 1619 3084 1401 2798 
Q 1184 2513 1184 1978 
L 1184 0 
L 609 0 
L 609 4863 
L 1184 4863 
L 1184 2975 
Q 1338 3275 1600 3429 
Q 1863 3584 2222 3584 
Q 2756 3584 3020 3232 
Q 3284 2881 3284 2169 
z
" transform="scale(0.015625)"/>
     <path id="DejaVuSansMono-6b" d="M 738 4863 
L 1331 4863 
L 1331 2047 
L 2841 3500 
L 3541 3500 
L 2163 2181 
L 3756 0 
L 3053 0 
L 1759 1806 
L 1331 1403 
L 1331 0 
L 738 0 
L 738 4863 
z
" transform="scale(0.015625)"/>
     <path id="DejaVuSansMono-6d" d="M 2113 3144 
Q 2219 3369 2383 3476 
Q 2547 3584 2778 3584 
Q 3200 3584 3373 3257 
Q 3547 2931 3547 2028 
L 3547 0 
L 3022 0 
L 3022 2003 
Q 3022 2744 2939 2923 
Q 2856 3103 2638 3103 
Q 2388 3103 2295 2911 
Q 2203 2719 2203 2003 
L 2203 0 
L 1678 0 
L 1678 2003 
Q 1678 2753 1589 2928 
Q 1500 3103 1269 3103 
Q 1041 3103 952 2911 
Q 863 2719 863 2003 
L 863 0 
L 341 0 
L 341 3500 
L 863 3500 
L 863 3200 
Q 966 3388 1120 3486 
Q 1275 3584 1472 3584 
Q 1709 3584 1867 3475 
Q 2025 3366 2113 3144 
z
" transform="scale(0.015625)"/>
     <path id="DejaVuSansMono-2c" d="M 1569 947 
L 2356 947 
L 2356 300 
L 1741 -897 
L 1259 -897 
L 1569 300 
L 1569 947 
z
" transform="scale(0.015625)"/>
     <path id="DejaVuSansMono-51" d="M 2047 -84 
Q 2025 -84 1984 -87 
Q 1944 -91 1919 -91 
Q 1138 -91 752 509 
Q 366 1109 366 2328 
Q 366 3550 752 4150 
Q 1138 4750 1925 4750 
Q 2716 4750 3102 4150 
Q 3488 3550 3488 2328 
Q 3488 1409 3273 848 
Q 3059 288 2625 63 
L 3250 -531 
L 2778 -844 
L 2047 -84 
z
M 2828 2328 
Q 2828 3356 2617 3797 
Q 2406 4238 1925 4238 
Q 1447 4238 1236 3797 
Q 1025 3356 1025 2328 
Q 1025 1303 1236 862 
Q 1447 422 1925 422 
Q 2406 422 2617 861 
Q 2828 1300 2828 2328 
z
" transform="scale(0.015625)"/>
    </defs>
    <use xlink:href="#DejaVuSansMono-73"/>
    <use xlink:href="#DejaVuSansMono-74" x="60.205078"/>
    <use xlink:href="#DejaVuSansMono-6f" x="120.410156"/>
    <use xlink:href="#DejaVuSansMono-72" x="180.615234"/>
    <use xlink:href="#DejaVuSansMono-61" x="240.820312"/>
    <use xlink:href="#DejaVuSansMono-67" x="301.025391"/>
    <use xlink:href="#DejaVuSansMono-65" x="361.230469"/>
    <use xlink:href="#DejaVuSansMono-20" x="421.435547"/>
    <use xlink:href="#DejaVuSansMono-6c" x="481.640625"/>
    <use xlink:href="#DejaVuSansMono-61" x="541.845703"/>
    <use xlink:href="#DejaVuSansMono-6e" x="602.050781"/>
    <use xlink:href="#DejaVuSansMono-65" x="662.255859"/>
    <use xlink:href="#DejaVuSansMono-20" x="722.460938"/>
    <use xlink:href="#DejaVuSansMono-b7" x="782.666016"/>
    <use xlink:href="#DejaVuSansMono-20" x="842.871094"/>
    <use xlink:href="#DejaVuSansMono-72" x="903.076172"/>
    <use xlink:href="#DejaVuSansMono-65" x="963.28125"/>
    <use xlink:href="#DejaVuSansMono-70" x="1023.486328"/>
    <use xlink:href="#DejaVuSansMono-6f" x="1083.691406"/>
    <use xlink:href="#DejaVuSansMono-72" x="1143.896484"/>
    <use xlink:href="#DejaVuSansMono-74" x="1204.101562"/>
    <use xlink:href="#DejaVuSansMono-2d" x="1264.306641"/>
    <use xlink:href="#DejaVuSansMono-63" x="1324.511719"/>
    <use xlink:href="#DejaVuSansMono-6c" x="1384.716797"/>
    <use xlink:href="#DejaVuSansMono-61" x="1444.921875"/>
    <use xlink:href="#DejaVuSansMono-73" x="1505.126953"/>
    <use xlink:href="#DejaVuSansMono-73" x="1565.332031"/>
    <use xlink:href="#DejaVuSansMono-20" x="1625.537109"/>
    <use xlink:href="#DejaVuSansMono-b7" x="1685.742188"/>
    <use xlink:href="#DejaVuSansMono-20" x="1745.947266"/>
    <use xlink:href="#DejaVuSansMono-65" x="1806.152344"/>
    <use xlink:href="#DejaVuSansMono-76" x="1866.357422"/>
    <use xlink:href="#DejaVuSansMono-65" x="1926.5625"/>
    <use xlink:href="#DejaVuSansMono-72" x="1986.767578"/>
    <use xlink:href="#DejaVuSansMono-79" x="2046.972656"/>
    <use xlink:href="#DejaVuSansMono-20" x="2107.177734"/>
    <use xlink:href="#DejaVuSansMono-62" x="2167.382812"/>
    <use xlink:href="#DejaVuSansMono-79" x="2227.587891"/>
    <use xlink:href="#DejaVuSansMono-74" x="2287.792969"/>
    <use xlink:href="#DejaVuSansMono-65" x="2347.998047"/>
    <use xlink:href="#DejaVuSansMono-20" x="2408.203125"/>
    <use xlink:href="#DejaVuSansMono-62" x="2468.408203"/>
    <use xlink:href="#DejaVuSansMono-65" x="2528.613281"/>
    <use xlink:href="#DejaVuSansMono-68" x="2588.818359"/>
    <use xlink:href="#DejaVuSansMono-69" x="2649.023438"/>
    <use xlink:href="#DejaVuSansMono-6e" x="2709.228516"/>
    <use xlink:href="#DejaVuSansMono-64" x="2769.433594"/>
    <use xlink:href="#DejaVuSansMono-20" x="2829.638672"/>
    <use xlink:href="#DejaVuSansMono-61" x="2889.84375"/>
    <use xlink:href="#DejaVuSansMono-20" x="2950.048828"/>
    <use xlink:href="#DejaVuSansMono-63" x="3010.253906"/>
    <use xlink:href="#DejaVuSansMono-6f" x="3070.458984"/>
    <use xlink:href="#DejaVuSansMono-75" x="3130.664062"/>
    <use xlink:href="#DejaVuSansMono-6e" x="3190.869141"/>
    <use xlink:href="#DejaVuSansMono-74" x="3251.074219"/>
    <use xlink:href="#DejaVuSansMono-20" x="3311.279297"/>
    <use xlink:href="#DejaVuSansMono-63" x="3371.484375"/>
    <use xlink:href="#DejaVuSansMono-72" x="3431.689453"/>
    <use xlink:href="#DejaVuSansMono-6f" x="3491.894531"/>
    <use xlink:href="#DejaVuSansMono-73" x="3552.099609"/>
    <use xlink:href="#DejaVuSansMono-73" x="3612.304688"/>
    <use xlink:href="#DejaVuSansMono-2d" x="3672.509766"/>
    <use xlink:href="#DejaVuSansMono-63" x="3732.714844"/>
    <use xlink:href="#DejaVuSansMono-68" x="3792.919922"/>
    <use xlink:href="#DejaVuSansMono-65" x="3853.125"/>
    <use xlink:href="#DejaVuSansMono-63" x="3913.330078"/>
    <use xlink:href="#DejaVuSansMono-6b" x="3973.535156"/>
    <use xlink:href="#DejaVuSansMono-20" x="4033.740234"/>
    <use xlink:href="#DejaVuSansMono-61" x="4093.945312"/>
    <use xlink:href="#DejaVuSansMono-67" x="4154.150391"/>
    <use xlink:href="#DejaVuSansMono-61" x="4214.355469"/>
    <use xlink:href="#DejaVuSansMono-69" x="4274.560547"/>
    <use xlink:href="#DejaVuSansMono-6e" x="4334.765625"/>
    <use xlink:href="#DejaVuSansMono-73" x="4394.970703"/>
    <use xlink:href="#DejaVuSansMono-74" x="4455.175781"/>
    <use xlink:href="#DejaVuSansMono-20" x="4515.380859"/>
    <use xlink:href="#DejaVuSansMono-74" x="4575.585938"/>
    <use xlink:href="#DejaVuSansMono-68" x="4635.791016"/>
    <use xlink:href="#DejaVuSansMono-65" x="4695.996094"/>
    <use xlink:href="#DejaVuSansMono-20" x="4756.201172"/>
    <use xlink:href="#DejaVuSansMono-67" x="4816.40625"/>
    <use xlink:href="#DejaVuSansMono-65" x="4876.611328"/>
    <use xlink:href="#DejaVuSansMono-6e" x="4936.816406"/>
    <use xlink:href="#DejaVuSansMono-65" x="4997.021484"/>
    <use xlink:href="#DejaVuSansMono-72" x="5057.226562"/>
    <use xlink:href="#DejaVuSansMono-61" x="5117.431641"/>
    <use xlink:href="#DejaVuSansMono-74" x="5177.636719"/>
    <use xlink:href="#DejaVuSansMono-6f" x="5237.841797"/>
    <use xlink:href="#DejaVuSansMono-72" x="5298.046875"/>
    <use xlink:href="#DejaVuSansMono-20" x="5358.251953"/>
    <use xlink:href="#DejaVuSansMono-73" x="5418.457031"/>
    <use xlink:href="#DejaVuSansMono-74" x="5478.662109"/>
    <use xlink:href="#DejaVuSansMono-72" x="5538.867188"/>
    <use xlink:href="#DejaVuSansMono-65" x="5599.072266"/>
    <use xlink:href="#DejaVuSansMono-61" x="5659.277344"/>
    <use xlink:href="#DejaVuSansMono-6d" x="5719.482422"/>
    <use xlink:href="#DejaVuSansMono-20" x="5779.6875"/>
    <use xlink:href="#DejaVuSansMono-b7" x="5839.892578"/>
    <use xlink:href="#DejaVuSansMono-20" x="5900.097656"/>
    <use xlink:href="#DejaVuSansMono-73" x="5960.302734"/>
    <use xlink:href="#DejaVuSansMono-68" x="6020.507812"/>
    <use xlink:href="#DejaVuSansMono-61" x="6080.712891"/>
    <use xlink:href="#DejaVuSansMono-72" x="6140.917969"/>
    <use xlink:href="#DejaVuSansMono-65" x="6201.123047"/>
    <use xlink:href="#DejaVuSansMono-64" x="6261.328125"/>
    <use xlink:href="#DejaVuSansMono-2d" x="6321.533203"/>
    <use xlink:href="#DejaVuSansMono-6d" x="6381.738281"/>
    <use xlink:href="#DejaVuSansMono-61" x="6441.943359"/>
    <use xlink:href="#DejaVuSansMono-63" x="6502.148438"/>
    <use xlink:href="#DejaVuSansMono-68" x="6562.353516"/>
    <use xlink:href="#DejaVuSansMono-69" x="6622.558594"/>
    <use xlink:href="#DejaVuSansMono-6e" x="6682.763672"/>
    <use xlink:href="#DejaVuSansMono-65" x="6742.96875"/>
    <use xlink:href="#DejaVuSansMono-20" x="6803.173828"/>
    <use xlink:href="#DejaVuSansMono-6e" x="6863.378906"/>
    <use xlink:href="#DejaVuSansMono-69" x="6923.583984"/>
    <use xlink:href="#DejaVuSansMono-67" x="6983.789062"/>
    <use xlink:href="#DejaVuSansMono-68" x="7043.994141"/>
    <use xlink:href="#DejaVuSansMono-74" x="7104.199219"/>
    <use xlink:href="#DejaVuSansMono-2c" x="7164.404297"/>
    <use xlink:href="#DejaVuSansMono-20" x="7224.609375"/>
    <use xlink:href="#DejaVuSansMono-62" x="7284.814453"/>
    <use xlink:href="#DejaVuSansMono-6f" x="7345.019531"/>
    <use xlink:href="#DejaVuSansMono-6f" x="7405.224609"/>
    <use xlink:href="#DejaVuSansMono-73" x="7465.429688"/>
    <use xlink:href="#DejaVuSansMono-74" x="7525.634766"/>
    <use xlink:href="#DejaVuSansMono-65" x="7585.839844"/>
    <use xlink:href="#DejaVuSansMono-64" x="7646.044922"/>
    <use xlink:href="#DejaVuSansMono-20" x="7706.25"/>
    <use xlink:href="#DejaVuSansMono-51" x="7766.455078"/>
    <use xlink:href="#DejaVuSansMono-6f" x="7826.660156"/>
    <use xlink:href="#DejaVuSansMono-53" x="7886.865234"/>
   </g>
  </g>
 </g>
 <defs>
  <clipPath id="p969a242d0c">
   <rect x="24.118" y="25.616719" width="656.57" height="174.84"/>
  </clipPath>
  <clipPath id="p3222eac9fc">
   <rect x="24.118" y="257.816719" width="656.57" height="174.84"/>
  </clipPath>
 </defs>
 <defs>
  <pattern id="hfac67c1c7b" patternUnits="userSpaceOnUse" x="0" y="0" width="72" height="72">
   <rect x="0" y="0" width="73" height="73" fill="#8b949e"/>
   <path d="M -36 36 
L 36 -36 
M -32 40 
L 40 -32 
M -28 44 
L 44 -28 
M -24 48 
L 48 -24 
M -20 52 
L 52 -20 
M -16 56 
L 56 -16 
M -12 60 
L 60 -12 
M -8 64 
L 64 -8 
M -4 68 
L 68 -4 
M 0 72 
L 72 0 
M 4 76 
L 76 4 
M 8 80 
L 80 8 
M 12 84 
L 84 12 
M 16 88 
L 88 16 
M 20 92 
L 92 20 
M 24 96 
L 96 24 
M 28 100 
L 100 28 
M 32 104 
L 104 32 
M 36 108 
L 108 36 
" style="fill: #000000; stroke: #000000; stroke-width: 1.0; stroke-linecap: butt; stroke-linejoin: miter"/>
  </pattern>
 </defs>
</svg>
