<?xml version="1.0" encoding="utf-8" standalone="no"?>
<!DOCTYPE svg PUBLIC "-//W3C//DTD SVG 1.1//EN"
  "http://www.w3.org/Graphics/SVG/1.1/DTD/svg11.dtd">
<svg xmlns:xlink="http://www.w3.org/1999/xlink" width="895.77375pt" height="474.382625pt" viewBox="0 0 895.77375 474.382625" xmlns="http://www.w3.org/2000/svg" version="1.1">
 <metadata>
  <rdf:RDF xmlns:dc="http://purl.org/dc/elements/1.1/" xmlns:cc="http://creativecommons.org/ns#" xmlns:rdf="http://www.w3.org/1999/02/22-rdf-syntax-ns#">
   <cc:Work>
    <dc:type rdf:resource="http://purl.org/dc/dcmitype/StillImage"/>
    <dc:date>2026-07-20T10:47:30.266198</dc:date>
    <dc:format>image/svg+xml</dc:format>
    <dc:creator>
     <cc:Agent>
      <dc:title>Matplotlib v3.9.4, https://matplotlib.org/</dc:title>
     </cc:Agent>
    </dc:creator>
   </cc:Work>
  </rdf:RDF>
 </metadata>
 <defs>
  <style type="text/css">*{stroke-linejoin: round; stroke-linecap: butt}</style>
 </defs>
 <g id="figure_1">
  <g id="patch_1">
   <path d="M 0 474.382625 
L 895.77375 474.382625 
L 895.77375 0 
L 0 0 
z
" style="fill: #0d1117"/>
  </g>
  <g id="axes_1">
   <g id="patch_2">
    <path d="M 186.928 441.381875 
L 680.688 441.381875 
L 680.688 30.381875 
L 186.928 30.381875 
z
" style="fill: #0d1117"/>
   </g>
   <g id="matplotlib.axis_1">
    <g id="xtick_1">
     <g id="line2d_1">
      <path d="M 227.048171 441.381875 
L 227.048171 30.381875 
" clip-path="url(#p4e8d3b51b5)" style="fill: none; stroke: #2d333b; stroke-width: 0.6; stroke-linecap: square"/>
     </g>
     <g id="line2d_2">
      <defs>
       <path id="m2c447c702c" d="M 0 0 
L 0 3.5 
" style="stroke: #9da7b3; stroke-width: 0.8"/>
      </defs>
      <g>
       <use xlink:href="#m2c447c702c" x="227.048171" y="441.381875" style="fill: #9da7b3; stroke: #9da7b3; stroke-width: 0.8"/>
      </g>
     </g>
     <g id="text_1">
      <!-- 100µs -->
      <g style="fill: #9da7b3" transform="translate(213.251452 455.220469) scale(0.09 -0.09)">
       <defs>
        <path id="DejaVuSans-31" d="M 794 531 
L 1825 531 
L 1825 4091 
L 703 3866 
L 703 4441 
L 1819 4666 
L 2450 4666 
L 2450 531 
L 3481 531 
L 3481 0 
L 794 0 
L 794 531 
z
" transform="scale(0.015625)"/>
        <path id="DejaVuSans-30" d="M 2034 4250 
Q 1547 4250 1301 3770 
Q 1056 3291 1056 2328 
Q 1056 1369 1301 889 
Q 1547 409 2034 409 
Q 2525 409 2770 889 
Q 3016 1369 3016 2328 
Q 3016 3291 2770 3770 
Q 2525 4250 2034 4250 
z
M 2034 4750 
Q 2819 4750 3233 4129 
Q 3647 3509 3647 2328 
Q 3647 1150 3233 529 
Q 2819 -91 2034 -91 
Q 1250 -91 836 529 
Q 422 1150 422 2328 
Q 422 3509 836 4129 
Q 1250 4750 2034 4750 
z
" transform="scale(0.015625)"/>
        <path id="DejaVuSans-b5" d="M 544 -1331 
L 544 3500 
L 1119 3500 
L 1119 1325 
Q 1119 872 1334 640 
Q 1550 409 1972 409 
Q 2434 409 2667 671 
Q 2900 934 2900 1459 
L 2900 3500 
L 3475 3500 
L 3475 806 
Q 3475 619 3529 530 
Q 3584 441 3700 441 
Q 3728 441 3778 458 
Q 3828 475 3916 513 
L 3916 50 
Q 3788 -22 3673 -56 
Q 3559 -91 3450 -91 
Q 3234 -91 3106 31 
Q 2978 153 2931 403 
Q 2775 156 2548 32 
Q 2322 -91 2016 -91 
Q 1697 -91 1473 31 
Q 1250 153 1119 397 
L 1119 -1331 
L 544 -1331 
z
" transform="scale(0.015625)"/>
        <path id="DejaVuSans-73" d="M 2834 3397 
L 2834 2853 
Q 2591 2978 2328 3040 
Q 2066 3103 1784 3103 
Q 1356 3103 1142 2972 
Q 928 2841 928 2578 
Q 928 2378 1081 2264 
Q 1234 2150 1697 2047 
L 1894 2003 
Q 2506 1872 2764 1633 
Q 3022 1394 3022 966 
Q 3022 478 2636 193 
Q 2250 -91 1575 -91 
Q 1294 -91 989 -36 
Q 684 19 347 128 
L 347 722 
Q 666 556 975 473 
Q 1284 391 1588 391 
Q 1994 391 2212 530 
Q 2431 669 2431 922 
Q 2431 1156 2273 1281 
Q 2116 1406 1581 1522 
L 1381 1569 
Q 847 1681 609 1914 
Q 372 2147 372 2553 
Q 372 3047 722 3315 
Q 1072 3584 1716 3584 
Q 2034 3584 2315 3537 
Q 2597 3491 2834 3397 
z
" transform="scale(0.015625)"/>
       </defs>
       <use xlink:href="#DejaVuSans-31"/>
       <use xlink:href="#DejaVuSans-30" x="63.623047"/>
       <use xlink:href="#DejaVuSans-30" x="127.246094"/>
       <use xlink:href="#DejaVuSans-b5" x="190.869141"/>
       <use xlink:href="#DejaVuSans-73" x="254.492188"/>
      </g>
     </g>
    </g>
    <g id="xtick_2">
     <g id="line2d_3">
      <path d="M 306.652435 441.381875 
L 306.652435 30.381875 
" clip-path="url(#p4e8d3b51b5)" style="fill: none; stroke: #2d333b; stroke-width: 0.6; stroke-linecap: square"/>
     </g>
     <g id="line2d_4">
      <g>
       <use xlink:href="#m2c447c702c" x="306.652435" y="441.381875" style="fill: #9da7b3; stroke: #9da7b3; stroke-width: 0.8"/>
      </g>
     </g>
     <g id="text_2">
      <!-- 1ms -->
      <g style="fill: #9da7b3" transform="translate(297.06181 455.220469) scale(0.09 -0.09)">
       <defs>
        <path id="DejaVuSans-6d" d="M 3328 2828 
Q 3544 3216 3844 3400 
Q 4144 3584 4550 3584 
Q 5097 3584 5394 3201 
Q 5691 2819 5691 2113 
L 5691 0 
L 5113 0 
L 5113 2094 
Q 5113 2597 4934 2840 
Q 4756 3084 4391 3084 
Q 3944 3084 3684 2787 
Q 3425 2491 3425 1978 
L 3425 0 
L 2847 0 
L 2847 2094 
Q 2847 2600 2669 2842 
Q 2491 3084 2119 3084 
Q 1678 3084 1418 2786 
Q 1159 2488 1159 1978 
L 1159 0 
L 581 0 
L 581 3500 
L 1159 3500 
L 1159 2956 
Q 1356 3278 1631 3431 
Q 1906 3584 2284 3584 
Q 2666 3584 2933 3390 
Q 3200 3197 3328 2828 
z
" transform="scale(0.015625)"/>
       </defs>
       <use xlink:href="#DejaVuSans-31"/>
       <use xlink:href="#DejaVuSans-6d" x="63.623047"/>
       <use xlink:href="#DejaVuSans-73" x="161.035156"/>
      </g>
     </g>
    </g>
    <g id="xtick_3">
     <g id="line2d_5">
      <path d="M 386.2567 441.381875 
L 386.2567 30.381875 
" clip-path="url(#p4e8d3b51b5)" style="fill: none; stroke: #2d333b; stroke-width: 0.6; stroke-linecap: square"/>
     </g>
     <g id="line2d_6">
      <g>
       <use xlink:href="#m2c447c702c" x="386.2567" y="441.381875" style="fill: #9da7b3; stroke: #9da7b3; stroke-width: 0.8"/>
      </g>
     </g>
     <g id="text_3">
      <!-- 10ms -->
      <g style="fill: #9da7b3" transform="translate(373.80295 455.220469) scale(0.09 -0.09)">
       <use xlink:href="#DejaVuSans-31"/>
       <use xlink:href="#DejaVuSans-30" x="63.623047"/>
       <use xlink:href="#DejaVuSans-6d" x="127.246094"/>
       <use xlink:href="#DejaVuSans-73" x="224.658203"/>
      </g>
     </g>
    </g>
    <g id="xtick_4">
     <g id="line2d_7">
      <path d="M 465.860964 441.381875 
L 465.860964 30.381875 
" clip-path="url(#p4e8d3b51b5)" style="fill: none; stroke: #2d333b; stroke-width: 0.6; stroke-linecap: square"/>
     </g>
     <g id="line2d_8">
      <g>
       <use xlink:href="#m2c447c702c" x="465.860964" y="441.381875" style="fill: #9da7b3; stroke: #9da7b3; stroke-width: 0.8"/>
      </g>
     </g>
     <g id="text_4">
      <!-- 100ms -->
      <g style="fill: #9da7b3" transform="translate(450.544089 455.220469) scale(0.09 -0.09)">
       <use xlink:href="#DejaVuSans-31"/>
       <use xlink:href="#DejaVuSans-30" x="63.623047"/>
       <use xlink:href="#DejaVuSans-30" x="127.246094"/>
       <use xlink:href="#DejaVuSans-6d" x="190.869141"/>
       <use xlink:href="#DejaVuSans-73" x="288.28125"/>
      </g>
     </g>
    </g>
    <g id="xtick_5">
     <g id="line2d_9">
      <path d="M 545.465228 441.381875 
L 545.465228 30.381875 
" clip-path="url(#p4e8d3b51b5)" style="fill: none; stroke: #2d333b; stroke-width: 0.6; stroke-linecap: square"/>
     </g>
     <g id="line2d_10">
      <g>
       <use xlink:href="#m2c447c702c" x="545.465228" y="441.381875" style="fill: #9da7b3; stroke: #9da7b3; stroke-width: 0.8"/>
      </g>
     </g>
     <g id="text_5">
      <!-- 1.0s -->
      <g style="fill: #9da7b3" transform="translate(535.964603 455.220469) scale(0.09 -0.09)">
       <defs>
        <path id="DejaVuSans-2e" d="M 684 794 
L 1344 794 
L 1344 0 
L 684 0 
L 684 794 
z
" transform="scale(0.015625)"/>
       </defs>
       <use xlink:href="#DejaVuSans-31"/>
       <use xlink:href="#DejaVuSans-2e" x="63.623047"/>
       <use xlink:href="#DejaVuSans-30" x="95.410156"/>
       <use xlink:href="#DejaVuSans-73" x="159.033203"/>
      </g>
     </g>
    </g>
    <g id="xtick_6">
     <g id="line2d_11">
      <path d="M 625.069493 441.381875 
L 625.069493 30.381875 
" clip-path="url(#p4e8d3b51b5)" style="fill: none; stroke: #2d333b; stroke-width: 0.6; stroke-linecap: square"/>
     </g>
     <g id="line2d_12">
      <g>
       <use xlink:href="#m2c447c702c" x="625.069493" y="441.381875" style="fill: #9da7b3; stroke: #9da7b3; stroke-width: 0.8"/>
      </g>
     </g>
     <g id="text_6">
      <!-- 10.0s -->
      <g style="fill: #9da7b3" transform="translate(612.705743 455.220469) scale(0.09 -0.09)">
       <use xlink:href="#DejaVuSans-31"/>
       <use xlink:href="#DejaVuSans-30" x="63.623047"/>
       <use xlink:href="#DejaVuSans-2e" x="127.246094"/>
       <use xlink:href="#DejaVuSans-30" x="159.033203"/>
       <use xlink:href="#DejaVuSans-73" x="222.65625"/>
      </g>
     </g>
    </g>
    <g id="xtick_7">
     <g id="line2d_13">
      <defs>
       <path id="m7f5052aa10" d="M 0 0 
L 0 2 
" style="stroke: #000000; stroke-width: 0.6"/>
      </defs>
      <g>
       <use xlink:href="#m7f5052aa10" x="195.370449" y="441.381875" style="stroke: #000000; stroke-width: 0.6"/>
      </g>
     </g>
    </g>
    <g id="xtick_8">
     <g id="line2d_14">
      <g>
       <use xlink:href="#m7f5052aa10" x="203.0849" y="441.381875" style="stroke: #000000; stroke-width: 0.6"/>
      </g>
     </g>
    </g>
    <g id="xtick_9">
     <g id="line2d_15">
      <g>
       <use xlink:href="#m7f5052aa10" x="209.388065" y="441.381875" style="stroke: #000000; stroke-width: 0.6"/>
      </g>
     </g>
    </g>
    <g id="xtick_10">
     <g id="line2d_16">
      <g>
       <use xlink:href="#m7f5052aa10" x="214.717314" y="441.381875" style="stroke: #000000; stroke-width: 0.6"/>
      </g>
     </g>
    </g>
    <g id="xtick_11">
     <g id="line2d_17">
      <g>
       <use xlink:href="#m7f5052aa10" x="219.333721" y="441.381875" style="stroke: #000000; stroke-width: 0.6"/>
      </g>
     </g>
    </g>
    <g id="xtick_12">
     <g id="line2d_18">
      <g>
       <use xlink:href="#m7f5052aa10" x="223.40568" y="441.381875" style="stroke: #000000; stroke-width: 0.6"/>
      </g>
     </g>
    </g>
    <g id="xtick_13">
     <g id="line2d_19">
      <g>
       <use xlink:href="#m7f5052aa10" x="251.011442" y="441.381875" style="stroke: #000000; stroke-width: 0.6"/>
      </g>
     </g>
    </g>
    <g id="xtick_14">
     <g id="line2d_20">
      <g>
       <use xlink:href="#m7f5052aa10" x="265.029058" y="441.381875" style="stroke: #000000; stroke-width: 0.6"/>
      </g>
     </g>
    </g>
    <g id="xtick_15">
     <g id="line2d_21">
      <g>
       <use xlink:href="#m7f5052aa10" x="274.974714" y="441.381875" style="stroke: #000000; stroke-width: 0.6"/>
      </g>
     </g>
    </g>
    <g id="xtick_16">
     <g id="line2d_22">
      <g>
       <use xlink:href="#m7f5052aa10" x="282.689164" y="441.381875" style="stroke: #000000; stroke-width: 0.6"/>
      </g>
     </g>
    </g>
    <g id="xtick_17">
     <g id="line2d_23">
      <g>
       <use xlink:href="#m7f5052aa10" x="288.992329" y="441.381875" style="stroke: #000000; stroke-width: 0.6"/>
      </g>
     </g>
    </g>
    <g id="xtick_18">
     <g id="line2d_24">
      <g>
       <use xlink:href="#m7f5052aa10" x="294.321579" y="441.381875" style="stroke: #000000; stroke-width: 0.6"/>
      </g>
     </g>
    </g>
    <g id="xtick_19">
     <g id="line2d_25">
      <g>
       <use xlink:href="#m7f5052aa10" x="298.937985" y="441.381875" style="stroke: #000000; stroke-width: 0.6"/>
      </g>
     </g>
    </g>
    <g id="xtick_20">
     <g id="line2d_26">
      <g>
       <use xlink:href="#m7f5052aa10" x="303.009944" y="441.381875" style="stroke: #000000; stroke-width: 0.6"/>
      </g>
     </g>
    </g>
    <g id="xtick_21">
     <g id="line2d_27">
      <g>
       <use xlink:href="#m7f5052aa10" x="330.615707" y="441.381875" style="stroke: #000000; stroke-width: 0.6"/>
      </g>
     </g>
    </g>
    <g id="xtick_22">
     <g id="line2d_28">
      <g>
       <use xlink:href="#m7f5052aa10" x="344.633322" y="441.381875" style="stroke: #000000; stroke-width: 0.6"/>
      </g>
     </g>
    </g>
    <g id="xtick_23">
     <g id="line2d_29">
      <g>
       <use xlink:href="#m7f5052aa10" x="354.578978" y="441.381875" style="stroke: #000000; stroke-width: 0.6"/>
      </g>
     </g>
    </g>
    <g id="xtick_24">
     <g id="line2d_30">
      <g>
       <use xlink:href="#m7f5052aa10" x="362.293428" y="441.381875" style="stroke: #000000; stroke-width: 0.6"/>
      </g>
     </g>
    </g>
    <g id="xtick_25">
     <g id="line2d_31">
      <g>
       <use xlink:href="#m7f5052aa10" x="368.596593" y="441.381875" style="stroke: #000000; stroke-width: 0.6"/>
      </g>
     </g>
    </g>
    <g id="xtick_26">
     <g id="line2d_32">
      <g>
       <use xlink:href="#m7f5052aa10" x="373.925843" y="441.381875" style="stroke: #000000; stroke-width: 0.6"/>
      </g>
     </g>
    </g>
    <g id="xtick_27">
     <g id="line2d_33">
      <g>
       <use xlink:href="#m7f5052aa10" x="378.542249" y="441.381875" style="stroke: #000000; stroke-width: 0.6"/>
      </g>
     </g>
    </g>
    <g id="xtick_28">
     <g id="line2d_34">
      <g>
       <use xlink:href="#m7f5052aa10" x="382.614208" y="441.381875" style="stroke: #000000; stroke-width: 0.6"/>
      </g>
     </g>
    </g>
    <g id="xtick_29">
     <g id="line2d_35">
      <g>
       <use xlink:href="#m7f5052aa10" x="410.219971" y="441.381875" style="stroke: #000000; stroke-width: 0.6"/>
      </g>
     </g>
    </g>
    <g id="xtick_30">
     <g id="line2d_36">
      <g>
       <use xlink:href="#m7f5052aa10" x="424.237586" y="441.381875" style="stroke: #000000; stroke-width: 0.6"/>
      </g>
     </g>
    </g>
    <g id="xtick_31">
     <g id="line2d_37">
      <g>
       <use xlink:href="#m7f5052aa10" x="434.183242" y="441.381875" style="stroke: #000000; stroke-width: 0.6"/>
      </g>
     </g>
    </g>
    <g id="xtick_32">
     <g id="line2d_38">
      <g>
       <use xlink:href="#m7f5052aa10" x="441.897693" y="441.381875" style="stroke: #000000; stroke-width: 0.6"/>
      </g>
     </g>
    </g>
    <g id="xtick_33">
     <g id="line2d_39">
      <g>
       <use xlink:href="#m7f5052aa10" x="448.200858" y="441.381875" style="stroke: #000000; stroke-width: 0.6"/>
      </g>
     </g>
    </g>
    <g id="xtick_34">
     <g id="line2d_40">
      <g>
       <use xlink:href="#m7f5052aa10" x="453.530108" y="441.381875" style="stroke: #000000; stroke-width: 0.6"/>
      </g>
     </g>
    </g>
    <g id="xtick_35">
     <g id="line2d_41">
      <g>
       <use xlink:href="#m7f5052aa10" x="458.146514" y="441.381875" style="stroke: #000000; stroke-width: 0.6"/>
      </g>
     </g>
    </g>
    <g id="xtick_36">
     <g id="line2d_42">
      <g>
       <use xlink:href="#m7f5052aa10" x="462.218473" y="441.381875" style="stroke: #000000; stroke-width: 0.6"/>
      </g>
     </g>
    </g>
    <g id="xtick_37">
     <g id="line2d_43">
      <g>
       <use xlink:href="#m7f5052aa10" x="489.824235" y="441.381875" style="stroke: #000000; stroke-width: 0.6"/>
      </g>
     </g>
    </g>
    <g id="xtick_38">
     <g id="line2d_44">
      <g>
       <use xlink:href="#m7f5052aa10" x="503.841851" y="441.381875" style="stroke: #000000; stroke-width: 0.6"/>
      </g>
     </g>
    </g>
    <g id="xtick_39">
     <g id="line2d_45">
      <g>
       <use xlink:href="#m7f5052aa10" x="513.787507" y="441.381875" style="stroke: #000000; stroke-width: 0.6"/>
      </g>
     </g>
    </g>
    <g id="xtick_40">
     <g id="line2d_46">
      <g>
       <use xlink:href="#m7f5052aa10" x="521.501957" y="441.381875" style="stroke: #000000; stroke-width: 0.6"/>
      </g>
     </g>
    </g>
    <g id="xtick_41">
     <g id="line2d_47">
      <g>
       <use xlink:href="#m7f5052aa10" x="527.805122" y="441.381875" style="stroke: #000000; stroke-width: 0.6"/>
      </g>
     </g>
    </g>
    <g id="xtick_42">
     <g id="line2d_48">
      <g>
       <use xlink:href="#m7f5052aa10" x="533.134372" y="441.381875" style="stroke: #000000; stroke-width: 0.6"/>
      </g>
     </g>
    </g>
    <g id="xtick_43">
     <g id="line2d_49">
      <g>
       <use xlink:href="#m7f5052aa10" x="537.750778" y="441.381875" style="stroke: #000000; stroke-width: 0.6"/>
      </g>
     </g>
    </g>
    <g id="xtick_44">
     <g id="line2d_50">
      <g>
       <use xlink:href="#m7f5052aa10" x="541.822737" y="441.381875" style="stroke: #000000; stroke-width: 0.6"/>
      </g>
     </g>
    </g>
    <g id="xtick_45">
     <g id="line2d_51">
      <g>
       <use xlink:href="#m7f5052aa10" x="569.4285" y="441.381875" style="stroke: #000000; stroke-width: 0.6"/>
      </g>
     </g>
    </g>
    <g id="xtick_46">
     <g id="line2d_52">
      <g>
       <use xlink:href="#m7f5052aa10" x="583.446115" y="441.381875" style="stroke: #000000; stroke-width: 0.6"/>
      </g>
     </g>
    </g>
    <g id="xtick_47">
     <g id="line2d_53">
      <g>
       <use xlink:href="#m7f5052aa10" x="593.391771" y="441.381875" style="stroke: #000000; stroke-width: 0.6"/>
      </g>
     </g>
    </g>
    <g id="xtick_48">
     <g id="line2d_54">
      <g>
       <use xlink:href="#m7f5052aa10" x="601.106221" y="441.381875" style="stroke: #000000; stroke-width: 0.6"/>
      </g>
     </g>
    </g>
    <g id="xtick_49">
     <g id="line2d_55">
      <g>
       <use xlink:href="#m7f5052aa10" x="607.409386" y="441.381875" style="stroke: #000000; stroke-width: 0.6"/>
      </g>
     </g>
    </g>
    <g id="xtick_50">
     <g id="line2d_56">
      <g>
       <use xlink:href="#m7f5052aa10" x="612.738636" y="441.381875" style="stroke: #000000; stroke-width: 0.6"/>
      </g>
     </g>
    </g>
    <g id="xtick_51">
     <g id="line2d_57">
      <g>
       <use xlink:href="#m7f5052aa10" x="617.355043" y="441.381875" style="stroke: #000000; stroke-width: 0.6"/>
      </g>
     </g>
    </g>
    <g id="xtick_52">
     <g id="line2d_58">
      <g>
       <use xlink:href="#m7f5052aa10" x="621.427001" y="441.381875" style="stroke: #000000; stroke-width: 0.6"/>
      </g>
     </g>
    </g>
    <g id="xtick_53">
     <g id="line2d_59">
      <g>
       <use xlink:href="#m7f5052aa10" x="649.032764" y="441.381875" style="stroke: #000000; stroke-width: 0.6"/>
      </g>
     </g>
    </g>
    <g id="xtick_54">
     <g id="line2d_60">
      <g>
       <use xlink:href="#m7f5052aa10" x="663.050379" y="441.381875" style="stroke: #000000; stroke-width: 0.6"/>
      </g>
     </g>
    </g>
    <g id="xtick_55">
     <g id="line2d_61">
      <g>
       <use xlink:href="#m7f5052aa10" x="672.996036" y="441.381875" style="stroke: #000000; stroke-width: 0.6"/>
      </g>
     </g>
    </g>
   </g>
   <g id="matplotlib.axis_2">
    <g id="ytick_1">
     <g id="line2d_62">
      <defs>
       <path id="m6856018e79" d="M 0 0 
L -3.5 0 
" style="stroke: #9da7b3; stroke-width: 0.8"/>
      </defs>
      <g>
       <use xlink:href="#m6856018e79" x="186.928" y="64.489048" style="fill: #9da7b3; stroke: #9da7b3; stroke-width: 0.8"/>
      </g>
     </g>
     <g id="text_7">
      <!-- commit_single -->
      <g style="fill: #e6edf3" transform="translate(101.663937 68.314829) scale(0.1 -0.1)">
       <defs>
        <path id="DejaVuSansMono-63" d="M 3316 178 
Q 3084 44 2839 -23 
Q 2594 -91 2338 -91 
Q 1525 -91 1067 396 
Q 609 884 609 1747 
Q 609 2609 1067 3096 
Q 1525 3584 2338 3584 
Q 2591 3584 2831 3518 
Q 3072 3453 3316 3316 
L 3316 2713 
Q 3088 2916 2858 3006 
Q 2628 3097 2338 3097 
Q 1797 3097 1506 2747 
Q 1216 2397 1216 1747 
Q 1216 1100 1508 748 
Q 1800 397 2338 397 
Q 2638 397 2875 489 
Q 3113 581 3316 775 
L 3316 178 
z
" transform="scale(0.015625)"/>
        <path id="DejaVuSansMono-6f" d="M 1925 3097 
Q 1488 3097 1263 2756 
Q 1038 2416 1038 1747 
Q 1038 1081 1263 739 
Q 1488 397 1925 397 
Q 2366 397 2591 739 
Q 2816 1081 2816 1747 
Q 2816 2416 2591 2756 
Q 2366 3097 1925 3097 
z
M 1925 3584 
Q 2653 3584 3039 3112 
Q 3425 2641 3425 1747 
Q 3425 850 3040 379 
Q 2656 -91 1925 -91 
Q 1197 -91 812 379 
Q 428 850 428 1747 
Q 428 2641 812 3112 
Q 1197 3584 1925 3584 
z
" transform="scale(0.015625)"/>
        <path id="DejaVuSansMono-6d" d="M 2113 3144 
Q 2219 3369 2383 3476 
Q 2547 3584 2778 3584 
Q 3200 3584 3373 3257 
Q 3547 2931 3547 2028 
L 3547 0 
L 3022 0 
L 3022 2003 
Q 3022 2744 2939 2923 
Q 2856 3103 2638 3103 
Q 2388 3103 2295 2911 
Q 2203 2719 2203 2003 
L 2203 0 
L 1678 0 
L 1678 2003 
Q 1678 2753 1589 2928 
Q 1500 3103 1269 3103 
Q 1041 3103 952 2911 
Q 863 2719 863 2003 
L 863 0 
L 341 0 
L 341 3500 
L 863 3500 
L 863 3200 
Q 966 3388 1120 3486 
Q 1275 3584 1472 3584 
Q 1709 3584 1867 3475 
Q 2025 3366 2113 3144 
z
" transform="scale(0.015625)"/>
        <path id="DejaVuSansMono-69" d="M 800 3500 
L 2272 3500 
L 2272 447 
L 3413 447 
L 3413 0 
L 556 0 
L 556 447 
L 1697 447 
L 1697 3053 
L 800 3053 
L 800 3500 
z
M 1697 4863 
L 2272 4863 
L 2272 4134 
L 1697 4134 
L 1697 4863 
z
" transform="scale(0.015625)"/>
        <path id="DejaVuSansMono-74" d="M 1919 4494 
L 1919 3500 
L 3225 3500 
L 3225 3053 
L 1919 3053 
L 1919 1153 
Q 1919 766 2066 612 
Q 2213 459 2578 459 
L 3225 459 
L 3225 0 
L 2522 0 
Q 1875 0 1609 259 
Q 1344 519 1344 1153 
L 1344 3053 
L 409 3053 
L 409 3500 
L 1344 3500 
L 1344 4494 
L 1919 4494 
z
" transform="scale(0.015625)"/>
        <path id="DejaVuSansMono-5f" d="M 3853 -1259 
L 3853 -1509 
L 0 -1509 
L 0 -1259 
L 3853 -1259 
z
" transform="scale(0.015625)"/>
        <path id="DejaVuSansMono-73" d="M 3041 3378 
L 3041 2816 
Q 2794 2959 2544 3031 
Q 2294 3103 2034 3103 
Q 1644 3103 1451 2976 
Q 1259 2850 1259 2591 
Q 1259 2356 1403 2240 
Q 1547 2125 2119 2016 
L 2350 1972 
Q 2778 1891 2998 1647 
Q 3219 1403 3219 1013 
Q 3219 494 2850 201 
Q 2481 -91 1825 -91 
Q 1566 -91 1281 -36 
Q 997 19 666 128 
L 666 722 
Q 988 556 1281 473 
Q 1575 391 1838 391 
Q 2219 391 2428 545 
Q 2638 700 2638 978 
Q 2638 1378 1872 1531 
L 1847 1538 
L 1631 1581 
Q 1134 1678 906 1908 
Q 678 2138 678 2534 
Q 678 3038 1018 3311 
Q 1359 3584 1991 3584 
Q 2272 3584 2531 3532 
Q 2791 3481 3041 3378 
z
" transform="scale(0.015625)"/>
        <path id="DejaVuSansMono-6e" d="M 3284 2169 
L 3284 0 
L 2706 0 
L 2706 2169 
Q 2706 2641 2540 2862 
Q 2375 3084 2022 3084 
Q 1619 3084 1401 2798 
Q 1184 2513 1184 1978 
L 1184 0 
L 609 0 
L 609 3500 
L 1184 3500 
L 1184 2975 
Q 1338 3275 1600 3429 
Q 1863 3584 2222 3584 
Q 2756 3584 3020 3232 
Q 3284 2881 3284 2169 
z
" transform="scale(0.015625)"/>
        <path id="DejaVuSansMono-67" d="M 2681 1778 
Q 2681 2425 2470 2761 
Q 2259 3097 1856 3097 
Q 1434 3097 1212 2761 
Q 991 2425 991 1778 
Q 991 1131 1214 792 
Q 1438 453 1863 453 
Q 2259 453 2470 793 
Q 2681 1134 2681 1778 
z
M 3256 225 
Q 3256 -563 2884 -969 
Q 2513 -1375 1791 -1375 
Q 1553 -1375 1293 -1331 
Q 1034 -1288 775 -1203 
L 775 -634 
Q 1081 -778 1331 -847 
Q 1581 -916 1791 -916 
Q 2256 -916 2468 -662 
Q 2681 -409 2681 141 
L 2681 166 
L 2681 556 
Q 2544 263 2306 119 
Q 2069 -25 1728 -25 
Q 1116 -25 750 465 
Q 384 956 384 1778 
Q 384 2603 750 3093 
Q 1116 3584 1728 3584 
Q 2066 3584 2300 3450 
Q 2534 3316 2681 3034 
L 2681 3488 
L 3256 3488 
L 3256 225 
z
" transform="scale(0.015625)"/>
        <path id="DejaVuSansMono-6c" d="M 1997 1269 
Q 1997 881 2139 684 
Q 2281 488 2559 488 
L 3231 488 
L 3231 0 
L 2503 0 
Q 1988 0 1705 331 
Q 1422 663 1422 1269 
L 1422 4447 
L 500 4447 
L 500 4897 
L 1997 4897 
L 1997 1269 
z
" transform="scale(0.015625)"/>
        <path id="DejaVuSansMono-65" d="M 3475 1894 
L 3475 1613 
L 984 1613 
L 984 1594 
Q 984 1022 1282 709 
Q 1581 397 2125 397 
Q 2400 397 2700 484 
Q 3000 572 3341 750 
L 3341 178 
Q 3013 44 2708 -23 
Q 2403 -91 2119 -91 
Q 1303 -91 843 398 
Q 384 888 384 1747 
Q 384 2584 834 3084 
Q 1284 3584 2034 3584 
Q 2703 3584 3089 3131 
Q 3475 2678 3475 1894 
z
M 2900 2063 
Q 2888 2569 2661 2833 
Q 2434 3097 2009 3097 
Q 1594 3097 1325 2822 
Q 1056 2547 1006 2059 
L 2900 2063 
z
" transform="scale(0.015625)"/>
       </defs>
       <use xlink:href="#DejaVuSansMono-63"/>
       <use xlink:href="#DejaVuSansMono-6f" x="60.205078"/>
       <use xlink:href="#DejaVuSansMono-6d" x="120.410156"/>
       <use xlink:href="#DejaVuSansMono-6d" x="180.615234"/>
       <use xlink:href="#DejaVuSansMono-69" x="240.820312"/>
       <use xlink:href="#DejaVuSansMono-74" x="301.025391"/>
       <use xlink:href="#DejaVuSansMono-5f" x="361.230469"/>
       <use xlink:href="#DejaVuSansMono-73" x="421.435547"/>
       <use xlink:href="#DejaVuSansMono-69" x="481.640625"/>
       <use xlink:href="#DejaVuSansMono-6e" x="541.845703"/>
       <use xlink:href="#DejaVuSansMono-67" x="602.050781"/>
       <use xlink:href="#DejaVuSansMono-6c" x="662.255859"/>
       <use xlink:href="#DejaVuSansMono-65" x="722.460938"/>
      </g>
     </g>
    </g>
    <g id="ytick_2">
     <g id="line2d_63">
      <g>
       <use xlink:href="#m6856018e79" x="186.928" y="107.337254" style="fill: #9da7b3; stroke: #9da7b3; stroke-width: 0.8"/>
      </g>
     </g>
     <g id="text_8">
      <!-- commit_witnessed -->
      <g style="fill: #e6edf3" transform="translate(83.603 111.136473) scale(0.1 -0.1)">
       <defs>
        <path id="DejaVuSansMono-77" d="M 0 3500 
L 569 3500 
L 1178 672 
L 1678 2478 
L 2169 2478 
L 2675 672 
L 3284 3500 
L 3853 3500 
L 3034 0 
L 2484 0 
L 1925 1919 
L 1369 0 
L 819 0 
L 0 3500 
z
" transform="scale(0.015625)"/>
        <path id="DejaVuSansMono-64" d="M 2681 3053 
L 2681 4863 
L 3256 4863 
L 3256 0 
L 2681 0 
L 2681 441 
Q 2538 181 2298 45 
Q 2059 -91 1747 -91 
Q 1113 -91 748 401 
Q 384 894 384 1759 
Q 384 2613 750 3098 
Q 1116 3584 1747 3584 
Q 2063 3584 2303 3448 
Q 2544 3313 2681 3053 
z
M 991 1747 
Q 991 1078 1203 737 
Q 1416 397 1831 397 
Q 2247 397 2464 740 
Q 2681 1084 2681 1747 
Q 2681 2413 2464 2755 
Q 2247 3097 1831 3097 
Q 1416 3097 1203 2756 
Q 991 2416 991 1747 
z
" transform="scale(0.015625)"/>
       </defs>
       <use xlink:href="#DejaVuSansMono-63"/>
       <use xlink:href="#DejaVuSansMono-6f" x="60.205078"/>
       <use xlink:href="#DejaVuSansMono-6d" x="120.410156"/>
       <use xlink:href="#DejaVuSansMono-6d" x="180.615234"/>
       <use xlink:href="#DejaVuSansMono-69" x="240.820312"/>
       <use xlink:href="#DejaVuSansMono-74" x="301.025391"/>
       <use xlink:href="#DejaVuSansMono-5f" x="361.230469"/>
       <use xlink:href="#DejaVuSansMono-77" x="421.435547"/>
       <use xlink:href="#DejaVuSansMono-69" x="481.640625"/>
       <use xlink:href="#DejaVuSansMono-74" x="541.845703"/>
       <use xlink:href="#DejaVuSansMono-6e" x="602.050781"/>
       <use xlink:href="#DejaVuSansMono-65" x="662.255859"/>
       <use xlink:href="#DejaVuSansMono-73" x="722.460938"/>
       <use xlink:href="#DejaVuSansMono-73" x="782.666016"/>
       <use xlink:href="#DejaVuSansMono-65" x="842.871094"/>
       <use xlink:href="#DejaVuSansMono-64" x="903.076172"/>
      </g>
     </g>
    </g>
    <g id="ytick_3">
     <g id="line2d_64">
      <g>
       <use xlink:href="#m6856018e79" x="186.928" y="150.185461" style="fill: #9da7b3; stroke: #9da7b3; stroke-width: 0.8"/>
      </g>
     </g>
     <g id="text_9">
      <!-- commit_batch -->
      <g style="fill: #e6edf3" transform="translate(107.68425 153.98468) scale(0.1 -0.1)">
       <defs>
        <path id="DejaVuSansMono-62" d="M 2869 1747 
Q 2869 2416 2656 2756 
Q 2444 3097 2028 3097 
Q 1609 3097 1393 2755 
Q 1178 2413 1178 1747 
Q 1178 1084 1393 740 
Q 1609 397 2028 397 
Q 2444 397 2656 737 
Q 2869 1078 2869 1747 
z
M 1178 3053 
Q 1316 3309 1558 3446 
Q 1800 3584 2119 3584 
Q 2750 3584 3112 3098 
Q 3475 2613 3475 1759 
Q 3475 894 3111 401 
Q 2747 -91 2113 -91 
Q 1800 -91 1561 45 
Q 1322 181 1178 441 
L 1178 0 
L 603 0 
L 603 4863 
L 1178 4863 
L 1178 3053 
z
" transform="scale(0.015625)"/>
        <path id="DejaVuSansMono-61" d="M 2194 1759 
L 2003 1759 
Q 1500 1759 1245 1582 
Q 991 1406 991 1056 
Q 991 741 1181 566 
Q 1372 391 1709 391 
Q 2184 391 2456 720 
Q 2728 1050 2731 1631 
L 2731 1759 
L 2194 1759 
z
M 3309 1997 
L 3309 0 
L 2731 0 
L 2731 519 
Q 2547 206 2267 57 
Q 1988 -91 1588 -91 
Q 1053 -91 734 211 
Q 416 513 416 1019 
Q 416 1603 808 1906 
Q 1200 2209 1959 2209 
L 2731 2209 
L 2731 2300 
Q 2728 2719 2518 2908 
Q 2309 3097 1850 3097 
Q 1556 3097 1256 3012 
Q 956 2928 672 2766 
L 672 3341 
Q 991 3463 1283 3523 
Q 1575 3584 1850 3584 
Q 2284 3584 2592 3456 
Q 2900 3328 3091 3072 
Q 3209 2916 3259 2686 
Q 3309 2456 3309 1997 
z
" transform="scale(0.015625)"/>
        <path id="DejaVuSansMono-68" d="M 3284 2169 
L 3284 0 
L 2706 0 
L 2706 2169 
Q 2706 2641 2540 2862 
Q 2375 3084 2022 3084 
Q 1619 3084 1401 2798 
Q 1184 2513 1184 1978 
L 1184 0 
L 609 0 
L 609 4863 
L 1184 4863 
L 1184 2975 
Q 1338 3275 1600 3429 
Q 1863 3584 2222 3584 
Q 2756 3584 3020 3232 
Q 3284 2881 3284 2169 
z
" transform="scale(0.015625)"/>
       </defs>
       <use xlink:href="#DejaVuSansMono-63"/>
       <use xlink:href="#DejaVuSansMono-6f" x="60.205078"/>
       <use xlink:href="#DejaVuSansMono-6d" x="120.410156"/>
       <use xlink:href="#DejaVuSansMono-6d" x="180.615234"/>
       <use xlink:href="#DejaVuSansMono-69" x="240.820312"/>
       <use xlink:href="#DejaVuSansMono-74" x="301.025391"/>
       <use xlink:href="#DejaVuSansMono-5f" x="361.230469"/>
       <use xlink:href="#DejaVuSansMono-62" x="421.435547"/>
       <use xlink:href="#DejaVuSansMono-61" x="481.640625"/>
       <use xlink:href="#DejaVuSansMono-74" x="541.845703"/>
       <use xlink:href="#DejaVuSansMono-63" x="602.050781"/>
       <use xlink:href="#DejaVuSansMono-68" x="662.255859"/>
      </g>
     </g>
    </g>
    <g id="ytick_4">
     <g id="line2d_65">
      <g>
       <use xlink:href="#m6856018e79" x="186.928" y="193.033668" style="fill: #9da7b3; stroke: #9da7b3; stroke-width: 0.8"/>
      </g>
     </g>
     <g id="text_10">
      <!-- cold_containment_walk -->
      <g style="fill: #e6edf3" transform="translate(53.501437 196.859449) scale(0.1 -0.1)">
       <defs>
        <path id="DejaVuSansMono-6b" d="M 738 4863 
L 1331 4863 
L 1331 2047 
L 2841 3500 
L 3541 3500 
L 2163 2181 
L 3756 0 
L 3053 0 
L 1759 1806 
L 1331 1403 
L 1331 0 
L 738 0 
L 738 4863 
z
" transform="scale(0.015625)"/>
       </defs>
       <use xlink:href="#DejaVuSansMono-63"/>
       <use xlink:href="#DejaVuSansMono-6f" x="60.205078"/>
       <use xlink:href="#DejaVuSansMono-6c" x="120.410156"/>
       <use xlink:href="#DejaVuSansMono-64" x="180.615234"/>
       <use xlink:href="#DejaVuSansMono-5f" x="240.820312"/>
       <use xlink:href="#DejaVuSansMono-63" x="301.025391"/>
       <use xlink:href="#DejaVuSansMono-6f" x="361.230469"/>
       <use xlink:href="#DejaVuSansMono-6e" x="421.435547"/>
       <use xlink:href="#DejaVuSansMono-74" x="481.640625"/>
       <use xlink:href="#DejaVuSansMono-61" x="541.845703"/>
       <use xlink:href="#DejaVuSansMono-69" x="602.050781"/>
       <use xlink:href="#DejaVuSansMono-6e" x="662.255859"/>
       <use xlink:href="#DejaVuSansMono-6d" x="722.460938"/>
       <use xlink:href="#DejaVuSansMono-65" x="782.666016"/>
       <use xlink:href="#DejaVuSansMono-6e" x="842.871094"/>
       <use xlink:href="#DejaVuSansMono-74" x="903.076172"/>
       <use xlink:href="#DejaVuSansMono-5f" x="963.28125"/>
       <use xlink:href="#DejaVuSansMono-77" x="1023.486328"/>
       <use xlink:href="#DejaVuSansMono-61" x="1083.691406"/>
       <use xlink:href="#DejaVuSansMono-6c" x="1143.896484"/>
       <use xlink:href="#DejaVuSansMono-6b" x="1204.101562"/>
      </g>
     </g>
    </g>
    <g id="ytick_5">
     <g id="line2d_66">
      <g>
       <use xlink:href="#m6856018e79" x="186.928" y="235.881875" style="fill: #9da7b3; stroke: #9da7b3; stroke-width: 0.8"/>
      </g>
     </g>
     <g id="text_11">
      <!-- bulk -->
      <g style="fill: #e6edf3" transform="translate(155.84675 239.707656) scale(0.1 -0.1)">
       <defs>
        <path id="DejaVuSansMono-75" d="M 609 1325 
L 609 3494 
L 1184 3494 
L 1184 1325 
Q 1184 853 1351 631 
Q 1519 409 1869 409 
Q 2275 409 2490 695 
Q 2706 981 2706 1516 
L 2706 3494 
L 3284 3494 
L 3284 0 
L 2706 0 
L 2706 525 
Q 2553 222 2289 65 
Q 2025 -91 1672 -91 
Q 1134 -91 871 261 
Q 609 613 609 1325 
z
" transform="scale(0.015625)"/>
       </defs>
       <use xlink:href="#DejaVuSansMono-62"/>
       <use xlink:href="#DejaVuSansMono-75" x="60.205078"/>
       <use xlink:href="#DejaVuSansMono-6c" x="120.410156"/>
       <use xlink:href="#DejaVuSansMono-6b" x="180.615234"/>
      </g>
     </g>
    </g>
    <g id="ytick_6">
     <g id="line2d_67">
      <g>
       <use xlink:href="#m6856018e79" x="186.928" y="278.730082" style="fill: #9da7b3; stroke: #9da7b3; stroke-width: 0.8"/>
      </g>
     </g>
     <g id="text_12">
      <!-- cold_containment_walk_delete -->
      <g style="fill: #e6edf3" transform="translate(11.35925 282.555863) scale(0.1 -0.1)">
       <use xlink:href="#DejaVuSansMono-63"/>
       <use xlink:href="#DejaVuSansMono-6f" x="60.205078"/>
       <use xlink:href="#DejaVuSansMono-6c" x="120.410156"/>
       <use xlink:href="#DejaVuSansMono-64" x="180.615234"/>
       <use xlink:href="#DejaVuSansMono-5f" x="240.820312"/>
       <use xlink:href="#DejaVuSansMono-63" x="301.025391"/>
       <use xlink:href="#DejaVuSansMono-6f" x="361.230469"/>
       <use xlink:href="#DejaVuSansMono-6e" x="421.435547"/>
       <use xlink:href="#DejaVuSansMono-74" x="481.640625"/>
       <use xlink:href="#DejaVuSansMono-61" x="541.845703"/>
       <use xlink:href="#DejaVuSansMono-69" x="602.050781"/>
       <use xlink:href="#DejaVuSansMono-6e" x="662.255859"/>
       <use xlink:href="#DejaVuSansMono-6d" x="722.460938"/>
       <use xlink:href="#DejaVuSansMono-65" x="782.666016"/>
       <use xlink:href="#DejaVuSansMono-6e" x="842.871094"/>
       <use xlink:href="#DejaVuSansMono-74" x="903.076172"/>
       <use xlink:href="#DejaVuSansMono-5f" x="963.28125"/>
       <use xlink:href="#DejaVuSansMono-77" x="1023.486328"/>
       <use xlink:href="#DejaVuSansMono-61" x="1083.691406"/>
       <use xlink:href="#DejaVuSansMono-6c" x="1143.896484"/>
       <use xlink:href="#DejaVuSansMono-6b" x="1204.101562"/>
       <use xlink:href="#DejaVuSansMono-5f" x="1264.306641"/>
       <use xlink:href="#DejaVuSansMono-64" x="1324.511719"/>
       <use xlink:href="#DejaVuSansMono-65" x="1384.716797"/>
       <use xlink:href="#DejaVuSansMono-6c" x="1444.921875"/>
       <use xlink:href="#DejaVuSansMono-65" x="1505.126953"/>
       <use xlink:href="#DejaVuSansMono-74" x="1565.332031"/>
       <use xlink:href="#DejaVuSansMono-65" x="1625.537109"/>
      </g>
     </g>
    </g>
    <g id="ytick_7">
     <g id="line2d_68">
      <g>
       <use xlink:href="#m6856018e79" x="186.928" y="321.578289" style="fill: #9da7b3; stroke: #9da7b3; stroke-width: 0.8"/>
      </g>
     </g>
     <g id="text_13">
      <!-- commit_window_baseline -->
      <g style="fill: #e6edf3" transform="translate(47.481125 325.40407) scale(0.1 -0.1)">
       <use xlink:href="#DejaVuSansMono-63"/>
       <use xlink:href="#DejaVuSansMono-6f" x="60.205078"/>
       <use xlink:href="#DejaVuSansMono-6d" x="120.410156"/>
       <use xlink:href="#DejaVuSansMono-6d" x="180.615234"/>
       <use xlink:href="#DejaVuSansMono-69" x="240.820312"/>
       <use xlink:href="#DejaVuSansMono-74" x="301.025391"/>
       <use xlink:href="#DejaVuSansMono-5f" x="361.230469"/>
       <use xlink:href="#DejaVuSansMono-77" x="421.435547"/>
       <use xlink:href="#DejaVuSansMono-69" x="481.640625"/>
       <use xlink:href="#DejaVuSansMono-6e" x="541.845703"/>
       <use xlink:href="#DejaVuSansMono-64" x="602.050781"/>
       <use xlink:href="#DejaVuSansMono-6f" x="662.255859"/>
       <use xlink:href="#DejaVuSansMono-77" x="722.460938"/>
       <use xlink:href="#DejaVuSansMono-5f" x="782.666016"/>
       <use xlink:href="#DejaVuSansMono-62" x="842.871094"/>
       <use xlink:href="#DejaVuSansMono-61" x="903.076172"/>
       <use xlink:href="#DejaVuSansMono-73" x="963.28125"/>
       <use xlink:href="#DejaVuSansMono-65" x="1023.486328"/>
       <use xlink:href="#DejaVuSansMono-6c" x="1083.691406"/>
       <use xlink:href="#DejaVuSansMono-69" x="1143.896484"/>
       <use xlink:href="#DejaVuSansMono-6e" x="1204.101562"/>
       <use xlink:href="#DejaVuSansMono-65" x="1264.306641"/>
      </g>
     </g>
    </g>
    <g id="ytick_8">
     <g id="line2d_69">
      <g>
       <use xlink:href="#m6856018e79" x="186.928" y="364.426496" style="fill: #9da7b3; stroke: #9da7b3; stroke-width: 0.8"/>
      </g>
     </g>
     <g id="text_14">
      <!-- commit_window_admission -->
      <g style="fill: #e6edf3" transform="translate(41.460813 368.225714) scale(0.1 -0.1)">
       <use xlink:href="#DejaVuSansMono-63"/>
       <use xlink:href="#DejaVuSansMono-6f" x="60.205078"/>
       <use xlink:href="#DejaVuSansMono-6d" x="120.410156"/>
       <use xlink:href="#DejaVuSansMono-6d" x="180.615234"/>
       <use xlink:href="#DejaVuSansMono-69" x="240.820312"/>
       <use xlink:href="#DejaVuSansMono-74" x="301.025391"/>
       <use xlink:href="#DejaVuSansMono-5f" x="361.230469"/>
       <use xlink:href="#DejaVuSansMono-77" x="421.435547"/>
       <use xlink:href="#DejaVuSansMono-69" x="481.640625"/>
       <use xlink:href="#DejaVuSansMono-6e" x="541.845703"/>
       <use xlink:href="#DejaVuSansMono-64" x="602.050781"/>
       <use xlink:href="#DejaVuSansMono-6f" x="662.255859"/>
       <use xlink:href="#DejaVuSansMono-77" x="722.460938"/>
       <use xlink:href="#DejaVuSansMono-5f" x="782.666016"/>
       <use xlink:href="#DejaVuSansMono-61" x="842.871094"/>
       <use xlink:href="#DejaVuSansMono-64" x="903.076172"/>
       <use xlink:href="#DejaVuSansMono-6d" x="963.28125"/>
       <use xlink:href="#DejaVuSansMono-69" x="1023.486328"/>
       <use xlink:href="#DejaVuSansMono-73" x="1083.691406"/>
       <use xlink:href="#DejaVuSansMono-73" x="1143.896484"/>
       <use xlink:href="#DejaVuSansMono-69" x="1204.101562"/>
       <use xlink:href="#DejaVuSansMono-6f" x="1264.306641"/>
       <use xlink:href="#DejaVuSansMono-6e" x="1324.511719"/>
      </g>
     </g>
    </g>
    <g id="ytick_9">
     <g id="line2d_70">
      <g>
       <use xlink:href="#m6856018e79" x="186.928" y="407.274702" style="fill: #9da7b3; stroke: #9da7b3; stroke-width: 0.8"/>
      </g>
     </g>
     <g id="text_15">
      <!-- commit_window_exclusion -->
      <g style="fill: #e6edf3" transform="translate(41.460813 411.100484) scale(0.1 -0.1)">
       <defs>
        <path id="DejaVuSansMono-78" d="M 3494 3500 
L 2241 1825 
L 3616 0 
L 2950 0 
L 1925 1403 
L 903 0 
L 238 0 
L 1613 1825 
L 359 3500 
L 997 3500 
L 1925 2234 
L 2847 3500 
L 3494 3500 
z
" transform="scale(0.015625)"/>
       </defs>
       <use xlink:href="#DejaVuSansMono-63"/>
       <use xlink:href="#DejaVuSansMono-6f" x="60.205078"/>
       <use xlink:href="#DejaVuSansMono-6d" x="120.410156"/>
       <use xlink:href="#DejaVuSansMono-6d" x="180.615234"/>
       <use xlink:href="#DejaVuSansMono-69" x="240.820312"/>
       <use xlink:href="#DejaVuSansMono-74" x="301.025391"/>
       <use xlink:href="#DejaVuSansMono-5f" x="361.230469"/>
       <use xlink:href="#DejaVuSansMono-77" x="421.435547"/>
       <use xlink:href="#DejaVuSansMono-69" x="481.640625"/>
       <use xlink:href="#DejaVuSansMono-6e" x="541.845703"/>
       <use xlink:href="#DejaVuSansMono-64" x="602.050781"/>
       <use xlink:href="#DejaVuSansMono-6f" x="662.255859"/>
       <use xlink:href="#DejaVuSansMono-77" x="722.460938"/>
       <use xlink:href="#DejaVuSansMono-5f" x="782.666016"/>
       <use xlink:href="#DejaVuSansMono-65" x="842.871094"/>
       <use xlink:href="#DejaVuSansMono-78" x="903.076172"/>
       <use xlink:href="#DejaVuSansMono-63" x="963.28125"/>
       <use xlink:href="#DejaVuSansMono-6c" x="1023.486328"/>
       <use xlink:href="#DejaVuSansMono-75" x="1083.691406"/>
       <use xlink:href="#DejaVuSansMono-73" x="1143.896484"/>
       <use xlink:href="#DejaVuSansMono-69" x="1204.101562"/>
       <use xlink:href="#DejaVuSansMono-6f" x="1264.306641"/>
       <use xlink:href="#DejaVuSansMono-6e" x="1324.511719"/>
      </g>
     </g>
    </g>
   </g>
   <g id="patch_3">
    <path d="M 186.928 441.381875 
L 186.928 30.381875 
" style="fill: none; stroke: #2d333b; stroke-width: 0.8; stroke-linejoin: miter; stroke-linecap: square"/>
   </g>
   <g id="patch_4">
    <path d="M 680.688 441.381875 
L 680.688 30.381875 
" style="fill: none; stroke: #2d333b; stroke-width: 0.8; stroke-linejoin: miter; stroke-linecap: square"/>
   </g>
   <g id="patch_5">
    <path d="M 186.928 441.381875 
L 680.688 441.381875 
" style="fill: none; stroke: #2d333b; stroke-width: 0.8; stroke-linejoin: miter; stroke-linecap: square"/>
   </g>
   <g id="patch_6">
    <path d="M 186.928 30.381875 
L 680.688 30.381875 
" style="fill: none; stroke: #2d333b; stroke-width: 0.8; stroke-linejoin: miter; stroke-linecap: square"/>
   </g>
   <g id="patch_7">
    <path d="M -79775.237506 65.346012 
L 362.686171 65.346012 
L 362.686171 79.914402 
L -79775.237506 79.914402 
z
" clip-path="url(#p4e8d3b51b5)" style="fill: #8b949e"/>
   </g>
   <g id="patch_8">
    <path d="M -79775.237506 108.194219 
L -79775.237506 108.194219 
L -79775.237506 122.762609 
L -79775.237506 122.762609 
z
" clip-path="url(#p4e8d3b51b5)" style="fill: #8b949e"/>
   </g>
   <g id="patch_9">
    <path d="M -79775.237506 151.042425 
L 422.269148 151.042425 
L 422.269148 165.610816 
L -79775.237506 165.610816 
z
" clip-path="url(#p4e8d3b51b5)" style="fill: #8b949e"/>
   </g>
   <g id="patch_10">
    <path d="M -79775.237506 193.890632 
L 226.510923 193.890632 
L 226.510923 208.459023 
L -79775.237506 208.459023 
z
" clip-path="url(#p4e8d3b51b5)" style="fill: #8b949e"/>
   </g>
   <g id="patch_11">
    <path d="M -79775.237506 236.738839 
L 542.877027 236.738839 
L 542.877027 251.307229 
L -79775.237506 251.307229 
z
" clip-path="url(#p4e8d3b51b5)" style="fill: #8b949e"/>
   </g>
   <g id="patch_12">
    <path d="M -79775.237506 279.587046 
L 218.605722 279.587046 
L 218.605722 294.155436 
L -79775.237506 294.155436 
z
" clip-path="url(#p4e8d3b51b5)" style="fill: #8b949e"/>
   </g>
   <g id="patch_13">
    <path d="M -79775.237506 322.435253 
L -79775.237506 322.435253 
L -79775.237506 337.003643 
L -79775.237506 337.003643 
z
" clip-path="url(#p4e8d3b51b5)" style="fill: #8b949e"/>
   </g>
   <g id="patch_14">
    <path d="M -79775.237506 365.28346 
L -79775.237506 365.28346 
L -79775.237506 379.85185 
L -79775.237506 379.85185 
z
" clip-path="url(#p4e8d3b51b5)" style="fill: #8b949e"/>
   </g>
   <g id="patch_15">
    <path d="M -79775.237506 408.131666 
L -79775.237506 408.131666 
L -79775.237506 422.700057 
L -79775.237506 422.700057 
z
" clip-path="url(#p4e8d3b51b5)" style="fill: #8b949e"/>
   </g>
   <g id="patch_16">
    <path d="M -79775.237506 49.063693 
L 359.03073 49.063693 
L 359.03073 63.632084 
L -79775.237506 63.632084 
z
" clip-path="url(#p4e8d3b51b5)" style="fill: #f0b429"/>
   </g>
   <g id="patch_17">
    <path d="M -79775.237506 91.9119 
L 358.699879 91.9119 
L 358.699879 106.48029 
L -79775.237506 106.48029 
z
" clip-path="url(#p4e8d3b51b5)" style="fill: #f0b429"/>
   </g>
   <g id="patch_18">
    <path d="M -79775.237506 134.760107 
L 417.909982 134.760107 
L 417.909982 149.328497 
L -79775.237506 149.328497 
z
" clip-path="url(#p4e8d3b51b5)" style="fill: #f0b429"/>
   </g>
   <g id="patch_19">
    <path d="M -79775.237506 177.608314 
L 324.091449 177.608314 
L 324.091449 192.176704 
L -79775.237506 192.176704 
z
" clip-path="url(#p4e8d3b51b5)" style="fill: #f0b429"/>
   </g>
   <g id="patch_20">
    <path d="M -79775.237506 220.456521 
L 553.157193 220.456521 
L 553.157193 235.024911 
L -79775.237506 235.024911 
z
" clip-path="url(#p4e8d3b51b5)" style="fill: #f0b429"/>
   </g>
   <g id="patch_21">
    <path d="M -79775.237506 263.304727 
L 355.05856 263.304727 
L 355.05856 277.873118 
L -79775.237506 277.873118 
z
" clip-path="url(#p4e8d3b51b5)" style="fill: #f0b429"/>
   </g>
   <g id="patch_22">
    <path d="M -79775.237506 306.152934 
L 358.665984 306.152934 
L 358.665984 320.721325 
L -79775.237506 320.721325 
z
" clip-path="url(#p4e8d3b51b5)" style="fill: #f0b429"/>
   </g>
   <g id="patch_23">
    <path d="M -79775.237506 349.001141 
L 363.071121 349.001141 
L 363.071121 363.569531 
L -79775.237506 363.569531 
z
" clip-path="url(#p4e8d3b51b5)" style="fill: #f0b429"/>
   </g>
   <g id="patch_24">
    <path d="M -79775.237506 391.849348 
L 362.910748 391.849348 
L 362.910748 406.417738 
L -79775.237506 406.417738 
z
" clip-path="url(#p4e8d3b51b5)" style="fill: #f0b429"/>
   </g>
   <g id="text_16">
    <!-- 5ms -->
    <g style="fill: #f0b429" transform="translate(363.862537 58.831326) scale(0.09 -0.09)">
     <defs>
      <path id="DejaVuSansMono-Bold-35" d="M 603 4666 
L 3138 4666 
L 3138 3853 
L 1350 3853 
L 1350 2988 
Q 1463 3031 1591 3051 
Q 1719 3072 1863 3072 
Q 2556 3072 2987 2634 
Q 3419 2197 3419 1497 
Q 3419 763 2951 336 
Q 2484 -91 1678 -91 
Q 1378 -91 1072 -41 
Q 766 9 447 109 
L 447 941 
Q 706 813 979 748 
Q 1253 684 1528 684 
Q 2016 684 2269 892 
Q 2522 1100 2522 1497 
Q 2522 1863 2270 2083 
Q 2019 2303 1600 2303 
Q 1353 2303 1104 2242 
Q 856 2181 603 2059 
L 603 4666 
z
" transform="scale(0.015625)"/>
      <path id="DejaVuSansMono-Bold-6d" d="M 2156 3150 
Q 2259 3372 2418 3478 
Q 2578 3584 2809 3584 
Q 3263 3584 3436 3271 
Q 3609 2959 3609 1972 
L 3609 0 
L 2859 0 
L 2859 2247 
Q 2859 2638 2800 2769 
Q 2741 2900 2584 2900 
Q 2428 2900 2365 2765 
Q 2303 2631 2303 2247 
L 2303 0 
L 1563 0 
L 1563 2247 
Q 1563 2631 1500 2765 
Q 1438 2900 1281 2900 
Q 1125 2900 1065 2769 
Q 1006 2638 1006 2247 
L 1006 0 
L 256 0 
L 256 3500 
L 922 3500 
L 922 3138 
Q 1000 3344 1172 3464 
Q 1344 3584 1556 3584 
Q 1769 3584 1944 3457 
Q 2119 3331 2156 3150 
z
" transform="scale(0.015625)"/>
      <path id="DejaVuSansMono-Bold-73" d="M 3097 3391 
L 3097 2591 
Q 2844 2753 2570 2836 
Q 2297 2919 2022 2919 
Q 1716 2919 1559 2830 
Q 1403 2741 1403 2566 
Q 1403 2316 2072 2159 
L 2106 2150 
L 2369 2088 
Q 2869 1969 3101 1705 
Q 3334 1441 3334 991 
Q 3334 450 2979 179 
Q 2625 -91 1913 -91 
Q 1597 -91 1265 -36 
Q 934 19 594 128 
L 594 928 
Q 897 756 1211 665 
Q 1525 575 1819 575 
Q 2141 575 2306 669 
Q 2472 763 2472 941 
Q 2472 1116 2355 1209 
Q 2238 1303 1797 1409 
L 1544 1466 
Q 1019 1584 778 1837 
Q 538 2091 538 2516 
Q 538 3022 903 3303 
Q 1269 3584 1931 3584 
Q 2228 3584 2523 3536 
Q 2819 3488 3097 3391 
z
" transform="scale(0.015625)"/>
     </defs>
     <use xlink:href="#DejaVuSansMono-Bold-35"/>
     <use xlink:href="#DejaVuSansMono-Bold-6d" x="60.205078"/>
     <use xlink:href="#DejaVuSansMono-Bold-73" x="120.410156"/>
    </g>
   </g>
   <g id="text_17">
    <!-- 5ms -->
    <g style="fill: #9da7b3" transform="translate(367.517978 74.858957) scale(0.08 -0.08)">
     <defs>
      <path id="DejaVuSansMono-35" d="M 647 4666 
L 3009 4666 
L 3009 4134 
L 1222 4134 
L 1222 2988 
Q 1356 3038 1492 3061 
Q 1628 3084 1766 3084 
Q 2491 3084 2916 2656 
Q 3341 2228 3341 1497 
Q 3341 759 2895 334 
Q 2450 -91 1678 -91 
Q 1306 -91 998 -41 
Q 691 9 447 109 
L 447 750 
Q 734 594 1025 517 
Q 1316 441 1619 441 
Q 2141 441 2423 716 
Q 2706 991 2706 1497 
Q 2706 1997 2414 2275 
Q 2122 2553 1600 2553 
Q 1347 2553 1106 2495 
Q 866 2438 647 2322 
L 647 4666 
z
" transform="scale(0.015625)"/>
     </defs>
     <use xlink:href="#DejaVuSansMono-35"/>
     <use xlink:href="#DejaVuSansMono-6d" x="60.205078"/>
     <use xlink:href="#DejaVuSansMono-73" x="120.410156"/>
    </g>
   </g>
   <g id="text_18">
    <!-- 5ms -->
    <g style="fill: #f0b429" transform="translate(363.531686 101.679533) scale(0.09 -0.09)">
     <use xlink:href="#DejaVuSansMono-Bold-35"/>
     <use xlink:href="#DejaVuSansMono-Bold-6d" x="60.205078"/>
     <use xlink:href="#DejaVuSansMono-Bold-73" x="120.410156"/>
    </g>
   </g>
   <g id="text_19">
    <!-- 25ms -->
    <g style="fill: #f0b429" transform="translate(422.741789 144.52774) scale(0.09 -0.09)">
     <defs>
      <path id="DejaVuSansMono-Bold-32" d="M 1356 813 
L 3322 813 
L 3322 0 
L 359 0 
L 359 788 
L 859 1319 
Q 1750 2266 1941 2484 
Q 2175 2753 2278 2961 
Q 2381 3169 2381 3372 
Q 2381 3684 2192 3854 
Q 2003 4025 1656 4025 
Q 1409 4025 1101 3926 
Q 794 3828 459 3641 
L 459 4500 
Q 794 4622 1114 4686 
Q 1434 4750 1728 4750 
Q 2469 4750 2892 4404 
Q 3316 4059 3316 3463 
Q 3316 3188 3223 2947 
Q 3131 2706 2906 2413 
Q 2741 2200 1997 1456 
Q 1594 1053 1356 813 
z
" transform="scale(0.015625)"/>
     </defs>
     <use xlink:href="#DejaVuSansMono-Bold-32"/>
     <use xlink:href="#DejaVuSansMono-Bold-35" x="60.205078"/>
     <use xlink:href="#DejaVuSansMono-Bold-6d" x="120.410156"/>
     <use xlink:href="#DejaVuSansMono-Bold-73" x="180.615234"/>
    </g>
   </g>
   <g id="text_20">
    <!-- 28ms -->
    <g style="fill: #9da7b3" transform="translate(427.100955 160.555371) scale(0.08 -0.08)">
     <defs>
      <path id="DejaVuSansMono-32" d="M 1166 531 
L 3309 531 
L 3309 0 
L 475 0 
L 475 531 
Q 1059 1147 1496 1619 
Q 1934 2091 2100 2284 
Q 2413 2666 2522 2902 
Q 2631 3138 2631 3384 
Q 2631 3775 2401 3997 
Q 2172 4219 1772 4219 
Q 1488 4219 1175 4116 
Q 863 4013 513 3803 
L 513 4441 
Q 834 4594 1145 4672 
Q 1456 4750 1759 4750 
Q 2444 4750 2861 4386 
Q 3278 4022 3278 3431 
Q 3278 3131 3139 2831 
Q 3000 2531 2688 2169 
Q 2513 1966 2180 1606 
Q 1847 1247 1166 531 
z
" transform="scale(0.015625)"/>
      <path id="DejaVuSansMono-38" d="M 1925 2216 
Q 1503 2216 1273 1980 
Q 1044 1744 1044 1313 
Q 1044 881 1276 642 
Q 1509 403 1925 403 
Q 2350 403 2579 639 
Q 2809 875 2809 1313 
Q 2809 1741 2576 1978 
Q 2344 2216 1925 2216 
z
M 1375 2478 
Q 972 2581 745 2862 
Q 519 3144 519 3541 
Q 519 4097 897 4423 
Q 1275 4750 1925 4750 
Q 2578 4750 2956 4423 
Q 3334 4097 3334 3541 
Q 3334 3144 3107 2862 
Q 2881 2581 2478 2478 
Q 2947 2375 3195 2062 
Q 3444 1750 3444 1253 
Q 3444 622 3041 265 
Q 2638 -91 1925 -91 
Q 1213 -91 811 264 
Q 409 619 409 1247 
Q 409 1747 657 2061 
Q 906 2375 1375 2478 
z
M 1147 3481 
Q 1147 3106 1347 2909 
Q 1547 2713 1925 2713 
Q 2306 2713 2506 2909 
Q 2706 3106 2706 3481 
Q 2706 3863 2507 4063 
Q 2309 4263 1925 4263 
Q 1547 4263 1347 4061 
Q 1147 3859 1147 3481 
z
" transform="scale(0.015625)"/>
     </defs>
     <use xlink:href="#DejaVuSansMono-32"/>
     <use xlink:href="#DejaVuSansMono-38" x="60.205078"/>
     <use xlink:href="#DejaVuSansMono-6d" x="120.410156"/>
     <use xlink:href="#DejaVuSansMono-73" x="180.615234"/>
    </g>
   </g>
   <g id="text_21">
    <!-- 2ms -->
    <g style="fill: #f0b429" transform="translate(328.923256 187.375946) scale(0.09 -0.09)">
     <use xlink:href="#DejaVuSansMono-Bold-32"/>
     <use xlink:href="#DejaVuSansMono-Bold-6d" x="60.205078"/>
     <use xlink:href="#DejaVuSansMono-Bold-73" x="120.410156"/>
    </g>
   </g>
   <g id="text_22">
    <!-- 98µs -->
    <g style="fill: #9da7b3" transform="translate(231.34273 203.394827) scale(0.08 -0.08)">
     <defs>
      <path id="DejaVuSansMono-39" d="M 1863 2069 
Q 2266 2069 2495 2359 
Q 2725 2650 2725 3163 
Q 2725 3675 2495 3965 
Q 2266 4256 1863 4256 
Q 1444 4256 1231 3979 
Q 1019 3703 1019 3163 
Q 1019 2619 1230 2344 
Q 1441 2069 1863 2069 
z
M 738 97 
L 738 678 
Q 934 563 1156 502 
Q 1378 441 1619 441 
Q 2219 441 2526 892 
Q 2834 1344 2834 2222 
Q 2688 1909 2422 1742 
Q 2156 1575 1813 1575 
Q 1138 1575 767 1990 
Q 397 2406 397 3169 
Q 397 3922 776 4336 
Q 1156 4750 1850 4750 
Q 2663 4750 3041 4165 
Q 3419 3581 3419 2328 
Q 3419 1150 2964 529 
Q 2509 -91 1644 -91 
Q 1416 -91 1184 -42 
Q 953 6 738 97 
z
" transform="scale(0.015625)"/>
      <path id="DejaVuSansMono-b5" d="M 609 -1338 
L 609 3500 
L 1184 3500 
L 1184 1325 
Q 1184 881 1371 645 
Q 1559 409 1906 409 
Q 2303 409 2504 675 
Q 2706 941 2706 1459 
L 2706 3500 
L 3284 3500 
L 3284 800 
Q 3284 616 3334 528 
Q 3384 441 3488 441 
Q 3516 441 3561 456 
Q 3606 472 3694 513 
L 3694 50 
Q 3575 -22 3469 -56 
Q 3363 -91 3256 -91 
Q 3063 -91 2945 32 
Q 2828 156 2791 403 
Q 2647 153 2439 31 
Q 2231 -91 1953 -91 
Q 1666 -91 1467 28 
Q 1269 147 1131 397 
L 1131 -1338 
L 609 -1338 
z
" transform="scale(0.015625)"/>
     </defs>
     <use xlink:href="#DejaVuSansMono-39"/>
     <use xlink:href="#DejaVuSansMono-38" x="60.205078"/>
     <use xlink:href="#DejaVuSansMono-b5" x="120.410156"/>
     <use xlink:href="#DejaVuSansMono-73" x="180.615234"/>
    </g>
   </g>
   <g id="text_23">
    <!-- 1.2s -->
    <g style="fill: #f0b429" transform="translate(557.989 230.224153) scale(0.09 -0.09)">
     <defs>
      <path id="DejaVuSansMono-Bold-31" d="M 588 813 
L 1619 813 
L 1619 3841 
L 659 3603 
L 659 4434 
L 1625 4666 
L 2516 4666 
L 2516 813 
L 3547 813 
L 3547 0 
L 588 0 
L 588 813 
z
" transform="scale(0.015625)"/>
      <path id="DejaVuSansMono-Bold-2e" d="M 1403 1147 
L 2444 1147 
L 2444 0 
L 1403 0 
L 1403 1147 
z
" transform="scale(0.015625)"/>
     </defs>
     <use xlink:href="#DejaVuSansMono-Bold-31"/>
     <use xlink:href="#DejaVuSansMono-Bold-2e" x="60.205078"/>
     <use xlink:href="#DejaVuSansMono-Bold-32" x="120.410156"/>
     <use xlink:href="#DejaVuSansMono-Bold-73" x="180.615234"/>
    </g>
   </g>
   <g id="text_24">
    <!-- 928ms -->
    <g style="fill: #9da7b3" transform="translate(547.708834 246.251784) scale(0.08 -0.08)">
     <use xlink:href="#DejaVuSansMono-39"/>
     <use xlink:href="#DejaVuSansMono-32" x="60.205078"/>
     <use xlink:href="#DejaVuSansMono-38" x="120.410156"/>
     <use xlink:href="#DejaVuSansMono-6d" x="180.615234"/>
     <use xlink:href="#DejaVuSansMono-73" x="240.820312"/>
    </g>
   </g>
   <g id="text_25">
    <!-- 4ms -->
    <g style="fill: #f0b429" transform="translate(359.890367 273.07236) scale(0.09 -0.09)">
     <defs>
      <path id="DejaVuSansMono-Bold-34" d="M 2169 3641 
L 991 1797 
L 2169 1797 
L 2169 3641 
z
M 2088 4666 
L 3053 4666 
L 3053 1797 
L 3566 1797 
L 3566 1006 
L 3053 1006 
L 3053 0 
L 2169 0 
L 2169 1006 
L 319 1006 
L 319 1900 
L 2088 4666 
z
" transform="scale(0.015625)"/>
     </defs>
     <use xlink:href="#DejaVuSansMono-Bold-34"/>
     <use xlink:href="#DejaVuSansMono-Bold-6d" x="60.205078"/>
     <use xlink:href="#DejaVuSansMono-Bold-73" x="120.410156"/>
    </g>
   </g>
   <g id="text_26">
    <!-- 78µs -->
    <g style="fill: #9da7b3" transform="translate(223.437529 289.091241) scale(0.08 -0.08)">
     <defs>
      <path id="DejaVuSansMono-37" d="M 434 4666 
L 3372 4666 
L 3372 4397 
L 1703 0 
L 1044 0 
L 2669 4134 
L 434 4134 
L 434 4666 
z
" transform="scale(0.015625)"/>
     </defs>
     <use xlink:href="#DejaVuSansMono-37"/>
     <use xlink:href="#DejaVuSansMono-38" x="60.205078"/>
     <use xlink:href="#DejaVuSansMono-b5" x="120.410156"/>
     <use xlink:href="#DejaVuSansMono-73" x="180.615234"/>
    </g>
   </g>
   <g id="text_27">
    <!-- 5ms -->
    <g style="fill: #f0b429" transform="translate(363.497791 315.920567) scale(0.09 -0.09)">
     <use xlink:href="#DejaVuSansMono-Bold-35"/>
     <use xlink:href="#DejaVuSansMono-Bold-6d" x="60.205078"/>
     <use xlink:href="#DejaVuSansMono-Bold-73" x="120.410156"/>
    </g>
   </g>
   <g id="text_28">
    <!-- 5ms -->
    <g style="fill: #f0b429" transform="translate(367.902928 358.768774) scale(0.09 -0.09)">
     <use xlink:href="#DejaVuSansMono-Bold-35"/>
     <use xlink:href="#DejaVuSansMono-Bold-6d" x="60.205078"/>
     <use xlink:href="#DejaVuSansMono-Bold-73" x="120.410156"/>
    </g>
   </g>
   <g id="text_29">
    <!-- 5ms -->
    <g style="fill: #f0b429" transform="translate(367.742555 401.616981) scale(0.09 -0.09)">
     <use xlink:href="#DejaVuSansMono-Bold-35"/>
     <use xlink:href="#DejaVuSansMono-Bold-6d" x="60.205078"/>
     <use xlink:href="#DejaVuSansMono-Bold-73" x="120.410156"/>
    </g>
   </g>
   <g id="text_30">
    <!-- write + cold families · p50 · where fsync physics rules, honesty does too -->
    <g transform="translate(186.928 16.381875) scale(0.12 -0.12)">
     <defs>
      <path id="DejaVuSansMono-72" d="M 3609 2778 
Q 3425 2922 3234 2987 
Q 3044 3053 2816 3053 
Q 2278 3053 1993 2715 
Q 1709 2378 1709 1741 
L 1709 0 
L 1131 0 
L 1131 3500 
L 1709 3500 
L 1709 2816 
Q 1853 3188 2151 3386 
Q 2450 3584 2859 3584 
Q 3072 3584 3256 3531 
Q 3441 3478 3609 3366 
L 3609 2778 
z
" transform="scale(0.015625)"/>
      <path id="DejaVuSansMono-20" transform="scale(0.015625)"/>
      <path id="DejaVuSansMono-2b" d="M 2188 3659 
L 2188 2272 
L 3578 2272 
L 3578 1741 
L 2188 1741 
L 2188 353 
L 1663 353 
L 1663 1741 
L 275 1741 
L 275 2272 
L 1663 2272 
L 1663 3659 
L 2188 3659 
z
" transform="scale(0.015625)"/>
      <path id="DejaVuSansMono-66" d="M 3322 4863 
L 3322 4384 
L 2669 4384 
Q 2359 4384 2239 4257 
Q 2119 4131 2119 3809 
L 2119 3500 
L 3322 3500 
L 3322 3053 
L 2119 3053 
L 2119 0 
L 1544 0 
L 1544 3053 
L 609 3053 
L 609 3500 
L 1544 3500 
L 1544 3744 
Q 1544 4319 1808 4591 
Q 2072 4863 2631 4863 
L 3322 4863 
z
" transform="scale(0.015625)"/>
      <path id="DejaVuSansMono-b7" d="M 1528 2700 
L 2316 2700 
L 2316 1747 
L 1528 1747 
L 1528 2700 
z
" transform="scale(0.015625)"/>
      <path id="DejaVuSansMono-70" d="M 1172 441 
L 1172 -1331 
L 594 -1331 
L 594 3500 
L 1172 3500 
L 1172 3053 
Q 1316 3313 1555 3448 
Q 1794 3584 2106 3584 
Q 2741 3584 3102 3093 
Q 3463 2603 3463 1734 
Q 3463 881 3100 395 
Q 2738 -91 2106 -91 
Q 1788 -91 1548 45 
Q 1309 181 1172 441 
z
M 2859 1747 
Q 2859 2416 2648 2756 
Q 2438 3097 2022 3097 
Q 1603 3097 1387 2755 
Q 1172 2413 1172 1747 
Q 1172 1084 1387 740 
Q 1603 397 2022 397 
Q 2438 397 2648 737 
Q 2859 1078 2859 1747 
z
" transform="scale(0.015625)"/>
      <path id="DejaVuSansMono-30" d="M 1509 2344 
Q 1509 2516 1629 2641 
Q 1750 2766 1919 2766 
Q 2094 2766 2219 2641 
Q 2344 2516 2344 2344 
Q 2344 2169 2220 2047 
Q 2097 1925 1919 1925 
Q 1744 1925 1626 2044 
Q 1509 2163 1509 2344 
z
M 1925 4250 
Q 1484 4250 1267 3775 
Q 1050 3300 1050 2328 
Q 1050 1359 1267 884 
Q 1484 409 1925 409 
Q 2369 409 2586 884 
Q 2803 1359 2803 2328 
Q 2803 3300 2586 3775 
Q 2369 4250 1925 4250 
z
M 1925 4750 
Q 2672 4750 3055 4137 
Q 3438 3525 3438 2328 
Q 3438 1134 3055 521 
Q 2672 -91 1925 -91 
Q 1178 -91 797 521 
Q 416 1134 416 2328 
Q 416 3525 797 4137 
Q 1178 4750 1925 4750 
z
" transform="scale(0.015625)"/>
      <path id="DejaVuSansMono-79" d="M 2681 1125 
Q 2538 759 2316 163 
Q 2006 -663 1900 -844 
Q 1756 -1088 1540 -1209 
Q 1325 -1331 1038 -1331 
L 575 -1331 
L 575 -850 
L 916 -850 
Q 1169 -850 1312 -703 
Q 1456 -556 1678 56 
L 325 3500 
L 934 3500 
L 1972 763 
L 2994 3500 
L 3603 3500 
L 2681 1125 
z
" transform="scale(0.015625)"/>
      <path id="DejaVuSansMono-2c" d="M 1569 947 
L 2356 947 
L 2356 300 
L 1741 -897 
L 1259 -897 
L 1569 300 
L 1569 947 
z
" transform="scale(0.015625)"/>
     </defs>
     <use xlink:href="#DejaVuSansMono-77"/>
     <use xlink:href="#DejaVuSansMono-72" x="60.205078"/>
     <use xlink:href="#DejaVuSansMono-69" x="120.410156"/>
     <use xlink:href="#DejaVuSansMono-74" x="180.615234"/>
     <use xlink:href="#DejaVuSansMono-65" x="240.820312"/>
     <use xlink:href="#DejaVuSansMono-20" x="301.025391"/>
     <use xlink:href="#DejaVuSansMono-2b" x="361.230469"/>
     <use xlink:href="#DejaVuSansMono-20" x="421.435547"/>
     <use xlink:href="#DejaVuSansMono-63" x="481.640625"/>
     <use xlink:href="#DejaVuSansMono-6f" x="541.845703"/>
     <use xlink:href="#DejaVuSansMono-6c" x="602.050781"/>
     <use xlink:href="#DejaVuSansMono-64" x="662.255859"/>
     <use xlink:href="#DejaVuSansMono-20" x="722.460938"/>
     <use xlink:href="#DejaVuSansMono-66" x="782.666016"/>
     <use xlink:href="#DejaVuSansMono-61" x="842.871094"/>
     <use xlink:href="#DejaVuSansMono-6d" x="903.076172"/>
     <use xlink:href="#DejaVuSansMono-69" x="963.28125"/>
     <use xlink:href="#DejaVuSansMono-6c" x="1023.486328"/>
     <use xlink:href="#DejaVuSansMono-69" x="1083.691406"/>
     <use xlink:href="#DejaVuSansMono-65" x="1143.896484"/>
     <use xlink:href="#DejaVuSansMono-73" x="1204.101562"/>
     <use xlink:href="#DejaVuSansMono-20" x="1264.306641"/>
     <use xlink:href="#DejaVuSansMono-b7" x="1324.511719"/>
     <use xlink:href="#DejaVuSansMono-20" x="1384.716797"/>
     <use xlink:href="#DejaVuSansMono-70" x="1444.921875"/>
     <use xlink:href="#DejaVuSansMono-35" x="1505.126953"/>
     <use xlink:href="#DejaVuSansMono-30" x="1565.332031"/>
     <use xlink:href="#DejaVuSansMono-20" x="1625.537109"/>
     <use xlink:href="#DejaVuSansMono-b7" x="1685.742188"/>
     <use xlink:href="#DejaVuSansMono-20" x="1745.947266"/>
     <use xlink:href="#DejaVuSansMono-77" x="1806.152344"/>
     <use xlink:href="#DejaVuSansMono-68" x="1866.357422"/>
     <use xlink:href="#DejaVuSansMono-65" x="1926.5625"/>
     <use xlink:href="#DejaVuSansMono-72" x="1986.767578"/>
     <use xlink:href="#DejaVuSansMono-65" x="2046.972656"/>
     <use xlink:href="#DejaVuSansMono-20" x="2107.177734"/>
     <use xlink:href="#DejaVuSansMono-66" x="2167.382812"/>
     <use xlink:href="#DejaVuSansMono-73" x="2227.587891"/>
     <use xlink:href="#DejaVuSansMono-79" x="2287.792969"/>
     <use xlink:href="#DejaVuSansMono-6e" x="2347.998047"/>
     <use xlink:href="#DejaVuSansMono-63" x="2408.203125"/>
     <use xlink:href="#DejaVuSansMono-20" x="2468.408203"/>
     <use xlink:href="#DejaVuSansMono-70" x="2528.613281"/>
     <use xlink:href="#DejaVuSansMono-68" x="2588.818359"/>
     <use xlink:href="#DejaVuSansMono-79" x="2649.023438"/>
     <use xlink:href="#DejaVuSansMono-73" x="2709.228516"/>
     <use xlink:href="#DejaVuSansMono-69" x="2769.433594"/>
     <use xlink:href="#DejaVuSansMono-63" x="2829.638672"/>
     <use xlink:href="#DejaVuSansMono-73" x="2889.84375"/>
     <use xlink:href="#DejaVuSansMono-20" x="2950.048828"/>
     <use xlink:href="#DejaVuSansMono-72" x="3010.253906"/>
     <use xlink:href="#DejaVuSansMono-75" x="3070.458984"/>
     <use xlink:href="#DejaVuSansMono-6c" x="3130.664062"/>
     <use xlink:href="#DejaVuSansMono-65" x="3190.869141"/>
     <use xlink:href="#DejaVuSansMono-73" x="3251.074219"/>
     <use xlink:href="#DejaVuSansMono-2c" x="3311.279297"/>
     <use xlink:href="#DejaVuSansMono-20" x="3371.484375"/>
     <use xlink:href="#DejaVuSansMono-68" x="3431.689453"/>
     <use xlink:href="#DejaVuSansMono-6f" x="3491.894531"/>
     <use xlink:href="#DejaVuSansMono-6e" x="3552.099609"/>
     <use xlink:href="#DejaVuSansMono-65" x="3612.304688"/>
     <use xlink:href="#DejaVuSansMono-73" x="3672.509766"/>
     <use xlink:href="#DejaVuSansMono-74" x="3732.714844"/>
     <use xlink:href="#DejaVuSansMono-79" x="3792.919922"/>
     <use xlink:href="#DejaVuSansMono-20" x="3853.125"/>
     <use xlink:href="#DejaVuSansMono-64" x="3913.330078"/>
     <use xlink:href="#DejaVuSansMono-6f" x="3973.535156"/>
     <use xlink:href="#DejaVuSansMono-65" x="4033.740234"/>
     <use xlink:href="#DejaVuSansMono-73" x="4093.945312"/>
     <use xlink:href="#DejaVuSansMono-20" x="4154.150391"/>
     <use xlink:href="#DejaVuSansMono-74" x="4214.355469"/>
     <use xlink:href="#DejaVuSansMono-6f" x="4274.560547"/>
     <use xlink:href="#DejaVuSansMono-6f" x="4334.765625"/>
    </g>
   </g>
   <g id="legend_1">
    <g id="patch_25">
     <path d="M 600.225187 436.881875 
L 674.388 436.881875 
Q 676.188 436.881875 676.188 435.081875 
L 676.188 409.56125 
Q 676.188 407.76125 674.388 407.76125 
L 600.225187 407.76125 
Q 598.425187 407.76125 598.425187 409.56125 
L 598.425187 435.081875 
Q 598.425187 436.881875 600.225187 436.881875 
z
" style="fill: #0d1117; opacity: 0.8; stroke: #2d333b; stroke-linejoin: miter"/>
    </g>
    <g id="patch_26">
     <path d="M 602.025188 418.199844 
L 620.025188 418.199844 
L 620.025188 411.899844 
L 602.025188 411.899844 
z
" style="fill: #8b949e"/>
    </g>
    <g id="text_31">
     <!-- SQLite -->
     <g style="fill: #e6edf3" transform="translate(627.225188 418.199844) scale(0.09 -0.09)">
      <defs>
       <path id="DejaVuSans-53" d="M 3425 4513 
L 3425 3897 
Q 3066 4069 2747 4153 
Q 2428 4238 2131 4238 
Q 1616 4238 1336 4038 
Q 1056 3838 1056 3469 
Q 1056 3159 1242 3001 
Q 1428 2844 1947 2747 
L 2328 2669 
Q 3034 2534 3370 2195 
Q 3706 1856 3706 1288 
Q 3706 609 3251 259 
Q 2797 -91 1919 -91 
Q 1588 -91 1214 -16 
Q 841 59 441 206 
L 441 856 
Q 825 641 1194 531 
Q 1563 422 1919 422 
Q 2459 422 2753 634 
Q 3047 847 3047 1241 
Q 3047 1584 2836 1778 
Q 2625 1972 2144 2069 
L 1759 2144 
Q 1053 2284 737 2584 
Q 422 2884 422 3419 
Q 422 4038 858 4394 
Q 1294 4750 2059 4750 
Q 2388 4750 2728 4690 
Q 3069 4631 3425 4513 
z
" transform="scale(0.015625)"/>
       <path id="DejaVuSans-51" d="M 2522 4238 
Q 1834 4238 1429 3725 
Q 1025 3213 1025 2328 
Q 1025 1447 1429 934 
Q 1834 422 2522 422 
Q 3209 422 3611 934 
Q 4013 1447 4013 2328 
Q 4013 3213 3611 3725 
Q 3209 4238 2522 4238 
z
M 3406 84 
L 4238 -825 
L 3475 -825 
L 2784 -78 
Q 2681 -84 2626 -87 
Q 2572 -91 2522 -91 
Q 1538 -91 948 567 
Q 359 1225 359 2328 
Q 359 3434 948 4092 
Q 1538 4750 2522 4750 
Q 3503 4750 4090 4092 
Q 4678 3434 4678 2328 
Q 4678 1516 4351 937 
Q 4025 359 3406 84 
z
" transform="scale(0.015625)"/>
       <path id="DejaVuSans-4c" d="M 628 4666 
L 1259 4666 
L 1259 531 
L 3531 531 
L 3531 0 
L 628 0 
L 628 4666 
z
" transform="scale(0.015625)"/>
       <path id="DejaVuSans-69" d="M 603 3500 
L 1178 3500 
L 1178 0 
L 603 0 
L 603 3500 
z
M 603 4863 
L 1178 4863 
L 1178 4134 
L 603 4134 
L 603 4863 
z
" transform="scale(0.015625)"/>
       <path id="DejaVuSans-74" d="M 1172 4494 
L 1172 3500 
L 2356 3500 
L 2356 3053 
L 1172 3053 
L 1172 1153 
Q 1172 725 1289 603 
Q 1406 481 1766 481 
L 2356 481 
L 2356 0 
L 1766 0 
Q 1100 0 847 248 
Q 594 497 594 1153 
L 594 3053 
L 172 3053 
L 172 3500 
L 594 3500 
L 594 4494 
L 1172 4494 
z
" transform="scale(0.015625)"/>
       <path id="DejaVuSans-65" d="M 3597 1894 
L 3597 1613 
L 953 1613 
Q 991 1019 1311 708 
Q 1631 397 2203 397 
Q 2534 397 2845 478 
Q 3156 559 3463 722 
L 3463 178 
Q 3153 47 2828 -22 
Q 2503 -91 2169 -91 
Q 1331 -91 842 396 
Q 353 884 353 1716 
Q 353 2575 817 3079 
Q 1281 3584 2069 3584 
Q 2775 3584 3186 3129 
Q 3597 2675 3597 1894 
z
M 3022 2063 
Q 3016 2534 2758 2815 
Q 2500 3097 2075 3097 
Q 1594 3097 1305 2825 
Q 1016 2553 972 2059 
L 3022 2063 
z
" transform="scale(0.015625)"/>
      </defs>
      <use xlink:href="#DejaVuSans-53"/>
      <use xlink:href="#DejaVuSans-51" x="63.476562"/>
      <use xlink:href="#DejaVuSans-4c" x="142.1875"/>
      <use xlink:href="#DejaVuSans-69" x="197.900391"/>
      <use xlink:href="#DejaVuSans-74" x="225.683594"/>
      <use xlink:href="#DejaVuSans-65" x="264.892578"/>
     </g>
    </g>
    <g id="patch_27">
     <path d="M 602.025188 431.410156 
L 620.025188 431.410156 
L 620.025188 425.110156 
L 602.025188 425.110156 
z
" style="fill: #f0b429"/>
    </g>
    <g id="text_32">
     <!-- bumbledb -->
     <g style="fill: #e6edf3" transform="translate(627.225188 431.410156) scale(0.09 -0.09)">
      <defs>
       <path id="DejaVuSans-62" d="M 3116 1747 
Q 3116 2381 2855 2742 
Q 2594 3103 2138 3103 
Q 1681 3103 1420 2742 
Q 1159 2381 1159 1747 
Q 1159 1113 1420 752 
Q 1681 391 2138 391 
Q 2594 391 2855 752 
Q 3116 1113 3116 1747 
z
M 1159 2969 
Q 1341 3281 1617 3432 
Q 1894 3584 2278 3584 
Q 2916 3584 3314 3078 
Q 3713 2572 3713 1747 
Q 3713 922 3314 415 
Q 2916 -91 2278 -91 
Q 1894 -91 1617 61 
Q 1341 213 1159 525 
L 1159 0 
L 581 0 
L 581 4863 
L 1159 4863 
L 1159 2969 
z
" transform="scale(0.015625)"/>
       <path id="DejaVuSans-75" d="M 544 1381 
L 544 3500 
L 1119 3500 
L 1119 1403 
Q 1119 906 1312 657 
Q 1506 409 1894 409 
Q 2359 409 2629 706 
Q 2900 1003 2900 1516 
L 2900 3500 
L 3475 3500 
L 3475 0 
L 2900 0 
L 2900 538 
Q 2691 219 2414 64 
Q 2138 -91 1772 -91 
Q 1169 -91 856 284 
Q 544 659 544 1381 
z
M 1991 3584 
L 1991 3584 
z
" transform="scale(0.015625)"/>
       <path id="DejaVuSans-6c" d="M 603 4863 
L 1178 4863 
L 1178 0 
L 603 0 
L 603 4863 
z
" transform="scale(0.015625)"/>
       <path id="DejaVuSans-64" d="M 2906 2969 
L 2906 4863 
L 3481 4863 
L 3481 0 
L 2906 0 
L 2906 525 
Q 2725 213 2448 61 
Q 2172 -91 1784 -91 
Q 1150 -91 751 415 
Q 353 922 353 1747 
Q 353 2572 751 3078 
Q 1150 3584 1784 3584 
Q 2172 3584 2448 3432 
Q 2725 3281 2906 2969 
z
M 947 1747 
Q 947 1113 1208 752 
Q 1469 391 1925 391 
Q 2381 391 2643 752 
Q 2906 1113 2906 1747 
Q 2906 2381 2643 2742 
Q 2381 3103 1925 3103 
Q 1469 3103 1208 2742 
Q 947 2381 947 1747 
z
" transform="scale(0.015625)"/>
      </defs>
      <use xlink:href="#DejaVuSans-62"/>
      <use xlink:href="#DejaVuSans-75" x="63.476562"/>
      <use xlink:href="#DejaVuSans-6d" x="126.855469"/>
      <use xlink:href="#DejaVuSans-62" x="224.267578"/>
      <use xlink:href="#DejaVuSans-6c" x="287.744141"/>
      <use xlink:href="#DejaVuSans-65" x="315.527344"/>
      <use xlink:href="#DejaVuSans-64" x="377.050781"/>
      <use xlink:href="#DejaVuSans-62" x="440.527344"/>
     </g>
    </g>
   </g>
  </g>
  <g id="text_33">
   <!-- durable commits are an fsync-latency product on both engines; shown as measured · min-of-2, durable store · 1 contaminated run excluded and counted · shared-machine night, boosted QoS -->
   <g style="fill: #9da7b3" transform="translate(7.2 465.463875) scale(0.08 -0.08)">
    <defs>
     <path id="DejaVuSansMono-2d" d="M 1113 2009 
L 2741 2009 
L 2741 1497 
L 1113 1497 
L 1113 2009 
z
" transform="scale(0.015625)"/>
     <path id="DejaVuSansMono-3b" d="M 1569 947 
L 2356 947 
L 2356 300 
L 1741 -897 
L 1259 -897 
L 1569 300 
L 1569 947 
z
M 1528 3322 
L 2316 3322 
L 2316 2375 
L 1528 2375 
L 1528 3322 
z
" transform="scale(0.015625)"/>
     <path id="DejaVuSansMono-31" d="M 844 531 
L 1825 531 
L 1825 4097 
L 769 3859 
L 769 4434 
L 1819 4666 
L 2450 4666 
L 2450 531 
L 3419 531 
L 3419 0 
L 844 0 
L 844 531 
z
" transform="scale(0.015625)"/>
     <path id="DejaVuSansMono-51" d="M 2047 -84 
Q 2025 -84 1984 -87 
Q 1944 -91 1919 -91 
Q 1138 -91 752 509 
Q 366 1109 366 2328 
Q 366 3550 752 4150 
Q 1138 4750 1925 4750 
Q 2716 4750 3102 4150 
Q 3488 3550 3488 2328 
Q 3488 1409 3273 848 
Q 3059 288 2625 63 
L 3250 -531 
L 2778 -844 
L 2047 -84 
z
M 2828 2328 
Q 2828 3356 2617 3797 
Q 2406 4238 1925 4238 
Q 1447 4238 1236 3797 
Q 1025 3356 1025 2328 
Q 1025 1303 1236 862 
Q 1447 422 1925 422 
Q 2406 422 2617 861 
Q 2828 1300 2828 2328 
z
" transform="scale(0.015625)"/>
     <path id="DejaVuSansMono-53" d="M 3163 4506 
L 3163 3866 
Q 2875 4050 2586 4144 
Q 2297 4238 2003 4238 
Q 1556 4238 1297 4030 
Q 1038 3822 1038 3469 
Q 1038 3159 1208 2996 
Q 1378 2834 1844 2725 
L 2175 2650 
Q 2831 2497 3131 2169 
Q 3431 1841 3431 1275 
Q 3431 609 3018 259 
Q 2606 -91 1819 -91 
Q 1491 -91 1159 -20 
Q 828 50 494 191 
L 494 863 
Q 853 634 1173 528 
Q 1494 422 1819 422 
Q 2297 422 2562 636 
Q 2828 850 2828 1234 
Q 2828 1584 2645 1768 
Q 2463 1953 2009 2053 
L 1672 2131 
Q 1022 2278 728 2575 
Q 434 2872 434 3372 
Q 434 3997 854 4373 
Q 1275 4750 1972 4750 
Q 2241 4750 2537 4689 
Q 2834 4628 3163 4506 
z
" transform="scale(0.015625)"/>
    </defs>
    <use xlink:href="#DejaVuSansMono-64"/>
    <use xlink:href="#DejaVuSansMono-75" x="60.205078"/>
    <use xlink:href="#DejaVuSansMono-72" x="120.410156"/>
    <use xlink:href="#DejaVuSansMono-61" x="180.615234"/>
    <use xlink:href="#DejaVuSansMono-62" x="240.820312"/>
    <use xlink:href="#DejaVuSansMono-6c" x="301.025391"/>
    <use xlink:href="#DejaVuSansMono-65" x="361.230469"/>
    <use xlink:href="#DejaVuSansMono-20" x="421.435547"/>
    <use xlink:href="#DejaVuSansMono-63" x="481.640625"/>
    <use xlink:href="#DejaVuSansMono-6f" x="541.845703"/>
    <use xlink:href="#DejaVuSansMono-6d" x="602.050781"/>
    <use xlink:href="#DejaVuSansMono-6d" x="662.255859"/>
    <use xlink:href="#DejaVuSansMono-69" x="722.460938"/>
    <use xlink:href="#DejaVuSansMono-74" x="782.666016"/>
    <use xlink:href="#DejaVuSansMono-73" x="842.871094"/>
    <use xlink:href="#DejaVuSansMono-20" x="903.076172"/>
    <use xlink:href="#DejaVuSansMono-61" x="963.28125"/>
    <use xlink:href="#DejaVuSansMono-72" x="1023.486328"/>
    <use xlink:href="#DejaVuSansMono-65" x="1083.691406"/>
    <use xlink:href="#DejaVuSansMono-20" x="1143.896484"/>
    <use xlink:href="#DejaVuSansMono-61" x="1204.101562"/>
    <use xlink:href="#DejaVuSansMono-6e" x="1264.306641"/>
    <use xlink:href="#DejaVuSansMono-20" x="1324.511719"/>
    <use xlink:href="#DejaVuSansMono-66" x="1384.716797"/>
    <use xlink:href="#DejaVuSansMono-73" x="1444.921875"/>
    <use xlink:href="#DejaVuSansMono-79" x="1505.126953"/>
    <use xlink:href="#DejaVuSansMono-6e" x="1565.332031"/>
    <use xlink:href="#DejaVuSansMono-63" x="1625.537109"/>
    <use xlink:href="#DejaVuSansMono-2d" x="1685.742188"/>
    <use xlink:href="#DejaVuSansMono-6c" x="1745.947266"/>
    <use xlink:href="#DejaVuSansMono-61" x="1806.152344"/>
    <use xlink:href="#DejaVuSansMono-74" x="1866.357422"/>
    <use xlink:href="#DejaVuSansMono-65" x="1926.5625"/>
    <use xlink:href="#DejaVuSansMono-6e" x="1986.767578"/>
    <use xlink:href="#DejaVuSansMono-63" x="2046.972656"/>
    <use xlink:href="#DejaVuSansMono-79" x="2107.177734"/>
    <use xlink:href="#DejaVuSansMono-20" x="2167.382812"/>
    <use xlink:href="#DejaVuSansMono-70" x="2227.587891"/>
    <use xlink:href="#DejaVuSansMono-72" x="2287.792969"/>
    <use xlink:href="#DejaVuSansMono-6f" x="2347.998047"/>
    <use xlink:href="#DejaVuSansMono-64" x="2408.203125"/>
    <use xlink:href="#DejaVuSansMono-75" x="2468.408203"/>
    <use xlink:href="#DejaVuSansMono-63" x="2528.613281"/>
    <use xlink:href="#DejaVuSansMono-74" x="2588.818359"/>
    <use xlink:href="#DejaVuSansMono-20" x="2649.023438"/>
    <use xlink:href="#DejaVuSansMono-6f" x="2709.228516"/>
    <use xlink:href="#DejaVuSansMono-6e" x="2769.433594"/>
    <use xlink:href="#DejaVuSansMono-20" x="2829.638672"/>
    <use xlink:href="#DejaVuSansMono-62" x="2889.84375"/>
    <use xlink:href="#DejaVuSansMono-6f" x="2950.048828"/>
    <use xlink:href="#DejaVuSansMono-74" x="3010.253906"/>
    <use xlink:href="#DejaVuSansMono-68" x="3070.458984"/>
    <use xlink:href="#DejaVuSansMono-20" x="3130.664062"/>
    <use xlink:href="#DejaVuSansMono-65" x="3190.869141"/>
    <use xlink:href="#DejaVuSansMono-6e" x="3251.074219"/>
    <use xlink:href="#DejaVuSansMono-67" x="3311.279297"/>
    <use xlink:href="#DejaVuSansMono-69" x="3371.484375"/>
    <use xlink:href="#DejaVuSansMono-6e" x="3431.689453"/>
    <use xlink:href="#DejaVuSansMono-65" x="3491.894531"/>
    <use xlink:href="#DejaVuSansMono-73" x="3552.099609"/>
    <use xlink:href="#DejaVuSansMono-3b" x="3612.304688"/>
    <use xlink:href="#DejaVuSansMono-20" x="3672.509766"/>
    <use xlink:href="#DejaVuSansMono-73" x="3732.714844"/>
    <use xlink:href="#DejaVuSansMono-68" x="3792.919922"/>
    <use xlink:href="#DejaVuSansMono-6f" x="3853.125"/>
    <use xlink:href="#DejaVuSansMono-77" x="3913.330078"/>
    <use xlink:href="#DejaVuSansMono-6e" x="3973.535156"/>
    <use xlink:href="#DejaVuSansMono-20" x="4033.740234"/>
    <use xlink:href="#DejaVuSansMono-61" x="4093.945312"/>
    <use xlink:href="#DejaVuSansMono-73" x="4154.150391"/>
    <use xlink:href="#DejaVuSansMono-20" x="4214.355469"/>
    <use xlink:href="#DejaVuSansMono-6d" x="4274.560547"/>
    <use xlink:href="#DejaVuSansMono-65" x="4334.765625"/>
    <use xlink:href="#DejaVuSansMono-61" x="4394.970703"/>
    <use xlink:href="#DejaVuSansMono-73" x="4455.175781"/>
    <use xlink:href="#DejaVuSansMono-75" x="4515.380859"/>
    <use xlink:href="#DejaVuSansMono-72" x="4575.585938"/>
    <use xlink:href="#DejaVuSansMono-65" x="4635.791016"/>
    <use xlink:href="#DejaVuSansMono-64" x="4695.996094"/>
    <use xlink:href="#DejaVuSansMono-20" x="4756.201172"/>
    <use xlink:href="#DejaVuSansMono-b7" x="4816.40625"/>
    <use xlink:href="#DejaVuSansMono-20" x="4876.611328"/>
    <use xlink:href="#DejaVuSansMono-6d" x="4936.816406"/>
    <use xlink:href="#DejaVuSansMono-69" x="4997.021484"/>
    <use xlink:href="#DejaVuSansMono-6e" x="5057.226562"/>
    <use xlink:href="#DejaVuSansMono-2d" x="5117.431641"/>
    <use xlink:href="#DejaVuSansMono-6f" x="5177.636719"/>
    <use xlink:href="#DejaVuSansMono-66" x="5237.841797"/>
    <use xlink:href="#DejaVuSansMono-2d" x="5298.046875"/>
    <use xlink:href="#DejaVuSansMono-32" x="5358.251953"/>
    <use xlink:href="#DejaVuSansMono-2c" x="5418.457031"/>
    <use xlink:href="#DejaVuSansMono-20" x="5478.662109"/>
    <use xlink:href="#DejaVuSansMono-64" x="5538.867188"/>
    <use xlink:href="#DejaVuSansMono-75" x="5599.072266"/>
    <use xlink:href="#DejaVuSansMono-72" x="5659.277344"/>
    <use xlink:href="#DejaVuSansMono-61" x="5719.482422"/>
    <use xlink:href="#DejaVuSansMono-62" x="5779.6875"/>
    <use xlink:href="#DejaVuSansMono-6c" x="5839.892578"/>
    <use xlink:href="#DejaVuSansMono-65" x="5900.097656"/>
    <use xlink:href="#DejaVuSansMono-20" x="5960.302734"/>
    <use xlink:href="#DejaVuSansMono-73" x="6020.507812"/>
    <use xlink:href="#DejaVuSansMono-74" x="6080.712891"/>
    <use xlink:href="#DejaVuSansMono-6f" x="6140.917969"/>
    <use xlink:href="#DejaVuSansMono-72" x="6201.123047"/>
    <use xlink:href="#DejaVuSansMono-65" x="6261.328125"/>
    <use xlink:href="#DejaVuSansMono-20" x="6321.533203"/>
    <use xlink:href="#DejaVuSansMono-b7" x="6381.738281"/>
    <use xlink:href="#DejaVuSansMono-20" x="6441.943359"/>
    <use xlink:href="#DejaVuSansMono-31" x="6502.148438"/>
    <use xlink:href="#DejaVuSansMono-20" x="6562.353516"/>
    <use xlink:href="#DejaVuSansMono-63" x="6622.558594"/>
    <use xlink:href="#DejaVuSansMono-6f" x="6682.763672"/>
    <use xlink:href="#DejaVuSansMono-6e" x="6742.96875"/>
    <use xlink:href="#DejaVuSansMono-74" x="6803.173828"/>
    <use xlink:href="#DejaVuSansMono-61" x="6863.378906"/>
    <use xlink:href="#DejaVuSansMono-6d" x="6923.583984"/>
    <use xlink:href="#DejaVuSansMono-69" x="6983.789062"/>
    <use xlink:href="#DejaVuSansMono-6e" x="7043.994141"/>
    <use xlink:href="#DejaVuSansMono-61" x="7104.199219"/>
    <use xlink:href="#DejaVuSansMono-74" x="7164.404297"/>
    <use xlink:href="#DejaVuSansMono-65" x="7224.609375"/>
    <use xlink:href="#DejaVuSansMono-64" x="7284.814453"/>
    <use xlink:href="#DejaVuSansMono-20" x="7345.019531"/>
    <use xlink:href="#DejaVuSansMono-72" x="7405.224609"/>
    <use xlink:href="#DejaVuSansMono-75" x="7465.429688"/>
    <use xlink:href="#DejaVuSansMono-6e" x="7525.634766"/>
    <use xlink:href="#DejaVuSansMono-20" x="7585.839844"/>
    <use xlink:href="#DejaVuSansMono-65" x="7646.044922"/>
    <use xlink:href="#DejaVuSansMono-78" x="7706.25"/>
    <use xlink:href="#DejaVuSansMono-63" x="7766.455078"/>
    <use xlink:href="#DejaVuSansMono-6c" x="7826.660156"/>
    <use xlink:href="#DejaVuSansMono-75" x="7886.865234"/>
    <use xlink:href="#DejaVuSansMono-64" x="7947.070312"/>
    <use xlink:href="#DejaVuSansMono-65" x="8007.275391"/>
    <use xlink:href="#DejaVuSansMono-64" x="8067.480469"/>
    <use xlink:href="#DejaVuSansMono-20" x="8127.685547"/>
    <use xlink:href="#DejaVuSansMono-61" x="8187.890625"/>
    <use xlink:href="#DejaVuSansMono-6e" x="8248.095703"/>
    <use xlink:href="#DejaVuSansMono-64" x="8308.300781"/>
    <use xlink:href="#DejaVuSansMono-20" x="8368.505859"/>
    <use xlink:href="#DejaVuSansMono-63" x="8428.710938"/>
    <use xlink:href="#DejaVuSansMono-6f" x="8488.916016"/>
    <use xlink:href="#DejaVuSansMono-75" x="8549.121094"/>
    <use xlink:href="#DejaVuSansMono-6e" x="8609.326172"/>
    <use xlink:href="#DejaVuSansMono-74" x="8669.53125"/>
    <use xlink:href="#DejaVuSansMono-65" x="8729.736328"/>
    <use xlink:href="#DejaVuSansMono-64" x="8789.941406"/>
    <use xlink:href="#DejaVuSansMono-20" x="8850.146484"/>
    <use xlink:href="#DejaVuSansMono-b7" x="8910.351562"/>
    <use xlink:href="#DejaVuSansMono-20" x="8970.556641"/>
    <use xlink:href="#DejaVuSansMono-73" x="9030.761719"/>
    <use xlink:href="#DejaVuSansMono-68" x="9090.966797"/>
    <use xlink:href="#DejaVuSansMono-61" x="9151.171875"/>
    <use xlink:href="#DejaVuSansMono-72" x="9211.376953"/>
    <use xlink:href="#DejaVuSansMono-65" x="9271.582031"/>
    <use xlink:href="#DejaVuSansMono-64" x="9331.787109"/>
    <use xlink:href="#DejaVuSansMono-2d" x="9391.992188"/>
    <use xlink:href="#DejaVuSansMono-6d" x="9452.197266"/>
    <use xlink:href="#DejaVuSansMono-61" x="9512.402344"/>
    <use xlink:href="#DejaVuSansMono-63" x="9572.607422"/>
    <use xlink:href="#DejaVuSansMono-68" x="9632.8125"/>
    <use xlink:href="#DejaVuSansMono-69" x="9693.017578"/>
    <use xlink:href="#DejaVuSansMono-6e" x="9753.222656"/>
    <use xlink:href="#DejaVuSansMono-65" x="9813.427734"/>
    <use xlink:href="#DejaVuSansMono-20" x="9873.632812"/>
    <use xlink:href="#DejaVuSansMono-6e" x="9933.837891"/>
    <use xlink:href="#DejaVuSansMono-69" x="9994.042969"/>
    <use xlink:href="#DejaVuSansMono-67" x="10054.248047"/>
    <use xlink:href="#DejaVuSansMono-68" x="10114.453125"/>
    <use xlink:href="#DejaVuSansMono-74" x="10174.658203"/>
    <use xlink:href="#DejaVuSansMono-2c" x="10234.863281"/>
    <use xlink:href="#DejaVuSansMono-20" x="10295.068359"/>
    <use xlink:href="#DejaVuSansMono-62" x="10355.273438"/>
    <use xlink:href="#DejaVuSansMono-6f" x="10415.478516"/>
    <use xlink:href="#DejaVuSansMono-6f" x="10475.683594"/>
    <use xlink:href="#DejaVuSansMono-73" x="10535.888672"/>
    <use xlink:href="#DejaVuSansMono-74" x="10596.09375"/>
    <use xlink:href="#DejaVuSansMono-65" x="10656.298828"/>
    <use xlink:href="#DejaVuSansMono-64" x="10716.503906"/>
    <use xlink:href="#DejaVuSansMono-20" x="10776.708984"/>
    <use xlink:href="#DejaVuSansMono-51" x="10836.914062"/>
    <use xlink:href="#DejaVuSansMono-6f" x="10897.119141"/>
    <use xlink:href="#DejaVuSansMono-53" x="10957.324219"/>
   </g>
  </g>
 </g>
 <defs>
  <clipPath id="p4e8d3b51b5">
   <rect x="186.928" y="30.381875" width="493.76" height="411"/>
  </clipPath>
 </defs>
</svg>
