<?xml version="1.0" encoding="utf-8" standalone="no"?>
<!DOCTYPE svg PUBLIC "-//W3C//DTD SVG 1.1//EN"
  "http://www.w3.org/Graphics/SVG/1.1/DTD/svg11.dtd">
<svg xmlns:xlink="http://www.w3.org/1999/xlink" width="687.888pt" height="449.308625pt" viewBox="0 0 687.888 449.308625" xmlns="http://www.w3.org/2000/svg" version="1.1">
 <metadata>
  <rdf:RDF xmlns:dc="http://purl.org/dc/elements/1.1/" xmlns:cc="http://creativecommons.org/ns#" xmlns:rdf="http://www.w3.org/1999/02/22-rdf-syntax-ns#">
   <cc:Work>
    <dc:type rdf:resource="http://purl.org/dc/dcmitype/StillImage"/>
    <dc:date>2026-07-08T01:27:50.398604</dc:date>
    <dc:format>image/svg+xml</dc:format>
    <dc:creator>
     <cc:Agent>
      <dc:title>Matplotlib v3.9.4, https://matplotlib.org/</dc:title>
     </cc:Agent>
    </dc:creator>
   </cc:Work>
  </rdf:RDF>
 </metadata>
 <defs>
  <style type="text/css">*{stroke-linejoin: round; stroke-linecap: butt}</style>
 </defs>
 <g id="figure_1">
  <g id="patch_1">
   <path d="M 0 449.308625 
L 687.888 449.308625 
L 687.888 -0 
L 0 -0 
z
" style="fill: #0d1117"/>
  </g>
  <g id="axes_1">
   <g id="patch_2">
    <path d="M 66.328 416.181875 
L 680.688 416.181875 
L 680.688 30.381875 
L 66.328 30.381875 
z
" style="fill: #0d1117"/>
   </g>
   <g id="matplotlib.axis_1">
    <g id="xtick_1">
     <g id="line2d_1">
      <path d="M 127.673602 416.181875 
L 127.673602 30.381875 
" clip-path="url(#pec9a753add)" style="fill: none; stroke: #2d333b; stroke-width: 0.6; stroke-linecap: square"/>
     </g>
     <g id="line2d_2">
      <defs>
       <path id="mefd288f092" d="M 0 0 
L 0 3.5 
" style="stroke: #9da7b3; stroke-width: 0.8"/>
      </defs>
      <g>
       <use xlink:href="#mefd288f092" x="127.673602" y="416.181875" style="fill: #9da7b3; stroke: #9da7b3; stroke-width: 0.8"/>
      </g>
     </g>
     <g id="text_1">
      <!-- 1.0µs -->
      <g style="fill: #9da7b3" transform="translate(115.309852 430.020469) scale(0.09 -0.09)">
       <defs>
        <path id="DejaVuSans-31" d="M 794 531 
L 1825 531 
L 1825 4091 
L 703 3866 
L 703 4441 
L 1819 4666 
L 2450 4666 
L 2450 531 
L 3481 531 
L 3481 0 
L 794 0 
L 794 531 
z
" transform="scale(0.015625)"/>
        <path id="DejaVuSans-2e" d="M 684 794 
L 1344 794 
L 1344 0 
L 684 0 
L 684 794 
z
" transform="scale(0.015625)"/>
        <path id="DejaVuSans-30" d="M 2034 4250 
Q 1547 4250 1301 3770 
Q 1056 3291 1056 2328 
Q 1056 1369 1301 889 
Q 1547 409 2034 409 
Q 2525 409 2770 889 
Q 3016 1369 3016 2328 
Q 3016 3291 2770 3770 
Q 2525 4250 2034 4250 
z
M 2034 4750 
Q 2819 4750 3233 4129 
Q 3647 3509 3647 2328 
Q 3647 1150 3233 529 
Q 2819 -91 2034 -91 
Q 1250 -91 836 529 
Q 422 1150 422 2328 
Q 422 3509 836 4129 
Q 1250 4750 2034 4750 
z
" transform="scale(0.015625)"/>
        <path id="DejaVuSans-b5" d="M 544 -1331 
L 544 3500 
L 1119 3500 
L 1119 1325 
Q 1119 872 1334 640 
Q 1550 409 1972 409 
Q 2434 409 2667 671 
Q 2900 934 2900 1459 
L 2900 3500 
L 3475 3500 
L 3475 806 
Q 3475 619 3529 530 
Q 3584 441 3700 441 
Q 3728 441 3778 458 
Q 3828 475 3916 513 
L 3916 50 
Q 3788 -22 3673 -56 
Q 3559 -91 3450 -91 
Q 3234 -91 3106 31 
Q 2978 153 2931 403 
Q 2775 156 2548 32 
Q 2322 -91 2016 -91 
Q 1697 -91 1473 31 
Q 1250 153 1119 397 
L 1119 -1331 
L 544 -1331 
z
" transform="scale(0.015625)"/>
        <path id="DejaVuSans-73" d="M 2834 3397 
L 2834 2853 
Q 2591 2978 2328 3040 
Q 2066 3103 1784 3103 
Q 1356 3103 1142 2972 
Q 928 2841 928 2578 
Q 928 2378 1081 2264 
Q 1234 2150 1697 2047 
L 1894 2003 
Q 2506 1872 2764 1633 
Q 3022 1394 3022 966 
Q 3022 478 2636 193 
Q 2250 -91 1575 -91 
Q 1294 -91 989 -36 
Q 684 19 347 128 
L 347 722 
Q 666 556 975 473 
Q 1284 391 1588 391 
Q 1994 391 2212 530 
Q 2431 669 2431 922 
Q 2431 1156 2273 1281 
Q 2116 1406 1581 1522 
L 1381 1569 
Q 847 1681 609 1914 
Q 372 2147 372 2553 
Q 372 3047 722 3315 
Q 1072 3584 1716 3584 
Q 2034 3584 2315 3537 
Q 2597 3491 2834 3397 
z
" transform="scale(0.015625)"/>
       </defs>
       <use xlink:href="#DejaVuSans-31"/>
       <use xlink:href="#DejaVuSans-2e" x="63.623047"/>
       <use xlink:href="#DejaVuSans-30" x="95.410156"/>
       <use xlink:href="#DejaVuSans-b5" x="159.033203"/>
       <use xlink:href="#DejaVuSans-73" x="222.65625"/>
      </g>
     </g>
    </g>
    <g id="xtick_2">
     <g id="line2d_3">
      <path d="M 215.439316 416.181875 
L 215.439316 30.381875 
" clip-path="url(#pec9a753add)" style="fill: none; stroke: #2d333b; stroke-width: 0.6; stroke-linecap: square"/>
     </g>
     <g id="line2d_4">
      <g>
       <use xlink:href="#mefd288f092" x="215.439316" y="416.181875" style="fill: #9da7b3; stroke: #9da7b3; stroke-width: 0.8"/>
      </g>
     </g>
     <g id="text_2">
      <!-- 10µs -->
      <g style="fill: #9da7b3" transform="translate(204.505722 430.020469) scale(0.09 -0.09)">
       <use xlink:href="#DejaVuSans-31"/>
       <use xlink:href="#DejaVuSans-30" x="63.623047"/>
       <use xlink:href="#DejaVuSans-b5" x="127.246094"/>
       <use xlink:href="#DejaVuSans-73" x="190.869141"/>
      </g>
     </g>
    </g>
    <g id="xtick_3">
     <g id="line2d_5">
      <path d="M 303.20503 416.181875 
L 303.20503 30.381875 
" clip-path="url(#pec9a753add)" style="fill: none; stroke: #2d333b; stroke-width: 0.6; stroke-linecap: square"/>
     </g>
     <g id="line2d_6">
      <g>
       <use xlink:href="#mefd288f092" x="303.20503" y="416.181875" style="fill: #9da7b3; stroke: #9da7b3; stroke-width: 0.8"/>
      </g>
     </g>
     <g id="text_3">
      <!-- 100µs -->
      <g style="fill: #9da7b3" transform="translate(289.408312 430.020469) scale(0.09 -0.09)">
       <use xlink:href="#DejaVuSans-31"/>
       <use xlink:href="#DejaVuSans-30" x="63.623047"/>
       <use xlink:href="#DejaVuSans-30" x="127.246094"/>
       <use xlink:href="#DejaVuSans-b5" x="190.869141"/>
       <use xlink:href="#DejaVuSans-73" x="254.492188"/>
      </g>
     </g>
    </g>
    <g id="xtick_4">
     <g id="line2d_7">
      <path d="M 390.970745 416.181875 
L 390.970745 30.381875 
" clip-path="url(#pec9a753add)" style="fill: none; stroke: #2d333b; stroke-width: 0.6; stroke-linecap: square"/>
     </g>
     <g id="line2d_8">
      <g>
       <use xlink:href="#mefd288f092" x="390.970745" y="416.181875" style="fill: #9da7b3; stroke: #9da7b3; stroke-width: 0.8"/>
      </g>
     </g>
     <g id="text_4">
      <!-- 1ms -->
      <g style="fill: #9da7b3" transform="translate(381.38012 430.020469) scale(0.09 -0.09)">
       <defs>
        <path id="DejaVuSans-6d" d="M 3328 2828 
Q 3544 3216 3844 3400 
Q 4144 3584 4550 3584 
Q 5097 3584 5394 3201 
Q 5691 2819 5691 2113 
L 5691 0 
L 5113 0 
L 5113 2094 
Q 5113 2597 4934 2840 
Q 4756 3084 4391 3084 
Q 3944 3084 3684 2787 
Q 3425 2491 3425 1978 
L 3425 0 
L 2847 0 
L 2847 2094 
Q 2847 2600 2669 2842 
Q 2491 3084 2119 3084 
Q 1678 3084 1418 2786 
Q 1159 2488 1159 1978 
L 1159 0 
L 581 0 
L 581 3500 
L 1159 3500 
L 1159 2956 
Q 1356 3278 1631 3431 
Q 1906 3584 2284 3584 
Q 2666 3584 2933 3390 
Q 3200 3197 3328 2828 
z
" transform="scale(0.015625)"/>
       </defs>
       <use xlink:href="#DejaVuSans-31"/>
       <use xlink:href="#DejaVuSans-6d" x="63.623047"/>
       <use xlink:href="#DejaVuSans-73" x="161.035156"/>
      </g>
     </g>
    </g>
    <g id="xtick_5">
     <g id="line2d_9">
      <path d="M 478.736459 416.181875 
L 478.736459 30.381875 
" clip-path="url(#pec9a753add)" style="fill: none; stroke: #2d333b; stroke-width: 0.6; stroke-linecap: square"/>
     </g>
     <g id="line2d_10">
      <g>
       <use xlink:href="#mefd288f092" x="478.736459" y="416.181875" style="fill: #9da7b3; stroke: #9da7b3; stroke-width: 0.8"/>
      </g>
     </g>
     <g id="text_5">
      <!-- 10ms -->
      <g style="fill: #9da7b3" transform="translate(466.282709 430.020469) scale(0.09 -0.09)">
       <use xlink:href="#DejaVuSans-31"/>
       <use xlink:href="#DejaVuSans-30" x="63.623047"/>
       <use xlink:href="#DejaVuSans-6d" x="127.246094"/>
       <use xlink:href="#DejaVuSans-73" x="224.658203"/>
      </g>
     </g>
    </g>
    <g id="xtick_6">
     <g id="line2d_11">
      <path d="M 566.502173 416.181875 
L 566.502173 30.381875 
" clip-path="url(#pec9a753add)" style="fill: none; stroke: #2d333b; stroke-width: 0.6; stroke-linecap: square"/>
     </g>
     <g id="line2d_12">
      <g>
       <use xlink:href="#mefd288f092" x="566.502173" y="416.181875" style="fill: #9da7b3; stroke: #9da7b3; stroke-width: 0.8"/>
      </g>
     </g>
     <g id="text_6">
      <!-- 100ms -->
      <g style="fill: #9da7b3" transform="translate(551.185298 430.020469) scale(0.09 -0.09)">
       <use xlink:href="#DejaVuSans-31"/>
       <use xlink:href="#DejaVuSans-30" x="63.623047"/>
       <use xlink:href="#DejaVuSans-30" x="127.246094"/>
       <use xlink:href="#DejaVuSans-6d" x="190.869141"/>
       <use xlink:href="#DejaVuSans-73" x="288.28125"/>
      </g>
     </g>
    </g>
    <g id="xtick_7">
     <g id="line2d_13">
      <path d="M 654.267887 416.181875 
L 654.267887 30.381875 
" clip-path="url(#pec9a753add)" style="fill: none; stroke: #2d333b; stroke-width: 0.6; stroke-linecap: square"/>
     </g>
     <g id="line2d_14">
      <g>
       <use xlink:href="#mefd288f092" x="654.267887" y="416.181875" style="fill: #9da7b3; stroke: #9da7b3; stroke-width: 0.8"/>
      </g>
     </g>
     <g id="text_7">
      <!-- 1.0s -->
      <g style="fill: #9da7b3" transform="translate(644.767262 430.020469) scale(0.09 -0.09)">
       <use xlink:href="#DejaVuSans-31"/>
       <use xlink:href="#DejaVuSans-2e" x="63.623047"/>
       <use xlink:href="#DejaVuSans-30" x="95.410156"/>
       <use xlink:href="#DejaVuSans-73" x="159.033203"/>
      </g>
     </g>
    </g>
    <g id="xtick_8">
     <g id="line2d_15">
      <defs>
       <path id="m28ee9d8950" d="M 0 0 
L 0 2 
" style="stroke: #000000; stroke-width: 0.6"/>
      </defs>
      <g>
       <use xlink:href="#m28ee9d8950" x="66.328" y="416.181875" style="stroke: #000000; stroke-width: 0.6"/>
      </g>
     </g>
    </g>
    <g id="xtick_9">
     <g id="line2d_16">
      <g>
       <use xlink:href="#m28ee9d8950" x="81.782775" y="416.181875" style="stroke: #000000; stroke-width: 0.6"/>
      </g>
     </g>
    </g>
    <g id="xtick_10">
     <g id="line2d_17">
      <g>
       <use xlink:href="#m28ee9d8950" x="92.748113" y="416.181875" style="stroke: #000000; stroke-width: 0.6"/>
      </g>
     </g>
    </g>
    <g id="xtick_11">
     <g id="line2d_18">
      <g>
       <use xlink:href="#m28ee9d8950" x="101.253489" y="416.181875" style="stroke: #000000; stroke-width: 0.6"/>
      </g>
     </g>
    </g>
    <g id="xtick_12">
     <g id="line2d_19">
      <g>
       <use xlink:href="#m28ee9d8950" x="108.202888" y="416.181875" style="stroke: #000000; stroke-width: 0.6"/>
      </g>
     </g>
    </g>
    <g id="xtick_13">
     <g id="line2d_20">
      <g>
       <use xlink:href="#m28ee9d8950" x="114.078521" y="416.181875" style="stroke: #000000; stroke-width: 0.6"/>
      </g>
     </g>
    </g>
    <g id="xtick_14">
     <g id="line2d_21">
      <g>
       <use xlink:href="#m28ee9d8950" x="119.168225" y="416.181875" style="stroke: #000000; stroke-width: 0.6"/>
      </g>
     </g>
    </g>
    <g id="xtick_15">
     <g id="line2d_22">
      <g>
       <use xlink:href="#m28ee9d8950" x="123.657663" y="416.181875" style="stroke: #000000; stroke-width: 0.6"/>
      </g>
     </g>
    </g>
    <g id="xtick_16">
     <g id="line2d_23">
      <g>
       <use xlink:href="#m28ee9d8950" x="154.093714" y="416.181875" style="stroke: #000000; stroke-width: 0.6"/>
      </g>
     </g>
    </g>
    <g id="xtick_17">
     <g id="line2d_24">
      <g>
       <use xlink:href="#m28ee9d8950" x="169.548489" y="416.181875" style="stroke: #000000; stroke-width: 0.6"/>
      </g>
     </g>
    </g>
    <g id="xtick_18">
     <g id="line2d_25">
      <g>
       <use xlink:href="#m28ee9d8950" x="180.513827" y="416.181875" style="stroke: #000000; stroke-width: 0.6"/>
      </g>
     </g>
    </g>
    <g id="xtick_19">
     <g id="line2d_26">
      <g>
       <use xlink:href="#m28ee9d8950" x="189.019203" y="416.181875" style="stroke: #000000; stroke-width: 0.6"/>
      </g>
     </g>
    </g>
    <g id="xtick_20">
     <g id="line2d_27">
      <g>
       <use xlink:href="#m28ee9d8950" x="195.968602" y="416.181875" style="stroke: #000000; stroke-width: 0.6"/>
      </g>
     </g>
    </g>
    <g id="xtick_21">
     <g id="line2d_28">
      <g>
       <use xlink:href="#m28ee9d8950" x="201.844235" y="416.181875" style="stroke: #000000; stroke-width: 0.6"/>
      </g>
     </g>
    </g>
    <g id="xtick_22">
     <g id="line2d_29">
      <g>
       <use xlink:href="#m28ee9d8950" x="206.933939" y="416.181875" style="stroke: #000000; stroke-width: 0.6"/>
      </g>
     </g>
    </g>
    <g id="xtick_23">
     <g id="line2d_30">
      <g>
       <use xlink:href="#m28ee9d8950" x="211.423377" y="416.181875" style="stroke: #000000; stroke-width: 0.6"/>
      </g>
     </g>
    </g>
    <g id="xtick_24">
     <g id="line2d_31">
      <g>
       <use xlink:href="#m28ee9d8950" x="241.859429" y="416.181875" style="stroke: #000000; stroke-width: 0.6"/>
      </g>
     </g>
    </g>
    <g id="xtick_25">
     <g id="line2d_32">
      <g>
       <use xlink:href="#m28ee9d8950" x="257.314204" y="416.181875" style="stroke: #000000; stroke-width: 0.6"/>
      </g>
     </g>
    </g>
    <g id="xtick_26">
     <g id="line2d_33">
      <g>
       <use xlink:href="#m28ee9d8950" x="268.279541" y="416.181875" style="stroke: #000000; stroke-width: 0.6"/>
      </g>
     </g>
    </g>
    <g id="xtick_27">
     <g id="line2d_34">
      <g>
       <use xlink:href="#m28ee9d8950" x="276.784918" y="416.181875" style="stroke: #000000; stroke-width: 0.6"/>
      </g>
     </g>
    </g>
    <g id="xtick_28">
     <g id="line2d_35">
      <g>
       <use xlink:href="#m28ee9d8950" x="283.734316" y="416.181875" style="stroke: #000000; stroke-width: 0.6"/>
      </g>
     </g>
    </g>
    <g id="xtick_29">
     <g id="line2d_36">
      <g>
       <use xlink:href="#m28ee9d8950" x="289.609949" y="416.181875" style="stroke: #000000; stroke-width: 0.6"/>
      </g>
     </g>
    </g>
    <g id="xtick_30">
     <g id="line2d_37">
      <g>
       <use xlink:href="#m28ee9d8950" x="294.699654" y="416.181875" style="stroke: #000000; stroke-width: 0.6"/>
      </g>
     </g>
    </g>
    <g id="xtick_31">
     <g id="line2d_38">
      <g>
       <use xlink:href="#m28ee9d8950" x="299.189091" y="416.181875" style="stroke: #000000; stroke-width: 0.6"/>
      </g>
     </g>
    </g>
    <g id="xtick_32">
     <g id="line2d_39">
      <g>
       <use xlink:href="#m28ee9d8950" x="329.625143" y="416.181875" style="stroke: #000000; stroke-width: 0.6"/>
      </g>
     </g>
    </g>
    <g id="xtick_33">
     <g id="line2d_40">
      <g>
       <use xlink:href="#m28ee9d8950" x="345.079918" y="416.181875" style="stroke: #000000; stroke-width: 0.6"/>
      </g>
     </g>
    </g>
    <g id="xtick_34">
     <g id="line2d_41">
      <g>
       <use xlink:href="#m28ee9d8950" x="356.045255" y="416.181875" style="stroke: #000000; stroke-width: 0.6"/>
      </g>
     </g>
    </g>
    <g id="xtick_35">
     <g id="line2d_42">
      <g>
       <use xlink:href="#m28ee9d8950" x="364.550632" y="416.181875" style="stroke: #000000; stroke-width: 0.6"/>
      </g>
     </g>
    </g>
    <g id="xtick_36">
     <g id="line2d_43">
      <g>
       <use xlink:href="#m28ee9d8950" x="371.500031" y="416.181875" style="stroke: #000000; stroke-width: 0.6"/>
      </g>
     </g>
    </g>
    <g id="xtick_37">
     <g id="line2d_44">
      <g>
       <use xlink:href="#m28ee9d8950" x="377.375663" y="416.181875" style="stroke: #000000; stroke-width: 0.6"/>
      </g>
     </g>
    </g>
    <g id="xtick_38">
     <g id="line2d_45">
      <g>
       <use xlink:href="#m28ee9d8950" x="382.465368" y="416.181875" style="stroke: #000000; stroke-width: 0.6"/>
      </g>
     </g>
    </g>
    <g id="xtick_39">
     <g id="line2d_46">
      <g>
       <use xlink:href="#m28ee9d8950" x="386.954806" y="416.181875" style="stroke: #000000; stroke-width: 0.6"/>
      </g>
     </g>
    </g>
    <g id="xtick_40">
     <g id="line2d_47">
      <g>
       <use xlink:href="#m28ee9d8950" x="417.390857" y="416.181875" style="stroke: #000000; stroke-width: 0.6"/>
      </g>
     </g>
    </g>
    <g id="xtick_41">
     <g id="line2d_48">
      <g>
       <use xlink:href="#m28ee9d8950" x="432.845632" y="416.181875" style="stroke: #000000; stroke-width: 0.6"/>
      </g>
     </g>
    </g>
    <g id="xtick_42">
     <g id="line2d_49">
      <g>
       <use xlink:href="#m28ee9d8950" x="443.81097" y="416.181875" style="stroke: #000000; stroke-width: 0.6"/>
      </g>
     </g>
    </g>
    <g id="xtick_43">
     <g id="line2d_50">
      <g>
       <use xlink:href="#m28ee9d8950" x="452.316346" y="416.181875" style="stroke: #000000; stroke-width: 0.6"/>
      </g>
     </g>
    </g>
    <g id="xtick_44">
     <g id="line2d_51">
      <g>
       <use xlink:href="#m28ee9d8950" x="459.265745" y="416.181875" style="stroke: #000000; stroke-width: 0.6"/>
      </g>
     </g>
    </g>
    <g id="xtick_45">
     <g id="line2d_52">
      <g>
       <use xlink:href="#m28ee9d8950" x="465.141378" y="416.181875" style="stroke: #000000; stroke-width: 0.6"/>
      </g>
     </g>
    </g>
    <g id="xtick_46">
     <g id="line2d_53">
      <g>
       <use xlink:href="#m28ee9d8950" x="470.231082" y="416.181875" style="stroke: #000000; stroke-width: 0.6"/>
      </g>
     </g>
    </g>
    <g id="xtick_47">
     <g id="line2d_54">
      <g>
       <use xlink:href="#m28ee9d8950" x="474.72052" y="416.181875" style="stroke: #000000; stroke-width: 0.6"/>
      </g>
     </g>
    </g>
    <g id="xtick_48">
     <g id="line2d_55">
      <g>
       <use xlink:href="#m28ee9d8950" x="505.156571" y="416.181875" style="stroke: #000000; stroke-width: 0.6"/>
      </g>
     </g>
    </g>
    <g id="xtick_49">
     <g id="line2d_56">
      <g>
       <use xlink:href="#m28ee9d8950" x="520.611347" y="416.181875" style="stroke: #000000; stroke-width: 0.6"/>
      </g>
     </g>
    </g>
    <g id="xtick_50">
     <g id="line2d_57">
      <g>
       <use xlink:href="#m28ee9d8950" x="531.576684" y="416.181875" style="stroke: #000000; stroke-width: 0.6"/>
      </g>
     </g>
    </g>
    <g id="xtick_51">
     <g id="line2d_58">
      <g>
       <use xlink:href="#m28ee9d8950" x="540.082061" y="416.181875" style="stroke: #000000; stroke-width: 0.6"/>
      </g>
     </g>
    </g>
    <g id="xtick_52">
     <g id="line2d_59">
      <g>
       <use xlink:href="#m28ee9d8950" x="547.031459" y="416.181875" style="stroke: #000000; stroke-width: 0.6"/>
      </g>
     </g>
    </g>
    <g id="xtick_53">
     <g id="line2d_60">
      <g>
       <use xlink:href="#m28ee9d8950" x="552.907092" y="416.181875" style="stroke: #000000; stroke-width: 0.6"/>
      </g>
     </g>
    </g>
    <g id="xtick_54">
     <g id="line2d_61">
      <g>
       <use xlink:href="#m28ee9d8950" x="557.996797" y="416.181875" style="stroke: #000000; stroke-width: 0.6"/>
      </g>
     </g>
    </g>
    <g id="xtick_55">
     <g id="line2d_62">
      <g>
       <use xlink:href="#m28ee9d8950" x="562.486234" y="416.181875" style="stroke: #000000; stroke-width: 0.6"/>
      </g>
     </g>
    </g>
    <g id="xtick_56">
     <g id="line2d_63">
      <g>
       <use xlink:href="#m28ee9d8950" x="592.922286" y="416.181875" style="stroke: #000000; stroke-width: 0.6"/>
      </g>
     </g>
    </g>
    <g id="xtick_57">
     <g id="line2d_64">
      <g>
       <use xlink:href="#m28ee9d8950" x="608.377061" y="416.181875" style="stroke: #000000; stroke-width: 0.6"/>
      </g>
     </g>
    </g>
    <g id="xtick_58">
     <g id="line2d_65">
      <g>
       <use xlink:href="#m28ee9d8950" x="619.342398" y="416.181875" style="stroke: #000000; stroke-width: 0.6"/>
      </g>
     </g>
    </g>
    <g id="xtick_59">
     <g id="line2d_66">
      <g>
       <use xlink:href="#m28ee9d8950" x="627.847775" y="416.181875" style="stroke: #000000; stroke-width: 0.6"/>
      </g>
     </g>
    </g>
    <g id="xtick_60">
     <g id="line2d_67">
      <g>
       <use xlink:href="#m28ee9d8950" x="634.797173" y="416.181875" style="stroke: #000000; stroke-width: 0.6"/>
      </g>
     </g>
    </g>
    <g id="xtick_61">
     <g id="line2d_68">
      <g>
       <use xlink:href="#m28ee9d8950" x="640.672806" y="416.181875" style="stroke: #000000; stroke-width: 0.6"/>
      </g>
     </g>
    </g>
    <g id="xtick_62">
     <g id="line2d_69">
      <g>
       <use xlink:href="#m28ee9d8950" x="645.762511" y="416.181875" style="stroke: #000000; stroke-width: 0.6"/>
      </g>
     </g>
    </g>
    <g id="xtick_63">
     <g id="line2d_70">
      <g>
       <use xlink:href="#m28ee9d8950" x="650.251949" y="416.181875" style="stroke: #000000; stroke-width: 0.6"/>
      </g>
     </g>
    </g>
    <g id="xtick_64">
     <g id="line2d_71">
      <g>
       <use xlink:href="#m28ee9d8950" x="680.688" y="416.181875" style="stroke: #000000; stroke-width: 0.6"/>
      </g>
     </g>
    </g>
   </g>
   <g id="matplotlib.axis_2">
    <g id="ytick_1">
     <g id="line2d_72">
      <defs>
       <path id="m34fe362e45" d="M 0 0 
L -3.5 0 
" style="stroke: #9da7b3; stroke-width: 0.8"/>
      </defs>
      <g>
       <use xlink:href="#m34fe362e45" x="66.328" y="60.908138" style="fill: #9da7b3; stroke: #9da7b3; stroke-width: 0.8"/>
      </g>
     </g>
     <g id="text_8">
      <!-- point -->
      <g style="fill: #e6edf3" transform="translate(29.226438 64.733919) scale(0.1 -0.1)">
       <defs>
        <path id="DejaVuSansMono-70" d="M 1172 441 
L 1172 -1331 
L 594 -1331 
L 594 3500 
L 1172 3500 
L 1172 3053 
Q 1316 3313 1555 3448 
Q 1794 3584 2106 3584 
Q 2741 3584 3102 3093 
Q 3463 2603 3463 1734 
Q 3463 881 3100 395 
Q 2738 -91 2106 -91 
Q 1788 -91 1548 45 
Q 1309 181 1172 441 
z
M 2859 1747 
Q 2859 2416 2648 2756 
Q 2438 3097 2022 3097 
Q 1603 3097 1387 2755 
Q 1172 2413 1172 1747 
Q 1172 1084 1387 740 
Q 1603 397 2022 397 
Q 2438 397 2648 737 
Q 2859 1078 2859 1747 
z
" transform="scale(0.015625)"/>
        <path id="DejaVuSansMono-6f" d="M 1925 3097 
Q 1488 3097 1263 2756 
Q 1038 2416 1038 1747 
Q 1038 1081 1263 739 
Q 1488 397 1925 397 
Q 2366 397 2591 739 
Q 2816 1081 2816 1747 
Q 2816 2416 2591 2756 
Q 2366 3097 1925 3097 
z
M 1925 3584 
Q 2653 3584 3039 3112 
Q 3425 2641 3425 1747 
Q 3425 850 3040 379 
Q 2656 -91 1925 -91 
Q 1197 -91 812 379 
Q 428 850 428 1747 
Q 428 2641 812 3112 
Q 1197 3584 1925 3584 
z
" transform="scale(0.015625)"/>
        <path id="DejaVuSansMono-69" d="M 800 3500 
L 2272 3500 
L 2272 447 
L 3413 447 
L 3413 0 
L 556 0 
L 556 447 
L 1697 447 
L 1697 3053 
L 800 3053 
L 800 3500 
z
M 1697 4863 
L 2272 4863 
L 2272 4134 
L 1697 4134 
L 1697 4863 
z
" transform="scale(0.015625)"/>
        <path id="DejaVuSansMono-6e" d="M 3284 2169 
L 3284 0 
L 2706 0 
L 2706 2169 
Q 2706 2641 2540 2862 
Q 2375 3084 2022 3084 
Q 1619 3084 1401 2798 
Q 1184 2513 1184 1978 
L 1184 0 
L 609 0 
L 609 3500 
L 1184 3500 
L 1184 2975 
Q 1338 3275 1600 3429 
Q 1863 3584 2222 3584 
Q 2756 3584 3020 3232 
Q 3284 2881 3284 2169 
z
" transform="scale(0.015625)"/>
        <path id="DejaVuSansMono-74" d="M 1919 4494 
L 1919 3500 
L 3225 3500 
L 3225 3053 
L 1919 3053 
L 1919 1153 
Q 1919 766 2066 612 
Q 2213 459 2578 459 
L 3225 459 
L 3225 0 
L 2522 0 
Q 1875 0 1609 259 
Q 1344 519 1344 1153 
L 1344 3053 
L 409 3053 
L 409 3500 
L 1344 3500 
L 1344 4494 
L 1919 4494 
z
" transform="scale(0.015625)"/>
       </defs>
       <use xlink:href="#DejaVuSansMono-70"/>
       <use xlink:href="#DejaVuSansMono-6f" x="60.205078"/>
       <use xlink:href="#DejaVuSansMono-69" x="120.410156"/>
       <use xlink:href="#DejaVuSansMono-6e" x="180.615234"/>
       <use xlink:href="#DejaVuSansMono-74" x="240.820312"/>
      </g>
     </g>
    </g>
    <g id="ytick_2">
     <g id="line2d_73">
      <g>
       <use xlink:href="#m34fe362e45" x="66.328" y="96.99119" style="fill: #9da7b3; stroke: #9da7b3; stroke-width: 0.8"/>
      </g>
     </g>
     <g id="text_9">
      <!-- string -->
      <g style="fill: #e6edf3" transform="translate(23.206125 100.790409) scale(0.1 -0.1)">
       <defs>
        <path id="DejaVuSansMono-73" d="M 3041 3378 
L 3041 2816 
Q 2794 2959 2544 3031 
Q 2294 3103 2034 3103 
Q 1644 3103 1451 2976 
Q 1259 2850 1259 2591 
Q 1259 2356 1403 2240 
Q 1547 2125 2119 2016 
L 2350 1972 
Q 2778 1891 2998 1647 
Q 3219 1403 3219 1013 
Q 3219 494 2850 201 
Q 2481 -91 1825 -91 
Q 1566 -91 1281 -36 
Q 997 19 666 128 
L 666 722 
Q 988 556 1281 473 
Q 1575 391 1838 391 
Q 2219 391 2428 545 
Q 2638 700 2638 978 
Q 2638 1378 1872 1531 
L 1847 1538 
L 1631 1581 
Q 1134 1678 906 1908 
Q 678 2138 678 2534 
Q 678 3038 1018 3311 
Q 1359 3584 1991 3584 
Q 2272 3584 2531 3532 
Q 2791 3481 3041 3378 
z
" transform="scale(0.015625)"/>
        <path id="DejaVuSansMono-72" d="M 3609 2778 
Q 3425 2922 3234 2987 
Q 3044 3053 2816 3053 
Q 2278 3053 1993 2715 
Q 1709 2378 1709 1741 
L 1709 0 
L 1131 0 
L 1131 3500 
L 1709 3500 
L 1709 2816 
Q 1853 3188 2151 3386 
Q 2450 3584 2859 3584 
Q 3072 3584 3256 3531 
Q 3441 3478 3609 3366 
L 3609 2778 
z
" transform="scale(0.015625)"/>
        <path id="DejaVuSansMono-67" d="M 2681 1778 
Q 2681 2425 2470 2761 
Q 2259 3097 1856 3097 
Q 1434 3097 1212 2761 
Q 991 2425 991 1778 
Q 991 1131 1214 792 
Q 1438 453 1863 453 
Q 2259 453 2470 793 
Q 2681 1134 2681 1778 
z
M 3256 225 
Q 3256 -563 2884 -969 
Q 2513 -1375 1791 -1375 
Q 1553 -1375 1293 -1331 
Q 1034 -1288 775 -1203 
L 775 -634 
Q 1081 -778 1331 -847 
Q 1581 -916 1791 -916 
Q 2256 -916 2468 -662 
Q 2681 -409 2681 141 
L 2681 166 
L 2681 556 
Q 2544 263 2306 119 
Q 2069 -25 1728 -25 
Q 1116 -25 750 465 
Q 384 956 384 1778 
Q 384 2603 750 3093 
Q 1116 3584 1728 3584 
Q 2066 3584 2300 3450 
Q 2534 3316 2681 3034 
L 2681 3488 
L 3256 3488 
L 3256 225 
z
" transform="scale(0.015625)"/>
       </defs>
       <use xlink:href="#DejaVuSansMono-73"/>
       <use xlink:href="#DejaVuSansMono-74" x="60.205078"/>
       <use xlink:href="#DejaVuSansMono-72" x="120.410156"/>
       <use xlink:href="#DejaVuSansMono-69" x="180.615234"/>
       <use xlink:href="#DejaVuSansMono-6e" x="240.820312"/>
       <use xlink:href="#DejaVuSansMono-67" x="301.025391"/>
      </g>
     </g>
    </g>
    <g id="ytick_3">
     <g id="line2d_74">
      <g>
       <use xlink:href="#m34fe362e45" x="66.328" y="133.074243" style="fill: #9da7b3; stroke: #9da7b3; stroke-width: 0.8"/>
      </g>
     </g>
     <g id="text_10">
      <!-- balance -->
      <g style="fill: #e6edf3" transform="translate(17.185812 136.900024) scale(0.1 -0.1)">
       <defs>
        <path id="DejaVuSansMono-62" d="M 2869 1747 
Q 2869 2416 2656 2756 
Q 2444 3097 2028 3097 
Q 1609 3097 1393 2755 
Q 1178 2413 1178 1747 
Q 1178 1084 1393 740 
Q 1609 397 2028 397 
Q 2444 397 2656 737 
Q 2869 1078 2869 1747 
z
M 1178 3053 
Q 1316 3309 1558 3446 
Q 1800 3584 2119 3584 
Q 2750 3584 3112 3098 
Q 3475 2613 3475 1759 
Q 3475 894 3111 401 
Q 2747 -91 2113 -91 
Q 1800 -91 1561 45 
Q 1322 181 1178 441 
L 1178 0 
L 603 0 
L 603 4863 
L 1178 4863 
L 1178 3053 
z
" transform="scale(0.015625)"/>
        <path id="DejaVuSansMono-61" d="M 2194 1759 
L 2003 1759 
Q 1500 1759 1245 1582 
Q 991 1406 991 1056 
Q 991 741 1181 566 
Q 1372 391 1709 391 
Q 2184 391 2456 720 
Q 2728 1050 2731 1631 
L 2731 1759 
L 2194 1759 
z
M 3309 1997 
L 3309 0 
L 2731 0 
L 2731 519 
Q 2547 206 2267 57 
Q 1988 -91 1588 -91 
Q 1053 -91 734 211 
Q 416 513 416 1019 
Q 416 1603 808 1906 
Q 1200 2209 1959 2209 
L 2731 2209 
L 2731 2300 
Q 2728 2719 2518 2908 
Q 2309 3097 1850 3097 
Q 1556 3097 1256 3012 
Q 956 2928 672 2766 
L 672 3341 
Q 991 3463 1283 3523 
Q 1575 3584 1850 3584 
Q 2284 3584 2592 3456 
Q 2900 3328 3091 3072 
Q 3209 2916 3259 2686 
Q 3309 2456 3309 1997 
z
" transform="scale(0.015625)"/>
        <path id="DejaVuSansMono-6c" d="M 1997 1269 
Q 1997 881 2139 684 
Q 2281 488 2559 488 
L 3231 488 
L 3231 0 
L 2503 0 
Q 1988 0 1705 331 
Q 1422 663 1422 1269 
L 1422 4447 
L 500 4447 
L 500 4897 
L 1997 4897 
L 1997 1269 
z
" transform="scale(0.015625)"/>
        <path id="DejaVuSansMono-63" d="M 3316 178 
Q 3084 44 2839 -23 
Q 2594 -91 2338 -91 
Q 1525 -91 1067 396 
Q 609 884 609 1747 
Q 609 2609 1067 3096 
Q 1525 3584 2338 3584 
Q 2591 3584 2831 3518 
Q 3072 3453 3316 3316 
L 3316 2713 
Q 3088 2916 2858 3006 
Q 2628 3097 2338 3097 
Q 1797 3097 1506 2747 
Q 1216 2397 1216 1747 
Q 1216 1100 1508 748 
Q 1800 397 2338 397 
Q 2638 397 2875 489 
Q 3113 581 3316 775 
L 3316 178 
z
" transform="scale(0.015625)"/>
        <path id="DejaVuSansMono-65" d="M 3475 1894 
L 3475 1613 
L 984 1613 
L 984 1594 
Q 984 1022 1282 709 
Q 1581 397 2125 397 
Q 2400 397 2700 484 
Q 3000 572 3341 750 
L 3341 178 
Q 3013 44 2708 -23 
Q 2403 -91 2119 -91 
Q 1303 -91 843 398 
Q 384 888 384 1747 
Q 384 2584 834 3084 
Q 1284 3584 2034 3584 
Q 2703 3584 3089 3131 
Q 3475 2678 3475 1894 
z
M 2900 2063 
Q 2888 2569 2661 2833 
Q 2434 3097 2009 3097 
Q 1594 3097 1325 2822 
Q 1056 2547 1006 2059 
L 2900 2063 
z
" transform="scale(0.015625)"/>
       </defs>
       <use xlink:href="#DejaVuSansMono-62"/>
       <use xlink:href="#DejaVuSansMono-61" x="60.205078"/>
       <use xlink:href="#DejaVuSansMono-6c" x="120.410156"/>
       <use xlink:href="#DejaVuSansMono-61" x="180.615234"/>
       <use xlink:href="#DejaVuSansMono-6e" x="240.820312"/>
       <use xlink:href="#DejaVuSansMono-63" x="301.025391"/>
       <use xlink:href="#DejaVuSansMono-65" x="361.230469"/>
      </g>
     </g>
    </g>
    <g id="ytick_4">
     <g id="line2d_75">
      <g>
       <use xlink:href="#m34fe362e45" x="66.328" y="169.157296" style="fill: #9da7b3; stroke: #9da7b3; stroke-width: 0.8"/>
      </g>
     </g>
     <g id="text_11">
      <!-- fk_walk -->
      <g style="fill: #e6edf3" transform="translate(17.185812 172.983077) scale(0.1 -0.1)">
       <defs>
        <path id="DejaVuSansMono-66" d="M 3322 4863 
L 3322 4384 
L 2669 4384 
Q 2359 4384 2239 4257 
Q 2119 4131 2119 3809 
L 2119 3500 
L 3322 3500 
L 3322 3053 
L 2119 3053 
L 2119 0 
L 1544 0 
L 1544 3053 
L 609 3053 
L 609 3500 
L 1544 3500 
L 1544 3744 
Q 1544 4319 1808 4591 
Q 2072 4863 2631 4863 
L 3322 4863 
z
" transform="scale(0.015625)"/>
        <path id="DejaVuSansMono-6b" d="M 738 4863 
L 1331 4863 
L 1331 2047 
L 2841 3500 
L 3541 3500 
L 2163 2181 
L 3756 0 
L 3053 0 
L 1759 1806 
L 1331 1403 
L 1331 0 
L 738 0 
L 738 4863 
z
" transform="scale(0.015625)"/>
        <path id="DejaVuSansMono-5f" d="M 3853 -1259 
L 3853 -1509 
L 0 -1509 
L 0 -1259 
L 3853 -1259 
z
" transform="scale(0.015625)"/>
        <path id="DejaVuSansMono-77" d="M 0 3500 
L 569 3500 
L 1178 672 
L 1678 2478 
L 2169 2478 
L 2675 672 
L 3284 3500 
L 3853 3500 
L 3034 0 
L 2484 0 
L 1925 1919 
L 1369 0 
L 819 0 
L 0 3500 
z
" transform="scale(0.015625)"/>
       </defs>
       <use xlink:href="#DejaVuSansMono-66"/>
       <use xlink:href="#DejaVuSansMono-6b" x="60.205078"/>
       <use xlink:href="#DejaVuSansMono-5f" x="120.410156"/>
       <use xlink:href="#DejaVuSansMono-77" x="180.615234"/>
       <use xlink:href="#DejaVuSansMono-61" x="240.820312"/>
       <use xlink:href="#DejaVuSansMono-6c" x="301.025391"/>
       <use xlink:href="#DejaVuSansMono-6b" x="361.230469"/>
      </g>
     </g>
    </g>
    <g id="ytick_5">
     <g id="line2d_76">
      <g>
       <use xlink:href="#m34fe362e45" x="66.328" y="205.240349" style="fill: #9da7b3; stroke: #9da7b3; stroke-width: 0.8"/>
      </g>
     </g>
     <g id="text_12">
      <!-- skew -->
      <g style="fill: #e6edf3" transform="translate(35.24675 209.06613) scale(0.1 -0.1)">
       <use xlink:href="#DejaVuSansMono-73"/>
       <use xlink:href="#DejaVuSansMono-6b" x="60.205078"/>
       <use xlink:href="#DejaVuSansMono-65" x="120.410156"/>
       <use xlink:href="#DejaVuSansMono-77" x="180.615234"/>
      </g>
     </g>
    </g>
    <g id="ytick_6">
     <g id="line2d_77">
      <g>
       <use xlink:href="#m34fe362e45" x="66.328" y="241.323401" style="fill: #9da7b3; stroke: #9da7b3; stroke-width: 0.8"/>
      </g>
     </g>
     <g id="text_13">
      <!-- range -->
      <g style="fill: #e6edf3" transform="translate(29.226438 245.114808) scale(0.1 -0.1)">
       <use xlink:href="#DejaVuSansMono-72"/>
       <use xlink:href="#DejaVuSansMono-61" x="60.205078"/>
       <use xlink:href="#DejaVuSansMono-6e" x="120.410156"/>
       <use xlink:href="#DejaVuSansMono-67" x="180.615234"/>
       <use xlink:href="#DejaVuSansMono-65" x="240.820312"/>
      </g>
     </g>
    </g>
    <g id="ytick_7">
     <g id="line2d_78">
      <g>
       <use xlink:href="#m34fe362e45" x="66.328" y="277.406454" style="fill: #9da7b3; stroke: #9da7b3; stroke-width: 0.8"/>
      </g>
     </g>
     <g id="text_14">
      <!-- chain -->
      <g style="fill: #e6edf3" transform="translate(29.226438 281.232235) scale(0.1 -0.1)">
       <defs>
        <path id="DejaVuSansMono-68" d="M 3284 2169 
L 3284 0 
L 2706 0 
L 2706 2169 
Q 2706 2641 2540 2862 
Q 2375 3084 2022 3084 
Q 1619 3084 1401 2798 
Q 1184 2513 1184 1978 
L 1184 0 
L 609 0 
L 609 4863 
L 1184 4863 
L 1184 2975 
Q 1338 3275 1600 3429 
Q 1863 3584 2222 3584 
Q 2756 3584 3020 3232 
Q 3284 2881 3284 2169 
z
" transform="scale(0.015625)"/>
       </defs>
       <use xlink:href="#DejaVuSansMono-63"/>
       <use xlink:href="#DejaVuSansMono-68" x="60.205078"/>
       <use xlink:href="#DejaVuSansMono-61" x="120.410156"/>
       <use xlink:href="#DejaVuSansMono-69" x="180.615234"/>
       <use xlink:href="#DejaVuSansMono-6e" x="240.820312"/>
      </g>
     </g>
    </g>
    <g id="ytick_8">
     <g id="line2d_79">
      <g>
       <use xlink:href="#m34fe362e45" x="66.328" y="313.489507" style="fill: #9da7b3; stroke: #9da7b3; stroke-width: 0.8"/>
      </g>
     </g>
     <g id="text_15">
      <!-- stats -->
      <g style="fill: #e6edf3" transform="translate(29.226438 317.315288) scale(0.1 -0.1)">
       <use xlink:href="#DejaVuSansMono-73"/>
       <use xlink:href="#DejaVuSansMono-74" x="60.205078"/>
       <use xlink:href="#DejaVuSansMono-61" x="120.410156"/>
       <use xlink:href="#DejaVuSansMono-74" x="180.615234"/>
       <use xlink:href="#DejaVuSansMono-73" x="240.820312"/>
      </g>
     </g>
    </g>
    <g id="ytick_9">
     <g id="line2d_80">
      <g>
       <use xlink:href="#m34fe362e45" x="66.328" y="349.57256" style="fill: #9da7b3; stroke: #9da7b3; stroke-width: 0.8"/>
      </g>
     </g>
     <g id="text_16">
      <!-- spread -->
      <g style="fill: #e6edf3" transform="translate(23.206125 353.398341) scale(0.1 -0.1)">
       <defs>
        <path id="DejaVuSansMono-64" d="M 2681 3053 
L 2681 4863 
L 3256 4863 
L 3256 0 
L 2681 0 
L 2681 441 
Q 2538 181 2298 45 
Q 2059 -91 1747 -91 
Q 1113 -91 748 401 
Q 384 894 384 1759 
Q 384 2613 750 3098 
Q 1116 3584 1747 3584 
Q 2063 3584 2303 3448 
Q 2544 3313 2681 3053 
z
M 991 1747 
Q 991 1078 1203 737 
Q 1416 397 1831 397 
Q 2247 397 2464 740 
Q 2681 1084 2681 1747 
Q 2681 2413 2464 2755 
Q 2247 3097 1831 3097 
Q 1416 3097 1203 2756 
Q 991 2416 991 1747 
z
" transform="scale(0.015625)"/>
       </defs>
       <use xlink:href="#DejaVuSansMono-73"/>
       <use xlink:href="#DejaVuSansMono-70" x="60.205078"/>
       <use xlink:href="#DejaVuSansMono-72" x="120.410156"/>
       <use xlink:href="#DejaVuSansMono-65" x="180.615234"/>
       <use xlink:href="#DejaVuSansMono-61" x="240.820312"/>
       <use xlink:href="#DejaVuSansMono-64" x="301.025391"/>
      </g>
     </g>
    </g>
    <g id="ytick_10">
     <g id="line2d_81">
      <g>
       <use xlink:href="#m34fe362e45" x="66.328" y="385.655612" style="fill: #9da7b3; stroke: #9da7b3; stroke-width: 0.8"/>
      </g>
     </g>
     <g id="text_17">
      <!-- triangle -->
      <g style="fill: #e6edf3" transform="translate(11.1655 389.481394) scale(0.1 -0.1)">
       <use xlink:href="#DejaVuSansMono-74"/>
       <use xlink:href="#DejaVuSansMono-72" x="60.205078"/>
       <use xlink:href="#DejaVuSansMono-69" x="120.410156"/>
       <use xlink:href="#DejaVuSansMono-61" x="180.615234"/>
       <use xlink:href="#DejaVuSansMono-6e" x="240.820312"/>
       <use xlink:href="#DejaVuSansMono-67" x="301.025391"/>
       <use xlink:href="#DejaVuSansMono-6c" x="361.230469"/>
       <use xlink:href="#DejaVuSansMono-65" x="421.435547"/>
      </g>
     </g>
    </g>
   </g>
   <g id="patch_3">
    <path d="M 66.328 416.181875 
L 66.328 30.381875 
" style="fill: none; stroke: #2d333b; stroke-width: 0.8; stroke-linejoin: miter; stroke-linecap: square"/>
   </g>
   <g id="patch_4">
    <path d="M 680.688 416.181875 
L 680.688 30.381875 
" style="fill: none; stroke: #2d333b; stroke-width: 0.8; stroke-linejoin: miter; stroke-linecap: square"/>
   </g>
   <g id="patch_5">
    <path d="M 66.328 416.181875 
L 680.688 416.181875 
" style="fill: none; stroke: #2d333b; stroke-width: 0.8; stroke-linejoin: miter; stroke-linecap: square"/>
   </g>
   <g id="patch_6">
    <path d="M 66.328 30.381875 
L 680.688 30.381875 
" style="fill: none; stroke: #2d333b; stroke-width: 0.8; stroke-linejoin: miter; stroke-linecap: square"/>
   </g>
   <g id="patch_7">
    <path d="M -87901.337827 61.629799 
L 140.307574 61.629799 
L 140.307574 73.898037 
L -87901.337827 73.898037 
z
" clip-path="url(#pec9a753add)" style="fill: #8b949e"/>
   </g>
   <g id="patch_8">
    <path d="M -87901.337827 97.712851 
L 205.723801 97.712851 
L 205.723801 109.981089 
L -87901.337827 109.981089 
z
" clip-path="url(#pec9a753add)" style="fill: #8b949e"/>
   </g>
   <g id="patch_9">
    <path d="M -87901.337827 133.795904 
L 312.215063 133.795904 
L 312.215063 146.064142 
L -87901.337827 146.064142 
z
" clip-path="url(#pec9a753add)" style="fill: #8b949e"/>
   </g>
   <g id="patch_10">
    <path d="M -87901.337827 169.878957 
L 277.415451 169.878957 
L 277.415451 182.147195 
L -87901.337827 182.147195 
z
" clip-path="url(#pec9a753add)" style="fill: #8b949e"/>
   </g>
   <g id="patch_11">
    <path d="M -87901.337827 205.96201 
L 337.444699 205.96201 
L 337.444699 218.230248 
L -87901.337827 218.230248 
z
" clip-path="url(#pec9a753add)" style="fill: #8b949e"/>
   </g>
   <g id="patch_12">
    <path d="M -87901.337827 242.045062 
L 367.093881 242.045062 
L 367.093881 254.3133 
L -87901.337827 254.3133 
z
" clip-path="url(#pec9a753add)" style="fill: #8b949e"/>
   </g>
   <g id="patch_13">
    <path d="M -87901.337827 278.128115 
L 418.154998 278.128115 
L 418.154998 290.396353 
L -87901.337827 290.396353 
z
" clip-path="url(#pec9a753add)" style="fill: #8b949e"/>
   </g>
   <g id="patch_14">
    <path d="M -87901.337827 314.211168 
L 558.698056 314.211168 
L 558.698056 326.479406 
L -87901.337827 326.479406 
z
" clip-path="url(#pec9a753add)" style="fill: #8b949e"/>
   </g>
   <g id="patch_15">
    <path d="M -87901.337827 350.294221 
L 575.266771 350.294221 
L 575.266771 362.562459 
L -87901.337827 362.562459 
z
" clip-path="url(#pec9a753add)" style="fill: #8b949e"/>
   </g>
   <g id="patch_16">
    <path d="M -87901.337827 386.377273 
L 569.341579 386.377273 
L 569.341579 398.645511 
L -87901.337827 398.645511 
z
" clip-path="url(#pec9a753add)" style="fill: #8b949e"/>
   </g>
   <g id="patch_17">
    <path d="M -87901.337827 47.918239 
L 91.291267 47.918239 
L 91.291267 60.186477 
L -87901.337827 60.186477 
z
" clip-path="url(#pec9a753add)" style="fill: #f0b429"/>
   </g>
   <g id="patch_18">
    <path d="M -87901.337827 84.001291 
L 114.511663 84.001291 
L 114.511663 96.269529 
L -87901.337827 96.269529 
z
" clip-path="url(#pec9a753add)" style="fill: #f0b429"/>
   </g>
   <g id="patch_19">
    <path d="M -87901.337827 120.084344 
L 112.23788 120.084344 
L 112.23788 132.352582 
L -87901.337827 132.352582 
z
" clip-path="url(#pec9a753add)" style="fill: #f0b429"/>
   </g>
   <g id="patch_20">
    <path d="M -87901.337827 156.167397 
L 169.011092 156.167397 
L 169.011092 168.435635 
L -87901.337827 168.435635 
z
" clip-path="url(#pec9a753add)" style="fill: #f0b429"/>
   </g>
   <g id="patch_21">
    <path d="M -87901.337827 192.25045 
L 278.432021 192.25045 
L 278.432021 204.518688 
L -87901.337827 204.518688 
z
" clip-path="url(#pec9a753add)" style="fill: #f0b429"/>
   </g>
   <g id="patch_22">
    <path d="M -87901.337827 228.333502 
L 242.954629 228.333502 
L 242.954629 240.60174 
L -87901.337827 240.60174 
z
" clip-path="url(#pec9a753add)" style="fill: #f0b429"/>
   </g>
   <g id="patch_23">
    <path d="M -87901.337827 264.416555 
L 303.552963 264.416555 
L 303.552963 276.684793 
L -87901.337827 276.684793 
z
" clip-path="url(#pec9a753add)" style="fill: #f0b429"/>
   </g>
   <g id="patch_24">
    <path d="M -87901.337827 300.499608 
L 398.029855 300.499608 
L 398.029855 312.767846 
L -87901.337827 312.767846 
z
" clip-path="url(#pec9a753add)" style="fill: #f0b429"/>
   </g>
   <g id="patch_25">
    <path d="M -87901.337827 336.582661 
L 479.751483 336.582661 
L 479.751483 348.850899 
L -87901.337827 348.850899 
z
" clip-path="url(#pec9a753add)" style="fill: #f0b429"/>
   </g>
   <g id="patch_26">
    <path d="M -87901.337827 372.665713 
L 476.562229 372.665713 
L 476.562229 384.933951 
L -87901.337827 384.933951 
z
" clip-path="url(#pec9a753add)" style="fill: #f0b429"/>
   </g>
   <g id="text_18">
    <!-- 0.4µs   3.6× -->
    <g style="fill: #f0b429" transform="translate(96.618456 56.525951) scale(0.09 -0.09)">
     <defs>
      <path id="DejaVuSansMono-Bold-30" d="M 1538 2328 
Q 1538 2494 1650 2606 
Q 1763 2719 1925 2719 
Q 2091 2719 2203 2606 
Q 2316 2494 2316 2328 
Q 2316 2166 2203 2053 
Q 2091 1941 1925 1941 
Q 1763 1941 1650 2052 
Q 1538 2163 1538 2328 
z
M 1925 3969 
Q 1606 3969 1459 3578 
Q 1313 3188 1313 2328 
Q 1313 1472 1459 1081 
Q 1606 691 1925 691 
Q 2247 691 2394 1081 
Q 2541 1472 2541 2328 
Q 2541 3188 2394 3578 
Q 2247 3969 1925 3969 
z
M 384 2328 
Q 384 3541 768 4145 
Q 1153 4750 1925 4750 
Q 2700 4750 3084 4147 
Q 3469 3544 3469 2328 
Q 3469 1116 3084 512 
Q 2700 -91 1925 -91 
Q 1153 -91 768 514 
Q 384 1119 384 2328 
z
" transform="scale(0.015625)"/>
      <path id="DejaVuSansMono-Bold-2e" d="M 1403 1147 
L 2444 1147 
L 2444 0 
L 1403 0 
L 1403 1147 
z
" transform="scale(0.015625)"/>
      <path id="DejaVuSansMono-Bold-34" d="M 2169 3641 
L 991 1797 
L 2169 1797 
L 2169 3641 
z
M 2088 4666 
L 3053 4666 
L 3053 1797 
L 3566 1797 
L 3566 1006 
L 3053 1006 
L 3053 0 
L 2169 0 
L 2169 1006 
L 319 1006 
L 319 1900 
L 2088 4666 
z
" transform="scale(0.015625)"/>
      <path id="DejaVuSansMono-Bold-b5" d="M 544 -1338 
L 544 3500 
L 1441 3500 
L 1441 1375 
Q 1441 1019 1569 839 
Q 1697 659 1953 659 
Q 2206 659 2331 837 
Q 2456 1016 2456 1375 
L 2456 3500 
L 3359 3500 
L 3359 1075 
Q 3359 853 3401 756 
Q 3444 659 3541 659 
Q 3584 659 3625 676 
Q 3666 694 3713 728 
L 3713 50 
Q 3578 -22 3462 -56 
Q 3347 -91 3238 -91 
Q 3013 -91 2870 26 
Q 2728 144 2644 403 
Q 2528 159 2356 34 
Q 2184 -91 1966 -91 
Q 1781 -91 1651 -17 
Q 1522 56 1441 206 
L 1447 -1338 
L 544 -1338 
z
" transform="scale(0.015625)"/>
      <path id="DejaVuSansMono-Bold-73" d="M 3097 3391 
L 3097 2591 
Q 2844 2753 2570 2836 
Q 2297 2919 2022 2919 
Q 1716 2919 1559 2830 
Q 1403 2741 1403 2566 
Q 1403 2316 2072 2159 
L 2106 2150 
L 2369 2088 
Q 2869 1969 3101 1705 
Q 3334 1441 3334 991 
Q 3334 450 2979 179 
Q 2625 -91 1913 -91 
Q 1597 -91 1265 -36 
Q 934 19 594 128 
L 594 928 
Q 897 756 1211 665 
Q 1525 575 1819 575 
Q 2141 575 2306 669 
Q 2472 763 2472 941 
Q 2472 1116 2355 1209 
Q 2238 1303 1797 1409 
L 1544 1466 
Q 1019 1584 778 1837 
Q 538 2091 538 2516 
Q 538 3022 903 3303 
Q 1269 3584 1931 3584 
Q 2228 3584 2523 3536 
Q 2819 3488 3097 3391 
z
" transform="scale(0.015625)"/>
      <path id="DejaVuSansMono-Bold-20" transform="scale(0.015625)"/>
      <path id="DejaVuSansMono-Bold-33" d="M 1716 2088 
L 1222 2088 
L 1222 2900 
L 1716 2900 
Q 2059 2900 2248 3036 
Q 2438 3172 2438 3419 
Q 2438 3678 2248 3823 
Q 2059 3969 1716 3969 
Q 1453 3969 1153 3903 
Q 853 3838 531 3713 
L 531 4550 
Q 853 4647 1165 4698 
Q 1478 4750 1766 4750 
Q 2503 4750 2915 4428 
Q 3328 4106 3328 3541 
Q 3328 3125 3090 2861 
Q 2853 2597 2413 2516 
Q 2913 2428 3175 2117 
Q 3438 1806 3438 1300 
Q 3438 622 3003 265 
Q 2569 -91 1741 -91 
Q 1388 -91 1045 -31 
Q 703 28 391 141 
L 391 997 
Q 684 850 1025 773 
Q 1366 697 1741 697 
Q 2116 697 2334 870 
Q 2553 1044 2553 1338 
Q 2553 1697 2334 1892 
Q 2116 2088 1716 2088 
z
" transform="scale(0.015625)"/>
      <path id="DejaVuSansMono-Bold-36" d="M 2009 2338 
Q 1709 2338 1551 2120 
Q 1394 1903 1394 1491 
Q 1394 1081 1551 864 
Q 1709 647 2009 647 
Q 2309 647 2470 864 
Q 2631 1081 2631 1491 
Q 2631 1900 2470 2119 
Q 2309 2338 2009 2338 
z
M 3219 4556 
L 3219 3719 
Q 2972 3859 2745 3929 
Q 2519 4000 2309 4000 
Q 1809 4000 1548 3664 
Q 1288 3328 1275 2672 
Q 1422 2875 1650 2976 
Q 1878 3078 2188 3078 
Q 2819 3078 3162 2679 
Q 3506 2281 3506 1550 
Q 3506 766 3120 334 
Q 2734 -97 2034 -97 
Q 1181 -97 795 475 
Q 409 1047 409 2322 
Q 409 3534 881 4139 
Q 1353 4744 2297 4744 
Q 2516 4744 2748 4697 
Q 2981 4650 3219 4556 
z
" transform="scale(0.015625)"/>
      <path id="DejaVuSansMono-Bold-d7" d="M 3475 3034 
L 2444 2009 
L 3475 978 
L 2950 459 
L 1919 1484 
L 897 459 
L 372 978 
L 1403 2009 
L 372 3034 
L 897 3559 
L 1919 2534 
L 2950 3559 
L 3475 3034 
z
" transform="scale(0.015625)"/>
     </defs>
     <use xlink:href="#DejaVuSansMono-Bold-30"/>
     <use xlink:href="#DejaVuSansMono-Bold-2e" x="60.205078"/>
     <use xlink:href="#DejaVuSansMono-Bold-34" x="120.410156"/>
     <use xlink:href="#DejaVuSansMono-Bold-b5" x="180.615234"/>
     <use xlink:href="#DejaVuSansMono-Bold-73" x="240.820312"/>
     <use xlink:href="#DejaVuSansMono-Bold-20" x="301.025391"/>
     <use xlink:href="#DejaVuSansMono-Bold-20" x="361.230469"/>
     <use xlink:href="#DejaVuSansMono-Bold-20" x="421.435547"/>
     <use xlink:href="#DejaVuSansMono-Bold-33" x="481.640625"/>
     <use xlink:href="#DejaVuSansMono-Bold-2e" x="541.845703"/>
     <use xlink:href="#DejaVuSansMono-Bold-36" x="602.050781"/>
     <use xlink:href="#DejaVuSansMono-Bold-d7" x="662.255859"/>
    </g>
   </g>
   <g id="text_19">
    <!-- 1.4µs -->
    <g style="fill: #9da7b3" transform="translate(145.634764 69.983918) scale(0.08 -0.08)">
     <defs>
      <path id="DejaVuSansMono-31" d="M 844 531 
L 1825 531 
L 1825 4097 
L 769 3859 
L 769 4434 
L 1819 4666 
L 2450 4666 
L 2450 531 
L 3419 531 
L 3419 0 
L 844 0 
L 844 531 
z
" transform="scale(0.015625)"/>
      <path id="DejaVuSansMono-2e" d="M 1528 953 
L 2316 953 
L 2316 0 
L 1528 0 
L 1528 953 
z
" transform="scale(0.015625)"/>
      <path id="DejaVuSansMono-34" d="M 2297 4091 
L 825 1625 
L 2297 1625 
L 2297 4091 
z
M 2194 4666 
L 2925 4666 
L 2925 1625 
L 3547 1625 
L 3547 1113 
L 2925 1113 
L 2925 0 
L 2297 0 
L 2297 1113 
L 319 1113 
L 319 1709 
L 2194 4666 
z
" transform="scale(0.015625)"/>
      <path id="DejaVuSansMono-b5" d="M 609 -1338 
L 609 3500 
L 1184 3500 
L 1184 1325 
Q 1184 881 1371 645 
Q 1559 409 1906 409 
Q 2303 409 2504 675 
Q 2706 941 2706 1459 
L 2706 3500 
L 3284 3500 
L 3284 800 
Q 3284 616 3334 528 
Q 3384 441 3488 441 
Q 3516 441 3561 456 
Q 3606 472 3694 513 
L 3694 50 
Q 3575 -22 3469 -56 
Q 3363 -91 3256 -91 
Q 3063 -91 2945 32 
Q 2828 156 2791 403 
Q 2647 153 2439 31 
Q 2231 -91 1953 -91 
Q 1666 -91 1467 28 
Q 1269 147 1131 397 
L 1131 -1338 
L 609 -1338 
z
" transform="scale(0.015625)"/>
     </defs>
     <use xlink:href="#DejaVuSansMono-31"/>
     <use xlink:href="#DejaVuSansMono-2e" x="60.205078"/>
     <use xlink:href="#DejaVuSansMono-34" x="120.410156"/>
     <use xlink:href="#DejaVuSansMono-b5" x="180.615234"/>
     <use xlink:href="#DejaVuSansMono-73" x="240.820312"/>
    </g>
   </g>
   <g id="text_20">
    <!-- 0.7µs   11× -->
    <g style="fill: #f0b429" transform="translate(119.838853 92.609004) scale(0.09 -0.09)">
     <defs>
      <path id="DejaVuSansMono-Bold-37" d="M 422 4666 
L 3372 4666 
L 3372 4013 
L 1791 0 
L 850 0 
L 2369 3853 
L 422 3853 
L 422 4666 
z
" transform="scale(0.015625)"/>
      <path id="DejaVuSansMono-Bold-31" d="M 588 813 
L 1619 813 
L 1619 3841 
L 659 3603 
L 659 4434 
L 1625 4666 
L 2516 4666 
L 2516 813 
L 3547 813 
L 3547 0 
L 588 0 
L 588 813 
z
" transform="scale(0.015625)"/>
     </defs>
     <use xlink:href="#DejaVuSansMono-Bold-30"/>
     <use xlink:href="#DejaVuSansMono-Bold-2e" x="60.205078"/>
     <use xlink:href="#DejaVuSansMono-Bold-37" x="120.410156"/>
     <use xlink:href="#DejaVuSansMono-Bold-b5" x="180.615234"/>
     <use xlink:href="#DejaVuSansMono-Bold-73" x="240.820312"/>
     <use xlink:href="#DejaVuSansMono-Bold-20" x="301.025391"/>
     <use xlink:href="#DejaVuSansMono-Bold-20" x="361.230469"/>
     <use xlink:href="#DejaVuSansMono-Bold-20" x="421.435547"/>
     <use xlink:href="#DejaVuSansMono-Bold-31" x="481.640625"/>
     <use xlink:href="#DejaVuSansMono-Bold-31" x="541.845703"/>
     <use xlink:href="#DejaVuSansMono-Bold-d7" x="602.050781"/>
    </g>
   </g>
   <g id="text_21">
    <!-- 7.8µs -->
    <g style="fill: #9da7b3" transform="translate(211.05099 106.06697) scale(0.08 -0.08)">
     <defs>
      <path id="DejaVuSansMono-37" d="M 434 4666 
L 3372 4666 
L 3372 4397 
L 1703 0 
L 1044 0 
L 2669 4134 
L 434 4134 
L 434 4666 
z
" transform="scale(0.015625)"/>
      <path id="DejaVuSansMono-38" d="M 1925 2216 
Q 1503 2216 1273 1980 
Q 1044 1744 1044 1313 
Q 1044 881 1276 642 
Q 1509 403 1925 403 
Q 2350 403 2579 639 
Q 2809 875 2809 1313 
Q 2809 1741 2576 1978 
Q 2344 2216 1925 2216 
z
M 1375 2478 
Q 972 2581 745 2862 
Q 519 3144 519 3541 
Q 519 4097 897 4423 
Q 1275 4750 1925 4750 
Q 2578 4750 2956 4423 
Q 3334 4097 3334 3541 
Q 3334 3144 3107 2862 
Q 2881 2581 2478 2478 
Q 2947 2375 3195 2062 
Q 3444 1750 3444 1253 
Q 3444 622 3041 265 
Q 2638 -91 1925 -91 
Q 1213 -91 811 264 
Q 409 619 409 1247 
Q 409 1747 657 2061 
Q 906 2375 1375 2478 
z
M 1147 3481 
Q 1147 3106 1347 2909 
Q 1547 2713 1925 2713 
Q 2306 2713 2506 2909 
Q 2706 3106 2706 3481 
Q 2706 3863 2507 4063 
Q 2309 4263 1925 4263 
Q 1547 4263 1347 4061 
Q 1147 3859 1147 3481 
z
" transform="scale(0.015625)"/>
     </defs>
     <use xlink:href="#DejaVuSansMono-37"/>
     <use xlink:href="#DejaVuSansMono-2e" x="60.205078"/>
     <use xlink:href="#DejaVuSansMono-38" x="120.410156"/>
     <use xlink:href="#DejaVuSansMono-b5" x="180.615234"/>
     <use xlink:href="#DejaVuSansMono-73" x="240.820312"/>
    </g>
   </g>
   <g id="text_22">
    <!-- 0.7µs   190× -->
    <g style="fill: #f0b429" transform="translate(117.565069 128.692057) scale(0.09 -0.09)">
     <defs>
      <path id="DejaVuSansMono-Bold-39" d="M 634 63 
L 634 903 
Q 881 759 1107 690 
Q 1334 622 1544 622 
Q 2041 622 2302 955 
Q 2563 1288 2578 1950 
Q 2431 1747 2203 1645 
Q 1975 1544 1663 1544 
Q 1034 1544 690 1942 
Q 347 2341 347 3072 
Q 347 3853 731 4281 
Q 1116 4709 1819 4709 
Q 2672 4709 3058 4139 
Q 3444 3569 3444 2297 
Q 3444 1088 2972 483 
Q 2500 -122 1556 -122 
Q 1338 -122 1105 -75 
Q 872 -28 634 63 
z
M 1844 2316 
Q 2141 2316 2298 2533 
Q 2456 2750 2456 3163 
Q 2456 3572 2298 3789 
Q 2141 4006 1844 4006 
Q 1544 4006 1383 3789 
Q 1222 3572 1222 3163 
Q 1222 2753 1383 2534 
Q 1544 2316 1844 2316 
z
" transform="scale(0.015625)"/>
     </defs>
     <use xlink:href="#DejaVuSansMono-Bold-30"/>
     <use xlink:href="#DejaVuSansMono-Bold-2e" x="60.205078"/>
     <use xlink:href="#DejaVuSansMono-Bold-37" x="120.410156"/>
     <use xlink:href="#DejaVuSansMono-Bold-b5" x="180.615234"/>
     <use xlink:href="#DejaVuSansMono-Bold-73" x="240.820312"/>
     <use xlink:href="#DejaVuSansMono-Bold-20" x="301.025391"/>
     <use xlink:href="#DejaVuSansMono-Bold-20" x="361.230469"/>
     <use xlink:href="#DejaVuSansMono-Bold-20" x="421.435547"/>
     <use xlink:href="#DejaVuSansMono-Bold-31" x="481.640625"/>
     <use xlink:href="#DejaVuSansMono-Bold-39" x="541.845703"/>
     <use xlink:href="#DejaVuSansMono-Bold-30" x="602.050781"/>
     <use xlink:href="#DejaVuSansMono-Bold-d7" x="662.255859"/>
    </g>
   </g>
   <g id="text_23">
    <!-- 127µs -->
    <g style="fill: #9da7b3" transform="translate(317.542253 142.150023) scale(0.08 -0.08)">
     <defs>
      <path id="DejaVuSansMono-32" d="M 1166 531 
L 3309 531 
L 3309 0 
L 475 0 
L 475 531 
Q 1059 1147 1496 1619 
Q 1934 2091 2100 2284 
Q 2413 2666 2522 2902 
Q 2631 3138 2631 3384 
Q 2631 3775 2401 3997 
Q 2172 4219 1772 4219 
Q 1488 4219 1175 4116 
Q 863 4013 513 3803 
L 513 4441 
Q 834 4594 1145 4672 
Q 1456 4750 1759 4750 
Q 2444 4750 2861 4386 
Q 3278 4022 3278 3431 
Q 3278 3131 3139 2831 
Q 3000 2531 2688 2169 
Q 2513 1966 2180 1606 
Q 1847 1247 1166 531 
z
" transform="scale(0.015625)"/>
     </defs>
     <use xlink:href="#DejaVuSansMono-31"/>
     <use xlink:href="#DejaVuSansMono-32" x="60.205078"/>
     <use xlink:href="#DejaVuSansMono-37" x="120.410156"/>
     <use xlink:href="#DejaVuSansMono-b5" x="180.615234"/>
     <use xlink:href="#DejaVuSansMono-73" x="240.820312"/>
    </g>
   </g>
   <g id="text_24">
    <!-- 3.0µs   17× -->
    <g style="fill: #f0b429" transform="translate(174.338282 164.77511) scale(0.09 -0.09)">
     <use xlink:href="#DejaVuSansMono-Bold-33"/>
     <use xlink:href="#DejaVuSansMono-Bold-2e" x="60.205078"/>
     <use xlink:href="#DejaVuSansMono-Bold-30" x="120.410156"/>
     <use xlink:href="#DejaVuSansMono-Bold-b5" x="180.615234"/>
     <use xlink:href="#DejaVuSansMono-Bold-73" x="240.820312"/>
     <use xlink:href="#DejaVuSansMono-Bold-20" x="301.025391"/>
     <use xlink:href="#DejaVuSansMono-Bold-20" x="361.230469"/>
     <use xlink:href="#DejaVuSansMono-Bold-20" x="421.435547"/>
     <use xlink:href="#DejaVuSansMono-Bold-31" x="481.640625"/>
     <use xlink:href="#DejaVuSansMono-Bold-37" x="541.845703"/>
     <use xlink:href="#DejaVuSansMono-Bold-d7" x="602.050781"/>
    </g>
   </g>
   <g id="text_25">
    <!-- 51µs -->
    <g style="fill: #9da7b3" transform="translate(282.74264 178.233076) scale(0.08 -0.08)">
     <defs>
      <path id="DejaVuSansMono-35" d="M 647 4666 
L 3009 4666 
L 3009 4134 
L 1222 4134 
L 1222 2988 
Q 1356 3038 1492 3061 
Q 1628 3084 1766 3084 
Q 2491 3084 2916 2656 
Q 3341 2228 3341 1497 
Q 3341 759 2895 334 
Q 2450 -91 1678 -91 
Q 1306 -91 998 -41 
Q 691 9 447 109 
L 447 750 
Q 734 594 1025 517 
Q 1316 441 1619 441 
Q 2141 441 2423 716 
Q 2706 991 2706 1497 
Q 2706 1997 2414 2275 
Q 2122 2553 1600 2553 
Q 1347 2553 1106 2495 
Q 866 2438 647 2322 
L 647 4666 
z
" transform="scale(0.015625)"/>
     </defs>
     <use xlink:href="#DejaVuSansMono-35"/>
     <use xlink:href="#DejaVuSansMono-31" x="60.205078"/>
     <use xlink:href="#DejaVuSansMono-b5" x="120.410156"/>
     <use xlink:href="#DejaVuSansMono-73" x="180.615234"/>
    </g>
   </g>
   <g id="text_26">
    <!-- 52µs   4.7× -->
    <g style="fill: #f0b429" transform="translate(283.759211 200.858162) scale(0.09 -0.09)">
     <defs>
      <path id="DejaVuSansMono-Bold-35" d="M 603 4666 
L 3138 4666 
L 3138 3853 
L 1350 3853 
L 1350 2988 
Q 1463 3031 1591 3051 
Q 1719 3072 1863 3072 
Q 2556 3072 2987 2634 
Q 3419 2197 3419 1497 
Q 3419 763 2951 336 
Q 2484 -91 1678 -91 
Q 1378 -91 1072 -41 
Q 766 9 447 109 
L 447 941 
Q 706 813 979 748 
Q 1253 684 1528 684 
Q 2016 684 2269 892 
Q 2522 1100 2522 1497 
Q 2522 1863 2270 2083 
Q 2019 2303 1600 2303 
Q 1353 2303 1104 2242 
Q 856 2181 603 2059 
L 603 4666 
z
" transform="scale(0.015625)"/>
      <path id="DejaVuSansMono-Bold-32" d="M 1356 813 
L 3322 813 
L 3322 0 
L 359 0 
L 359 788 
L 859 1319 
Q 1750 2266 1941 2484 
Q 2175 2753 2278 2961 
Q 2381 3169 2381 3372 
Q 2381 3684 2192 3854 
Q 2003 4025 1656 4025 
Q 1409 4025 1101 3926 
Q 794 3828 459 3641 
L 459 4500 
Q 794 4622 1114 4686 
Q 1434 4750 1728 4750 
Q 2469 4750 2892 4404 
Q 3316 4059 3316 3463 
Q 3316 3188 3223 2947 
Q 3131 2706 2906 2413 
Q 2741 2200 1997 1456 
Q 1594 1053 1356 813 
z
" transform="scale(0.015625)"/>
     </defs>
     <use xlink:href="#DejaVuSansMono-Bold-35"/>
     <use xlink:href="#DejaVuSansMono-Bold-32" x="60.205078"/>
     <use xlink:href="#DejaVuSansMono-Bold-b5" x="120.410156"/>
     <use xlink:href="#DejaVuSansMono-Bold-73" x="180.615234"/>
     <use xlink:href="#DejaVuSansMono-Bold-20" x="240.820312"/>
     <use xlink:href="#DejaVuSansMono-Bold-20" x="301.025391"/>
     <use xlink:href="#DejaVuSansMono-Bold-20" x="361.230469"/>
     <use xlink:href="#DejaVuSansMono-Bold-34" x="421.435547"/>
     <use xlink:href="#DejaVuSansMono-Bold-2e" x="481.640625"/>
     <use xlink:href="#DejaVuSansMono-Bold-37" x="541.845703"/>
     <use xlink:href="#DejaVuSansMono-Bold-d7" x="602.050781"/>
    </g>
   </g>
   <g id="text_27">
    <!-- 246µs -->
    <g style="fill: #9da7b3" transform="translate(342.771888 214.316129) scale(0.08 -0.08)">
     <defs>
      <path id="DejaVuSansMono-36" d="M 3097 4563 
L 3097 3981 
Q 2900 4097 2678 4158 
Q 2456 4219 2216 4219 
Q 1616 4219 1306 3767 
Q 997 3316 997 2438 
Q 1147 2750 1412 2917 
Q 1678 3084 2022 3084 
Q 2697 3084 3067 2670 
Q 3438 2256 3438 1497 
Q 3438 741 3056 325 
Q 2675 -91 1984 -91 
Q 1172 -91 794 492 
Q 416 1075 416 2328 
Q 416 3509 870 4129 
Q 1325 4750 2188 4750 
Q 2419 4750 2650 4701 
Q 2881 4653 3097 4563 
z
M 1972 2591 
Q 1569 2591 1337 2300 
Q 1106 2009 1106 1497 
Q 1106 984 1337 693 
Q 1569 403 1972 403 
Q 2391 403 2603 679 
Q 2816 956 2816 1497 
Q 2816 2041 2603 2316 
Q 2391 2591 1972 2591 
z
" transform="scale(0.015625)"/>
     </defs>
     <use xlink:href="#DejaVuSansMono-32"/>
     <use xlink:href="#DejaVuSansMono-34" x="60.205078"/>
     <use xlink:href="#DejaVuSansMono-36" x="120.410156"/>
     <use xlink:href="#DejaVuSansMono-b5" x="180.615234"/>
     <use xlink:href="#DejaVuSansMono-73" x="240.820312"/>
    </g>
   </g>
   <g id="text_28">
    <!-- 21µs   26× -->
    <g style="fill: #f0b429" transform="translate(248.281818 236.941215) scale(0.09 -0.09)">
     <use xlink:href="#DejaVuSansMono-Bold-32"/>
     <use xlink:href="#DejaVuSansMono-Bold-31" x="60.205078"/>
     <use xlink:href="#DejaVuSansMono-Bold-b5" x="120.410156"/>
     <use xlink:href="#DejaVuSansMono-Bold-73" x="180.615234"/>
     <use xlink:href="#DejaVuSansMono-Bold-20" x="240.820312"/>
     <use xlink:href="#DejaVuSansMono-Bold-20" x="301.025391"/>
     <use xlink:href="#DejaVuSansMono-Bold-20" x="361.230469"/>
     <use xlink:href="#DejaVuSansMono-Bold-32" x="421.435547"/>
     <use xlink:href="#DejaVuSansMono-Bold-36" x="481.640625"/>
     <use xlink:href="#DejaVuSansMono-Bold-d7" x="541.845703"/>
    </g>
   </g>
   <g id="text_29">
    <!-- 534µs -->
    <g style="fill: #9da7b3" transform="translate(372.42107 250.399181) scale(0.08 -0.08)">
     <defs>
      <path id="DejaVuSansMono-33" d="M 2425 2497 
Q 2884 2375 3128 2064 
Q 3372 1753 3372 1288 
Q 3372 644 2939 276 
Q 2506 -91 1741 -91 
Q 1419 -91 1084 -31 
Q 750 28 428 141 
L 428 769 
Q 747 603 1056 522 
Q 1366 441 1672 441 
Q 2191 441 2469 675 
Q 2747 909 2747 1350 
Q 2747 1756 2469 1995 
Q 2191 2234 1716 2234 
L 1234 2234 
L 1234 2753 
L 1716 2753 
Q 2150 2753 2394 2943 
Q 2638 3134 2638 3475 
Q 2638 3834 2411 4026 
Q 2184 4219 1766 4219 
Q 1488 4219 1191 4156 
Q 894 4094 569 3969 
L 569 4550 
Q 947 4650 1242 4700 
Q 1538 4750 1766 4750 
Q 2447 4750 2855 4408 
Q 3263 4066 3263 3500 
Q 3263 3116 3048 2859 
Q 2834 2603 2425 2497 
z
" transform="scale(0.015625)"/>
     </defs>
     <use xlink:href="#DejaVuSansMono-35"/>
     <use xlink:href="#DejaVuSansMono-33" x="60.205078"/>
     <use xlink:href="#DejaVuSansMono-34" x="120.410156"/>
     <use xlink:href="#DejaVuSansMono-b5" x="180.615234"/>
     <use xlink:href="#DejaVuSansMono-73" x="240.820312"/>
    </g>
   </g>
   <g id="text_30">
    <!-- 101µs   20× -->
    <g style="fill: #f0b429" transform="translate(308.880152 273.024268) scale(0.09 -0.09)">
     <use xlink:href="#DejaVuSansMono-Bold-31"/>
     <use xlink:href="#DejaVuSansMono-Bold-30" x="60.205078"/>
     <use xlink:href="#DejaVuSansMono-Bold-31" x="120.410156"/>
     <use xlink:href="#DejaVuSansMono-Bold-b5" x="180.615234"/>
     <use xlink:href="#DejaVuSansMono-Bold-73" x="240.820312"/>
     <use xlink:href="#DejaVuSansMono-Bold-20" x="301.025391"/>
     <use xlink:href="#DejaVuSansMono-Bold-20" x="361.230469"/>
     <use xlink:href="#DejaVuSansMono-Bold-20" x="421.435547"/>
     <use xlink:href="#DejaVuSansMono-Bold-32" x="481.640625"/>
     <use xlink:href="#DejaVuSansMono-Bold-30" x="541.845703"/>
     <use xlink:href="#DejaVuSansMono-Bold-d7" x="602.050781"/>
    </g>
   </g>
   <g id="text_31">
    <!-- 2ms -->
    <g style="fill: #9da7b3" transform="translate(423.482188 286.490984) scale(0.08 -0.08)">
     <defs>
      <path id="DejaVuSansMono-6d" d="M 2113 3144 
Q 2219 3369 2383 3476 
Q 2547 3584 2778 3584 
Q 3200 3584 3373 3257 
Q 3547 2931 3547 2028 
L 3547 0 
L 3022 0 
L 3022 2003 
Q 3022 2744 2939 2923 
Q 2856 3103 2638 3103 
Q 2388 3103 2295 2911 
Q 2203 2719 2203 2003 
L 2203 0 
L 1678 0 
L 1678 2003 
Q 1678 2753 1589 2928 
Q 1500 3103 1269 3103 
Q 1041 3103 952 2911 
Q 863 2719 863 2003 
L 863 0 
L 341 0 
L 341 3500 
L 863 3500 
L 863 3200 
Q 966 3388 1120 3486 
Q 1275 3584 1472 3584 
Q 1709 3584 1867 3475 
Q 2025 3366 2113 3144 
z
" transform="scale(0.015625)"/>
     </defs>
     <use xlink:href="#DejaVuSansMono-32"/>
     <use xlink:href="#DejaVuSansMono-6d" x="60.205078"/>
     <use xlink:href="#DejaVuSansMono-73" x="120.410156"/>
    </g>
   </g>
   <g id="text_32">
    <!-- 1ms   68× -->
    <g style="fill: #f0b429" transform="translate(403.357044 309.117164) scale(0.09 -0.09)">
     <defs>
      <path id="DejaVuSansMono-Bold-6d" d="M 2156 3150 
Q 2259 3372 2418 3478 
Q 2578 3584 2809 3584 
Q 3263 3584 3436 3271 
Q 3609 2959 3609 1972 
L 3609 0 
L 2859 0 
L 2859 2247 
Q 2859 2638 2800 2769 
Q 2741 2900 2584 2900 
Q 2428 2900 2365 2765 
Q 2303 2631 2303 2247 
L 2303 0 
L 1563 0 
L 1563 2247 
Q 1563 2631 1500 2765 
Q 1438 2900 1281 2900 
Q 1125 2900 1065 2769 
Q 1006 2638 1006 2247 
L 1006 0 
L 256 0 
L 256 3500 
L 922 3500 
L 922 3138 
Q 1000 3344 1172 3464 
Q 1344 3584 1556 3584 
Q 1769 3584 1944 3457 
Q 2119 3331 2156 3150 
z
" transform="scale(0.015625)"/>
      <path id="DejaVuSansMono-Bold-38" d="M 1925 2081 
Q 1616 2081 1425 1886 
Q 1234 1691 1234 1369 
Q 1234 1047 1425 850 
Q 1616 653 1925 653 
Q 2234 653 2426 853 
Q 2619 1053 2619 1369 
Q 2619 1691 2428 1886 
Q 2238 2081 1925 2081 
z
M 1241 2472 
Q 888 2594 703 2855 
Q 519 3116 519 3494 
Q 519 4075 897 4412 
Q 1275 4750 1925 4750 
Q 2578 4750 2956 4412 
Q 3334 4075 3334 3494 
Q 3334 3119 3153 2858 
Q 2972 2597 2625 2472 
Q 3013 2353 3231 2047 
Q 3450 1741 3450 1313 
Q 3450 641 3053 275 
Q 2656 -91 1925 -91 
Q 1197 -91 800 275 
Q 403 641 403 1313 
Q 403 1744 625 2050 
Q 847 2356 1241 2472 
z
M 1338 3419 
Q 1338 3144 1495 2983 
Q 1653 2822 1925 2822 
Q 2200 2822 2358 2983 
Q 2516 3144 2516 3419 
Q 2516 3691 2358 3848 
Q 2200 4006 1925 4006 
Q 1656 4006 1497 3847 
Q 1338 3688 1338 3419 
z
" transform="scale(0.015625)"/>
     </defs>
     <use xlink:href="#DejaVuSansMono-Bold-31"/>
     <use xlink:href="#DejaVuSansMono-Bold-6d" x="60.205078"/>
     <use xlink:href="#DejaVuSansMono-Bold-73" x="120.410156"/>
     <use xlink:href="#DejaVuSansMono-Bold-20" x="180.615234"/>
     <use xlink:href="#DejaVuSansMono-Bold-20" x="240.820312"/>
     <use xlink:href="#DejaVuSansMono-Bold-20" x="301.025391"/>
     <use xlink:href="#DejaVuSansMono-Bold-36" x="361.230469"/>
     <use xlink:href="#DejaVuSansMono-Bold-38" x="421.435547"/>
     <use xlink:href="#DejaVuSansMono-Bold-d7" x="481.640625"/>
    </g>
   </g>
   <g id="text_33">
    <!-- 81ms -->
    <g style="fill: #9da7b3" transform="translate(564.025245 322.574037) scale(0.08 -0.08)">
     <use xlink:href="#DejaVuSansMono-38"/>
     <use xlink:href="#DejaVuSansMono-31" x="60.205078"/>
     <use xlink:href="#DejaVuSansMono-6d" x="120.410156"/>
     <use xlink:href="#DejaVuSansMono-73" x="180.615234"/>
    </g>
   </g>
   <g id="text_34">
    <!-- 10ms   12× -->
    <g style="fill: #f0b429" transform="translate(485.078672 345.200217) scale(0.09 -0.09)">
     <use xlink:href="#DejaVuSansMono-Bold-31"/>
     <use xlink:href="#DejaVuSansMono-Bold-30" x="60.205078"/>
     <use xlink:href="#DejaVuSansMono-Bold-6d" x="120.410156"/>
     <use xlink:href="#DejaVuSansMono-Bold-73" x="180.615234"/>
     <use xlink:href="#DejaVuSansMono-Bold-20" x="240.820312"/>
     <use xlink:href="#DejaVuSansMono-Bold-20" x="301.025391"/>
     <use xlink:href="#DejaVuSansMono-Bold-20" x="361.230469"/>
     <use xlink:href="#DejaVuSansMono-Bold-31" x="421.435547"/>
     <use xlink:href="#DejaVuSansMono-Bold-32" x="481.640625"/>
     <use xlink:href="#DejaVuSansMono-Bold-d7" x="541.845703"/>
    </g>
   </g>
   <g id="text_35">
    <!-- 126ms -->
    <g style="fill: #9da7b3" transform="translate(580.59396 358.65709) scale(0.08 -0.08)">
     <use xlink:href="#DejaVuSansMono-31"/>
     <use xlink:href="#DejaVuSansMono-32" x="60.205078"/>
     <use xlink:href="#DejaVuSansMono-36" x="120.410156"/>
     <use xlink:href="#DejaVuSansMono-6d" x="180.615234"/>
     <use xlink:href="#DejaVuSansMono-73" x="240.820312"/>
    </g>
   </g>
   <g id="text_36">
    <!-- 9ms   11× -->
    <g style="fill: #f0b429" transform="translate(481.889418 381.28327) scale(0.09 -0.09)">
     <use xlink:href="#DejaVuSansMono-Bold-39"/>
     <use xlink:href="#DejaVuSansMono-Bold-6d" x="60.205078"/>
     <use xlink:href="#DejaVuSansMono-Bold-73" x="120.410156"/>
     <use xlink:href="#DejaVuSansMono-Bold-20" x="180.615234"/>
     <use xlink:href="#DejaVuSansMono-Bold-20" x="240.820312"/>
     <use xlink:href="#DejaVuSansMono-Bold-20" x="301.025391"/>
     <use xlink:href="#DejaVuSansMono-Bold-31" x="361.230469"/>
     <use xlink:href="#DejaVuSansMono-Bold-31" x="421.435547"/>
     <use xlink:href="#DejaVuSansMono-Bold-d7" x="481.640625"/>
    </g>
   </g>
   <g id="text_37">
    <!-- 108ms -->
    <g style="fill: #9da7b3" transform="translate(574.668769 394.740142) scale(0.08 -0.08)">
     <defs>
      <path id="DejaVuSansMono-30" d="M 1509 2344 
Q 1509 2516 1629 2641 
Q 1750 2766 1919 2766 
Q 2094 2766 2219 2641 
Q 2344 2516 2344 2344 
Q 2344 2169 2220 2047 
Q 2097 1925 1919 1925 
Q 1744 1925 1626 2044 
Q 1509 2163 1509 2344 
z
M 1925 4250 
Q 1484 4250 1267 3775 
Q 1050 3300 1050 2328 
Q 1050 1359 1267 884 
Q 1484 409 1925 409 
Q 2369 409 2586 884 
Q 2803 1359 2803 2328 
Q 2803 3300 2586 3775 
Q 2369 4250 1925 4250 
z
M 1925 4750 
Q 2672 4750 3055 4137 
Q 3438 3525 3438 2328 
Q 3438 1134 3055 521 
Q 2672 -91 1925 -91 
Q 1178 -91 797 521 
Q 416 1134 416 2328 
Q 416 3525 797 4137 
Q 1178 4750 1925 4750 
z
" transform="scale(0.015625)"/>
     </defs>
     <use xlink:href="#DejaVuSansMono-31"/>
     <use xlink:href="#DejaVuSansMono-30" x="60.205078"/>
     <use xlink:href="#DejaVuSansMono-38" x="120.410156"/>
     <use xlink:href="#DejaVuSansMono-6d" x="180.615234"/>
     <use xlink:href="#DejaVuSansMono-73" x="240.820312"/>
    </g>
   </g>
   <g id="text_38">
    <!-- read families · p50, min-of-3 · same corpus, oracle-verified identical results -->
    <g transform="translate(66.328 16.381875) scale(0.12 -0.12)">
     <defs>
      <path id="DejaVuSansMono-20" transform="scale(0.015625)"/>
      <path id="DejaVuSansMono-b7" d="M 1528 2700 
L 2316 2700 
L 2316 1747 
L 1528 1747 
L 1528 2700 
z
" transform="scale(0.015625)"/>
      <path id="DejaVuSansMono-2c" d="M 1569 947 
L 2356 947 
L 2356 300 
L 1741 -897 
L 1259 -897 
L 1569 300 
L 1569 947 
z
" transform="scale(0.015625)"/>
      <path id="DejaVuSansMono-2d" d="M 1113 2009 
L 2741 2009 
L 2741 1497 
L 1113 1497 
L 1113 2009 
z
" transform="scale(0.015625)"/>
      <path id="DejaVuSansMono-75" d="M 609 1325 
L 609 3494 
L 1184 3494 
L 1184 1325 
Q 1184 853 1351 631 
Q 1519 409 1869 409 
Q 2275 409 2490 695 
Q 2706 981 2706 1516 
L 2706 3494 
L 3284 3494 
L 3284 0 
L 2706 0 
L 2706 525 
Q 2553 222 2289 65 
Q 2025 -91 1672 -91 
Q 1134 -91 871 261 
Q 609 613 609 1325 
z
" transform="scale(0.015625)"/>
      <path id="DejaVuSansMono-76" d="M 313 3500 
L 909 3500 
L 1925 563 
L 2944 3500 
L 3541 3500 
L 2297 0 
L 1556 0 
L 313 3500 
z
" transform="scale(0.015625)"/>
     </defs>
     <use xlink:href="#DejaVuSansMono-72"/>
     <use xlink:href="#DejaVuSansMono-65" x="60.205078"/>
     <use xlink:href="#DejaVuSansMono-61" x="120.410156"/>
     <use xlink:href="#DejaVuSansMono-64" x="180.615234"/>
     <use xlink:href="#DejaVuSansMono-20" x="240.820312"/>
     <use xlink:href="#DejaVuSansMono-66" x="301.025391"/>
     <use xlink:href="#DejaVuSansMono-61" x="361.230469"/>
     <use xlink:href="#DejaVuSansMono-6d" x="421.435547"/>
     <use xlink:href="#DejaVuSansMono-69" x="481.640625"/>
     <use xlink:href="#DejaVuSansMono-6c" x="541.845703"/>
     <use xlink:href="#DejaVuSansMono-69" x="602.050781"/>
     <use xlink:href="#DejaVuSansMono-65" x="662.255859"/>
     <use xlink:href="#DejaVuSansMono-73" x="722.460938"/>
     <use xlink:href="#DejaVuSansMono-20" x="782.666016"/>
     <use xlink:href="#DejaVuSansMono-b7" x="842.871094"/>
     <use xlink:href="#DejaVuSansMono-20" x="903.076172"/>
     <use xlink:href="#DejaVuSansMono-70" x="963.28125"/>
     <use xlink:href="#DejaVuSansMono-35" x="1023.486328"/>
     <use xlink:href="#DejaVuSansMono-30" x="1083.691406"/>
     <use xlink:href="#DejaVuSansMono-2c" x="1143.896484"/>
     <use xlink:href="#DejaVuSansMono-20" x="1204.101562"/>
     <use xlink:href="#DejaVuSansMono-6d" x="1264.306641"/>
     <use xlink:href="#DejaVuSansMono-69" x="1324.511719"/>
     <use xlink:href="#DejaVuSansMono-6e" x="1384.716797"/>
     <use xlink:href="#DejaVuSansMono-2d" x="1444.921875"/>
     <use xlink:href="#DejaVuSansMono-6f" x="1505.126953"/>
     <use xlink:href="#DejaVuSansMono-66" x="1565.332031"/>
     <use xlink:href="#DejaVuSansMono-2d" x="1625.537109"/>
     <use xlink:href="#DejaVuSansMono-33" x="1685.742188"/>
     <use xlink:href="#DejaVuSansMono-20" x="1745.947266"/>
     <use xlink:href="#DejaVuSansMono-b7" x="1806.152344"/>
     <use xlink:href="#DejaVuSansMono-20" x="1866.357422"/>
     <use xlink:href="#DejaVuSansMono-73" x="1926.5625"/>
     <use xlink:href="#DejaVuSansMono-61" x="1986.767578"/>
     <use xlink:href="#DejaVuSansMono-6d" x="2046.972656"/>
     <use xlink:href="#DejaVuSansMono-65" x="2107.177734"/>
     <use xlink:href="#DejaVuSansMono-20" x="2167.382812"/>
     <use xlink:href="#DejaVuSansMono-63" x="2227.587891"/>
     <use xlink:href="#DejaVuSansMono-6f" x="2287.792969"/>
     <use xlink:href="#DejaVuSansMono-72" x="2347.998047"/>
     <use xlink:href="#DejaVuSansMono-70" x="2408.203125"/>
     <use xlink:href="#DejaVuSansMono-75" x="2468.408203"/>
     <use xlink:href="#DejaVuSansMono-73" x="2528.613281"/>
     <use xlink:href="#DejaVuSansMono-2c" x="2588.818359"/>
     <use xlink:href="#DejaVuSansMono-20" x="2649.023438"/>
     <use xlink:href="#DejaVuSansMono-6f" x="2709.228516"/>
     <use xlink:href="#DejaVuSansMono-72" x="2769.433594"/>
     <use xlink:href="#DejaVuSansMono-61" x="2829.638672"/>
     <use xlink:href="#DejaVuSansMono-63" x="2889.84375"/>
     <use xlink:href="#DejaVuSansMono-6c" x="2950.048828"/>
     <use xlink:href="#DejaVuSansMono-65" x="3010.253906"/>
     <use xlink:href="#DejaVuSansMono-2d" x="3070.458984"/>
     <use xlink:href="#DejaVuSansMono-76" x="3130.664062"/>
     <use xlink:href="#DejaVuSansMono-65" x="3190.869141"/>
     <use xlink:href="#DejaVuSansMono-72" x="3251.074219"/>
     <use xlink:href="#DejaVuSansMono-69" x="3311.279297"/>
     <use xlink:href="#DejaVuSansMono-66" x="3371.484375"/>
     <use xlink:href="#DejaVuSansMono-69" x="3431.689453"/>
     <use xlink:href="#DejaVuSansMono-65" x="3491.894531"/>
     <use xlink:href="#DejaVuSansMono-64" x="3552.099609"/>
     <use xlink:href="#DejaVuSansMono-20" x="3612.304688"/>
     <use xlink:href="#DejaVuSansMono-69" x="3672.509766"/>
     <use xlink:href="#DejaVuSansMono-64" x="3732.714844"/>
     <use xlink:href="#DejaVuSansMono-65" x="3792.919922"/>
     <use xlink:href="#DejaVuSansMono-6e" x="3853.125"/>
     <use xlink:href="#DejaVuSansMono-74" x="3913.330078"/>
     <use xlink:href="#DejaVuSansMono-69" x="3973.535156"/>
     <use xlink:href="#DejaVuSansMono-63" x="4033.740234"/>
     <use xlink:href="#DejaVuSansMono-61" x="4093.945312"/>
     <use xlink:href="#DejaVuSansMono-6c" x="4154.150391"/>
     <use xlink:href="#DejaVuSansMono-20" x="4214.355469"/>
     <use xlink:href="#DejaVuSansMono-72" x="4274.560547"/>
     <use xlink:href="#DejaVuSansMono-65" x="4334.765625"/>
     <use xlink:href="#DejaVuSansMono-73" x="4394.970703"/>
     <use xlink:href="#DejaVuSansMono-75" x="4455.175781"/>
     <use xlink:href="#DejaVuSansMono-6c" x="4515.380859"/>
     <use xlink:href="#DejaVuSansMono-74" x="4575.585938"/>
     <use xlink:href="#DejaVuSansMono-73" x="4635.791016"/>
    </g>
   </g>
   <g id="legend_1">
    <g id="patch_27">
     <path d="M 600.225187 411.681875 
L 674.388 411.681875 
Q 676.188 411.681875 676.188 409.881875 
L 676.188 384.36125 
Q 676.188 382.56125 674.388 382.56125 
L 600.225187 382.56125 
Q 598.425187 382.56125 598.425187 384.36125 
L 598.425187 409.881875 
Q 598.425187 411.681875 600.225187 411.681875 
z
" style="fill: #0d1117; opacity: 0.8; stroke: #2d333b; stroke-linejoin: miter"/>
    </g>
    <g id="patch_28">
     <path d="M 602.025188 392.999844 
L 620.025188 392.999844 
L 620.025188 386.699844 
L 602.025188 386.699844 
z
" style="fill: #8b949e"/>
    </g>
    <g id="text_39">
     <!-- SQLite -->
     <g style="fill: #e6edf3" transform="translate(627.225188 392.999844) scale(0.09 -0.09)">
      <defs>
       <path id="DejaVuSans-53" d="M 3425 4513 
L 3425 3897 
Q 3066 4069 2747 4153 
Q 2428 4238 2131 4238 
Q 1616 4238 1336 4038 
Q 1056 3838 1056 3469 
Q 1056 3159 1242 3001 
Q 1428 2844 1947 2747 
L 2328 2669 
Q 3034 2534 3370 2195 
Q 3706 1856 3706 1288 
Q 3706 609 3251 259 
Q 2797 -91 1919 -91 
Q 1588 -91 1214 -16 
Q 841 59 441 206 
L 441 856 
Q 825 641 1194 531 
Q 1563 422 1919 422 
Q 2459 422 2753 634 
Q 3047 847 3047 1241 
Q 3047 1584 2836 1778 
Q 2625 1972 2144 2069 
L 1759 2144 
Q 1053 2284 737 2584 
Q 422 2884 422 3419 
Q 422 4038 858 4394 
Q 1294 4750 2059 4750 
Q 2388 4750 2728 4690 
Q 3069 4631 3425 4513 
z
" transform="scale(0.015625)"/>
       <path id="DejaVuSans-51" d="M 2522 4238 
Q 1834 4238 1429 3725 
Q 1025 3213 1025 2328 
Q 1025 1447 1429 934 
Q 1834 422 2522 422 
Q 3209 422 3611 934 
Q 4013 1447 4013 2328 
Q 4013 3213 3611 3725 
Q 3209 4238 2522 4238 
z
M 3406 84 
L 4238 -825 
L 3475 -825 
L 2784 -78 
Q 2681 -84 2626 -87 
Q 2572 -91 2522 -91 
Q 1538 -91 948 567 
Q 359 1225 359 2328 
Q 359 3434 948 4092 
Q 1538 4750 2522 4750 
Q 3503 4750 4090 4092 
Q 4678 3434 4678 2328 
Q 4678 1516 4351 937 
Q 4025 359 3406 84 
z
" transform="scale(0.015625)"/>
       <path id="DejaVuSans-4c" d="M 628 4666 
L 1259 4666 
L 1259 531 
L 3531 531 
L 3531 0 
L 628 0 
L 628 4666 
z
" transform="scale(0.015625)"/>
       <path id="DejaVuSans-69" d="M 603 3500 
L 1178 3500 
L 1178 0 
L 603 0 
L 603 3500 
z
M 603 4863 
L 1178 4863 
L 1178 4134 
L 603 4134 
L 603 4863 
z
" transform="scale(0.015625)"/>
       <path id="DejaVuSans-74" d="M 1172 4494 
L 1172 3500 
L 2356 3500 
L 2356 3053 
L 1172 3053 
L 1172 1153 
Q 1172 725 1289 603 
Q 1406 481 1766 481 
L 2356 481 
L 2356 0 
L 1766 0 
Q 1100 0 847 248 
Q 594 497 594 1153 
L 594 3053 
L 172 3053 
L 172 3500 
L 594 3500 
L 594 4494 
L 1172 4494 
z
" transform="scale(0.015625)"/>
       <path id="DejaVuSans-65" d="M 3597 1894 
L 3597 1613 
L 953 1613 
Q 991 1019 1311 708 
Q 1631 397 2203 397 
Q 2534 397 2845 478 
Q 3156 559 3463 722 
L 3463 178 
Q 3153 47 2828 -22 
Q 2503 -91 2169 -91 
Q 1331 -91 842 396 
Q 353 884 353 1716 
Q 353 2575 817 3079 
Q 1281 3584 2069 3584 
Q 2775 3584 3186 3129 
Q 3597 2675 3597 1894 
z
M 3022 2063 
Q 3016 2534 2758 2815 
Q 2500 3097 2075 3097 
Q 1594 3097 1305 2825 
Q 1016 2553 972 2059 
L 3022 2063 
z
" transform="scale(0.015625)"/>
      </defs>
      <use xlink:href="#DejaVuSans-53"/>
      <use xlink:href="#DejaVuSans-51" x="63.476562"/>
      <use xlink:href="#DejaVuSans-4c" x="142.1875"/>
      <use xlink:href="#DejaVuSans-69" x="197.900391"/>
      <use xlink:href="#DejaVuSans-74" x="225.683594"/>
      <use xlink:href="#DejaVuSans-65" x="264.892578"/>
     </g>
    </g>
    <g id="patch_29">
     <path d="M 602.025188 406.210156 
L 620.025188 406.210156 
L 620.025188 399.910156 
L 602.025188 399.910156 
z
" style="fill: #f0b429"/>
    </g>
    <g id="text_40">
     <!-- bumbledb -->
     <g style="fill: #e6edf3" transform="translate(627.225188 406.210156) scale(0.09 -0.09)">
      <defs>
       <path id="DejaVuSans-62" d="M 3116 1747 
Q 3116 2381 2855 2742 
Q 2594 3103 2138 3103 
Q 1681 3103 1420 2742 
Q 1159 2381 1159 1747 
Q 1159 1113 1420 752 
Q 1681 391 2138 391 
Q 2594 391 2855 752 
Q 3116 1113 3116 1747 
z
M 1159 2969 
Q 1341 3281 1617 3432 
Q 1894 3584 2278 3584 
Q 2916 3584 3314 3078 
Q 3713 2572 3713 1747 
Q 3713 922 3314 415 
Q 2916 -91 2278 -91 
Q 1894 -91 1617 61 
Q 1341 213 1159 525 
L 1159 0 
L 581 0 
L 581 4863 
L 1159 4863 
L 1159 2969 
z
" transform="scale(0.015625)"/>
       <path id="DejaVuSans-75" d="M 544 1381 
L 544 3500 
L 1119 3500 
L 1119 1403 
Q 1119 906 1312 657 
Q 1506 409 1894 409 
Q 2359 409 2629 706 
Q 2900 1003 2900 1516 
L 2900 3500 
L 3475 3500 
L 3475 0 
L 2900 0 
L 2900 538 
Q 2691 219 2414 64 
Q 2138 -91 1772 -91 
Q 1169 -91 856 284 
Q 544 659 544 1381 
z
M 1991 3584 
L 1991 3584 
z
" transform="scale(0.015625)"/>
       <path id="DejaVuSans-6c" d="M 603 4863 
L 1178 4863 
L 1178 0 
L 603 0 
L 603 4863 
z
" transform="scale(0.015625)"/>
       <path id="DejaVuSans-64" d="M 2906 2969 
L 2906 4863 
L 3481 4863 
L 3481 0 
L 2906 0 
L 2906 525 
Q 2725 213 2448 61 
Q 2172 -91 1784 -91 
Q 1150 -91 751 415 
Q 353 922 353 1747 
Q 353 2572 751 3078 
Q 1150 3584 1784 3584 
Q 2172 3584 2448 3432 
Q 2725 3281 2906 2969 
z
M 947 1747 
Q 947 1113 1208 752 
Q 1469 391 1925 391 
Q 2381 391 2643 752 
Q 2906 1113 2906 1747 
Q 2906 2381 2643 2742 
Q 2381 3103 1925 3103 
Q 1469 3103 1208 2742 
Q 947 2381 947 1747 
z
" transform="scale(0.015625)"/>
      </defs>
      <use xlink:href="#DejaVuSans-62"/>
      <use xlink:href="#DejaVuSans-75" x="63.476562"/>
      <use xlink:href="#DejaVuSans-6d" x="126.855469"/>
      <use xlink:href="#DejaVuSans-62" x="224.267578"/>
      <use xlink:href="#DejaVuSans-6c" x="287.744141"/>
      <use xlink:href="#DejaVuSans-65" x="315.527344"/>
      <use xlink:href="#DejaVuSans-64" x="377.050781"/>
      <use xlink:href="#DejaVuSans-62" x="440.527344"/>
     </g>
    </g>
   </g>
  </g>
  <g id="text_41">
   <!-- log scale — shorter is faster · S-scale ledger corpus · Apple M2 Max -->
   <g style="fill: #9da7b3" transform="translate(7.2 440.389875) scale(0.08 -0.08)">
    <defs>
     <path id="DejaVuSansMono-2014" d="M 0 1978 
L 3853 1978 
L 3853 1538 
L 0 1538 
L 0 1978 
z
" transform="scale(0.015625)"/>
     <path id="DejaVuSansMono-53" d="M 3163 4506 
L 3163 3866 
Q 2875 4050 2586 4144 
Q 2297 4238 2003 4238 
Q 1556 4238 1297 4030 
Q 1038 3822 1038 3469 
Q 1038 3159 1208 2996 
Q 1378 2834 1844 2725 
L 2175 2650 
Q 2831 2497 3131 2169 
Q 3431 1841 3431 1275 
Q 3431 609 3018 259 
Q 2606 -91 1819 -91 
Q 1491 -91 1159 -20 
Q 828 50 494 191 
L 494 863 
Q 853 634 1173 528 
Q 1494 422 1819 422 
Q 2297 422 2562 636 
Q 2828 850 2828 1234 
Q 2828 1584 2645 1768 
Q 2463 1953 2009 2053 
L 1672 2131 
Q 1022 2278 728 2575 
Q 434 2872 434 3372 
Q 434 3997 854 4373 
Q 1275 4750 1972 4750 
Q 2241 4750 2537 4689 
Q 2834 4628 3163 4506 
z
" transform="scale(0.015625)"/>
     <path id="DejaVuSansMono-41" d="M 1925 4109 
L 1259 1722 
L 2591 1722 
L 1925 4109 
z
M 1544 4666 
L 2309 4666 
L 3738 0 
L 3084 0 
L 2741 1216 
L 1106 1216 
L 769 0 
L 116 0 
L 1544 4666 
z
" transform="scale(0.015625)"/>
     <path id="DejaVuSansMono-4d" d="M 269 4666 
L 1113 4666 
L 1919 2291 
L 2731 4666 
L 3578 4666 
L 3578 0 
L 2994 0 
L 2994 4122 
L 2163 1663 
L 1684 1663 
L 850 4122 
L 850 0 
L 269 0 
L 269 4666 
z
" transform="scale(0.015625)"/>
     <path id="DejaVuSansMono-78" d="M 3494 3500 
L 2241 1825 
L 3616 0 
L 2950 0 
L 1925 1403 
L 903 0 
L 238 0 
L 1613 1825 
L 359 3500 
L 997 3500 
L 1925 2234 
L 2847 3500 
L 3494 3500 
z
" transform="scale(0.015625)"/>
    </defs>
    <use xlink:href="#DejaVuSansMono-6c"/>
    <use xlink:href="#DejaVuSansMono-6f" x="60.205078"/>
    <use xlink:href="#DejaVuSansMono-67" x="120.410156"/>
    <use xlink:href="#DejaVuSansMono-20" x="180.615234"/>
    <use xlink:href="#DejaVuSansMono-73" x="240.820312"/>
    <use xlink:href="#DejaVuSansMono-63" x="301.025391"/>
    <use xlink:href="#DejaVuSansMono-61" x="361.230469"/>
    <use xlink:href="#DejaVuSansMono-6c" x="421.435547"/>
    <use xlink:href="#DejaVuSansMono-65" x="481.640625"/>
    <use xlink:href="#DejaVuSansMono-20" x="541.845703"/>
    <use xlink:href="#DejaVuSansMono-2014" x="602.050781"/>
    <use xlink:href="#DejaVuSansMono-20" x="662.255859"/>
    <use xlink:href="#DejaVuSansMono-73" x="722.460938"/>
    <use xlink:href="#DejaVuSansMono-68" x="782.666016"/>
    <use xlink:href="#DejaVuSansMono-6f" x="842.871094"/>
    <use xlink:href="#DejaVuSansMono-72" x="903.076172"/>
    <use xlink:href="#DejaVuSansMono-74" x="963.28125"/>
    <use xlink:href="#DejaVuSansMono-65" x="1023.486328"/>
    <use xlink:href="#DejaVuSansMono-72" x="1083.691406"/>
    <use xlink:href="#DejaVuSansMono-20" x="1143.896484"/>
    <use xlink:href="#DejaVuSansMono-69" x="1204.101562"/>
    <use xlink:href="#DejaVuSansMono-73" x="1264.306641"/>
    <use xlink:href="#DejaVuSansMono-20" x="1324.511719"/>
    <use xlink:href="#DejaVuSansMono-66" x="1384.716797"/>
    <use xlink:href="#DejaVuSansMono-61" x="1444.921875"/>
    <use xlink:href="#DejaVuSansMono-73" x="1505.126953"/>
    <use xlink:href="#DejaVuSansMono-74" x="1565.332031"/>
    <use xlink:href="#DejaVuSansMono-65" x="1625.537109"/>
    <use xlink:href="#DejaVuSansMono-72" x="1685.742188"/>
    <use xlink:href="#DejaVuSansMono-20" x="1745.947266"/>
    <use xlink:href="#DejaVuSansMono-b7" x="1806.152344"/>
    <use xlink:href="#DejaVuSansMono-20" x="1866.357422"/>
    <use xlink:href="#DejaVuSansMono-53" x="1926.5625"/>
    <use xlink:href="#DejaVuSansMono-2d" x="1986.767578"/>
    <use xlink:href="#DejaVuSansMono-73" x="2046.972656"/>
    <use xlink:href="#DejaVuSansMono-63" x="2107.177734"/>
    <use xlink:href="#DejaVuSansMono-61" x="2167.382812"/>
    <use xlink:href="#DejaVuSansMono-6c" x="2227.587891"/>
    <use xlink:href="#DejaVuSansMono-65" x="2287.792969"/>
    <use xlink:href="#DejaVuSansMono-20" x="2347.998047"/>
    <use xlink:href="#DejaVuSansMono-6c" x="2408.203125"/>
    <use xlink:href="#DejaVuSansMono-65" x="2468.408203"/>
    <use xlink:href="#DejaVuSansMono-64" x="2528.613281"/>
    <use xlink:href="#DejaVuSansMono-67" x="2588.818359"/>
    <use xlink:href="#DejaVuSansMono-65" x="2649.023438"/>
    <use xlink:href="#DejaVuSansMono-72" x="2709.228516"/>
    <use xlink:href="#DejaVuSansMono-20" x="2769.433594"/>
    <use xlink:href="#DejaVuSansMono-63" x="2829.638672"/>
    <use xlink:href="#DejaVuSansMono-6f" x="2889.84375"/>
    <use xlink:href="#DejaVuSansMono-72" x="2950.048828"/>
    <use xlink:href="#DejaVuSansMono-70" x="3010.253906"/>
    <use xlink:href="#DejaVuSansMono-75" x="3070.458984"/>
    <use xlink:href="#DejaVuSansMono-73" x="3130.664062"/>
    <use xlink:href="#DejaVuSansMono-20" x="3190.869141"/>
    <use xlink:href="#DejaVuSansMono-b7" x="3251.074219"/>
    <use xlink:href="#DejaVuSansMono-20" x="3311.279297"/>
    <use xlink:href="#DejaVuSansMono-41" x="3371.484375"/>
    <use xlink:href="#DejaVuSansMono-70" x="3431.689453"/>
    <use xlink:href="#DejaVuSansMono-70" x="3491.894531"/>
    <use xlink:href="#DejaVuSansMono-6c" x="3552.099609"/>
    <use xlink:href="#DejaVuSansMono-65" x="3612.304688"/>
    <use xlink:href="#DejaVuSansMono-20" x="3672.509766"/>
    <use xlink:href="#DejaVuSansMono-4d" x="3732.714844"/>
    <use xlink:href="#DejaVuSansMono-32" x="3792.919922"/>
    <use xlink:href="#DejaVuSansMono-20" x="3853.125"/>
    <use xlink:href="#DejaVuSansMono-4d" x="3913.330078"/>
    <use xlink:href="#DejaVuSansMono-61" x="3973.535156"/>
    <use xlink:href="#DejaVuSansMono-78" x="4033.740234"/>
   </g>
  </g>
 </g>
 <defs>
  <clipPath id="pec9a753add">
   <rect x="66.328" y="30.381875" width="614.36" height="385.8"/>
  </clipPath>
 </defs>
</svg>
