<?xml version="1.0" encoding="utf-8" standalone="no"?>
<!DOCTYPE svg PUBLIC "-//W3C//DTD SVG 1.1//EN"
  "http://www.w3.org/Graphics/SVG/1.1/DTD/svg11.dtd">
<svg xmlns:xlink="http://www.w3.org/1999/xlink" width="833.1625pt" height="349.012625pt" viewBox="0 0 833.1625 349.012625" xmlns="http://www.w3.org/2000/svg" version="1.1">
 <metadata>
  <rdf:RDF xmlns:dc="http://purl.org/dc/elements/1.1/" xmlns:cc="http://creativecommons.org/ns#" xmlns:rdf="http://www.w3.org/1999/02/22-rdf-syntax-ns#">
   <cc:Work>
    <dc:type rdf:resource="http://purl.org/dc/dcmitype/StillImage"/>
    <dc:date>2026-07-20T10:47:35.063755</dc:date>
    <dc:format>image/svg+xml</dc:format>
    <dc:creator>
     <cc:Agent>
      <dc:title>Matplotlib v3.9.4, https://matplotlib.org/</dc:title>
     </cc:Agent>
    </dc:creator>
   </cc:Work>
  </rdf:RDF>
 </metadata>
 <defs>
  <style type="text/css">*{stroke-linejoin: round; stroke-linecap: butt}</style>
 </defs>
 <g id="figure_1">
  <g id="patch_1">
   <path d="M 0 349.012625 
L 833.1625 349.012625 
L 833.1625 0 
L 0 0 
z
" style="fill: #0d1117"/>
  </g>
  <g id="axes_1">
   <g id="patch_2">
    <path d="M 37.348 302.741875 
L 680.688 302.741875 
L 680.688 30.381875 
L 37.348 30.381875 
z
" style="fill: #0d1117"/>
   </g>
   <g id="matplotlib.axis_1">
    <g id="xtick_1">
     <g id="line2d_1">
      <path d="M 51.594457 302.741875 
L 51.594457 30.381875 
" clip-path="url(#p94ea95bff4)" style="fill: none; stroke: #2d333b; stroke-width: 0.6; stroke-linecap: square"/>
     </g>
     <g id="line2d_2">
      <defs>
       <path id="md98ec95f1c" d="M 0 0 
L 0 3.5 
" style="stroke: #9da7b3; stroke-width: 0.8"/>
      </defs>
      <g>
       <use xlink:href="#md98ec95f1c" x="51.594457" y="302.741875" style="fill: #9da7b3; stroke: #9da7b3; stroke-width: 0.8"/>
      </g>
     </g>
     <g id="text_1">
      <!-- 0 -->
      <g style="fill: #9da7b3" transform="translate(48.731332 316.580469) scale(0.09 -0.09)">
       <defs>
        <path id="DejaVuSans-30" d="M 2034 4250 
Q 1547 4250 1301 3770 
Q 1056 3291 1056 2328 
Q 1056 1369 1301 889 
Q 1547 409 2034 409 
Q 2525 409 2770 889 
Q 3016 1369 3016 2328 
Q 3016 3291 2770 3770 
Q 2525 4250 2034 4250 
z
M 2034 4750 
Q 2819 4750 3233 4129 
Q 3647 3509 3647 2328 
Q 3647 1150 3233 529 
Q 2819 -91 2034 -91 
Q 1250 -91 836 529 
Q 422 1150 422 2328 
Q 422 3509 836 4129 
Q 1250 4750 2034 4750 
z
" transform="scale(0.015625)"/>
       </defs>
       <use xlink:href="#DejaVuSans-30"/>
      </g>
     </g>
    </g>
    <g id="xtick_2">
     <g id="line2d_3">
      <path d="M 141.572079 302.741875 
L 141.572079 30.381875 
" clip-path="url(#p94ea95bff4)" style="fill: none; stroke: #2d333b; stroke-width: 0.6; stroke-linecap: square"/>
     </g>
     <g id="line2d_4">
      <g>
       <use xlink:href="#md98ec95f1c" x="141.572079" y="302.741875" style="fill: #9da7b3; stroke: #9da7b3; stroke-width: 0.8"/>
      </g>
     </g>
     <g id="text_2">
      <!-- 1500 -->
      <g style="fill: #9da7b3" transform="translate(130.119579 316.580469) scale(0.09 -0.09)">
       <defs>
        <path id="DejaVuSans-31" d="M 794 531 
L 1825 531 
L 1825 4091 
L 703 3866 
L 703 4441 
L 1819 4666 
L 2450 4666 
L 2450 531 
L 3481 531 
L 3481 0 
L 794 0 
L 794 531 
z
" transform="scale(0.015625)"/>
        <path id="DejaVuSans-35" d="M 691 4666 
L 3169 4666 
L 3169 4134 
L 1269 4134 
L 1269 2991 
Q 1406 3038 1543 3061 
Q 1681 3084 1819 3084 
Q 2600 3084 3056 2656 
Q 3513 2228 3513 1497 
Q 3513 744 3044 326 
Q 2575 -91 1722 -91 
Q 1428 -91 1123 -41 
Q 819 9 494 109 
L 494 744 
Q 775 591 1075 516 
Q 1375 441 1709 441 
Q 2250 441 2565 725 
Q 2881 1009 2881 1497 
Q 2881 1984 2565 2268 
Q 2250 2553 1709 2553 
Q 1456 2553 1204 2497 
Q 953 2441 691 2322 
L 691 4666 
z
" transform="scale(0.015625)"/>
       </defs>
       <use xlink:href="#DejaVuSans-31"/>
       <use xlink:href="#DejaVuSans-35" x="63.623047"/>
       <use xlink:href="#DejaVuSans-30" x="127.246094"/>
       <use xlink:href="#DejaVuSans-30" x="190.869141"/>
      </g>
     </g>
    </g>
    <g id="xtick_3">
     <g id="line2d_5">
      <path d="M 231.549702 302.741875 
L 231.549702 30.381875 
" clip-path="url(#p94ea95bff4)" style="fill: none; stroke: #2d333b; stroke-width: 0.6; stroke-linecap: square"/>
     </g>
     <g id="line2d_6">
      <g>
       <use xlink:href="#md98ec95f1c" x="231.549702" y="302.741875" style="fill: #9da7b3; stroke: #9da7b3; stroke-width: 0.8"/>
      </g>
     </g>
     <g id="text_3">
      <!-- 3000 -->
      <g style="fill: #9da7b3" transform="translate(220.097202 316.580469) scale(0.09 -0.09)">
       <defs>
        <path id="DejaVuSans-33" d="M 2597 2516 
Q 3050 2419 3304 2112 
Q 3559 1806 3559 1356 
Q 3559 666 3084 287 
Q 2609 -91 1734 -91 
Q 1441 -91 1130 -33 
Q 819 25 488 141 
L 488 750 
Q 750 597 1062 519 
Q 1375 441 1716 441 
Q 2309 441 2620 675 
Q 2931 909 2931 1356 
Q 2931 1769 2642 2001 
Q 2353 2234 1838 2234 
L 1294 2234 
L 1294 2753 
L 1863 2753 
Q 2328 2753 2575 2939 
Q 2822 3125 2822 3475 
Q 2822 3834 2567 4026 
Q 2313 4219 1838 4219 
Q 1578 4219 1281 4162 
Q 984 4106 628 3988 
L 628 4550 
Q 988 4650 1302 4700 
Q 1616 4750 1894 4750 
Q 2613 4750 3031 4423 
Q 3450 4097 3450 3541 
Q 3450 3153 3228 2886 
Q 3006 2619 2597 2516 
z
" transform="scale(0.015625)"/>
       </defs>
       <use xlink:href="#DejaVuSans-33"/>
       <use xlink:href="#DejaVuSans-30" x="63.623047"/>
       <use xlink:href="#DejaVuSans-30" x="127.246094"/>
       <use xlink:href="#DejaVuSans-30" x="190.869141"/>
      </g>
     </g>
    </g>
    <g id="xtick_4">
     <g id="line2d_7">
      <path d="M 321.527324 302.741875 
L 321.527324 30.381875 
" clip-path="url(#p94ea95bff4)" style="fill: none; stroke: #2d333b; stroke-width: 0.6; stroke-linecap: square"/>
     </g>
     <g id="line2d_8">
      <g>
       <use xlink:href="#md98ec95f1c" x="321.527324" y="302.741875" style="fill: #9da7b3; stroke: #9da7b3; stroke-width: 0.8"/>
      </g>
     </g>
     <g id="text_4">
      <!-- 4500 -->
      <g style="fill: #9da7b3" transform="translate(310.074824 316.580469) scale(0.09 -0.09)">
       <defs>
        <path id="DejaVuSans-34" d="M 2419 4116 
L 825 1625 
L 2419 1625 
L 2419 4116 
z
M 2253 4666 
L 3047 4666 
L 3047 1625 
L 3713 1625 
L 3713 1100 
L 3047 1100 
L 3047 0 
L 2419 0 
L 2419 1100 
L 313 1100 
L 313 1709 
L 2253 4666 
z
" transform="scale(0.015625)"/>
       </defs>
       <use xlink:href="#DejaVuSans-34"/>
       <use xlink:href="#DejaVuSans-35" x="63.623047"/>
       <use xlink:href="#DejaVuSans-30" x="127.246094"/>
       <use xlink:href="#DejaVuSans-30" x="190.869141"/>
      </g>
     </g>
    </g>
    <g id="xtick_5">
     <g id="line2d_9">
      <path d="M 411.504946 302.741875 
L 411.504946 30.381875 
" clip-path="url(#p94ea95bff4)" style="fill: none; stroke: #2d333b; stroke-width: 0.6; stroke-linecap: square"/>
     </g>
     <g id="line2d_10">
      <g>
       <use xlink:href="#md98ec95f1c" x="411.504946" y="302.741875" style="fill: #9da7b3; stroke: #9da7b3; stroke-width: 0.8"/>
      </g>
     </g>
     <g id="text_5">
      <!-- 6000 -->
      <g style="fill: #9da7b3" transform="translate(400.052446 316.580469) scale(0.09 -0.09)">
       <defs>
        <path id="DejaVuSans-36" d="M 2113 2584 
Q 1688 2584 1439 2293 
Q 1191 2003 1191 1497 
Q 1191 994 1439 701 
Q 1688 409 2113 409 
Q 2538 409 2786 701 
Q 3034 994 3034 1497 
Q 3034 2003 2786 2293 
Q 2538 2584 2113 2584 
z
M 3366 4563 
L 3366 3988 
Q 3128 4100 2886 4159 
Q 2644 4219 2406 4219 
Q 1781 4219 1451 3797 
Q 1122 3375 1075 2522 
Q 1259 2794 1537 2939 
Q 1816 3084 2150 3084 
Q 2853 3084 3261 2657 
Q 3669 2231 3669 1497 
Q 3669 778 3244 343 
Q 2819 -91 2113 -91 
Q 1303 -91 875 529 
Q 447 1150 447 2328 
Q 447 3434 972 4092 
Q 1497 4750 2381 4750 
Q 2619 4750 2861 4703 
Q 3103 4656 3366 4563 
z
" transform="scale(0.015625)"/>
       </defs>
       <use xlink:href="#DejaVuSans-36"/>
       <use xlink:href="#DejaVuSans-30" x="63.623047"/>
       <use xlink:href="#DejaVuSans-30" x="127.246094"/>
       <use xlink:href="#DejaVuSans-30" x="190.869141"/>
      </g>
     </g>
    </g>
    <g id="xtick_6">
     <g id="line2d_11">
      <path d="M 501.482569 302.741875 
L 501.482569 30.381875 
" clip-path="url(#p94ea95bff4)" style="fill: none; stroke: #2d333b; stroke-width: 0.6; stroke-linecap: square"/>
     </g>
     <g id="line2d_12">
      <g>
       <use xlink:href="#md98ec95f1c" x="501.482569" y="302.741875" style="fill: #9da7b3; stroke: #9da7b3; stroke-width: 0.8"/>
      </g>
     </g>
     <g id="text_6">
      <!-- 7500 -->
      <g style="fill: #9da7b3" transform="translate(490.030069 316.580469) scale(0.09 -0.09)">
       <defs>
        <path id="DejaVuSans-37" d="M 525 4666 
L 3525 4666 
L 3525 4397 
L 1831 0 
L 1172 0 
L 2766 4134 
L 525 4134 
L 525 4666 
z
" transform="scale(0.015625)"/>
       </defs>
       <use xlink:href="#DejaVuSans-37"/>
       <use xlink:href="#DejaVuSans-35" x="63.623047"/>
       <use xlink:href="#DejaVuSans-30" x="127.246094"/>
       <use xlink:href="#DejaVuSans-30" x="190.869141"/>
      </g>
     </g>
    </g>
    <g id="xtick_7">
     <g id="line2d_13">
      <path d="M 591.460191 302.741875 
L 591.460191 30.381875 
" clip-path="url(#p94ea95bff4)" style="fill: none; stroke: #2d333b; stroke-width: 0.6; stroke-linecap: square"/>
     </g>
     <g id="line2d_14">
      <g>
       <use xlink:href="#md98ec95f1c" x="591.460191" y="302.741875" style="fill: #9da7b3; stroke: #9da7b3; stroke-width: 0.8"/>
      </g>
     </g>
     <g id="text_7">
      <!-- 9000 -->
      <g style="fill: #9da7b3" transform="translate(580.007691 316.580469) scale(0.09 -0.09)">
       <defs>
        <path id="DejaVuSans-39" d="M 703 97 
L 703 672 
Q 941 559 1184 500 
Q 1428 441 1663 441 
Q 2288 441 2617 861 
Q 2947 1281 2994 2138 
Q 2813 1869 2534 1725 
Q 2256 1581 1919 1581 
Q 1219 1581 811 2004 
Q 403 2428 403 3163 
Q 403 3881 828 4315 
Q 1253 4750 1959 4750 
Q 2769 4750 3195 4129 
Q 3622 3509 3622 2328 
Q 3622 1225 3098 567 
Q 2575 -91 1691 -91 
Q 1453 -91 1209 -44 
Q 966 3 703 97 
z
M 1959 2075 
Q 2384 2075 2632 2365 
Q 2881 2656 2881 3163 
Q 2881 3666 2632 3958 
Q 2384 4250 1959 4250 
Q 1534 4250 1286 3958 
Q 1038 3666 1038 3163 
Q 1038 2656 1286 2365 
Q 1534 2075 1959 2075 
z
" transform="scale(0.015625)"/>
       </defs>
       <use xlink:href="#DejaVuSans-39"/>
       <use xlink:href="#DejaVuSans-30" x="63.623047"/>
       <use xlink:href="#DejaVuSans-30" x="127.246094"/>
       <use xlink:href="#DejaVuSans-30" x="190.869141"/>
      </g>
     </g>
    </g>
    <g id="text_8">
     <!-- cycle -->
     <g style="fill: #9da7b3" transform="translate(345.472297 329.338594) scale(0.09 -0.09)">
      <defs>
       <path id="DejaVuSansMono-63" d="M 3316 178 
Q 3084 44 2839 -23 
Q 2594 -91 2338 -91 
Q 1525 -91 1067 396 
Q 609 884 609 1747 
Q 609 2609 1067 3096 
Q 1525 3584 2338 3584 
Q 2591 3584 2831 3518 
Q 3072 3453 3316 3316 
L 3316 2713 
Q 3088 2916 2858 3006 
Q 2628 3097 2338 3097 
Q 1797 3097 1506 2747 
Q 1216 2397 1216 1747 
Q 1216 1100 1508 748 
Q 1800 397 2338 397 
Q 2638 397 2875 489 
Q 3113 581 3316 775 
L 3316 178 
z
" transform="scale(0.015625)"/>
       <path id="DejaVuSansMono-79" d="M 2681 1125 
Q 2538 759 2316 163 
Q 2006 -663 1900 -844 
Q 1756 -1088 1540 -1209 
Q 1325 -1331 1038 -1331 
L 575 -1331 
L 575 -850 
L 916 -850 
Q 1169 -850 1312 -703 
Q 1456 -556 1678 56 
L 325 3500 
L 934 3500 
L 1972 763 
L 2994 3500 
L 3603 3500 
L 2681 1125 
z
" transform="scale(0.015625)"/>
       <path id="DejaVuSansMono-6c" d="M 1997 1269 
Q 1997 881 2139 684 
Q 2281 488 2559 488 
L 3231 488 
L 3231 0 
L 2503 0 
Q 1988 0 1705 331 
Q 1422 663 1422 1269 
L 1422 4447 
L 500 4447 
L 500 4897 
L 1997 4897 
L 1997 1269 
z
" transform="scale(0.015625)"/>
       <path id="DejaVuSansMono-65" d="M 3475 1894 
L 3475 1613 
L 984 1613 
L 984 1594 
Q 984 1022 1282 709 
Q 1581 397 2125 397 
Q 2400 397 2700 484 
Q 3000 572 3341 750 
L 3341 178 
Q 3013 44 2708 -23 
Q 2403 -91 2119 -91 
Q 1303 -91 843 398 
Q 384 888 384 1747 
Q 384 2584 834 3084 
Q 1284 3584 2034 3584 
Q 2703 3584 3089 3131 
Q 3475 2678 3475 1894 
z
M 2900 2063 
Q 2888 2569 2661 2833 
Q 2434 3097 2009 3097 
Q 1594 3097 1325 2822 
Q 1056 2547 1006 2059 
L 2900 2063 
z
" transform="scale(0.015625)"/>
      </defs>
      <use xlink:href="#DejaVuSansMono-63"/>
      <use xlink:href="#DejaVuSansMono-79" x="60.205078"/>
      <use xlink:href="#DejaVuSansMono-63" x="120.410156"/>
      <use xlink:href="#DejaVuSansMono-6c" x="180.615234"/>
      <use xlink:href="#DejaVuSansMono-65" x="240.820312"/>
     </g>
    </g>
   </g>
   <g id="matplotlib.axis_2">
    <g id="ytick_1">
     <g id="line2d_15">
      <path d="M 37.348 292.319187 
L 680.688 292.319187 
" clip-path="url(#p94ea95bff4)" style="fill: none; stroke: #2d333b; stroke-width: 0.6; stroke-linecap: square"/>
     </g>
     <g id="line2d_16">
      <defs>
       <path id="m8562caa88d" d="M 0 0 
L -3.5 0 
" style="stroke: #9da7b3; stroke-width: 0.8"/>
      </defs>
      <g>
       <use xlink:href="#m8562caa88d" x="37.348" y="292.319187" style="fill: #9da7b3; stroke: #9da7b3; stroke-width: 0.8"/>
      </g>
     </g>
     <g id="text_9">
      <!-- 18/s -->
      <g style="fill: #9da7b3" transform="translate(11.175188 295.738484) scale(0.09 -0.09)">
       <defs>
        <path id="DejaVuSans-38" d="M 2034 2216 
Q 1584 2216 1326 1975 
Q 1069 1734 1069 1313 
Q 1069 891 1326 650 
Q 1584 409 2034 409 
Q 2484 409 2743 651 
Q 3003 894 3003 1313 
Q 3003 1734 2745 1975 
Q 2488 2216 2034 2216 
z
M 1403 2484 
Q 997 2584 770 2862 
Q 544 3141 544 3541 
Q 544 4100 942 4425 
Q 1341 4750 2034 4750 
Q 2731 4750 3128 4425 
Q 3525 4100 3525 3541 
Q 3525 3141 3298 2862 
Q 3072 2584 2669 2484 
Q 3125 2378 3379 2068 
Q 3634 1759 3634 1313 
Q 3634 634 3220 271 
Q 2806 -91 2034 -91 
Q 1263 -91 848 271 
Q 434 634 434 1313 
Q 434 1759 690 2068 
Q 947 2378 1403 2484 
z
M 1172 3481 
Q 1172 3119 1398 2916 
Q 1625 2713 2034 2713 
Q 2441 2713 2670 2916 
Q 2900 3119 2900 3481 
Q 2900 3844 2670 4047 
Q 2441 4250 2034 4250 
Q 1625 4250 1398 4047 
Q 1172 3844 1172 3481 
z
" transform="scale(0.015625)"/>
        <path id="DejaVuSans-2f" d="M 1625 4666 
L 2156 4666 
L 531 -594 
L 0 -594 
L 1625 4666 
z
" transform="scale(0.015625)"/>
        <path id="DejaVuSans-73" d="M 2834 3397 
L 2834 2853 
Q 2591 2978 2328 3040 
Q 2066 3103 1784 3103 
Q 1356 3103 1142 2972 
Q 928 2841 928 2578 
Q 928 2378 1081 2264 
Q 1234 2150 1697 2047 
L 1894 2003 
Q 2506 1872 2764 1633 
Q 3022 1394 3022 966 
Q 3022 478 2636 193 
Q 2250 -91 1575 -91 
Q 1294 -91 989 -36 
Q 684 19 347 128 
L 347 722 
Q 666 556 975 473 
Q 1284 391 1588 391 
Q 1994 391 2212 530 
Q 2431 669 2431 922 
Q 2431 1156 2273 1281 
Q 2116 1406 1581 1522 
L 1381 1569 
Q 847 1681 609 1914 
Q 372 2147 372 2553 
Q 372 3047 722 3315 
Q 1072 3584 1716 3584 
Q 2034 3584 2315 3537 
Q 2597 3491 2834 3397 
z
" transform="scale(0.015625)"/>
       </defs>
       <use xlink:href="#DejaVuSans-31"/>
       <use xlink:href="#DejaVuSans-38" x="63.623047"/>
       <use xlink:href="#DejaVuSans-2f" x="127.246094"/>
       <use xlink:href="#DejaVuSans-73" x="160.9375"/>
      </g>
     </g>
    </g>
    <g id="ytick_2">
     <g id="line2d_17">
      <path d="M 37.348 243.386381 
L 680.688 243.386381 
" clip-path="url(#p94ea95bff4)" style="fill: none; stroke: #2d333b; stroke-width: 0.6; stroke-linecap: square"/>
     </g>
     <g id="line2d_18">
      <g>
       <use xlink:href="#m8562caa88d" x="37.348" y="243.386381" style="fill: #9da7b3; stroke: #9da7b3; stroke-width: 0.8"/>
      </g>
     </g>
     <g id="text_10">
      <!-- 20/s -->
      <g style="fill: #9da7b3" transform="translate(11.175188 246.805678) scale(0.09 -0.09)">
       <defs>
        <path id="DejaVuSans-32" d="M 1228 531 
L 3431 531 
L 3431 0 
L 469 0 
L 469 531 
Q 828 903 1448 1529 
Q 2069 2156 2228 2338 
Q 2531 2678 2651 2914 
Q 2772 3150 2772 3378 
Q 2772 3750 2511 3984 
Q 2250 4219 1831 4219 
Q 1534 4219 1204 4116 
Q 875 4013 500 3803 
L 500 4441 
Q 881 4594 1212 4672 
Q 1544 4750 1819 4750 
Q 2544 4750 2975 4387 
Q 3406 4025 3406 3419 
Q 3406 3131 3298 2873 
Q 3191 2616 2906 2266 
Q 2828 2175 2409 1742 
Q 1991 1309 1228 531 
z
" transform="scale(0.015625)"/>
       </defs>
       <use xlink:href="#DejaVuSans-32"/>
       <use xlink:href="#DejaVuSans-30" x="63.623047"/>
       <use xlink:href="#DejaVuSans-2f" x="127.246094"/>
       <use xlink:href="#DejaVuSans-73" x="160.9375"/>
      </g>
     </g>
    </g>
    <g id="ytick_3">
     <g id="line2d_19">
      <path d="M 37.348 194.453575 
L 680.688 194.453575 
" clip-path="url(#p94ea95bff4)" style="fill: none; stroke: #2d333b; stroke-width: 0.6; stroke-linecap: square"/>
     </g>
     <g id="line2d_20">
      <g>
       <use xlink:href="#m8562caa88d" x="37.348" y="194.453575" style="fill: #9da7b3; stroke: #9da7b3; stroke-width: 0.8"/>
      </g>
     </g>
     <g id="text_11">
      <!-- 22/s -->
      <g style="fill: #9da7b3" transform="translate(11.175188 197.872871) scale(0.09 -0.09)">
       <use xlink:href="#DejaVuSans-32"/>
       <use xlink:href="#DejaVuSans-32" x="63.623047"/>
       <use xlink:href="#DejaVuSans-2f" x="127.246094"/>
       <use xlink:href="#DejaVuSans-73" x="160.9375"/>
      </g>
     </g>
    </g>
    <g id="ytick_4">
     <g id="line2d_21">
      <path d="M 37.348 145.520768 
L 680.688 145.520768 
" clip-path="url(#p94ea95bff4)" style="fill: none; stroke: #2d333b; stroke-width: 0.6; stroke-linecap: square"/>
     </g>
     <g id="line2d_22">
      <g>
       <use xlink:href="#m8562caa88d" x="37.348" y="145.520768" style="fill: #9da7b3; stroke: #9da7b3; stroke-width: 0.8"/>
      </g>
     </g>
     <g id="text_12">
      <!-- 24/s -->
      <g style="fill: #9da7b3" transform="translate(11.175188 148.940065) scale(0.09 -0.09)">
       <use xlink:href="#DejaVuSans-32"/>
       <use xlink:href="#DejaVuSans-34" x="63.623047"/>
       <use xlink:href="#DejaVuSans-2f" x="127.246094"/>
       <use xlink:href="#DejaVuSans-73" x="160.9375"/>
      </g>
     </g>
    </g>
    <g id="ytick_5">
     <g id="line2d_23">
      <path d="M 37.348 96.587962 
L 680.688 96.587962 
" clip-path="url(#p94ea95bff4)" style="fill: none; stroke: #2d333b; stroke-width: 0.6; stroke-linecap: square"/>
     </g>
     <g id="line2d_24">
      <g>
       <use xlink:href="#m8562caa88d" x="37.348" y="96.587962" style="fill: #9da7b3; stroke: #9da7b3; stroke-width: 0.8"/>
      </g>
     </g>
     <g id="text_13">
      <!-- 26/s -->
      <g style="fill: #9da7b3" transform="translate(11.175188 100.007259) scale(0.09 -0.09)">
       <use xlink:href="#DejaVuSans-32"/>
       <use xlink:href="#DejaVuSans-36" x="63.623047"/>
       <use xlink:href="#DejaVuSans-2f" x="127.246094"/>
       <use xlink:href="#DejaVuSans-73" x="160.9375"/>
      </g>
     </g>
    </g>
    <g id="ytick_6">
     <g id="line2d_25">
      <path d="M 37.348 47.655156 
L 680.688 47.655156 
" clip-path="url(#p94ea95bff4)" style="fill: none; stroke: #2d333b; stroke-width: 0.6; stroke-linecap: square"/>
     </g>
     <g id="line2d_26">
      <g>
       <use xlink:href="#m8562caa88d" x="37.348" y="47.655156" style="fill: #9da7b3; stroke: #9da7b3; stroke-width: 0.8"/>
      </g>
     </g>
     <g id="text_14">
      <!-- 28/s -->
      <g style="fill: #9da7b3" transform="translate(11.175188 51.074453) scale(0.09 -0.09)">
       <use xlink:href="#DejaVuSans-32"/>
       <use xlink:href="#DejaVuSans-38" x="63.623047"/>
       <use xlink:href="#DejaVuSans-2f" x="127.246094"/>
       <use xlink:href="#DejaVuSans-73" x="160.9375"/>
      </g>
     </g>
    </g>
   </g>
   <g id="patch_3">
    <path d="M 37.348 302.741875 
L 37.348 30.381875 
" style="fill: none; stroke: #2d333b; stroke-width: 0.8; stroke-linejoin: miter; stroke-linecap: square"/>
   </g>
   <g id="patch_4">
    <path d="M 680.688 302.741875 
L 680.688 30.381875 
" style="fill: none; stroke: #2d333b; stroke-width: 0.8; stroke-linejoin: miter; stroke-linecap: square"/>
   </g>
   <g id="patch_5">
    <path d="M 37.348 302.741875 
L 680.688 302.741875 
" style="fill: none; stroke: #2d333b; stroke-width: 0.8; stroke-linejoin: miter; stroke-linecap: square"/>
   </g>
   <g id="patch_6">
    <path d="M 37.348 30.381875 
L 680.688 30.381875 
" style="fill: none; stroke: #2d333b; stroke-width: 0.8; stroke-linejoin: miter; stroke-linecap: square"/>
   </g>
   <g id="line2d_27">
    <path d="M 66.590727 219.409306 
L 81.586998 243.631045 
L 96.583268 241.918397 
L 111.579538 243.875709 
L 126.575809 239.227092 
L 141.572079 239.961084 
L 156.56835 246.322349 
L 171.56462 246.567013 
L 186.56089 247.790333 
L 201.557161 248.76899 
L 216.553431 248.034998 
L 231.549702 250.481638 
L 246.545972 245.099029 
L 261.542242 243.875709 
L 276.538513 248.524326 
L 291.534783 290.361875 
L 306.531054 273.724721 
L 321.527324 241.184405 
L 336.523594 247.056341 
L 351.519865 239.961084 
L 366.516135 242.407725 
L 381.512406 248.76899 
L 396.508676 243.141717 
L 411.504946 242.163061 
L 426.501217 243.386381 
L 441.497487 243.631045 
L 456.493758 238.4931 
L 471.490028 245.588357 
L 486.486298 245.833021 
L 501.482569 242.163061 
L 516.478839 244.120373 
L 531.47511 246.077685 
L 546.47138 244.609701 
L 561.46765 247.545669 
L 576.463921 241.918397 
L 591.460191 242.897053 
L 606.456462 246.322349 
L 621.452732 243.141717 
L 636.449002 245.833021 
L 651.445273 247.301005 
" clip-path="url(#p94ea95bff4)" style="fill: none; stroke: #f0b429; stroke-width: 1.8; stroke-linecap: square"/>
    <defs>
     <path id="m0a1a7c2cf1" d="M 0 1.5 
C 0.397805 1.5 0.77937 1.341951 1.06066 1.06066 
C 1.341951 0.77937 1.5 0.397805 1.5 0 
C 1.5 -0.397805 1.341951 -0.77937 1.06066 -1.06066 
C 0.77937 -1.341951 0.397805 -1.5 0 -1.5 
C -0.397805 -1.5 -0.77937 -1.341951 -1.06066 -1.06066 
C -1.341951 -0.77937 -1.5 -0.397805 -1.5 0 
C -1.5 0.397805 -1.341951 0.77937 -1.06066 1.06066 
C -0.77937 1.341951 -0.397805 1.5 0 1.5 
z
" style="stroke: #f0b429"/>
    </defs>
    <g clip-path="url(#p94ea95bff4)">
     <use xlink:href="#m0a1a7c2cf1" x="66.590727" y="219.409306" style="fill: #f0b429; stroke: #f0b429"/>
     <use xlink:href="#m0a1a7c2cf1" x="81.586998" y="243.631045" style="fill: #f0b429; stroke: #f0b429"/>
     <use xlink:href="#m0a1a7c2cf1" x="96.583268" y="241.918397" style="fill: #f0b429; stroke: #f0b429"/>
     <use xlink:href="#m0a1a7c2cf1" x="111.579538" y="243.875709" style="fill: #f0b429; stroke: #f0b429"/>
     <use xlink:href="#m0a1a7c2cf1" x="126.575809" y="239.227092" style="fill: #f0b429; stroke: #f0b429"/>
     <use xlink:href="#m0a1a7c2cf1" x="141.572079" y="239.961084" style="fill: #f0b429; stroke: #f0b429"/>
     <use xlink:href="#m0a1a7c2cf1" x="156.56835" y="246.322349" style="fill: #f0b429; stroke: #f0b429"/>
     <use xlink:href="#m0a1a7c2cf1" x="171.56462" y="246.567013" style="fill: #f0b429; stroke: #f0b429"/>
     <use xlink:href="#m0a1a7c2cf1" x="186.56089" y="247.790333" style="fill: #f0b429; stroke: #f0b429"/>
     <use xlink:href="#m0a1a7c2cf1" x="201.557161" y="248.76899" style="fill: #f0b429; stroke: #f0b429"/>
     <use xlink:href="#m0a1a7c2cf1" x="216.553431" y="248.034998" style="fill: #f0b429; stroke: #f0b429"/>
     <use xlink:href="#m0a1a7c2cf1" x="231.549702" y="250.481638" style="fill: #f0b429; stroke: #f0b429"/>
     <use xlink:href="#m0a1a7c2cf1" x="246.545972" y="245.099029" style="fill: #f0b429; stroke: #f0b429"/>
     <use xlink:href="#m0a1a7c2cf1" x="261.542242" y="243.875709" style="fill: #f0b429; stroke: #f0b429"/>
     <use xlink:href="#m0a1a7c2cf1" x="276.538513" y="248.524326" style="fill: #f0b429; stroke: #f0b429"/>
     <use xlink:href="#m0a1a7c2cf1" x="291.534783" y="290.361875" style="fill: #f0b429; stroke: #f0b429"/>
     <use xlink:href="#m0a1a7c2cf1" x="306.531054" y="273.724721" style="fill: #f0b429; stroke: #f0b429"/>
     <use xlink:href="#m0a1a7c2cf1" x="321.527324" y="241.184405" style="fill: #f0b429; stroke: #f0b429"/>
     <use xlink:href="#m0a1a7c2cf1" x="336.523594" y="247.056341" style="fill: #f0b429; stroke: #f0b429"/>
     <use xlink:href="#m0a1a7c2cf1" x="351.519865" y="239.961084" style="fill: #f0b429; stroke: #f0b429"/>
     <use xlink:href="#m0a1a7c2cf1" x="366.516135" y="242.407725" style="fill: #f0b429; stroke: #f0b429"/>
     <use xlink:href="#m0a1a7c2cf1" x="381.512406" y="248.76899" style="fill: #f0b429; stroke: #f0b429"/>
     <use xlink:href="#m0a1a7c2cf1" x="396.508676" y="243.141717" style="fill: #f0b429; stroke: #f0b429"/>
     <use xlink:href="#m0a1a7c2cf1" x="411.504946" y="242.163061" style="fill: #f0b429; stroke: #f0b429"/>
     <use xlink:href="#m0a1a7c2cf1" x="426.501217" y="243.386381" style="fill: #f0b429; stroke: #f0b429"/>
     <use xlink:href="#m0a1a7c2cf1" x="441.497487" y="243.631045" style="fill: #f0b429; stroke: #f0b429"/>
     <use xlink:href="#m0a1a7c2cf1" x="456.493758" y="238.4931" style="fill: #f0b429; stroke: #f0b429"/>
     <use xlink:href="#m0a1a7c2cf1" x="471.490028" y="245.588357" style="fill: #f0b429; stroke: #f0b429"/>
     <use xlink:href="#m0a1a7c2cf1" x="486.486298" y="245.833021" style="fill: #f0b429; stroke: #f0b429"/>
     <use xlink:href="#m0a1a7c2cf1" x="501.482569" y="242.163061" style="fill: #f0b429; stroke: #f0b429"/>
     <use xlink:href="#m0a1a7c2cf1" x="516.478839" y="244.120373" style="fill: #f0b429; stroke: #f0b429"/>
     <use xlink:href="#m0a1a7c2cf1" x="531.47511" y="246.077685" style="fill: #f0b429; stroke: #f0b429"/>
     <use xlink:href="#m0a1a7c2cf1" x="546.47138" y="244.609701" style="fill: #f0b429; stroke: #f0b429"/>
     <use xlink:href="#m0a1a7c2cf1" x="561.46765" y="247.545669" style="fill: #f0b429; stroke: #f0b429"/>
     <use xlink:href="#m0a1a7c2cf1" x="576.463921" y="241.918397" style="fill: #f0b429; stroke: #f0b429"/>
     <use xlink:href="#m0a1a7c2cf1" x="591.460191" y="242.897053" style="fill: #f0b429; stroke: #f0b429"/>
     <use xlink:href="#m0a1a7c2cf1" x="606.456462" y="246.322349" style="fill: #f0b429; stroke: #f0b429"/>
     <use xlink:href="#m0a1a7c2cf1" x="621.452732" y="243.141717" style="fill: #f0b429; stroke: #f0b429"/>
     <use xlink:href="#m0a1a7c2cf1" x="636.449002" y="245.833021" style="fill: #f0b429; stroke: #f0b429"/>
     <use xlink:href="#m0a1a7c2cf1" x="651.445273" y="247.301005" style="fill: #f0b429; stroke: #f0b429"/>
    </g>
   </g>
   <g id="line2d_28">
    <path d="M 66.590727 42.761875 
L 81.586998 55.484405 
L 96.583268 54.750413 
L 111.579538 57.931045 
L 126.575809 57.931045 
L 141.572079 54.995077 
L 156.56835 60.133021 
L 171.56462 58.909701 
L 186.56089 57.686381 
L 201.557161 58.175709 
L 216.553431 60.133021 
L 231.549702 56.952389 
L 246.545972 58.420373 
L 261.542242 60.867013 
L 276.538513 56.952389 
L 291.534783 61.111677 
L 306.531054 63.313654 
L 321.527324 64.047646 
L 336.523594 63.558318 
L 351.519865 63.558318 
L 366.516135 57.686381 
L 381.512406 67.717606 
L 396.508676 61.601005 
L 411.504946 61.111677 
L 426.501217 62.090333 
L 441.497487 61.356341 
L 456.493758 60.622349 
L 471.490028 58.909701 
L 486.486298 60.377685 
L 501.482569 58.665037 
L 516.478839 62.334998 
L 531.47511 63.06899 
L 546.47138 62.090333 
L 561.46765 60.867013 
L 576.463921 55.239741 
L 591.460191 57.931045 
L 606.456462 61.845669 
L 621.452732 57.686381 
L 636.449002 68.940926 
L 651.445273 66.004958 
" clip-path="url(#p94ea95bff4)" style="fill: none; stroke: #8b949e; stroke-width: 1.8; stroke-linecap: square"/>
    <defs>
     <path id="m03117d95f5" d="M 0 1.5 
C 0.397805 1.5 0.77937 1.341951 1.06066 1.06066 
C 1.341951 0.77937 1.5 0.397805 1.5 0 
C 1.5 -0.397805 1.341951 -0.77937 1.06066 -1.06066 
C 0.77937 -1.341951 0.397805 -1.5 0 -1.5 
C -0.397805 -1.5 -0.77937 -1.341951 -1.06066 -1.06066 
C -1.341951 -0.77937 -1.5 -0.397805 -1.5 0 
C -1.5 0.397805 -1.341951 0.77937 -1.06066 1.06066 
C -0.77937 1.341951 -0.397805 1.5 0 1.5 
z
" style="stroke: #8b949e"/>
    </defs>
    <g clip-path="url(#p94ea95bff4)">
     <use xlink:href="#m03117d95f5" x="66.590727" y="42.761875" style="fill: #8b949e; stroke: #8b949e"/>
     <use xlink:href="#m03117d95f5" x="81.586998" y="55.484405" style="fill: #8b949e; stroke: #8b949e"/>
     <use xlink:href="#m03117d95f5" x="96.583268" y="54.750413" style="fill: #8b949e; stroke: #8b949e"/>
     <use xlink:href="#m03117d95f5" x="111.579538" y="57.931045" style="fill: #8b949e; stroke: #8b949e"/>
     <use xlink:href="#m03117d95f5" x="126.575809" y="57.931045" style="fill: #8b949e; stroke: #8b949e"/>
     <use xlink:href="#m03117d95f5" x="141.572079" y="54.995077" style="fill: #8b949e; stroke: #8b949e"/>
     <use xlink:href="#m03117d95f5" x="156.56835" y="60.133021" style="fill: #8b949e; stroke: #8b949e"/>
     <use xlink:href="#m03117d95f5" x="171.56462" y="58.909701" style="fill: #8b949e; stroke: #8b949e"/>
     <use xlink:href="#m03117d95f5" x="186.56089" y="57.686381" style="fill: #8b949e; stroke: #8b949e"/>
     <use xlink:href="#m03117d95f5" x="201.557161" y="58.175709" style="fill: #8b949e; stroke: #8b949e"/>
     <use xlink:href="#m03117d95f5" x="216.553431" y="60.133021" style="fill: #8b949e; stroke: #8b949e"/>
     <use xlink:href="#m03117d95f5" x="231.549702" y="56.952389" style="fill: #8b949e; stroke: #8b949e"/>
     <use xlink:href="#m03117d95f5" x="246.545972" y="58.420373" style="fill: #8b949e; stroke: #8b949e"/>
     <use xlink:href="#m03117d95f5" x="261.542242" y="60.867013" style="fill: #8b949e; stroke: #8b949e"/>
     <use xlink:href="#m03117d95f5" x="276.538513" y="56.952389" style="fill: #8b949e; stroke: #8b949e"/>
     <use xlink:href="#m03117d95f5" x="291.534783" y="61.111677" style="fill: #8b949e; stroke: #8b949e"/>
     <use xlink:href="#m03117d95f5" x="306.531054" y="63.313654" style="fill: #8b949e; stroke: #8b949e"/>
     <use xlink:href="#m03117d95f5" x="321.527324" y="64.047646" style="fill: #8b949e; stroke: #8b949e"/>
     <use xlink:href="#m03117d95f5" x="336.523594" y="63.558318" style="fill: #8b949e; stroke: #8b949e"/>
     <use xlink:href="#m03117d95f5" x="351.519865" y="63.558318" style="fill: #8b949e; stroke: #8b949e"/>
     <use xlink:href="#m03117d95f5" x="366.516135" y="57.686381" style="fill: #8b949e; stroke: #8b949e"/>
     <use xlink:href="#m03117d95f5" x="381.512406" y="67.717606" style="fill: #8b949e; stroke: #8b949e"/>
     <use xlink:href="#m03117d95f5" x="396.508676" y="61.601005" style="fill: #8b949e; stroke: #8b949e"/>
     <use xlink:href="#m03117d95f5" x="411.504946" y="61.111677" style="fill: #8b949e; stroke: #8b949e"/>
     <use xlink:href="#m03117d95f5" x="426.501217" y="62.090333" style="fill: #8b949e; stroke: #8b949e"/>
     <use xlink:href="#m03117d95f5" x="441.497487" y="61.356341" style="fill: #8b949e; stroke: #8b949e"/>
     <use xlink:href="#m03117d95f5" x="456.493758" y="60.622349" style="fill: #8b949e; stroke: #8b949e"/>
     <use xlink:href="#m03117d95f5" x="471.490028" y="58.909701" style="fill: #8b949e; stroke: #8b949e"/>
     <use xlink:href="#m03117d95f5" x="486.486298" y="60.377685" style="fill: #8b949e; stroke: #8b949e"/>
     <use xlink:href="#m03117d95f5" x="501.482569" y="58.665037" style="fill: #8b949e; stroke: #8b949e"/>
     <use xlink:href="#m03117d95f5" x="516.478839" y="62.334998" style="fill: #8b949e; stroke: #8b949e"/>
     <use xlink:href="#m03117d95f5" x="531.47511" y="63.06899" style="fill: #8b949e; stroke: #8b949e"/>
     <use xlink:href="#m03117d95f5" x="546.47138" y="62.090333" style="fill: #8b949e; stroke: #8b949e"/>
     <use xlink:href="#m03117d95f5" x="561.46765" y="60.867013" style="fill: #8b949e; stroke: #8b949e"/>
     <use xlink:href="#m03117d95f5" x="576.463921" y="55.239741" style="fill: #8b949e; stroke: #8b949e"/>
     <use xlink:href="#m03117d95f5" x="591.460191" y="57.931045" style="fill: #8b949e; stroke: #8b949e"/>
     <use xlink:href="#m03117d95f5" x="606.456462" y="61.845669" style="fill: #8b949e; stroke: #8b949e"/>
     <use xlink:href="#m03117d95f5" x="621.452732" y="57.686381" style="fill: #8b949e; stroke: #8b949e"/>
     <use xlink:href="#m03117d95f5" x="636.449002" y="68.940926" style="fill: #8b949e; stroke: #8b949e"/>
     <use xlink:href="#m03117d95f5" x="651.445273" y="66.004958" style="fill: #8b949e; stroke: #8b949e"/>
    </g>
   </g>
   <g id="text_15">
    <!-- churn · run delete-heavy (churn=512 updates=0 growth=0, working set 100000) · write commits/sec over cycles -->
    <g transform="translate(37.348 16.381875) scale(0.12 -0.12)">
     <defs>
      <path id="DejaVuSansMono-68" d="M 3284 2169 
L 3284 0 
L 2706 0 
L 2706 2169 
Q 2706 2641 2540 2862 
Q 2375 3084 2022 3084 
Q 1619 3084 1401 2798 
Q 1184 2513 1184 1978 
L 1184 0 
L 609 0 
L 609 4863 
L 1184 4863 
L 1184 2975 
Q 1338 3275 1600 3429 
Q 1863 3584 2222 3584 
Q 2756 3584 3020 3232 
Q 3284 2881 3284 2169 
z
" transform="scale(0.015625)"/>
      <path id="DejaVuSansMono-75" d="M 609 1325 
L 609 3494 
L 1184 3494 
L 1184 1325 
Q 1184 853 1351 631 
Q 1519 409 1869 409 
Q 2275 409 2490 695 
Q 2706 981 2706 1516 
L 2706 3494 
L 3284 3494 
L 3284 0 
L 2706 0 
L 2706 525 
Q 2553 222 2289 65 
Q 2025 -91 1672 -91 
Q 1134 -91 871 261 
Q 609 613 609 1325 
z
" transform="scale(0.015625)"/>
      <path id="DejaVuSansMono-72" d="M 3609 2778 
Q 3425 2922 3234 2987 
Q 3044 3053 2816 3053 
Q 2278 3053 1993 2715 
Q 1709 2378 1709 1741 
L 1709 0 
L 1131 0 
L 1131 3500 
L 1709 3500 
L 1709 2816 
Q 1853 3188 2151 3386 
Q 2450 3584 2859 3584 
Q 3072 3584 3256 3531 
Q 3441 3478 3609 3366 
L 3609 2778 
z
" transform="scale(0.015625)"/>
      <path id="DejaVuSansMono-6e" d="M 3284 2169 
L 3284 0 
L 2706 0 
L 2706 2169 
Q 2706 2641 2540 2862 
Q 2375 3084 2022 3084 
Q 1619 3084 1401 2798 
Q 1184 2513 1184 1978 
L 1184 0 
L 609 0 
L 609 3500 
L 1184 3500 
L 1184 2975 
Q 1338 3275 1600 3429 
Q 1863 3584 2222 3584 
Q 2756 3584 3020 3232 
Q 3284 2881 3284 2169 
z
" transform="scale(0.015625)"/>
      <path id="DejaVuSansMono-20" transform="scale(0.015625)"/>
      <path id="DejaVuSansMono-b7" d="M 1528 2700 
L 2316 2700 
L 2316 1747 
L 1528 1747 
L 1528 2700 
z
" transform="scale(0.015625)"/>
      <path id="DejaVuSansMono-64" d="M 2681 3053 
L 2681 4863 
L 3256 4863 
L 3256 0 
L 2681 0 
L 2681 441 
Q 2538 181 2298 45 
Q 2059 -91 1747 -91 
Q 1113 -91 748 401 
Q 384 894 384 1759 
Q 384 2613 750 3098 
Q 1116 3584 1747 3584 
Q 2063 3584 2303 3448 
Q 2544 3313 2681 3053 
z
M 991 1747 
Q 991 1078 1203 737 
Q 1416 397 1831 397 
Q 2247 397 2464 740 
Q 2681 1084 2681 1747 
Q 2681 2413 2464 2755 
Q 2247 3097 1831 3097 
Q 1416 3097 1203 2756 
Q 991 2416 991 1747 
z
" transform="scale(0.015625)"/>
      <path id="DejaVuSansMono-74" d="M 1919 4494 
L 1919 3500 
L 3225 3500 
L 3225 3053 
L 1919 3053 
L 1919 1153 
Q 1919 766 2066 612 
Q 2213 459 2578 459 
L 3225 459 
L 3225 0 
L 2522 0 
Q 1875 0 1609 259 
Q 1344 519 1344 1153 
L 1344 3053 
L 409 3053 
L 409 3500 
L 1344 3500 
L 1344 4494 
L 1919 4494 
z
" transform="scale(0.015625)"/>
      <path id="DejaVuSansMono-2d" d="M 1113 2009 
L 2741 2009 
L 2741 1497 
L 1113 1497 
L 1113 2009 
z
" transform="scale(0.015625)"/>
      <path id="DejaVuSansMono-61" d="M 2194 1759 
L 2003 1759 
Q 1500 1759 1245 1582 
Q 991 1406 991 1056 
Q 991 741 1181 566 
Q 1372 391 1709 391 
Q 2184 391 2456 720 
Q 2728 1050 2731 1631 
L 2731 1759 
L 2194 1759 
z
M 3309 1997 
L 3309 0 
L 2731 0 
L 2731 519 
Q 2547 206 2267 57 
Q 1988 -91 1588 -91 
Q 1053 -91 734 211 
Q 416 513 416 1019 
Q 416 1603 808 1906 
Q 1200 2209 1959 2209 
L 2731 2209 
L 2731 2300 
Q 2728 2719 2518 2908 
Q 2309 3097 1850 3097 
Q 1556 3097 1256 3012 
Q 956 2928 672 2766 
L 672 3341 
Q 991 3463 1283 3523 
Q 1575 3584 1850 3584 
Q 2284 3584 2592 3456 
Q 2900 3328 3091 3072 
Q 3209 2916 3259 2686 
Q 3309 2456 3309 1997 
z
" transform="scale(0.015625)"/>
      <path id="DejaVuSansMono-76" d="M 313 3500 
L 909 3500 
L 1925 563 
L 2944 3500 
L 3541 3500 
L 2297 0 
L 1556 0 
L 313 3500 
z
" transform="scale(0.015625)"/>
      <path id="DejaVuSansMono-28" d="M 2766 4856 
Q 2350 4144 2145 3436 
Q 1941 2728 1941 2009 
Q 1941 1294 2145 584 
Q 2350 -125 2766 -844 
L 2266 -844 
Q 1794 -100 1562 604 
Q 1331 1309 1331 2009 
Q 1331 2706 1562 3412 
Q 1794 4119 2266 4856 
L 2766 4856 
z
" transform="scale(0.015625)"/>
      <path id="DejaVuSansMono-3d" d="M 275 1638 
L 3578 1638 
L 3578 1100 
L 275 1100 
L 275 1638 
z
M 275 2906 
L 3578 2906 
L 3578 2375 
L 275 2375 
L 275 2906 
z
" transform="scale(0.015625)"/>
      <path id="DejaVuSansMono-35" d="M 647 4666 
L 3009 4666 
L 3009 4134 
L 1222 4134 
L 1222 2988 
Q 1356 3038 1492 3061 
Q 1628 3084 1766 3084 
Q 2491 3084 2916 2656 
Q 3341 2228 3341 1497 
Q 3341 759 2895 334 
Q 2450 -91 1678 -91 
Q 1306 -91 998 -41 
Q 691 9 447 109 
L 447 750 
Q 734 594 1025 517 
Q 1316 441 1619 441 
Q 2141 441 2423 716 
Q 2706 991 2706 1497 
Q 2706 1997 2414 2275 
Q 2122 2553 1600 2553 
Q 1347 2553 1106 2495 
Q 866 2438 647 2322 
L 647 4666 
z
" transform="scale(0.015625)"/>
      <path id="DejaVuSansMono-31" d="M 844 531 
L 1825 531 
L 1825 4097 
L 769 3859 
L 769 4434 
L 1819 4666 
L 2450 4666 
L 2450 531 
L 3419 531 
L 3419 0 
L 844 0 
L 844 531 
z
" transform="scale(0.015625)"/>
      <path id="DejaVuSansMono-32" d="M 1166 531 
L 3309 531 
L 3309 0 
L 475 0 
L 475 531 
Q 1059 1147 1496 1619 
Q 1934 2091 2100 2284 
Q 2413 2666 2522 2902 
Q 2631 3138 2631 3384 
Q 2631 3775 2401 3997 
Q 2172 4219 1772 4219 
Q 1488 4219 1175 4116 
Q 863 4013 513 3803 
L 513 4441 
Q 834 4594 1145 4672 
Q 1456 4750 1759 4750 
Q 2444 4750 2861 4386 
Q 3278 4022 3278 3431 
Q 3278 3131 3139 2831 
Q 3000 2531 2688 2169 
Q 2513 1966 2180 1606 
Q 1847 1247 1166 531 
z
" transform="scale(0.015625)"/>
      <path id="DejaVuSansMono-70" d="M 1172 441 
L 1172 -1331 
L 594 -1331 
L 594 3500 
L 1172 3500 
L 1172 3053 
Q 1316 3313 1555 3448 
Q 1794 3584 2106 3584 
Q 2741 3584 3102 3093 
Q 3463 2603 3463 1734 
Q 3463 881 3100 395 
Q 2738 -91 2106 -91 
Q 1788 -91 1548 45 
Q 1309 181 1172 441 
z
M 2859 1747 
Q 2859 2416 2648 2756 
Q 2438 3097 2022 3097 
Q 1603 3097 1387 2755 
Q 1172 2413 1172 1747 
Q 1172 1084 1387 740 
Q 1603 397 2022 397 
Q 2438 397 2648 737 
Q 2859 1078 2859 1747 
z
" transform="scale(0.015625)"/>
      <path id="DejaVuSansMono-73" d="M 3041 3378 
L 3041 2816 
Q 2794 2959 2544 3031 
Q 2294 3103 2034 3103 
Q 1644 3103 1451 2976 
Q 1259 2850 1259 2591 
Q 1259 2356 1403 2240 
Q 1547 2125 2119 2016 
L 2350 1972 
Q 2778 1891 2998 1647 
Q 3219 1403 3219 1013 
Q 3219 494 2850 201 
Q 2481 -91 1825 -91 
Q 1566 -91 1281 -36 
Q 997 19 666 128 
L 666 722 
Q 988 556 1281 473 
Q 1575 391 1838 391 
Q 2219 391 2428 545 
Q 2638 700 2638 978 
Q 2638 1378 1872 1531 
L 1847 1538 
L 1631 1581 
Q 1134 1678 906 1908 
Q 678 2138 678 2534 
Q 678 3038 1018 3311 
Q 1359 3584 1991 3584 
Q 2272 3584 2531 3532 
Q 2791 3481 3041 3378 
z
" transform="scale(0.015625)"/>
      <path id="DejaVuSansMono-30" d="M 1509 2344 
Q 1509 2516 1629 2641 
Q 1750 2766 1919 2766 
Q 2094 2766 2219 2641 
Q 2344 2516 2344 2344 
Q 2344 2169 2220 2047 
Q 2097 1925 1919 1925 
Q 1744 1925 1626 2044 
Q 1509 2163 1509 2344 
z
M 1925 4250 
Q 1484 4250 1267 3775 
Q 1050 3300 1050 2328 
Q 1050 1359 1267 884 
Q 1484 409 1925 409 
Q 2369 409 2586 884 
Q 2803 1359 2803 2328 
Q 2803 3300 2586 3775 
Q 2369 4250 1925 4250 
z
M 1925 4750 
Q 2672 4750 3055 4137 
Q 3438 3525 3438 2328 
Q 3438 1134 3055 521 
Q 2672 -91 1925 -91 
Q 1178 -91 797 521 
Q 416 1134 416 2328 
Q 416 3525 797 4137 
Q 1178 4750 1925 4750 
z
" transform="scale(0.015625)"/>
      <path id="DejaVuSansMono-67" d="M 2681 1778 
Q 2681 2425 2470 2761 
Q 2259 3097 1856 3097 
Q 1434 3097 1212 2761 
Q 991 2425 991 1778 
Q 991 1131 1214 792 
Q 1438 453 1863 453 
Q 2259 453 2470 793 
Q 2681 1134 2681 1778 
z
M 3256 225 
Q 3256 -563 2884 -969 
Q 2513 -1375 1791 -1375 
Q 1553 -1375 1293 -1331 
Q 1034 -1288 775 -1203 
L 775 -634 
Q 1081 -778 1331 -847 
Q 1581 -916 1791 -916 
Q 2256 -916 2468 -662 
Q 2681 -409 2681 141 
L 2681 166 
L 2681 556 
Q 2544 263 2306 119 
Q 2069 -25 1728 -25 
Q 1116 -25 750 465 
Q 384 956 384 1778 
Q 384 2603 750 3093 
Q 1116 3584 1728 3584 
Q 2066 3584 2300 3450 
Q 2534 3316 2681 3034 
L 2681 3488 
L 3256 3488 
L 3256 225 
z
" transform="scale(0.015625)"/>
      <path id="DejaVuSansMono-6f" d="M 1925 3097 
Q 1488 3097 1263 2756 
Q 1038 2416 1038 1747 
Q 1038 1081 1263 739 
Q 1488 397 1925 397 
Q 2366 397 2591 739 
Q 2816 1081 2816 1747 
Q 2816 2416 2591 2756 
Q 2366 3097 1925 3097 
z
M 1925 3584 
Q 2653 3584 3039 3112 
Q 3425 2641 3425 1747 
Q 3425 850 3040 379 
Q 2656 -91 1925 -91 
Q 1197 -91 812 379 
Q 428 850 428 1747 
Q 428 2641 812 3112 
Q 1197 3584 1925 3584 
z
" transform="scale(0.015625)"/>
      <path id="DejaVuSansMono-77" d="M 0 3500 
L 569 3500 
L 1178 672 
L 1678 2478 
L 2169 2478 
L 2675 672 
L 3284 3500 
L 3853 3500 
L 3034 0 
L 2484 0 
L 1925 1919 
L 1369 0 
L 819 0 
L 0 3500 
z
" transform="scale(0.015625)"/>
      <path id="DejaVuSansMono-2c" d="M 1569 947 
L 2356 947 
L 2356 300 
L 1741 -897 
L 1259 -897 
L 1569 300 
L 1569 947 
z
" transform="scale(0.015625)"/>
      <path id="DejaVuSansMono-6b" d="M 738 4863 
L 1331 4863 
L 1331 2047 
L 2841 3500 
L 3541 3500 
L 2163 2181 
L 3756 0 
L 3053 0 
L 1759 1806 
L 1331 1403 
L 1331 0 
L 738 0 
L 738 4863 
z
" transform="scale(0.015625)"/>
      <path id="DejaVuSansMono-69" d="M 800 3500 
L 2272 3500 
L 2272 447 
L 3413 447 
L 3413 0 
L 556 0 
L 556 447 
L 1697 447 
L 1697 3053 
L 800 3053 
L 800 3500 
z
M 1697 4863 
L 2272 4863 
L 2272 4134 
L 1697 4134 
L 1697 4863 
z
" transform="scale(0.015625)"/>
      <path id="DejaVuSansMono-29" d="M 1088 4856 
L 1588 4856 
Q 2059 4119 2290 3412 
Q 2522 2706 2522 2009 
Q 2522 1306 2290 600 
Q 2059 -106 1588 -844 
L 1088 -844 
Q 1503 -119 1708 590 
Q 1913 1300 1913 2009 
Q 1913 2722 1708 3431 
Q 1503 4141 1088 4856 
z
" transform="scale(0.015625)"/>
      <path id="DejaVuSansMono-6d" d="M 2113 3144 
Q 2219 3369 2383 3476 
Q 2547 3584 2778 3584 
Q 3200 3584 3373 3257 
Q 3547 2931 3547 2028 
L 3547 0 
L 3022 0 
L 3022 2003 
Q 3022 2744 2939 2923 
Q 2856 3103 2638 3103 
Q 2388 3103 2295 2911 
Q 2203 2719 2203 2003 
L 2203 0 
L 1678 0 
L 1678 2003 
Q 1678 2753 1589 2928 
Q 1500 3103 1269 3103 
Q 1041 3103 952 2911 
Q 863 2719 863 2003 
L 863 0 
L 341 0 
L 341 3500 
L 863 3500 
L 863 3200 
Q 966 3388 1120 3486 
Q 1275 3584 1472 3584 
Q 1709 3584 1867 3475 
Q 2025 3366 2113 3144 
z
" transform="scale(0.015625)"/>
      <path id="DejaVuSansMono-2f" d="M 2778 4666 
L 3372 4666 
L 916 -594 
L 319 -594 
L 2778 4666 
z
" transform="scale(0.015625)"/>
     </defs>
     <use xlink:href="#DejaVuSansMono-63"/>
     <use xlink:href="#DejaVuSansMono-68" x="60.205078"/>
     <use xlink:href="#DejaVuSansMono-75" x="120.410156"/>
     <use xlink:href="#DejaVuSansMono-72" x="180.615234"/>
     <use xlink:href="#DejaVuSansMono-6e" x="240.820312"/>
     <use xlink:href="#DejaVuSansMono-20" x="301.025391"/>
     <use xlink:href="#DejaVuSansMono-b7" x="361.230469"/>
     <use xlink:href="#DejaVuSansMono-20" x="421.435547"/>
     <use xlink:href="#DejaVuSansMono-72" x="481.640625"/>
     <use xlink:href="#DejaVuSansMono-75" x="541.845703"/>
     <use xlink:href="#DejaVuSansMono-6e" x="602.050781"/>
     <use xlink:href="#DejaVuSansMono-20" x="662.255859"/>
     <use xlink:href="#DejaVuSansMono-64" x="722.460938"/>
     <use xlink:href="#DejaVuSansMono-65" x="782.666016"/>
     <use xlink:href="#DejaVuSansMono-6c" x="842.871094"/>
     <use xlink:href="#DejaVuSansMono-65" x="903.076172"/>
     <use xlink:href="#DejaVuSansMono-74" x="963.28125"/>
     <use xlink:href="#DejaVuSansMono-65" x="1023.486328"/>
     <use xlink:href="#DejaVuSansMono-2d" x="1083.691406"/>
     <use xlink:href="#DejaVuSansMono-68" x="1143.896484"/>
     <use xlink:href="#DejaVuSansMono-65" x="1204.101562"/>
     <use xlink:href="#DejaVuSansMono-61" x="1264.306641"/>
     <use xlink:href="#DejaVuSansMono-76" x="1324.511719"/>
     <use xlink:href="#DejaVuSansMono-79" x="1384.716797"/>
     <use xlink:href="#DejaVuSansMono-20" x="1444.921875"/>
     <use xlink:href="#DejaVuSansMono-28" x="1505.126953"/>
     <use xlink:href="#DejaVuSansMono-63" x="1565.332031"/>
     <use xlink:href="#DejaVuSansMono-68" x="1625.537109"/>
     <use xlink:href="#DejaVuSansMono-75" x="1685.742188"/>
     <use xlink:href="#DejaVuSansMono-72" x="1745.947266"/>
     <use xlink:href="#DejaVuSansMono-6e" x="1806.152344"/>
     <use xlink:href="#DejaVuSansMono-3d" x="1866.357422"/>
     <use xlink:href="#DejaVuSansMono-35" x="1926.5625"/>
     <use xlink:href="#DejaVuSansMono-31" x="1986.767578"/>
     <use xlink:href="#DejaVuSansMono-32" x="2046.972656"/>
     <use xlink:href="#DejaVuSansMono-20" x="2107.177734"/>
     <use xlink:href="#DejaVuSansMono-75" x="2167.382812"/>
     <use xlink:href="#DejaVuSansMono-70" x="2227.587891"/>
     <use xlink:href="#DejaVuSansMono-64" x="2287.792969"/>
     <use xlink:href="#DejaVuSansMono-61" x="2347.998047"/>
     <use xlink:href="#DejaVuSansMono-74" x="2408.203125"/>
     <use xlink:href="#DejaVuSansMono-65" x="2468.408203"/>
     <use xlink:href="#DejaVuSansMono-73" x="2528.613281"/>
     <use xlink:href="#DejaVuSansMono-3d" x="2588.818359"/>
     <use xlink:href="#DejaVuSansMono-30" x="2649.023438"/>
     <use xlink:href="#DejaVuSansMono-20" x="2709.228516"/>
     <use xlink:href="#DejaVuSansMono-67" x="2769.433594"/>
     <use xlink:href="#DejaVuSansMono-72" x="2829.638672"/>
     <use xlink:href="#DejaVuSansMono-6f" x="2889.84375"/>
     <use xlink:href="#DejaVuSansMono-77" x="2950.048828"/>
     <use xlink:href="#DejaVuSansMono-74" x="3010.253906"/>
     <use xlink:href="#DejaVuSansMono-68" x="3070.458984"/>
     <use xlink:href="#DejaVuSansMono-3d" x="3130.664062"/>
     <use xlink:href="#DejaVuSansMono-30" x="3190.869141"/>
     <use xlink:href="#DejaVuSansMono-2c" x="3251.074219"/>
     <use xlink:href="#DejaVuSansMono-20" x="3311.279297"/>
     <use xlink:href="#DejaVuSansMono-77" x="3371.484375"/>
     <use xlink:href="#DejaVuSansMono-6f" x="3431.689453"/>
     <use xlink:href="#DejaVuSansMono-72" x="3491.894531"/>
     <use xlink:href="#DejaVuSansMono-6b" x="3552.099609"/>
     <use xlink:href="#DejaVuSansMono-69" x="3612.304688"/>
     <use xlink:href="#DejaVuSansMono-6e" x="3672.509766"/>
     <use xlink:href="#DejaVuSansMono-67" x="3732.714844"/>
     <use xlink:href="#DejaVuSansMono-20" x="3792.919922"/>
     <use xlink:href="#DejaVuSansMono-73" x="3853.125"/>
     <use xlink:href="#DejaVuSansMono-65" x="3913.330078"/>
     <use xlink:href="#DejaVuSansMono-74" x="3973.535156"/>
     <use xlink:href="#DejaVuSansMono-20" x="4033.740234"/>
     <use xlink:href="#DejaVuSansMono-31" x="4093.945312"/>
     <use xlink:href="#DejaVuSansMono-30" x="4154.150391"/>
     <use xlink:href="#DejaVuSansMono-30" x="4214.355469"/>
     <use xlink:href="#DejaVuSansMono-30" x="4274.560547"/>
     <use xlink:href="#DejaVuSansMono-30" x="4334.765625"/>
     <use xlink:href="#DejaVuSansMono-30" x="4394.970703"/>
     <use xlink:href="#DejaVuSansMono-29" x="4455.175781"/>
     <use xlink:href="#DejaVuSansMono-20" x="4515.380859"/>
     <use xlink:href="#DejaVuSansMono-b7" x="4575.585938"/>
     <use xlink:href="#DejaVuSansMono-20" x="4635.791016"/>
     <use xlink:href="#DejaVuSansMono-77" x="4695.996094"/>
     <use xlink:href="#DejaVuSansMono-72" x="4756.201172"/>
     <use xlink:href="#DejaVuSansMono-69" x="4816.40625"/>
     <use xlink:href="#DejaVuSansMono-74" x="4876.611328"/>
     <use xlink:href="#DejaVuSansMono-65" x="4936.816406"/>
     <use xlink:href="#DejaVuSansMono-20" x="4997.021484"/>
     <use xlink:href="#DejaVuSansMono-63" x="5057.226562"/>
     <use xlink:href="#DejaVuSansMono-6f" x="5117.431641"/>
     <use xlink:href="#DejaVuSansMono-6d" x="5177.636719"/>
     <use xlink:href="#DejaVuSansMono-6d" x="5237.841797"/>
     <use xlink:href="#DejaVuSansMono-69" x="5298.046875"/>
     <use xlink:href="#DejaVuSansMono-74" x="5358.251953"/>
     <use xlink:href="#DejaVuSansMono-73" x="5418.457031"/>
     <use xlink:href="#DejaVuSansMono-2f" x="5478.662109"/>
     <use xlink:href="#DejaVuSansMono-73" x="5538.867188"/>
     <use xlink:href="#DejaVuSansMono-65" x="5599.072266"/>
     <use xlink:href="#DejaVuSansMono-63" x="5659.277344"/>
     <use xlink:href="#DejaVuSansMono-20" x="5719.482422"/>
     <use xlink:href="#DejaVuSansMono-6f" x="5779.6875"/>
     <use xlink:href="#DejaVuSansMono-76" x="5839.892578"/>
     <use xlink:href="#DejaVuSansMono-65" x="5900.097656"/>
     <use xlink:href="#DejaVuSansMono-72" x="5960.302734"/>
     <use xlink:href="#DejaVuSansMono-20" x="6020.507812"/>
     <use xlink:href="#DejaVuSansMono-63" x="6080.712891"/>
     <use xlink:href="#DejaVuSansMono-79" x="6140.917969"/>
     <use xlink:href="#DejaVuSansMono-63" x="6201.123047"/>
     <use xlink:href="#DejaVuSansMono-6c" x="6261.328125"/>
     <use xlink:href="#DejaVuSansMono-65" x="6321.533203"/>
     <use xlink:href="#DejaVuSansMono-73" x="6381.738281"/>
    </g>
   </g>
   <g id="legend_1">
    <g id="patch_7">
     <path d="M 42.948 298.741875 
L 119.41925 298.741875 
Q 121.01925 298.741875 121.01925 297.141875 
L 121.01925 274.456875 
Q 121.01925 272.856875 119.41925 272.856875 
L 42.948 272.856875 
Q 41.348 272.856875 41.348 274.456875 
L 41.348 297.141875 
Q 41.348 298.741875 42.948 298.741875 
z
" style="fill: #0d1117; opacity: 0.8; stroke: #2d333b; stroke-linejoin: miter"/>
    </g>
    <g id="line2d_29">
     <path d="M 44.548 279.335625 
L 52.548 279.335625 
L 60.548 279.335625 
" style="fill: none; stroke: #f0b429; stroke-width: 1.8; stroke-linecap: square"/>
     <g>
      <use xlink:href="#m0a1a7c2cf1" x="52.548" y="279.335625" style="fill: #f0b429; stroke: #f0b429"/>
     </g>
    </g>
    <g id="text_16">
     <!-- ours-durable -->
     <g style="fill: #e6edf3" transform="translate(66.948 282.135625) scale(0.08 -0.08)">
      <defs>
       <path id="DejaVuSans-6f" d="M 1959 3097 
Q 1497 3097 1228 2736 
Q 959 2375 959 1747 
Q 959 1119 1226 758 
Q 1494 397 1959 397 
Q 2419 397 2687 759 
Q 2956 1122 2956 1747 
Q 2956 2369 2687 2733 
Q 2419 3097 1959 3097 
z
M 1959 3584 
Q 2709 3584 3137 3096 
Q 3566 2609 3566 1747 
Q 3566 888 3137 398 
Q 2709 -91 1959 -91 
Q 1206 -91 779 398 
Q 353 888 353 1747 
Q 353 2609 779 3096 
Q 1206 3584 1959 3584 
z
" transform="scale(0.015625)"/>
       <path id="DejaVuSans-75" d="M 544 1381 
L 544 3500 
L 1119 3500 
L 1119 1403 
Q 1119 906 1312 657 
Q 1506 409 1894 409 
Q 2359 409 2629 706 
Q 2900 1003 2900 1516 
L 2900 3500 
L 3475 3500 
L 3475 0 
L 2900 0 
L 2900 538 
Q 2691 219 2414 64 
Q 2138 -91 1772 -91 
Q 1169 -91 856 284 
Q 544 659 544 1381 
z
M 1991 3584 
L 1991 3584 
z
" transform="scale(0.015625)"/>
       <path id="DejaVuSans-72" d="M 2631 2963 
Q 2534 3019 2420 3045 
Q 2306 3072 2169 3072 
Q 1681 3072 1420 2755 
Q 1159 2438 1159 1844 
L 1159 0 
L 581 0 
L 581 3500 
L 1159 3500 
L 1159 2956 
Q 1341 3275 1631 3429 
Q 1922 3584 2338 3584 
Q 2397 3584 2469 3576 
Q 2541 3569 2628 3553 
L 2631 2963 
z
" transform="scale(0.015625)"/>
       <path id="DejaVuSans-2d" d="M 313 2009 
L 1997 2009 
L 1997 1497 
L 313 1497 
L 313 2009 
z
" transform="scale(0.015625)"/>
       <path id="DejaVuSans-64" d="M 2906 2969 
L 2906 4863 
L 3481 4863 
L 3481 0 
L 2906 0 
L 2906 525 
Q 2725 213 2448 61 
Q 2172 -91 1784 -91 
Q 1150 -91 751 415 
Q 353 922 353 1747 
Q 353 2572 751 3078 
Q 1150 3584 1784 3584 
Q 2172 3584 2448 3432 
Q 2725 3281 2906 2969 
z
M 947 1747 
Q 947 1113 1208 752 
Q 1469 391 1925 391 
Q 2381 391 2643 752 
Q 2906 1113 2906 1747 
Q 2906 2381 2643 2742 
Q 2381 3103 1925 3103 
Q 1469 3103 1208 2742 
Q 947 2381 947 1747 
z
" transform="scale(0.015625)"/>
       <path id="DejaVuSans-61" d="M 2194 1759 
Q 1497 1759 1228 1600 
Q 959 1441 959 1056 
Q 959 750 1161 570 
Q 1363 391 1709 391 
Q 2188 391 2477 730 
Q 2766 1069 2766 1631 
L 2766 1759 
L 2194 1759 
z
M 3341 1997 
L 3341 0 
L 2766 0 
L 2766 531 
Q 2569 213 2275 61 
Q 1981 -91 1556 -91 
Q 1019 -91 701 211 
Q 384 513 384 1019 
Q 384 1609 779 1909 
Q 1175 2209 1959 2209 
L 2766 2209 
L 2766 2266 
Q 2766 2663 2505 2880 
Q 2244 3097 1772 3097 
Q 1472 3097 1187 3025 
Q 903 2953 641 2809 
L 641 3341 
Q 956 3463 1253 3523 
Q 1550 3584 1831 3584 
Q 2591 3584 2966 3190 
Q 3341 2797 3341 1997 
z
" transform="scale(0.015625)"/>
       <path id="DejaVuSans-62" d="M 3116 1747 
Q 3116 2381 2855 2742 
Q 2594 3103 2138 3103 
Q 1681 3103 1420 2742 
Q 1159 2381 1159 1747 
Q 1159 1113 1420 752 
Q 1681 391 2138 391 
Q 2594 391 2855 752 
Q 3116 1113 3116 1747 
z
M 1159 2969 
Q 1341 3281 1617 3432 
Q 1894 3584 2278 3584 
Q 2916 3584 3314 3078 
Q 3713 2572 3713 1747 
Q 3713 922 3314 415 
Q 2916 -91 2278 -91 
Q 1894 -91 1617 61 
Q 1341 213 1159 525 
L 1159 0 
L 581 0 
L 581 4863 
L 1159 4863 
L 1159 2969 
z
" transform="scale(0.015625)"/>
       <path id="DejaVuSans-6c" d="M 603 4863 
L 1178 4863 
L 1178 0 
L 603 0 
L 603 4863 
z
" transform="scale(0.015625)"/>
       <path id="DejaVuSans-65" d="M 3597 1894 
L 3597 1613 
L 953 1613 
Q 991 1019 1311 708 
Q 1631 397 2203 397 
Q 2534 397 2845 478 
Q 3156 559 3463 722 
L 3463 178 
Q 3153 47 2828 -22 
Q 2503 -91 2169 -91 
Q 1331 -91 842 396 
Q 353 884 353 1716 
Q 353 2575 817 3079 
Q 1281 3584 2069 3584 
Q 2775 3584 3186 3129 
Q 3597 2675 3597 1894 
z
M 3022 2063 
Q 3016 2534 2758 2815 
Q 2500 3097 2075 3097 
Q 1594 3097 1305 2825 
Q 1016 2553 972 2059 
L 3022 2063 
z
" transform="scale(0.015625)"/>
      </defs>
      <use xlink:href="#DejaVuSans-6f"/>
      <use xlink:href="#DejaVuSans-75" x="61.181641"/>
      <use xlink:href="#DejaVuSans-72" x="124.560547"/>
      <use xlink:href="#DejaVuSans-73" x="165.673828"/>
      <use xlink:href="#DejaVuSans-2d" x="217.773438"/>
      <use xlink:href="#DejaVuSans-64" x="253.857422"/>
      <use xlink:href="#DejaVuSans-75" x="317.333984"/>
      <use xlink:href="#DejaVuSans-72" x="380.712891"/>
      <use xlink:href="#DejaVuSans-61" x="421.826172"/>
      <use xlink:href="#DejaVuSans-62" x="483.105469"/>
      <use xlink:href="#DejaVuSans-6c" x="546.582031"/>
      <use xlink:href="#DejaVuSans-65" x="574.365234"/>
     </g>
    </g>
    <g id="line2d_30">
     <path d="M 44.548 291.078125 
L 52.548 291.078125 
L 60.548 291.078125 
" style="fill: none; stroke: #8b949e; stroke-width: 1.8; stroke-linecap: square"/>
     <g>
      <use xlink:href="#m03117d95f5" x="52.548" y="291.078125" style="fill: #8b949e; stroke: #8b949e"/>
     </g>
    </g>
    <g id="text_17">
     <!-- sqlite-bare -->
     <g style="fill: #e6edf3" transform="translate(66.948 293.878125) scale(0.08 -0.08)">
      <defs>
       <path id="DejaVuSans-71" d="M 947 1747 
Q 947 1113 1208 752 
Q 1469 391 1925 391 
Q 2381 391 2643 752 
Q 2906 1113 2906 1747 
Q 2906 2381 2643 2742 
Q 2381 3103 1925 3103 
Q 1469 3103 1208 2742 
Q 947 2381 947 1747 
z
M 2906 525 
Q 2725 213 2448 61 
Q 2172 -91 1784 -91 
Q 1150 -91 751 415 
Q 353 922 353 1747 
Q 353 2572 751 3078 
Q 1150 3584 1784 3584 
Q 2172 3584 2448 3432 
Q 2725 3281 2906 2969 
L 2906 3500 
L 3481 3500 
L 3481 -1331 
L 2906 -1331 
L 2906 525 
z
" transform="scale(0.015625)"/>
       <path id="DejaVuSans-69" d="M 603 3500 
L 1178 3500 
L 1178 0 
L 603 0 
L 603 3500 
z
M 603 4863 
L 1178 4863 
L 1178 4134 
L 603 4134 
L 603 4863 
z
" transform="scale(0.015625)"/>
       <path id="DejaVuSans-74" d="M 1172 4494 
L 1172 3500 
L 2356 3500 
L 2356 3053 
L 1172 3053 
L 1172 1153 
Q 1172 725 1289 603 
Q 1406 481 1766 481 
L 2356 481 
L 2356 0 
L 1766 0 
Q 1100 0 847 248 
Q 594 497 594 1153 
L 594 3053 
L 172 3053 
L 172 3500 
L 594 3500 
L 594 4494 
L 1172 4494 
z
" transform="scale(0.015625)"/>
      </defs>
      <use xlink:href="#DejaVuSans-73"/>
      <use xlink:href="#DejaVuSans-71" x="52.099609"/>
      <use xlink:href="#DejaVuSans-6c" x="115.576172"/>
      <use xlink:href="#DejaVuSans-69" x="143.359375"/>
      <use xlink:href="#DejaVuSans-74" x="171.142578"/>
      <use xlink:href="#DejaVuSans-65" x="210.351562"/>
      <use xlink:href="#DejaVuSans-2d" x="271.875"/>
      <use xlink:href="#DejaVuSans-62" x="307.958984"/>
      <use xlink:href="#DejaVuSans-61" x="371.435547"/>
      <use xlink:href="#DejaVuSans-72" x="432.714844"/>
      <use xlink:href="#DejaVuSans-65" x="471.578125"/>
     </g>
    </g>
   </g>
  </g>
  <g id="text_18">
   <!-- churn lane · 10000 cycles sampled every 250 · sqlite-maint VACUUM every 500 / ANALYZE every 500, charged as maintenance · report-class · shared-machine night, boosted QoS -->
   <g style="fill: #9da7b3" transform="translate(7.2 340.093875) scale(0.08 -0.08)">
    <defs>
     <path id="DejaVuSansMono-71" d="M 1038 1734 
Q 1038 1066 1248 725 
Q 1459 384 1875 384 
Q 2291 384 2505 726 
Q 2719 1069 2719 1734 
Q 2719 2400 2505 2742 
Q 2291 3084 1875 3084 
Q 1459 3084 1248 2743 
Q 1038 2403 1038 1734 
z
M 2719 434 
Q 2578 175 2339 36 
Q 2100 -103 1784 -103 
Q 1156 -103 792 383 
Q 428 869 428 1722 
Q 428 2591 790 3081 
Q 1153 3572 1784 3572 
Q 2097 3572 2336 3436 
Q 2575 3300 2719 3041 
L 2719 3488 
L 3297 3488 
L 3297 -1344 
L 2719 -1344 
L 2719 434 
z
" transform="scale(0.015625)"/>
     <path id="DejaVuSansMono-56" d="M 1925 531 
L 3022 4666 
L 3675 4666 
L 2309 0 
L 1544 0 
L 178 4666 
L 831 4666 
L 1925 531 
z
" transform="scale(0.015625)"/>
     <path id="DejaVuSansMono-41" d="M 1925 4109 
L 1259 1722 
L 2591 1722 
L 1925 4109 
z
M 1544 4666 
L 2309 4666 
L 3738 0 
L 3084 0 
L 2741 1216 
L 1106 1216 
L 769 0 
L 116 0 
L 1544 4666 
z
" transform="scale(0.015625)"/>
     <path id="DejaVuSansMono-43" d="M 3353 166 
Q 3113 38 2859 -26 
Q 2606 -91 2322 -91 
Q 1425 -91 929 543 
Q 434 1178 434 2328 
Q 434 3472 932 4111 
Q 1431 4750 2322 4750 
Q 2606 4750 2859 4686 
Q 3113 4622 3353 4494 
L 3353 3847 
Q 3122 4038 2856 4138 
Q 2591 4238 2322 4238 
Q 1706 4238 1400 3763 
Q 1094 3288 1094 2328 
Q 1094 1372 1400 897 
Q 1706 422 2322 422 
Q 2597 422 2861 522 
Q 3125 622 3353 813 
L 3353 166 
z
" transform="scale(0.015625)"/>
     <path id="DejaVuSansMono-55" d="M 459 1791 
L 459 4666 
L 1094 4666 
L 1094 1503 
Q 1094 1163 1112 1017 
Q 1131 872 1178 794 
Q 1278 609 1467 515 
Q 1656 422 1925 422 
Q 2197 422 2384 515 
Q 2572 609 2675 794 
Q 2722 872 2740 1015 
Q 2759 1159 2759 1497 
L 2759 4666 
L 3391 4666 
L 3391 1791 
Q 3391 1075 3302 773 
Q 3213 472 2994 275 
Q 2788 91 2522 0 
Q 2256 -91 1925 -91 
Q 1597 -91 1331 0 
Q 1066 91 856 275 
Q 641 469 550 776 
Q 459 1084 459 1791 
z
" transform="scale(0.015625)"/>
     <path id="DejaVuSansMono-4d" d="M 269 4666 
L 1113 4666 
L 1919 2291 
L 2731 4666 
L 3578 4666 
L 3578 0 
L 2994 0 
L 2994 4122 
L 2163 1663 
L 1684 1663 
L 850 4122 
L 850 0 
L 269 0 
L 269 4666 
z
" transform="scale(0.015625)"/>
     <path id="DejaVuSansMono-4e" d="M 434 4666 
L 1234 4666 
L 2809 825 
L 2809 4666 
L 3419 4666 
L 3419 0 
L 2619 0 
L 1044 3841 
L 1044 0 
L 434 0 
L 434 4666 
z
" transform="scale(0.015625)"/>
     <path id="DejaVuSansMono-4c" d="M 672 4666 
L 1306 4666 
L 1306 531 
L 3559 531 
L 3559 0 
L 672 0 
L 672 4666 
z
" transform="scale(0.015625)"/>
     <path id="DejaVuSansMono-59" d="M 116 4666 
L 788 4666 
L 1925 2606 
L 3059 4666 
L 3738 4666 
L 2241 2094 
L 2241 0 
L 1606 0 
L 1606 2094 
L 116 4666 
z
" transform="scale(0.015625)"/>
     <path id="DejaVuSansMono-5a" d="M 556 4666 
L 3584 4666 
L 3584 4184 
L 1147 531 
L 3653 531 
L 3653 0 
L 488 0 
L 488 481 
L 2859 4134 
L 556 4134 
L 556 4666 
z
" transform="scale(0.015625)"/>
     <path id="DejaVuSansMono-45" d="M 616 4666 
L 3384 4666 
L 3384 4134 
L 1247 4134 
L 1247 2753 
L 3291 2753 
L 3291 2222 
L 1247 2222 
L 1247 531 
L 3444 531 
L 3444 0 
L 616 0 
L 616 4666 
z
" transform="scale(0.015625)"/>
     <path id="DejaVuSansMono-62" d="M 2869 1747 
Q 2869 2416 2656 2756 
Q 2444 3097 2028 3097 
Q 1609 3097 1393 2755 
Q 1178 2413 1178 1747 
Q 1178 1084 1393 740 
Q 1609 397 2028 397 
Q 2444 397 2656 737 
Q 2869 1078 2869 1747 
z
M 1178 3053 
Q 1316 3309 1558 3446 
Q 1800 3584 2119 3584 
Q 2750 3584 3112 3098 
Q 3475 2613 3475 1759 
Q 3475 894 3111 401 
Q 2747 -91 2113 -91 
Q 1800 -91 1561 45 
Q 1322 181 1178 441 
L 1178 0 
L 603 0 
L 603 4863 
L 1178 4863 
L 1178 3053 
z
" transform="scale(0.015625)"/>
     <path id="DejaVuSansMono-51" d="M 2047 -84 
Q 2025 -84 1984 -87 
Q 1944 -91 1919 -91 
Q 1138 -91 752 509 
Q 366 1109 366 2328 
Q 366 3550 752 4150 
Q 1138 4750 1925 4750 
Q 2716 4750 3102 4150 
Q 3488 3550 3488 2328 
Q 3488 1409 3273 848 
Q 3059 288 2625 63 
L 3250 -531 
L 2778 -844 
L 2047 -84 
z
M 2828 2328 
Q 2828 3356 2617 3797 
Q 2406 4238 1925 4238 
Q 1447 4238 1236 3797 
Q 1025 3356 1025 2328 
Q 1025 1303 1236 862 
Q 1447 422 1925 422 
Q 2406 422 2617 861 
Q 2828 1300 2828 2328 
z
" transform="scale(0.015625)"/>
     <path id="DejaVuSansMono-53" d="M 3163 4506 
L 3163 3866 
Q 2875 4050 2586 4144 
Q 2297 4238 2003 4238 
Q 1556 4238 1297 4030 
Q 1038 3822 1038 3469 
Q 1038 3159 1208 2996 
Q 1378 2834 1844 2725 
L 2175 2650 
Q 2831 2497 3131 2169 
Q 3431 1841 3431 1275 
Q 3431 609 3018 259 
Q 2606 -91 1819 -91 
Q 1491 -91 1159 -20 
Q 828 50 494 191 
L 494 863 
Q 853 634 1173 528 
Q 1494 422 1819 422 
Q 2297 422 2562 636 
Q 2828 850 2828 1234 
Q 2828 1584 2645 1768 
Q 2463 1953 2009 2053 
L 1672 2131 
Q 1022 2278 728 2575 
Q 434 2872 434 3372 
Q 434 3997 854 4373 
Q 1275 4750 1972 4750 
Q 2241 4750 2537 4689 
Q 2834 4628 3163 4506 
z
" transform="scale(0.015625)"/>
    </defs>
    <use xlink:href="#DejaVuSansMono-63"/>
    <use xlink:href="#DejaVuSansMono-68" x="60.205078"/>
    <use xlink:href="#DejaVuSansMono-75" x="120.410156"/>
    <use xlink:href="#DejaVuSansMono-72" x="180.615234"/>
    <use xlink:href="#DejaVuSansMono-6e" x="240.820312"/>
    <use xlink:href="#DejaVuSansMono-20" x="301.025391"/>
    <use xlink:href="#DejaVuSansMono-6c" x="361.230469"/>
    <use xlink:href="#DejaVuSansMono-61" x="421.435547"/>
    <use xlink:href="#DejaVuSansMono-6e" x="481.640625"/>
    <use xlink:href="#DejaVuSansMono-65" x="541.845703"/>
    <use xlink:href="#DejaVuSansMono-20" x="602.050781"/>
    <use xlink:href="#DejaVuSansMono-b7" x="662.255859"/>
    <use xlink:href="#DejaVuSansMono-20" x="722.460938"/>
    <use xlink:href="#DejaVuSansMono-31" x="782.666016"/>
    <use xlink:href="#DejaVuSansMono-30" x="842.871094"/>
    <use xlink:href="#DejaVuSansMono-30" x="903.076172"/>
    <use xlink:href="#DejaVuSansMono-30" x="963.28125"/>
    <use xlink:href="#DejaVuSansMono-30" x="1023.486328"/>
    <use xlink:href="#DejaVuSansMono-20" x="1083.691406"/>
    <use xlink:href="#DejaVuSansMono-63" x="1143.896484"/>
    <use xlink:href="#DejaVuSansMono-79" x="1204.101562"/>
    <use xlink:href="#DejaVuSansMono-63" x="1264.306641"/>
    <use xlink:href="#DejaVuSansMono-6c" x="1324.511719"/>
    <use xlink:href="#DejaVuSansMono-65" x="1384.716797"/>
    <use xlink:href="#DejaVuSansMono-73" x="1444.921875"/>
    <use xlink:href="#DejaVuSansMono-20" x="1505.126953"/>
    <use xlink:href="#DejaVuSansMono-73" x="1565.332031"/>
    <use xlink:href="#DejaVuSansMono-61" x="1625.537109"/>
    <use xlink:href="#DejaVuSansMono-6d" x="1685.742188"/>
    <use xlink:href="#DejaVuSansMono-70" x="1745.947266"/>
    <use xlink:href="#DejaVuSansMono-6c" x="1806.152344"/>
    <use xlink:href="#DejaVuSansMono-65" x="1866.357422"/>
    <use xlink:href="#DejaVuSansMono-64" x="1926.5625"/>
    <use xlink:href="#DejaVuSansMono-20" x="1986.767578"/>
    <use xlink:href="#DejaVuSansMono-65" x="2046.972656"/>
    <use xlink:href="#DejaVuSansMono-76" x="2107.177734"/>
    <use xlink:href="#DejaVuSansMono-65" x="2167.382812"/>
    <use xlink:href="#DejaVuSansMono-72" x="2227.587891"/>
    <use xlink:href="#DejaVuSansMono-79" x="2287.792969"/>
    <use xlink:href="#DejaVuSansMono-20" x="2347.998047"/>
    <use xlink:href="#DejaVuSansMono-32" x="2408.203125"/>
    <use xlink:href="#DejaVuSansMono-35" x="2468.408203"/>
    <use xlink:href="#DejaVuSansMono-30" x="2528.613281"/>
    <use xlink:href="#DejaVuSansMono-20" x="2588.818359"/>
    <use xlink:href="#DejaVuSansMono-b7" x="2649.023438"/>
    <use xlink:href="#DejaVuSansMono-20" x="2709.228516"/>
    <use xlink:href="#DejaVuSansMono-73" x="2769.433594"/>
    <use xlink:href="#DejaVuSansMono-71" x="2829.638672"/>
    <use xlink:href="#DejaVuSansMono-6c" x="2889.84375"/>
    <use xlink:href="#DejaVuSansMono-69" x="2950.048828"/>
    <use xlink:href="#DejaVuSansMono-74" x="3010.253906"/>
    <use xlink:href="#DejaVuSansMono-65" x="3070.458984"/>
    <use xlink:href="#DejaVuSansMono-2d" x="3130.664062"/>
    <use xlink:href="#DejaVuSansMono-6d" x="3190.869141"/>
    <use xlink:href="#DejaVuSansMono-61" x="3251.074219"/>
    <use xlink:href="#DejaVuSansMono-69" x="3311.279297"/>
    <use xlink:href="#DejaVuSansMono-6e" x="3371.484375"/>
    <use xlink:href="#DejaVuSansMono-74" x="3431.689453"/>
    <use xlink:href="#DejaVuSansMono-20" x="3491.894531"/>
    <use xlink:href="#DejaVuSansMono-56" x="3552.099609"/>
    <use xlink:href="#DejaVuSansMono-41" x="3612.304688"/>
    <use xlink:href="#DejaVuSansMono-43" x="3672.509766"/>
    <use xlink:href="#DejaVuSansMono-55" x="3732.714844"/>
    <use xlink:href="#DejaVuSansMono-55" x="3792.919922"/>
    <use xlink:href="#DejaVuSansMono-4d" x="3853.125"/>
    <use xlink:href="#DejaVuSansMono-20" x="3913.330078"/>
    <use xlink:href="#DejaVuSansMono-65" x="3973.535156"/>
    <use xlink:href="#DejaVuSansMono-76" x="4033.740234"/>
    <use xlink:href="#DejaVuSansMono-65" x="4093.945312"/>
    <use xlink:href="#DejaVuSansMono-72" x="4154.150391"/>
    <use xlink:href="#DejaVuSansMono-79" x="4214.355469"/>
    <use xlink:href="#DejaVuSansMono-20" x="4274.560547"/>
    <use xlink:href="#DejaVuSansMono-35" x="4334.765625"/>
    <use xlink:href="#DejaVuSansMono-30" x="4394.970703"/>
    <use xlink:href="#DejaVuSansMono-30" x="4455.175781"/>
    <use xlink:href="#DejaVuSansMono-20" x="4515.380859"/>
    <use xlink:href="#DejaVuSansMono-2f" x="4575.585938"/>
    <use xlink:href="#DejaVuSansMono-20" x="4635.791016"/>
    <use xlink:href="#DejaVuSansMono-41" x="4695.996094"/>
    <use xlink:href="#DejaVuSansMono-4e" x="4756.201172"/>
    <use xlink:href="#DejaVuSansMono-41" x="4816.40625"/>
    <use xlink:href="#DejaVuSansMono-4c" x="4876.611328"/>
    <use xlink:href="#DejaVuSansMono-59" x="4936.816406"/>
    <use xlink:href="#DejaVuSansMono-5a" x="4997.021484"/>
    <use xlink:href="#DejaVuSansMono-45" x="5057.226562"/>
    <use xlink:href="#DejaVuSansMono-20" x="5117.431641"/>
    <use xlink:href="#DejaVuSansMono-65" x="5177.636719"/>
    <use xlink:href="#DejaVuSansMono-76" x="5237.841797"/>
    <use xlink:href="#DejaVuSansMono-65" x="5298.046875"/>
    <use xlink:href="#DejaVuSansMono-72" x="5358.251953"/>
    <use xlink:href="#DejaVuSansMono-79" x="5418.457031"/>
    <use xlink:href="#DejaVuSansMono-20" x="5478.662109"/>
    <use xlink:href="#DejaVuSansMono-35" x="5538.867188"/>
    <use xlink:href="#DejaVuSansMono-30" x="5599.072266"/>
    <use xlink:href="#DejaVuSansMono-30" x="5659.277344"/>
    <use xlink:href="#DejaVuSansMono-2c" x="5719.482422"/>
    <use xlink:href="#DejaVuSansMono-20" x="5779.6875"/>
    <use xlink:href="#DejaVuSansMono-63" x="5839.892578"/>
    <use xlink:href="#DejaVuSansMono-68" x="5900.097656"/>
    <use xlink:href="#DejaVuSansMono-61" x="5960.302734"/>
    <use xlink:href="#DejaVuSansMono-72" x="6020.507812"/>
    <use xlink:href="#DejaVuSansMono-67" x="6080.712891"/>
    <use xlink:href="#DejaVuSansMono-65" x="6140.917969"/>
    <use xlink:href="#DejaVuSansMono-64" x="6201.123047"/>
    <use xlink:href="#DejaVuSansMono-20" x="6261.328125"/>
    <use xlink:href="#DejaVuSansMono-61" x="6321.533203"/>
    <use xlink:href="#DejaVuSansMono-73" x="6381.738281"/>
    <use xlink:href="#DejaVuSansMono-20" x="6441.943359"/>
    <use xlink:href="#DejaVuSansMono-6d" x="6502.148438"/>
    <use xlink:href="#DejaVuSansMono-61" x="6562.353516"/>
    <use xlink:href="#DejaVuSansMono-69" x="6622.558594"/>
    <use xlink:href="#DejaVuSansMono-6e" x="6682.763672"/>
    <use xlink:href="#DejaVuSansMono-74" x="6742.96875"/>
    <use xlink:href="#DejaVuSansMono-65" x="6803.173828"/>
    <use xlink:href="#DejaVuSansMono-6e" x="6863.378906"/>
    <use xlink:href="#DejaVuSansMono-61" x="6923.583984"/>
    <use xlink:href="#DejaVuSansMono-6e" x="6983.789062"/>
    <use xlink:href="#DejaVuSansMono-63" x="7043.994141"/>
    <use xlink:href="#DejaVuSansMono-65" x="7104.199219"/>
    <use xlink:href="#DejaVuSansMono-20" x="7164.404297"/>
    <use xlink:href="#DejaVuSansMono-b7" x="7224.609375"/>
    <use xlink:href="#DejaVuSansMono-20" x="7284.814453"/>
    <use xlink:href="#DejaVuSansMono-72" x="7345.019531"/>
    <use xlink:href="#DejaVuSansMono-65" x="7405.224609"/>
    <use xlink:href="#DejaVuSansMono-70" x="7465.429688"/>
    <use xlink:href="#DejaVuSansMono-6f" x="7525.634766"/>
    <use xlink:href="#DejaVuSansMono-72" x="7585.839844"/>
    <use xlink:href="#DejaVuSansMono-74" x="7646.044922"/>
    <use xlink:href="#DejaVuSansMono-2d" x="7706.25"/>
    <use xlink:href="#DejaVuSansMono-63" x="7766.455078"/>
    <use xlink:href="#DejaVuSansMono-6c" x="7826.660156"/>
    <use xlink:href="#DejaVuSansMono-61" x="7886.865234"/>
    <use xlink:href="#DejaVuSansMono-73" x="7947.070312"/>
    <use xlink:href="#DejaVuSansMono-73" x="8007.275391"/>
    <use xlink:href="#DejaVuSansMono-20" x="8067.480469"/>
    <use xlink:href="#DejaVuSansMono-b7" x="8127.685547"/>
    <use xlink:href="#DejaVuSansMono-20" x="8187.890625"/>
    <use xlink:href="#DejaVuSansMono-73" x="8248.095703"/>
    <use xlink:href="#DejaVuSansMono-68" x="8308.300781"/>
    <use xlink:href="#DejaVuSansMono-61" x="8368.505859"/>
    <use xlink:href="#DejaVuSansMono-72" x="8428.710938"/>
    <use xlink:href="#DejaVuSansMono-65" x="8488.916016"/>
    <use xlink:href="#DejaVuSansMono-64" x="8549.121094"/>
    <use xlink:href="#DejaVuSansMono-2d" x="8609.326172"/>
    <use xlink:href="#DejaVuSansMono-6d" x="8669.53125"/>
    <use xlink:href="#DejaVuSansMono-61" x="8729.736328"/>
    <use xlink:href="#DejaVuSansMono-63" x="8789.941406"/>
    <use xlink:href="#DejaVuSansMono-68" x="8850.146484"/>
    <use xlink:href="#DejaVuSansMono-69" x="8910.351562"/>
    <use xlink:href="#DejaVuSansMono-6e" x="8970.556641"/>
    <use xlink:href="#DejaVuSansMono-65" x="9030.761719"/>
    <use xlink:href="#DejaVuSansMono-20" x="9090.966797"/>
    <use xlink:href="#DejaVuSansMono-6e" x="9151.171875"/>
    <use xlink:href="#DejaVuSansMono-69" x="9211.376953"/>
    <use xlink:href="#DejaVuSansMono-67" x="9271.582031"/>
    <use xlink:href="#DejaVuSansMono-68" x="9331.787109"/>
    <use xlink:href="#DejaVuSansMono-74" x="9391.992188"/>
    <use xlink:href="#DejaVuSansMono-2c" x="9452.197266"/>
    <use xlink:href="#DejaVuSansMono-20" x="9512.402344"/>
    <use xlink:href="#DejaVuSansMono-62" x="9572.607422"/>
    <use xlink:href="#DejaVuSansMono-6f" x="9632.8125"/>
    <use xlink:href="#DejaVuSansMono-6f" x="9693.017578"/>
    <use xlink:href="#DejaVuSansMono-73" x="9753.222656"/>
    <use xlink:href="#DejaVuSansMono-74" x="9813.427734"/>
    <use xlink:href="#DejaVuSansMono-65" x="9873.632812"/>
    <use xlink:href="#DejaVuSansMono-64" x="9933.837891"/>
    <use xlink:href="#DejaVuSansMono-20" x="9994.042969"/>
    <use xlink:href="#DejaVuSansMono-51" x="10054.248047"/>
    <use xlink:href="#DejaVuSansMono-6f" x="10114.453125"/>
    <use xlink:href="#DejaVuSansMono-53" x="10174.658203"/>
   </g>
  </g>
 </g>
 <defs>
  <clipPath id="p94ea95bff4">
   <rect x="37.348" y="30.381875" width="643.34" height="272.36"/>
  </clipPath>
 </defs>
</svg>
